<?xml version="1.0" encoding="UTF-8"?>
<svg version="1.1" xmlns="http://www.w3.org/2000/svg" width="60" height="60">
<path d="M0 0 C1.97226562 -0.00580078 1.97226562 -0.00580078 3.984375 -0.01171875 C4.66435547 -0.00543457 5.34433594 0.00084961 6.04492188 0.00732422 C8.11915892 0.02339225 10.19144796 0.00745018 12.265625 -0.01171875 C13.58046875 -0.00785156 14.8953125 -0.00398437 16.25 0 C18.04824219 0.00507568 18.04824219 0.00507568 19.8828125 0.01025391 C24.55082743 0.56915027 27.00293748 1.98122442 29.91259766 5.65625 C31.40535449 9.03253772 31.51302818 11.58556248 31.5234375 15.2734375 C31.52923828 17.24570312 31.52923828 17.24570312 31.53515625 19.2578125 C31.52887207 19.93779297 31.52258789 20.61777344 31.51611328 21.31835938 C31.50004525 23.39259642 31.51598732 25.46488546 31.53515625 27.5390625 C31.53128906 28.85390625 31.52742188 30.16875 31.5234375 31.5234375 C31.52005371 32.72226562 31.51666992 33.92109375 31.51318359 35.15625 C30.95428723 39.82426493 29.54221308 42.27637498 25.8671875 45.18603516 C22.49089978 46.67879199 19.93787502 46.78646568 16.25 46.796875 C14.27773438 46.80267578 14.27773438 46.80267578 12.265625 46.80859375 C11.58564453 46.80230957 10.90566406 46.79602539 10.20507812 46.78955078 C8.13084108 46.77348275 6.05855204 46.78942482 3.984375 46.80859375 C2.66953125 46.80472656 1.3546875 46.80085938 0 46.796875 C-1.19882812 46.79349121 -2.39765625 46.79010742 -3.6328125 46.78662109 C-8.30082743 46.22772473 -10.75293748 44.81565058 -13.66259766 41.140625 C-15.15535449 37.76433728 -15.26302818 35.21131252 -15.2734375 31.5234375 C-15.27730469 30.20859375 -15.28117188 28.89375 -15.28515625 27.5390625 C-15.27887207 26.85908203 -15.27258789 26.17910156 -15.26611328 25.47851562 C-15.25004525 23.40427858 -15.26598732 21.33198954 -15.28515625 19.2578125 C-15.28128906 17.94296875 -15.27742187 16.628125 -15.2734375 15.2734375 C-15.27005371 14.07460938 -15.26666992 12.87578125 -15.26318359 11.640625 C-14.70428723 6.97261007 -13.29221308 4.52050002 -9.6171875 1.61083984 C-6.24089978 0.11808301 -3.68787502 0.01040932 0 0 Z " fill="#1B1326" transform="translate(21.875,6.6015625)"/>
<path d="M0 0 C4.99472507 0.28541286 7.44211087 2.7730773 11 6 C11.65355469 5.01773437 12.30710937 4.03546875 12.98046875 3.0234375 C14.57743715 1.10707542 15.47740772 0.13528429 17.91259766 -0.49511719 C20.07254392 -0.58962436 22.15592794 -0.52532406 24.3125 -0.375 C25.05306641 -0.34792969 25.79363281 -0.32085938 26.55664062 -0.29296875 C28.37235998 -0.22268284 30.18656801 -0.11507089 32 0 C32.5625 1.9375 32.5625 1.9375 33 4 C31.03177114 5.96822886 27.65191291 5.66248381 25 6 C25.20625 6.94875 25.4125 7.8975 25.625 8.875 C25.74875 9.90625 25.8725 10.9375 26 12 C25.34 12.66 24.68 13.32 24 14 C26.64 14.33 29.28 14.66 32 15 C32.5625 16.9375 32.5625 16.9375 33 19 C32 20 32 20 28.62109375 20.09765625 C27.22652923 20.09098369 25.83198257 20.07902532 24.4375 20.0625 C23.72658203 20.05798828 23.01566406 20.05347656 22.28320312 20.04882812 C20.52209987 20.03700864 18.76103964 20.01907263 17 20 C16.41015625 18.16015625 16.41015625 18.16015625 16 16 C16.95093297 14.30485863 17.95107762 12.63631892 19 11 C19 10.01 19 9.02 19 8 C15.31197956 9.22934015 14.27643027 10.93859378 12 14 C8.90837736 12.61410019 7.50816459 11.50816459 5 9 C4.67 12.3 4.34 15.6 4 19 C2.68 19.33 1.36 19.66 0 20 C-1.5220959 18.4779041 -1.12959521 17.11789918 -1.1328125 15 C-1.13410156 14.195625 -1.13539062 13.39125 -1.13671875 12.5625 C-1.13285156 11.716875 -1.12898437 10.87125 -1.125 10 C-1.12886719 9.154375 -1.13273438 8.30875 -1.13671875 7.4375 C-1.13542969 6.633125 -1.13414063 5.82875 -1.1328125 5 C-1.13168457 4.2575 -1.13055664 3.515 -1.12939453 2.75 C-1 1 -1 1 0 0 Z " fill="#DE2670" transform="translate(14,20)"/>
<path d="M0 0 C3.69459731 0.19970796 4.78742451 0.76444338 7.3125 3.5625 C8.1478125 4.7690625 8.1478125 4.7690625 9 6 C8.34 6.66 7.68 7.32 7 8 C6.01 8 5.02 8 4 8 C4 11.63 4 15.26 4 19 C2.68 19.33 1.36 19.66 0 20 C-1.5220959 18.4779041 -1.12959521 17.11789918 -1.1328125 15 C-1.13410156 14.195625 -1.13539062 13.39125 -1.13671875 12.5625 C-1.13285156 11.716875 -1.12898437 10.87125 -1.125 10 C-1.12886719 9.154375 -1.13273438 8.30875 -1.13671875 7.4375 C-1.13542969 6.633125 -1.13414063 5.82875 -1.1328125 5 C-1.13168457 4.2575 -1.13055664 3.515 -1.12939453 2.75 C-1 1 -1 1 0 0 Z " fill="#AB13AD" transform="translate(14,20)"/>
<path d="M0 0 C0.5534764 2.07553648 1 3.84365964 1 6 C1.66 6.33 2.32 6.66 3 7 C0.19195732 9.96404505 -2.18315774 12.44499019 -6 14 C-7.65 12.02 -9.3 10.04 -11 8 C-9.9171875 7.6596875 -9.9171875 7.6596875 -8.8125 7.3125 C-5.45850839 5.74730392 -3.49514416 3.70307284 -1 1 C-0.67 0.67 -0.34 0.34 0 0 Z " fill="#CA2079" transform="translate(30,20)"/>
<path d="M0 0 C1.65 0 3.3 0 5 0 C5 2.64 5 5.28 5 8 C3.0625 8.5625 3.0625 8.5625 1 9 C0 8 0 8 -0.09765625 6.15234375 C-0.06510417 4.1015625 -0.03255208 2.05078125 0 0 Z " fill="#D42080" transform="translate(13,31)"/>
<path d="M0 0 C2.5 0.3125 2.5 0.3125 5 1 C5.33 1.66 5.66 2.32 6 3 C5.01 4.485 5.01 4.485 4 6 C1.375 6.1875 1.375 6.1875 -1 6 C-1.042721 4.33388095 -1.04063832 2.66617115 -1 1 C-0.67 0.67 -0.34 0.34 0 0 Z " fill="#8D0AC8" transform="translate(14,20)"/>
<path d="M0 0 C1.65 0 3.3 0 5 0 C5.5625 1.9375 5.5625 1.9375 6 4 C5 5 5 5 1.4375 5.0625 C0.303125 5.041875 -0.83125 5.02125 -2 5 C-1.34 3.35 -0.68 1.7 0 0 Z " fill="#E44048" transform="translate(41,35)"/>
<path d="M0 0 C0.66 0.33 1.32 0.66 2 1 C-0.625 5.875 -0.625 5.875 -4 7 C-4.99 5.68 -5.98 4.36 -7 3 C-6.21625 2.690625 -5.4325 2.38125 -4.625 2.0625 C-2.07669872 1.07124962 -2.07669872 1.07124962 0 0 Z " fill="#BF1A93" transform="translate(26,25)"/>
</svg>
