<?xml version="1.0" encoding="UTF-8"?>
<svg version="1.1" xmlns="http://www.w3.org/2000/svg" width="512" height="512">
<path d="M0 0 C5.29378973 0.49262512 9.92548896 2.33962616 14.828125 4.26171875 C15.70412857 4.5996344 16.58013214 4.93755005 17.48268127 5.28570557 C19.39570201 6.02427509 21.30773747 6.76540051 23.21890259 7.50875854 C28.50472971 9.56432546 33.79801795 11.60056303 39.08984375 13.640625 C40.21319626 14.07434921 41.33654877 14.50807343 42.49394226 14.9549408 C55.5792914 20.00403744 68.69565256 24.97094308 81.8125 29.9375 C85.09907068 31.18241773 88.3855294 32.4275416 91.67007446 33.67779541 C93.99506863 34.5548229 96.32541519 35.41776038 98.6602478 36.26824951 C105.48633709 38.77159573 112.13412748 41.48372242 118.7304163 44.54750061 C153.82296406 60.73800218 185.7752572 63.10237971 223.67543048 62.61243576 C228.9721928 62.55317636 234.26072538 62.59916576 239.55664062 62.70336914 C281.43484812 63.50720971 314.26040147 58.16618006 352.64151001 40.8026886 C362.10455352 36.5595227 371.83423253 33.00343881 381.55645752 29.4060173 C386.58190405 27.53907882 391.59101997 25.62915431 396.6015625 23.72265625 C397.72314758 23.29695343 398.84473267 22.87125061 400.00030518 22.43264771 C406.51444528 19.95473126 413.01876693 17.45219037 419.51885986 14.93766785 C424.17832495 13.13626394 428.84085287 11.34286748 433.50366211 9.55014038 C435.73552236 8.68943412 437.96585775 7.82476244 440.19458008 6.95596313 C443.26924301 5.75764268 446.34876538 4.57274081 449.4296875 3.390625 C450.34382416 3.03024643 451.25796082 2.66986786 452.19979858 2.29856873 C453.04120392 1.97864456 453.88260925 1.6587204 454.74951172 1.32910156 C455.47806366 1.04665588 456.2066156 0.76421021 456.95724487 0.47320557 C459.52450847 -0.12150273 460.64325116 -0.24142492 463 1 C464.11334589 3.26946303 464.90375089 5.29698706 465.65722656 7.68774414 C465.89189636 8.38705048 466.12656616 9.08635681 466.36834717 9.80685425 C467.14229283 12.12784997 467.89186518 14.45592452 468.640625 16.78515625 C469.17188889 18.40160365 469.70427366 20.01768305 470.23773193 21.63340759 C471.3542333 25.0272563 472.45911515 28.42460492 473.55566406 31.82495117 C474.95756505 36.17007417 476.38433722 40.50651015 477.81961441 44.84070683 C478.92329599 48.18107155 480.01514998 51.52520897 481.10338593 54.87063408 C481.62483805 56.46996745 482.14952201 58.068251 482.6775589 59.66542244 C483.41691031 61.90883357 484.14056555 64.15674096 484.86035156 66.40649414 C485.07848511 67.0587648 485.29661865 67.71103546 485.5213623 68.3830719 C487.85226756 75.79534583 487.18759886 82.09621876 485.62304688 89.62182617 C485.47674332 90.33672714 485.33043976 91.05162811 485.17970276 91.78819275 C484.69985592 94.12465543 484.20920253 96.4587117 483.71875 98.79296875 C483.38161981 100.42848484 483.04532968 102.0641743 482.70983887 103.70002747 C481.82865823 107.98855213 480.9389664 112.27525917 480.04656982 116.5614624 C478.61675805 123.43110524 477.19556639 130.30250017 475.7827301 137.17565346 C475.28854515 139.57012163 474.7880241 141.96320452 474.2869873 144.35624695 C473.98339158 145.82623196 473.68003407 147.29626619 473.37695312 148.76635742 C473.11047974 150.04572678 472.84400635 151.32509613 472.56945801 152.64323425 C472.07646376 155.54927154 471.7176473 158.07026103 472 161 C473.95179574 163.04789791 473.95179574 163.04789791 476.5 164.6875 C478.02875669 165.75149578 479.5368349 166.84746717 481 168 C481 168.66 481 169.32 481 170 C478.9102773 171.79539556 476.82157918 173.47061442 474.625 175.125 C473.72007812 175.82689453 473.72007812 175.82689453 472.796875 176.54296875 C468.26141126 180 468.26141126 180 466 180 C469.49359465 183.59634744 473.11098131 186.83451967 477 190 C475.40153531 194.24908336 472.1869608 196.82225739 468.875 199.75 C468.31167969 200.25660156 467.74835938 200.76320312 467.16796875 201.28515625 C465.78348469 202.52884532 464.39238512 203.76516305 463 205 C465.57784846 207.64752004 467.91648098 209.94432065 471 212 C469.46549501 217.13468978 466.25266948 220.47269708 462.75 224.375 C461.05765683 226.28909848 459.36598681 228.20336517 457.68554688 230.12792969 C456.56438429 231.37316067 455.40318767 232.58349933 454.20507812 233.75488281 C453.64755859 234.32303711 453.09003906 234.89119141 452.515625 235.4765625 C452.00805664 235.96463379 451.50048828 236.45270508 450.97753906 236.95556641 C447.60441493 244.01014719 453.28308834 254.75350009 455.55859375 261.75 C456.02710726 263.20869323 456.49495278 264.66760115 456.96217346 266.12670898 C458.19667347 269.9764292 459.43939315 273.8234444 460.68414307 277.66986084 C461.91022175 281.46213223 463.12994671 285.25644242 464.34960938 289.05078125 C464.7085752 290.16712196 464.7085752 290.16712196 465.07479286 291.30601501 C467.00077591 297.29655014 468.92405444 303.28795241 470.84404564 309.28041077 C472.05245868 313.05108634 473.26439061 316.82056645 474.48321533 320.58789062 C475.68155604 324.29311738 476.8698224 328.00143816 478.05113411 331.71212769 C478.49322692 333.09489594 478.9388306 334.47654741 479.3882122 335.85696411 C480.00790541 337.76227771 480.61374316 339.67208077 481.21899414 341.58203125 C481.56434708 342.65686768 481.90970001 343.7317041 482.26551819 344.83911133 C483.68044064 350.92831911 482.98757856 355.9165979 481.23095703 361.84863281 C480.94781395 362.81922134 480.94781395 362.81922134 480.65895081 363.80941772 C480.03407315 365.9433657 479.39596198 368.07311203 478.7578125 370.203125 C478.31007937 371.72327681 477.86322904 373.24368888 477.41720581 374.76434326 C476.23572979 378.78436842 475.04323181 382.80103812 473.8480835 386.8170166 C472.67416957 390.76692434 471.50889954 394.71937465 470.34375 398.671875 C469.88149539 400.23995111 469.41923546 401.80802566 468.95697021 403.37609863 C468.72821953 404.15211929 468.49946884 404.92813995 468.26378632 405.72767639 C467.57077075 408.07657182 466.87613257 410.42498256 466.18121338 412.77331543 C462.39230492 425.59058475 458.70979949 438.4370905 455.07766724 451.29962158 C454.87720417 452.00684105 454.6767411 452.71406052 454.4702034 453.44271088 C453.93027377 455.3477523 453.39253299 457.25341371 452.85494995 459.15911865 C452 462 452 462 451 464 C446.23243857 463.39867698 441.73032973 462.48550353 437.10375977 461.19335938 C436.45188187 461.01259857 435.80000397 460.83183777 435.12837219 460.64559937 C432.98152792 460.04916266 430.83648472 459.44650357 428.69140625 458.84375 C427.1639172 458.41796195 425.63632193 457.99255482 424.10862732 457.56750488 C420.07402457 456.44381044 416.0409291 455.31479615 412.00811768 454.18469238 C408.02781867 453.07033979 404.04605422 451.96125164 400.06445312 450.8515625 C396.91918537 449.97426449 393.77403378 449.0965506 390.62890625 448.21875 C389.85326954 448.00234863 389.07763283 447.78594727 388.27849197 447.56298828 C380.50868956 445.39435048 372.74141254 443.21808529 364.9871645 440.99437714 C362.01697065 440.14268576 359.04557063 439.29524283 356.07417107 438.44776917 C354.01681843 437.85863328 351.96161784 437.26238225 349.90638733 436.66589355 C348.67262863 436.31401978 347.43886993 435.962146 346.16772461 435.59960938 C345.09235947 435.28938843 344.01699432 434.97916748 342.90904236 434.6595459 C340.11671935 434.02646292 337.84653609 433.73287053 335 434 C332.47720329 435.80534658 332.47720329 435.80534658 330.0625 438.3125 C329.08822348 439.24335333 328.1101927 440.17028936 327.12890625 441.09375 C326.36151123 441.81691406 326.36151123 441.81691406 325.57861328 442.5546875 C317.28303383 450.14977416 307.94849458 456.70510464 298.54057312 462.83305359 C294.42357023 465.53482441 290.62155166 468.24064075 287.06030273 471.6496582 C272.26057342 485.06867538 255.45935479 484.23052203 236.57495117 483.93505859 C232.09250356 483.86657464 227.62389593 483.93457631 223.14255619 484.03744888 C201.6427586 484.46091586 186.77587007 483.10586625 170.26115417 467.99482727 C166.64872685 464.80788468 162.67749305 462.18535322 158.6875 459.5 C151.40344502 454.37408255 144.38954037 449.01117897 137.71875 443.1015625 C137.14415039 442.59890869 136.56955078 442.09625488 135.97753906 441.57836914 C134.85528656 440.5936227 133.74202524 439.59849941 132.63964844 438.59155273 C129.06745913 435.4600228 126.71326406 434.31186575 122 434 C118.92949312 434.49505186 115.98753198 435.34130455 113.00390625 436.2097168 C112.11843613 436.45673843 111.232966 436.70376007 110.32066345 436.95826721 C107.39782378 437.77682992 104.48030434 438.61290153 101.5625 439.44921875 C99.51983436 440.02506819 97.47686026 440.59982446 95.43359375 441.17353821 C90.05017229 442.68831137 84.67109845 444.21799576 79.29278564 445.75079346 C73.86310856 447.29538658 68.42943478 448.82577775 62.99609375 450.35742188 C55.00567251 452.61188487 47.01720617 454.87308213 39.03125 457.14331055 C38.15286972 457.39239009 37.27448944 457.64146963 36.36949158 457.89809704 C32.47286361 459.00445203 28.57956093 460.11933467 24.6953125 461.26846313 C23.44492187 461.63595673 22.19453125 462.00345032 20.90625 462.38208008 C19.31780273 462.85621086 19.31780273 462.85621086 17.69726562 463.33992004 C15 464 15 464 11 464 C4.80504431 444.28553068 -0.94144827 424.45840192 -6.58740234 404.5814209 C-7.69952396 400.66830175 -8.81473513 396.75606334 -9.9296875 392.84375 C-11.18825012 388.42670626 -12.44652212 384.00958117 -13.70269775 379.59185791 C-13.89204769 378.92689175 -14.08139763 378.26192558 -14.27648544 377.57680893 C-14.8270598 375.63725353 -15.37213789 373.69614063 -15.91711426 371.75500488 C-16.64400297 369.2344521 -17.40659344 366.72394434 -18.20300293 364.2244873 C-22.34589601 350.96696324 -19.39864382 342.27495488 -15.1875 329.390625 C-14.69403274 327.85895838 -14.20137394 326.32703109 -13.70947266 324.79486084 C-12.41175838 320.75944843 -11.10411695 316.72732521 -9.79400635 312.69592285 C-8.49682886 308.69998999 -7.20734362 304.70158108 -5.91796875 300.703125 C-5.53949043 299.52968662 -5.53949043 299.52968662 -5.15336609 298.33254242 C-4.3937156 295.97696614 -3.6343135 293.62130993 -2.875 291.265625 C-2.6258786 290.49289749 -2.3767572 289.72016998 -2.12008667 288.92402649 C-0.40964727 283.61721713 1.29729067 278.30929474 3 273 C3.23303833 272.27352264 3.46607666 271.54704529 3.70617676 270.79855347 C5.03149752 266.66229257 6.34805703 262.52341887 7.65179443 258.38030243 C8.23337707 256.53705901 8.82191009 254.6960131 9.41064453 252.8550415 C9.75466309 251.75528992 10.09868164 250.65553833 10.453125 249.52246094 C10.90413574 248.09495514 10.90413574 248.09495514 11.36425781 246.63861084 C12.01383048 243.94259741 12.25503355 241.75968166 12 239 C10.12869102 236.37487729 10.12869102 236.37487729 7.5625 233.875 C6.65628906 232.92109375 5.75007813 231.9671875 4.81640625 230.984375 C4.3486377 230.49388672 3.88086914 230.00339844 3.39892578 229.49804688 C1.17400302 227.11547688 -0.91681477 224.63159686 -3 222.125 C-3.721875 221.26132813 -4.44375 220.39765625 -5.1875 219.5078125 C-6.95712056 217.05932888 -8.0209637 214.84532424 -9 212 C-6.36 210.02 -3.72 208.04 -1 206 C-5.27293882 200.76564995 -9.81580806 196.32893185 -15 192 C-13.58214152 188.57041562 -11.96809658 186.97606696 -8.9375 184.875 C-5.95372478 182.88925353 -5.95372478 182.88925353 -4 180 C-4.54140625 179.75507813 -5.0828125 179.51015625 -5.640625 179.2578125 C-8.55061143 177.70646212 -11.0974196 175.83285696 -13.75 173.875 C-14.73484375 173.15054688 -15.7196875 172.42609375 -16.734375 171.6796875 C-17.85585938 170.84824219 -17.85585938 170.84824219 -19 170 C-17.06385277 165.423652 -14.00123342 163.66748895 -10 161 C-10.52780236 152.99640645 -12.05122817 145.24327534 -13.69847298 137.40870285 C-14.17009283 135.1636361 -14.63468748 132.91721261 -15.09751892 130.6703186 C-16.41317181 124.28958911 -17.74142339 117.91150144 -19.07348633 111.53417969 C-19.8917722 107.61420624 -20.70231643 103.69269294 -21.50839043 99.77019119 C-21.81513795 98.28572671 -22.12489427 96.80188043 -22.43782234 95.31870651 C-24.76350573 84.2948559 -26.08936323 75.90656176 -22.2890625 65.12109375 C-22.00507095 64.28308228 -21.72107941 63.4450708 -21.42848206 62.58166504 C-20.50486992 59.86309084 -19.56498772 57.15045035 -18.625 54.4375 C-17.66178149 51.61575249 -16.70273954 48.79260732 -15.74388123 45.96937561 C-15.09893208 44.07138649 -14.45257703 42.17387453 -13.80482483 40.27684021 C-10.595834 30.86639071 -7.55228261 21.4053479 -4.55084229 11.92697144 C-3.96718136 10.0846996 -3.38017522 8.24348855 -2.79296875 6.40234375 C-2.4683667 5.37616943 -2.14376465 4.34999512 -1.80932617 3.29272461 C-1 1 -1 1 0 0 Z " fill="#F4831F" transform="translate(25,15)"/>
<path d="M0 0 C2.67127735 1.33563868 2.85041473 2.94884889 3.77191162 5.66822815 C3.98913879 6.33466843 4.20636597 7.0011087 4.43017578 7.68774414 C4.7817424 8.73670364 4.7817424 8.73670364 5.14041138 9.80685425 C5.91660942 12.13041122 6.6814357 14.45752188 7.4453125 16.78515625 C7.98022259 18.4013451 8.51545444 20.0174275 9.05099487 21.63340759 C10.17412534 25.02889967 11.29130424 28.42628313 12.40478516 31.82495117 C13.82851184 36.16803662 15.26974643 40.50507589 16.71599007 44.84070683 C17.82754055 48.18127797 18.92805565 51.52540816 20.02550888 54.87063408 C20.55203092 56.47014759 21.08229204 58.0684355 21.61642838 59.66542244 C22.36528172 61.90886873 23.09869788 64.15682642 23.82861328 66.40649414 C24.16052673 67.38490013 24.16052673 67.38490013 24.49914551 68.3830719 C26.86399118 75.79407827 26.18883719 82.09026233 24.62304688 89.62182617 C24.40359154 90.69417763 24.40359154 90.69417763 24.17970276 91.78819275 C23.69985592 94.12465543 23.20920253 96.4587117 22.71875 98.79296875 C22.38161981 100.42848484 22.04532968 102.0641743 21.70983887 103.70002747 C20.82865823 107.98855213 19.9389664 112.27525917 19.04656982 116.5614624 C17.61675805 123.43110524 16.19556639 130.30250017 14.7827301 137.17565346 C14.28854515 139.57012163 13.7880241 141.96320452 13.2869873 144.35624695 C12.98339158 145.82623196 12.68003407 147.29626619 12.37695312 148.76635742 C12.11047974 150.04572678 11.84400635 151.32509613 11.56945801 152.64323425 C11.07646376 155.54927154 10.7176473 158.07026103 11 161 C12.95179574 163.04789791 12.95179574 163.04789791 15.5 164.6875 C17.02875669 165.75149578 18.5368349 166.84746717 20 168 C20 168.66 20 169.32 20 170 C17.9102773 171.79539556 15.82157918 173.47061442 13.625 175.125 C13.02171875 175.59292969 12.4184375 176.06085938 11.796875 176.54296875 C7.26141126 180 7.26141126 180 5 180 C8.49359465 183.59634744 12.11098131 186.83451967 16 190 C14.40153531 194.24908336 11.1869608 196.82225739 7.875 199.75 C7.31167969 200.25660156 6.74835938 200.76320312 6.16796875 201.28515625 C4.78348469 202.52884532 3.39238512 203.76516305 2 205 C4.57784846 207.64752004 6.91648098 209.94432065 10 212 C8.47049145 217.10485657 5.30384878 220.38012426 1.8125 224.25 C0.63628442 225.57789104 -0.53820463 226.90731345 -1.7109375 228.23828125 C-2.27651367 228.87975098 -2.84208984 229.5212207 -3.42480469 230.18212891 C-6.44209242 233.66426227 -9.24761281 237.30679682 -12 241 C-20.54784309 239.06984188 -28.8789797 236.54911166 -37.24829102 233.97045898 C-45.64089369 231.39307748 -54.0647756 228.93297746 -62.5 226.5 C-72.75399552 223.5403386 -83.00032961 220.56002966 -93.18554688 217.36962891 C-97.32438692 216.07866242 -101.43263463 214.8638272 -105.6640625 213.9140625 C-116.63064681 211.362197 -123.16199588 206.48566022 -131.20019531 198.7109375 C-134.05241962 195.99954467 -137.05677962 193.4758317 -140.0625 190.9375 C-141.22201848 189.94608893 -142.38087465 188.95390272 -143.5390625 187.9609375 C-144.6926619 186.97390406 -145.84630768 185.98692483 -147 185 C-154.8109445 178.31813613 -162.60897373 171.62246395 -170.36572266 164.87768555 C-173.55744123 162.1050942 -176.76096186 159.34829963 -179.98828125 156.6171875 C-180.63023437 156.07255859 -181.2721875 155.52792969 -181.93359375 154.96679688 C-183.15615538 153.93105079 -184.38128883 152.89833023 -185.609375 151.86914062 C-188.17470814 149.69313451 -190.12010825 147.81983763 -192 145 C-184.79208356 138.87732041 -177.30787422 133.22556143 -169.67651367 127.64794922 C-163.56103597 123.17083242 -157.51682034 118.60868751 -151.5 114 C-144.82166939 108.88639457 -138.10139773 103.84084941 -131.3125 98.875 C-125.12743929 94.3488463 -119.03095953 89.72949347 -113 85 C-106.19759567 79.6655376 -99.29340214 74.49406186 -92.31640625 69.390625 C-86.32248912 64.99768899 -80.40037351 60.51763451 -74.5 56 C-67.7155806 50.80635385 -60.89058597 45.67698879 -54 40.625 C-47.23384268 35.66278464 -40.55036905 30.61604665 -33.91601562 25.47851562 C-22.72245376 16.8408741 -11.51928785 8.20108549 0 0 Z " fill="#9A5122" transform="translate(486,15)"/>
<path d="M0 0 C6.02568118 3.90114092 11.75448047 8.03854119 17.375 12.5 C23.61102729 17.4009923 29.90990029 22.19375935 36.3125 26.875 C44.00220895 32.4992192 51.59254863 38.24252115 59.15673828 44.03417969 C64.95338451 48.46382366 70.79930274 52.81798257 76.6875 57.125 C83.63845489 62.21162593 90.46032026 67.43997185 97.23779297 72.75488281 C103.30043232 77.49358851 109.47328137 82.06674123 115.68359375 86.609375 C122.57723117 91.66171513 129.37084596 96.83843857 136.15673828 102.03417969 C141.95338573 106.46382459 147.79933675 110.81793448 153.6875 115.125 C160.78421088 120.31910346 167.75953344 125.64984691 174.68383789 131.07128906 C180.72614535 135.80116971 186.83527362 140.43084986 193 145 C189.16598925 149.70875239 185.16992028 153.81371029 180.5 157.6875 C179.26029215 158.73292528 178.02071243 159.77850252 176.78125 160.82421875 C175.83958984 161.6138501 175.83958984 161.6138501 174.87890625 162.41943359 C171.90073928 164.92471594 168.95138889 167.46328624 166 170 C164.83348285 171.00017441 163.66681586 172.00017409 162.5 173 C161.9225 173.495 161.345 173.99 160.75 174.5 C159 176 157.25 177.5 155.5 179 C154.9222583 179.4952417 154.3445166 179.9904834 153.74926758 180.50073242 C152.58518023 181.49845195 151.42095544 182.49601114 150.2565918 183.4934082 C147.29930113 186.02698743 144.34461631 188.56350137 141.39453125 191.10546875 C138.48014781 193.61617604 135.555012 196.1139199 132.62548828 198.60693359 C131.08190538 199.92980593 129.55413773 201.27106683 128.02734375 202.61328125 C127.11082031 203.40089844 126.19429687 204.18851563 125.25 205 C124.47140625 205.680625 123.6928125 206.36125 122.890625 207.0625 C115.55762032 211.97759503 106.81057186 214.04287845 98.375 216.3125 C96.16896365 216.91815305 93.96324243 217.52495492 91.7578125 218.1328125 C90.64051758 218.43993164 89.52322266 218.74705078 88.37207031 219.06347656 C73.357008 223.23360247 58.38990963 227.63777544 43.5625 232.43359375 C33.45314393 235.68909706 23.34086975 238.57524433 13 241 C12.48953125 240.36835938 11.9790625 239.73671875 11.453125 239.0859375 C7.94524464 234.76950315 4.43408496 230.47383815 0.765625 226.29296875 C-0.04696777 225.36315186 -0.04696777 225.36315186 -0.87597656 224.41455078 C-1.94494807 223.19548616 -3.019691 221.98145439 -4.10058594 220.77294922 C-6.75266474 217.74187812 -8.00253641 215.98985436 -9 212 C-6.36 210.02 -3.72 208.04 -1 206 C-5.27293882 200.76564995 -9.81580806 196.32893185 -15 192 C-13.58214152 188.57041562 -11.96809658 186.97606696 -8.9375 184.875 C-5.95372478 182.88925353 -5.95372478 182.88925353 -4 180 C-4.54140625 179.75507813 -5.0828125 179.51015625 -5.640625 179.2578125 C-8.55061143 177.70646212 -11.0974196 175.83285696 -13.75 173.875 C-14.73484375 173.15054688 -15.7196875 172.42609375 -16.734375 171.6796875 C-17.85585938 170.84824219 -17.85585938 170.84824219 -19 170 C-17.06385277 165.423652 -14.00123342 163.66748895 -10 161 C-10.52780236 152.99640645 -12.05122817 145.24327534 -13.69847298 137.40870285 C-14.17009283 135.1636361 -14.63468748 132.91721261 -15.09751892 130.6703186 C-16.41317181 124.28958911 -17.74142339 117.91150144 -19.07348633 111.53417969 C-19.8917722 107.61420624 -20.70231643 103.69269294 -21.50839043 99.77019119 C-21.81513795 98.28572671 -22.12489427 96.80188043 -22.43782234 95.31870651 C-24.76350573 84.2948559 -26.08936323 75.90656176 -22.2890625 65.12109375 C-22.00507095 64.28308228 -21.72107941 63.4450708 -21.42848206 62.58166504 C-20.50486992 59.86309084 -19.56498772 57.15045035 -18.625 54.4375 C-17.66178149 51.61575249 -16.70273954 48.79260732 -15.74388123 45.96937561 C-15.09893208 44.07138649 -14.45257703 42.17387453 -13.80482483 40.27684021 C-10.595834 30.86639071 -7.55228261 21.4053479 -4.55084229 11.92697144 C-3.96718136 10.0846996 -3.38017522 8.24348855 -2.79296875 6.40234375 C-2.4683667 5.37616943 -2.14376465 4.34999512 -1.80932617 3.29272461 C-1 1 -1 1 0 0 Z " fill="#9A5122" transform="translate(25,15)"/>
<path d="M0 0 C6.53218243 0.01045265 13.06436913 0.01484329 19.59655762 0.01983643 C32.28602107 0.03038323 44.97546767 0.0471125 57.66491699 0.06866455 C57.01975362 5.52655135 55.78668005 10.6022053 54.24401855 15.87115479 C53.99831116 16.72429764 53.75260376 17.57744049 53.49945068 18.45643616 C52.68937824 21.26471884 51.87257122 24.07099245 51.05554199 26.8772583 C50.48565992 28.84664079 49.91614699 30.81613014 49.34698486 32.78572083 C48.15278351 36.91464951 46.95548877 41.04266358 45.7557373 45.16998291 C44.23067677 50.41659962 42.71113793 55.66479356 41.19369888 60.91361904 C40.01633755 64.98512209 38.83704592 69.05606392 37.65709686 73.1268177 C37.09709243 75.05888316 36.53741606 76.99104373 35.97809601 78.92330742 C32.66895746 90.34731976 29.26812962 101.73375128 25.66491699 113.06866455 C20.89735556 112.46734153 16.39524672 111.55416808 11.76867676 110.26202393 C11.11679886 110.08126312 10.46492096 109.90050232 9.79328918 109.71426392 C7.64644492 109.11782721 5.50140172 108.51516812 3.35632324 107.91241455 C1.82883419 107.4866265 0.30123892 107.06121937 -1.22645569 106.63616943 C-5.26105843 105.51247499 -9.29415391 104.3834607 -13.32696533 103.25335693 C-17.30726434 102.13900434 -21.28902878 101.02991619 -25.27062988 99.92022705 C-28.41589764 99.04292904 -31.56104923 98.16521515 -34.70617676 97.28741455 C-35.48181347 97.07101318 -36.25745018 96.85461182 -37.05659103 96.63165283 C-44.82639344 94.46301503 -52.59367047 92.28674984 -60.34791851 90.06304169 C-63.31811236 89.21135032 -66.28951238 88.36390738 -69.26091194 87.51643372 C-71.31826457 86.92729783 -73.37346517 86.33104681 -75.42869568 85.73455811 C-76.66245438 85.38268433 -77.89621307 85.03081055 -79.1673584 84.66827393 C-80.24272354 84.35805298 -81.31808868 84.04783203 -82.42604065 83.72821045 C-85.21836366 83.09512748 -87.48854692 82.80153508 -90.33508301 83.06866455 C-92.85787972 84.87401113 -92.85787972 84.87401113 -95.27258301 87.38116455 C-96.24685952 88.31201788 -97.22489031 89.23895391 -98.20617676 90.16241455 C-98.71777344 90.64452393 -99.22937012 91.1266333 -99.75646973 91.62335205 C-108.05204918 99.21843872 -117.38658843 105.77376919 -126.79450989 111.90171814 C-130.91151278 114.60348896 -134.71353135 117.3093053 -138.27478027 120.71832275 C-153.07450959 134.13733993 -169.87572822 133.29918659 -188.76013184 133.00372314 C-193.24257945 132.93523919 -197.71118707 133.00324086 -202.19252682 133.10611343 C-223.69232441 133.52958041 -238.55921293 132.1745308 -255.07392883 117.06349182 C-258.68635615 113.87654924 -262.65758995 111.25401777 -266.64758301 108.56866455 C-272.73092197 104.28771205 -278.63074738 99.84772999 -284.33508301 95.06866455 C-284.87181641 94.62071533 -285.4085498 94.17276611 -285.96154785 93.71124268 C-296.85107034 84.61297867 -296.85107034 84.61297867 -300.33508301 81.06866455 C-289.44489846 75.21058395 -278.46683136 69.62338115 -267.28527832 64.34161377 C-258.74221405 60.29648287 -250.29581239 56.07034382 -241.87536621 51.77618408 C-240.91718994 51.29133545 -239.95901367 50.80648682 -238.97180176 50.3069458 C-238.1231958 49.87422363 -237.27458984 49.44150146 -236.40026855 48.9956665 C-234.33508301 48.06866455 -234.33508301 48.06866455 -232.33508301 48.06866455 C-232.04356254 57.23333912 -233.17361071 66.12794455 -234.33508301 75.19366455 C-234.52835132 76.7378654 -234.721064 78.2821359 -234.91320801 79.82647705 C-235.38076728 83.57470623 -235.85582524 87.32191396 -236.33508301 91.06866455 C-235.57349632 90.33768303 -235.57349632 90.33768303 -234.79652405 89.5919342 C-231.53013313 87.57051907 -228.67493211 87.65520134 -224.95202637 87.6963501 C-224.21498978 87.69269943 -223.47795319 87.68904877 -222.71858215 87.68528748 C-220.28712789 87.67719433 -217.85634258 87.69078005 -215.42492676 87.7053833 C-213.73389181 87.705902 -212.04285625 87.70538391 -210.3518219 87.70387268 C-206.81026186 87.70396235 -203.26892974 87.71438089 -199.72741699 87.73248291 C-195.18542656 87.75518726 -190.6437686 87.75571044 -186.10173702 87.74896526 C-182.61105895 87.74562596 -179.12045684 87.75225435 -175.62979317 87.7620945 C-173.95483358 87.76594615 -172.27986554 87.76709486 -170.60490227 87.76550865 C-168.26601898 87.76513828 -165.92756412 87.77774931 -163.58874512 87.79400635 C-162.895159 87.79152893 -162.20157288 87.78905151 -161.48696899 87.78649902 C-157.87264943 87.8266464 -156.43489994 88.00211993 -153.33508301 90.06866455 C-152.87313689 82.76307219 -153.70272832 75.77637398 -154.77258301 68.56866455 C-154.90124756 67.64762939 -155.02991211 66.72659424 -155.16247559 65.77764893 C-155.70003536 61.99203579 -156.26891966 58.32831893 -157.21398926 54.6194458 C-157.88046983 51.68106289 -158.19035627 49.96493082 -157.33508301 47.06866455 C-154.02558036 43.55790836 -150.29156275 41.03403195 -146.27600098 38.3928833 C-143.00129411 36.1586682 -139.96583773 33.63736058 -136.89758301 31.13116455 C-135.62911939 30.11030529 -134.35958636 29.09077342 -133.08898926 28.0725708 C-132.46395508 27.57128662 -131.8389209 27.07000244 -131.19494629 26.55352783 C-127.69232795 23.75713445 -124.16098017 20.99741142 -120.63122559 18.2354126 C-117.47045658 15.75827162 -114.32475638 13.26392609 -111.19445801 10.74835205 C-110.50867676 10.19727783 -109.82289551 9.64620361 -109.11633301 9.07843018 C-107.78687385 8.00847122 -106.45869614 6.93691758 -105.13195801 5.86358643 C-100.00861329 1.73951476 -97.26632221 0.89807076 -90.81433105 0.75445557 C-90.02505281 0.73379721 -89.23577457 0.71313885 -88.42257881 0.69185448 C-85.75159585 0.62494277 -83.08051984 0.56678654 -80.40930176 0.5100708 C-79.47369604 0.48901339 -78.53809032 0.46795597 -77.57413292 0.44626045 C-51.71890035 -0.12366425 -25.85995572 -0.04595522 0 0 Z " fill="#E17625" transform="translate(450.3350830078125,365.93133544921875)"/>
<path d="M0 0 C15.44999976 -0.02363501 30.89999812 -0.0411262 46.35001183 -0.05181217 C53.52794386 -0.05691149 60.70586432 -0.06387124 67.88378906 -0.07543945 C85.14297198 -0.10241582 102.40149535 -0.09882827 119.66057205 -0.01586533 C121.79969373 -0.00570255 123.93882114 0.00334983 126.07795334 0.01098251 C131.1723858 0.0301156 136.2652106 0.06976268 141.35889053 0.16130257 C143.3939315 0.19380558 145.42928983 0.20418368 147.46456909 0.21348572 C154.46817774 0.38561241 159.49562068 1.14727197 164.8125 5.9375 C166.63331595 7.89201803 168.29695632 9.93772054 170 12 C172.08231675 13.69719439 174.1444035 15.30158509 176.3125 16.875 C181.30057337 20.63974099 186.16329242 24.54327008 191 28.5 C196.0535544 32.62130996 201.11491104 36.73046485 206.25 40.75 C207.26578125 41.54921875 208.2815625 42.3484375 209.328125 43.171875 C211.79184603 44.85757886 213.09700662 45.65984631 216 46 C216.96824707 45.21077148 217.93649414 44.42154297 218.93408203 43.60839844 C224.09011282 39.6598758 229.80258868 40.24565342 236.0546875 40.265625 C237.93886887 40.25133453 237.93886887 40.25133453 239.8611145 40.23675537 C242.51295799 40.22461163 245.16238329 40.22301286 247.81396484 40.23828125 C251.18940698 40.25554538 254.56173189 40.21844764 257.93671989 40.16601944 C261.1843709 40.12471874 264.43182883 40.13558105 267.6796875 40.140625 C268.87995575 40.12018127 270.080224 40.09973755 271.31686401 40.07867432 C278.55779 40.17800291 282.80565467 41.36999327 288.37785339 46.06752014 C291.2325437 49.46834192 291.37254526 52.88446486 291.4375 57.1875 C291.53475664 58.88038358 291.6350128 60.57309752 291.73828125 62.265625 C291.77646973 63.07966797 291.8146582 63.89371094 291.85400391 64.73242188 C292.04421951 67.6868073 292.55296293 70.53508371 293.125 73.4375 C294.18779675 79.30779142 294.18985517 85.05120475 294 91 C293.23792236 90.51300629 293.23792236 90.51300629 292.46044922 90.01617432 C289.18187874 88.662113 286.12119558 88.72074315 282.6328125 88.74121094 C281.52966705 88.73595398 281.52966705 88.73595398 280.40423584 88.73059082 C277.97772735 88.72180164 275.55151136 88.72761263 273.125 88.734375 C271.43636011 88.73302754 269.7477206 88.73108633 268.05908203 88.72857666 C264.52177229 88.72562921 260.98456361 88.72991084 257.44726562 88.73925781 C252.91435704 88.75065214 248.3816853 88.74409064 243.8487854 88.73211288 C240.36236793 88.72488404 236.87600656 88.72718692 233.3895874 88.73236847 C231.71824109 88.73370213 230.04688967 88.73206717 228.37554932 88.72740936 C226.03929155 88.7223273 223.70341676 88.73007781 221.3671875 88.74121094 C220.33220123 88.73513824 220.33220123 88.73513824 219.27630615 88.72894287 C215.68083855 88.76066592 213.06150783 89.04359163 210 91 C210.63973127 76.59501647 212.32991648 62.3158994 214 48 C213.47034134 48.26593964 212.94068268 48.53187927 212.39497375 48.80587769 C206.7646903 51.63228306 201.13287198 54.45561342 195.50024414 57.27734375 C193.41230244 58.3237932 191.32472338 59.3709666 189.23754883 60.41894531 C178.3566057 65.88169777 167.46078466 71.30952958 156.48046875 76.5703125 C155.63986404 76.97530975 154.79925934 77.38030701 153.93318176 77.7975769 C144.17490256 82.4412029 134.19502171 85.45542438 123.8125 88.3515625 C122.30867071 88.77381361 120.80492907 89.19637697 119.30126953 89.61923218 C115.33604055 90.73343658 111.36966251 91.84349411 107.40301514 92.95263672 C103.48805162 94.04804293 99.574129 95.14715371 95.66015625 96.24609375 C91.02580068 97.54724113 86.39120733 98.84750816 81.75537109 100.14337158 C74.8302075 102.07974832 67.90697379 104.02186531 60.99291992 105.99760628 C58.01483646 106.84860608 55.03577299 107.69614805 52.05670166 108.5436821 C50.65702746 108.94310635 49.25788524 109.34440009 47.85931396 109.74766922 C45.93748824 110.30174915 44.01370943 110.84904133 42.08984375 111.39599609 C41.00566162 111.70701263 39.92147949 112.01802917 38.80444336 112.33847046 C36 113 36 113 32 113 C25.80504431 93.28553068 20.05855173 73.45840192 14.41259766 53.5814209 C13.30047604 49.66830175 12.18526487 45.75606334 11.0703125 41.84375 C9.81174988 37.42670626 8.55347788 33.00958117 7.29730225 28.59185791 C7.10803288 27.92640835 6.9187635 27.26095879 6.7237587 26.57534409 C6.17466467 24.64328043 5.6268087 22.71086505 5.07897949 20.77844238 C4.33898741 18.18708872 3.59154611 15.59916312 2.83215332 13.0135498 C2.46505249 11.75578735 2.09795166 10.4980249 1.71972656 9.20214844 C1.38894104 8.07983826 1.05815552 6.95752808 0.71734619 5.8012085 C0 3 0 3 0 0 Z " fill="#E17525" transform="translate(4,366)"/>
<path d="M0 0 C-0.57105469 0.85078125 -1.14210937 1.7015625 -1.73046875 2.578125 C-7.8968891 11.78574994 -13.97705642 21.04712921 -19.984375 30.359375 C-21.77124008 33.12577313 -23.58086158 35.8688497 -25.453125 38.578125 C-26.10796875 39.54234375 -26.7628125 40.5065625 -27.4375 41.5 C-27.99308594 42.2940625 -28.54867187 43.088125 -29.12109375 43.90625 C-30.24575669 45.96547556 -30.24575669 45.96547556 -29.390625 48.046875 C-27.85974355 50.19698939 -26.22568513 51.9307827 -24.3125 53.75 C-21.71855798 56.22438156 -19.31909541 58.77462758 -16.99609375 61.5 C-11.89397788 67.38374279 -6.28781926 72.78173469 -0.75 78.25 C1.40397485 80.37727268 3.5545277 82.50792257 5.703125 84.640625 C6.4344162 85.35946869 6.4344162 85.35946869 7.18048096 86.09283447 C12.11004658 90.98682167 14.32054862 93.52867182 14.73046875 100.609375 C14.81103516 101.92292969 14.89160156 103.23648438 14.97460938 104.58984375 C15.00965576 105.27546387 15.04470215 105.96108398 15.08081055 106.66748047 C15.18507074 108.70258221 15.30828068 110.73575303 15.43554688 112.76953125 C15.98731053 122.19003765 16.03428676 131.56661319 16 141 C-14.05397849 141.11801627 -44.10635323 140.81193882 -74.15887868 140.55461788 C-81.35653203 140.49304539 -88.55419864 140.43309471 -95.75186646 140.37324238 C-110.50125904 140.25055913 -125.25063501 140.12595783 -140 140 C-138.86810211 134.62802405 -137.59247236 129.38470681 -135.91210938 124.15209961 C-135.7133017 123.52919037 -135.51449402 122.90628113 -135.30966187 122.26449585 C-134.65805252 120.22590739 -134.00089645 118.18915331 -133.34375 116.15234375 C-132.87693955 114.69499159 -132.41051753 113.23751496 -131.94445801 111.77992249 C-130.71546914 107.93933229 -129.48193361 104.10021874 -128.24719238 100.26147461 C-126.78851832 95.72459554 -125.33322924 91.18662851 -123.88066101 86.64779091 C-122.68262719 82.90468978 -121.48020397 79.16313283 -120.26782227 75.4246521 C-118.07784174 68.65082476 -115.93585437 61.87406998 -113.98751068 55.02620983 C-113.13686093 52.03740221 -112.26472252 49.0550192 -111.39259338 46.07242012 C-110.98929996 44.66662445 -110.597768 43.25739416 -110.21885681 41.84483147 C-107.31009781 31.00605673 -107.31009781 31.00605673 -104.08189392 28.52703857 C-102.02772645 27.73409233 -100.17512057 27.30632963 -98 27 C-97.18345947 26.73203613 -96.36691895 26.46407227 -95.52563477 26.18798828 C-94.83783936 25.98415527 -94.15004395 25.78032227 -93.44140625 25.5703125 C-92.65290283 25.33513916 -91.86439941 25.09996582 -91.05200195 24.85766602 C-90.23046631 24.61588623 -89.40893066 24.37410645 -88.5625 24.125 C-87.68489014 23.86452881 -86.80728027 23.60405762 -85.90307617 23.33569336 C-84.11219908 22.80469725 -82.32094227 22.27498001 -80.52929688 21.74658203 C-78.28391976 21.08380566 -76.04009113 20.4161383 -73.796875 19.74609375 C-67.59826923 17.90137896 -61.3901182 16.10126371 -55.15625 14.37890625 C-42.98917849 11.01695228 -30.91621303 7.47820388 -18.91015625 3.578125 C-18.10465332 3.31966797 -17.29915039 3.06121094 -16.46923828 2.79492188 C-14.74044807 2.23837245 -13.01510581 1.67105067 -11.29248047 1.09570312 C-10.41092285 0.81146484 -9.52936523 0.52722656 -8.62109375 0.234375 C-7.83017334 -0.02633789 -7.03925293 -0.28705078 -6.22436523 -0.55566406 C-3.78455328 -1.04303732 -2.33508403 -0.78757863 0 0 Z " fill="#F4831F" transform="translate(144,226)"/>
<path d="M0 0 C7.45638084 1.17765323 14.4704733 2.92291653 21.625 5.3125 C23.56724869 5.94542265 25.50996197 6.57692134 27.453125 7.20703125 C28.39865234 7.51463379 29.34417969 7.82223633 30.31835938 8.13916016 C33.98765063 9.31704808 37.67496336 10.42316425 41.375 11.5 C42.04563477 11.69529297 42.71626953 11.89058594 43.40722656 12.09179688 C44.82722595 12.50394789 46.24748235 12.91521421 47.66796875 13.32568359 C61.3523038 17.28256523 75.02305866 21.28753691 88.6875 25.3125 C89.83976074 25.64999268 90.99202148 25.98748535 92.17919922 26.33520508 C93.25830566 26.65384521 94.33741211 26.97248535 95.44921875 27.30078125 C96.40143311 27.58091064 97.35364746 27.86104004 98.3347168 28.1496582 C99.65403198 28.57057739 99.65403198 28.57057739 101 29 C101.83942139 29.25352234 102.67884277 29.50704468 103.54370117 29.76824951 C106 31 106 31 107.17695618 33.02330017 C107.43736191 33.85986649 107.69776764 34.6964328 107.96606445 35.55834961 C108.27497116 36.51653595 108.58387787 37.47472229 108.90214539 38.46194458 C109.21932022 39.51477631 109.53649506 40.56760803 109.86328125 41.65234375 C110.2128035 42.75544891 110.56232574 43.85855408 110.92243958 44.99508667 C112.07136484 48.63692534 113.19201743 52.28682 114.3125 55.9375 C115.100301 58.4552194 115.8898705 60.97238608 116.68115234 63.48901367 C118.31751442 68.70045199 119.94080873 73.91580061 121.55615234 79.13378906 C123.91630544 86.75368935 126.32294523 94.35833425 128.73828125 101.9609375 C130.2016813 106.57775792 131.66347298 111.19508636 133.125 115.8125 C133.65185898 117.47440872 133.65185898 117.47440872 134.18936157 119.16989136 C135.17508677 122.28502025 136.15489264 125.40194464 137.1328125 128.51953125 C137.42565628 129.44192596 137.71850006 130.36432068 138.0202179 131.31466675 C138.28312119 132.1567569 138.54602448 132.99884705 138.81689453 133.86645508 C139.04684113 134.59689529 139.27678772 135.32733551 139.51370239 136.07991028 C140 138 140 138 140 141 C125.99202186 141.13279226 111.98402315 141.26320985 97.97599983 141.39115143 C91.46641177 141.45067029 84.95683152 141.51085514 78.44726562 141.57275391 C47.29734382 141.86842711 16.15142041 142.08472941 -15 142 C-13.07905782 135.7032976 -10.66272703 129.90316425 -7.68359375 124.0390625 C-7.26763443 123.20901703 -6.85167511 122.37897156 -6.42311096 121.52377319 C-5.54424845 119.77273349 -4.6625238 118.02312766 -3.77807617 116.27490234 C-2.45993021 113.66933754 -1.15003681 111.05976893 0.15820312 108.44921875 C5.24467846 98.32344213 10.46161051 88.27220565 15.75708008 78.25439453 C18.58205964 72.90626813 21.34475288 67.52837906 24.0625 62.125 C24.53365234 61.20332031 25.00480469 60.28164063 25.49023438 59.33203125 C25.93818359 58.44128906 26.38613281 57.55054688 26.84765625 56.6328125 C27.23961182 55.85824707 27.63156738 55.08368164 28.03540039 54.28564453 C29.99594849 49.67878056 29.99594849 49.67878056 29.1706543 44.92626953 C28.72633057 44.25192871 28.28200684 43.57758789 27.82421875 42.8828125 C27.33083008 42.118479 26.83744141 41.35414551 26.32910156 40.56665039 C25.78737305 39.76090576 25.24564453 38.95516113 24.6875 38.125 C24.13932617 37.28509521 23.59115234 36.44519043 23.02636719 35.57983398 C21.36555968 33.04318373 19.68496771 30.52064717 18 28 C17.08389992 26.61376703 16.16847819 25.2270854 15.25390625 23.83984375 C12.8549943 20.21363501 10.43145004 16.60444665 8 13 C6.45582414 10.70999345 4.91455429 8.41812561 3.375 6.125 C2.72273438 5.15820312 2.07046875 4.19140625 1.3984375 3.1953125 C0 1 0 1 0 0 Z " fill="#F4831F" transform="translate(368,225)"/>
<path d="M0 0 C0.4436792 0.38309326 0.8873584 0.76618652 1.34448242 1.16088867 C4.95619538 4.26969877 8.601425 7.32224078 12.3125 10.3125 C16.83166924 13.99318764 21.16625343 17.82848062 25.47265625 21.75390625 C28.06962393 24.06187598 30.73404013 26.25555863 33.4375 28.4375 C38.20996203 32.29708603 42.73109109 36.37199991 47.24609375 40.52734375 C50.82504764 43.74078746 54.55314329 46.74663943 58.29296875 49.76953125 C66.49192174 56.52508992 74.58529313 63.39754864 80.375 72.375 C80.99314575 73.3177478 80.99314575 73.3177478 81.6237793 74.27954102 C82.5554769 75.70263533 83.48425049 77.12764676 84.41064453 78.55419922 C86.20321313 81.31271722 88.00561582 84.06468118 89.80859375 86.81640625 C96.86929947 97.6061278 96.86929947 97.6061278 99.33447266 101.44091797 C100.40635845 103.08787002 101.50333491 104.71889913 102.63037109 106.32861328 C103.34507568 107.3744458 103.34507568 107.3744458 104.07421875 108.44140625 C104.49662842 109.03767822 104.91903809 109.6339502 105.35424805 110.24829102 C106 112 106 112 105.31176758 114.00512695 C103.98314768 116.0256282 102.59846889 117.71988175 100.9375 119.4765625 C100.31415771 120.13857666 99.69081543 120.80059082 99.04858398 121.48266602 C98.37255127 122.18963623 97.69651855 122.89660645 97 123.625 C96.29883057 124.36484131 95.59766113 125.10468262 94.87524414 125.86694336 C88.76591951 132.27792978 82.51843208 138.54851235 76.20507812 144.75830078 C72.09810617 148.81575737 68.18402667 152.96412167 64.42993164 157.35131836 C61.1442363 161.1396572 58.10265997 161.95851197 53.375 163.1875 C51.74438596 163.62609861 50.11419968 164.06628967 48.484375 164.5078125 C47.60458984 164.74532227 46.72480469 164.98283203 45.81835938 165.22753906 C40.73870143 166.61978072 35.68166158 168.08926526 30.625 169.5625 C29.08428833 170.01061035 29.08428833 170.01061035 27.51245117 170.46777344 C21.3080778 172.2856473 15.16361807 174.19565812 9.07421875 176.37109375 C7 177 7 177 4 177 C1.50880902 165.20347798 -0.73232808 153.35826083 -2.83905029 141.48745728 C-3.10930906 139.97490331 -3.38396614 138.46312747 -3.66339111 136.95223999 C-5.52393721 126.8589945 -6.3633637 117.3041615 -6 107 C-5.95625244 105.39451294 -5.95625244 105.39451294 -5.91162109 103.7565918 C-5.81890758 100.75291179 -5.69623753 97.75210823 -5.5625 94.75 C-5.50352539 93.27273437 -5.50352539 93.27273437 -5.44335938 91.765625 C-5.23958273 87.00038659 -4.95470688 82.26341954 -4.49609375 77.515625 C-3.93627351 71.68264249 -3.70318726 65.85480322 -3.5 60 C-3.30223434 54.30141922 -3.09306614 48.62541706 -2.53515625 42.94921875 C-1.72551687 34.58995507 -1.37350419 26.19775177 -0.9375 17.8125 C-0.8458927 16.08006809 -0.75409729 14.34764612 -0.66210938 12.61523438 C-0.43923836 8.41026761 -0.21890998 4.20517476 0 0 Z " fill="#E17524" transform="translate(293,160)"/>
<path d="M0 0 C0.78771922 13.54404259 1.57042638 27.08836492 2.34690857 40.63305664 C2.70769539 46.92380815 3.07014451 53.21445431 3.43652344 59.50488281 C3.79068181 65.58658532 4.14030273 71.6685339 4.48690796 77.75067139 C4.61926981 80.05972422 4.75320846 82.36868728 4.88882446 84.67755127 C6.92404961 119.37853534 6.92404961 119.37853534 3.75 136.5625 C3.41210449 138.4811084 3.41210449 138.4811084 3.06738281 140.43847656 C2.60887115 143.03757156 2.1450743 145.63574019 1.67578125 148.23291016 C1.03368948 151.81220063 0.41724169 155.39470019 -0.1875 158.98046875 C-0.5415374 161.0703344 -0.89569663 163.16017942 -1.25 165.25 C-1.41274414 166.21365479 -1.57548828 167.17730957 -1.74316406 168.17016602 C-1.89495117 169.04729248 -2.04673828 169.92441895 -2.203125 170.828125 C-2.33364258 171.5902832 -2.46416016 172.35244141 -2.59863281 173.13769531 C-3 175 -3 175 -4 177 C-15.01576258 174.35956749 -25.8905729 171.36216907 -36.74047852 168.10839844 C-39.22214424 167.36461675 -41.70566431 166.62728231 -44.18945312 165.890625 C-45.78656943 165.41443495 -47.3835788 164.93788607 -48.98046875 164.4609375 C-49.71379929 164.24319672 -50.44712982 164.02545593 -51.2026825 163.80111694 C-57.78689235 161.82066965 -61.92235105 160.51894279 -66.4375 155.25 C-72.54367702 148.29883126 -79.11405279 141.81799678 -85.69625854 135.32287598 C-90.85271606 130.23422438 -95.91278211 125.13667864 -100.60864258 119.61621094 C-102.30857329 117.64155901 -104.12088453 115.80395085 -106 114 C-104.32324963 109.11429635 -101.64068772 105.01013062 -98.875 100.6875 C-98.36163086 99.87804932 -97.84826172 99.06859863 -97.31933594 98.23461914 C-92.05017215 89.97726438 -86.58724682 81.84793444 -81.08154297 73.74682617 C-80.42041504 72.76689697 -79.75928711 71.78696777 -79.078125 70.77734375 C-78.48418945 69.90327881 -77.89025391 69.02921387 -77.27832031 68.12866211 C-75.82839057 66.12806944 -75.82839057 66.12806944 -76 64 C-74.25156204 62.67975093 -72.49655253 61.36787141 -70.72265625 60.08203125 C-67.31829335 57.47869492 -64.10163063 54.69376074 -60.875 51.875 C-60.22853516 51.31071289 -59.58207031 50.74642578 -58.91601562 50.16503906 C-57.59199111 49.00863736 -56.26826163 47.85189778 -54.94482422 46.69482422 C-51.95742596 44.09144502 -48.94868479 41.51329179 -45.9375 38.9375 C-45.36435059 38.44685059 -44.79120117 37.95620117 -44.20068359 37.45068359 C-43.04520043 36.46161601 -41.88960181 35.47268329 -40.73388672 34.48388672 C-37.24003337 31.4937937 -33.74913979 28.50024355 -30.25854492 25.50634766 C-27.29536317 22.96529167 -24.32969294 20.42724353 -21.359375 17.89453125 C-20.15605623 16.86741446 -18.95292888 15.84007338 -17.75 14.8125 C-17.17161377 14.3184668 -16.59322754 13.82443359 -15.99731445 13.31542969 C-11.51788709 9.47537303 -7.13513615 5.54195235 -2.79296875 1.546875 C-1 0 -1 0 0 0 Z " fill="#E17524" transform="translate(219,160)"/>
<path d="M0 0 C0.29152046 9.16467457 -0.8385277 18.05928 -2 27.125 C-2.19326831 28.66920085 -2.38598099 30.21347135 -2.578125 31.7578125 C-3.04568427 35.50604168 -3.52074223 39.25324941 -4 43 C-3.49227554 42.51267899 -2.98455109 42.02535797 -2.46144104 41.52326965 C0.80494988 39.50185452 3.6601509 39.58653679 7.38305664 39.62768555 C8.12009323 39.62403488 8.85712982 39.62038422 9.61650085 39.61662292 C12.04795512 39.60852977 14.47874042 39.6221155 16.91015625 39.63671875 C18.6011912 39.63723745 20.29222676 39.63671936 21.98326111 39.63520813 C25.52482114 39.63529779 29.06615326 39.64571634 32.60766602 39.66381836 C37.14965645 39.68652271 41.6913144 39.68704589 46.23334599 39.68030071 C49.72402406 39.67696141 53.21462617 39.6835898 56.70528984 39.69342995 C58.38024943 39.6972816 60.05521747 39.69843031 61.73018074 39.6968441 C64.06906403 39.69647373 66.40751889 39.70908476 68.74633789 39.7253418 C69.43992401 39.72286438 70.13351013 39.72038696 70.84811401 39.71783447 C74.46243358 39.75798185 75.90018307 39.93345538 79 42 C79.52055566 33.7675087 78.39155716 25.8899277 77.06713867 17.7902832 C76.12344736 11.80347861 75.85812499 6.05471926 76 0 C84.68924808 3.47568691 93.06848922 7.39951669 101.421875 11.61328125 C102.66008078 12.23425542 103.89846735 12.85486924 105.13702393 13.47514343 C108.3542984 15.08755009 111.56913823 16.70475075 114.78344727 18.32305908 C118.08070037 19.98202153 121.38029942 21.63630456 124.6796875 23.29101562 C131.12206018 26.52284059 137.56186093 29.75974795 144 33 C128.02844659 49.08427795 109.23455029 61.89165302 90.37231445 74.33309937 C87.99441993 75.9359487 87.99441993 75.9359487 85.9941864 77.78727722 C78.17461096 84.36630269 70.03590552 84.18029078 60.33203125 84.24609375 C58.60779254 84.27375355 56.8835646 84.30209249 55.15934753 84.33106995 C51.54907772 84.38183067 47.9399529 84.40295273 44.3293457 84.40698242 C40.67159844 84.41531295 37.02143329 84.47726563 33.36547852 84.59155273 C10.80147002 85.28566248 -5.35351806 85.06703695 -22.74891663 69.00187683 C-26.34926654 65.80010423 -30.32063953 63.18302954 -34.3125 60.5 C-40.3960921 56.21946128 -46.29570667 51.77903 -52 47 C-52.5367334 46.55205078 -53.0734668 46.10410156 -53.62646484 45.64257812 C-64.51598733 36.54431412 -64.51598733 36.54431412 -68 33 C-57.10981545 27.1419194 -46.13174835 21.5547166 -34.95019531 16.27294922 C-26.40713104 12.22781832 -17.96072938 8.00167927 -9.5402832 3.70751953 C-8.1030188 2.98024658 -8.1030188 2.98024658 -6.63671875 2.23828125 C-5.78811279 1.80555908 -4.93950684 1.37283691 -4.06518555 0.92700195 C-2 0 -2 0 0 0 Z " fill="#BFAB9C" transform="translate(218,414)"/>
<path d="M0 0 C6.84940453 1.95821255 13.5089613 4.22420403 20.15625 6.78125 C21.11519165 7.14677979 22.0741333 7.51230957 23.06213379 7.88891602 C26.20933606 9.08937316 29.35464397 10.29471474 32.5 11.5 C34.73292991 12.35258817 36.96600555 13.20479475 39.19921875 14.05664062 C43.8352007 15.82534699 48.47055342 17.595688 53.10546875 19.3671875 C62.70793558 23.03590853 72.31809949 26.68432177 81.92819214 30.33300781 C84.99828031 31.49934668 88.06771616 32.66738634 91.13696289 33.8359375 C100.94404358 37.56858561 110.75549395 41.28859638 120.5809021 44.97277832 C125.24436318 46.72213909 129.90559117 48.47740557 134.56665039 50.2331543 C136.79926111 51.07222267 139.03297442 51.90836357 141.26782227 52.74145508 C144.35712325 53.89326738 147.44255753 55.05491084 150.52734375 56.21875 C151.44668198 56.55849854 152.3660202 56.89824707 153.31321716 57.24829102 C154.15465775 57.56789795 154.99609833 57.88750488 155.86303711 58.21679688 C156.59380966 58.49036011 157.32458221 58.76392334 158.07749939 59.04577637 C162.33467979 61.15880672 163.58187386 63.95586699 165.14135742 68.33154297 C165.73293892 69.97133621 165.73293892 69.97133621 166.33647156 71.64425659 C166.75524063 72.83157379 167.1740097 74.01889099 167.60546875 75.2421875 C168.28288072 77.12854691 168.96029444 79.0149057 169.63779926 80.90123177 C170.58855016 83.55516049 171.53143399 86.21185849 172.4744873 88.86853027 C174.32246554 94.0688758 176.18592409 99.26370588 178.04764175 104.45914459 C178.72797962 106.36023204 179.40584722 108.26218737 180.08346558 110.16424561 C182.15482456 115.95725521 184.25996964 121.72969655 186.49462891 127.46191406 C186.87524979 128.43855011 187.25587067 129.41518616 187.64802551 130.42141724 C188.3544518 132.21875016 189.06918684 134.01284845 189.79374695 135.802948 C190.10197891 136.58485504 190.41021088 137.36676208 190.7277832 138.17236328 C190.99935745 138.84470001 191.2709317 139.51703674 191.55073547 140.20974731 C192 142 192 142 191 145 C190.17145508 144.36723145 190.17145508 144.36723145 189.32617188 143.72167969 C179.60961255 136.30344488 169.88811402 128.89359282 160.0949707 121.57666016 C154.59746663 117.46299394 149.14213854 113.29526144 143.6875 109.125 C137.00458762 104.01851992 130.28451901 98.97066669 123.5 94 C115.80559236 88.36270491 108.20251093 82.61358394 100.625 76.8203125 C95.43609517 72.85368303 90.2323093 68.90918123 85 65 C78.8642709 60.41585262 72.77203374 55.77683829 66.6875 51.125 C60.00458762 46.01851992 53.28451901 40.97066669 46.5 36 C38.82086753 30.37389624 31.23043956 24.6392534 23.67114258 18.85327148 C19.50324533 15.66426084 15.32769372 12.48809223 11.1171875 9.35546875 C10.36655029 8.79682129 9.61591309 8.23817383 8.8425293 7.66259766 C7.43719004 6.61914082 6.02988842 5.57832018 4.62036133 4.54052734 C3.06265862 3.38365737 1.52831963 2.19541832 0 1 C0 0.67 0 0.34 0 0 Z " fill="#E17524" transform="translate(26,15)"/>
<path d="M0 0 C-20.50033499 15.64605387 -20.50033499 15.64605387 -29.74609375 22.55078125 C-33.29663504 25.21339893 -36.81811695 27.91392082 -40.34375 30.609375 C-48.7818324 37.05917362 -57.26603675 43.43390392 -65.83422852 49.7097168 C-72.67496611 54.73221912 -79.41935391 59.8756909 -86.1574707 65.03466797 C-91.95380929 69.46423345 -97.79953926 73.81815557 -103.6875 78.125 C-109.87256071 82.6511537 -115.96904047 87.27050653 -122 92 C-128.80240433 97.3344624 -135.70659786 102.50593814 -142.68359375 107.609375 C-148.6775156 112.00231447 -154.59947236 116.48256125 -160.5 121 C-167.5201888 126.37072555 -174.5747007 131.68990724 -181.6875 136.9375 C-182.49574219 137.53498047 -183.30398438 138.13246094 -184.13671875 138.74804688 C-184.87921875 139.29396484 -185.62171875 139.83988281 -186.38671875 140.40234375 C-187.03858154 140.88179443 -187.69044434 141.36124512 -188.36206055 141.85522461 C-190 143 -190 143 -192 144 C-189.93264449 135.80439606 -187.275952 127.93519505 -184.32421875 120.01953125 C-183.87657669 118.80786789 -183.42893463 117.59620453 -182.96772766 116.3478241 C-181.7856127 113.14842434 -180.59788693 109.95113685 -179.40893555 106.75427246 C-177.98319095 102.91682418 -176.5641923 99.07687164 -175.14629173 95.23651886 C-174.00602486 92.15077671 -172.85698199 89.06875357 -171.69570923 85.99084473 C-169.80466058 80.97000779 -167.94442328 75.97923239 -166.42529297 70.83203125 C-163.53217391 61.24989481 -163.53217391 61.24989481 -159.57495117 58.02172852 C-156.34939434 56.42644639 -153.20312258 55.38834366 -149.75 54.375 C-148.41854492 53.92916311 -147.08961061 53.4757461 -145.76293945 53.01586914 C-143.50437596 52.23537608 -141.24466356 51.46193473 -138.97651672 50.70967102 C-128.16198937 47.11867129 -117.56208133 42.94675964 -106.92477417 38.86755371 C-101.2769796 36.70393284 -95.61947503 34.56593014 -89.96267891 32.42598343 C-86.79767239 31.22847075 -83.63320211 30.02954321 -80.46875 28.83056641 C-79.8466417 28.59486876 -79.22453341 28.3591711 -78.58357334 28.1163311 C-67.61530872 23.96021243 -56.65153849 19.79225106 -45.6875 15.625 C-43.68449091 14.86384572 -41.6814799 14.10269647 -39.6784668 13.34155273 C-38.72204788 12.97793137 -37.76562897 12.61431 -36.78022766 12.2396698 C-34.91982219 11.53283144 -33.05906371 10.82692138 -31.19792175 10.12202454 C-26.45348014 8.3232458 -21.71874738 6.50292623 -16.99462891 4.65136719 C-16.02338577 4.27346039 -15.05214264 3.89555359 -14.0514679 3.50619507 C-12.19416839 2.78287518 -10.33921166 2.05350233 -8.48698425 1.31729126 C-7.66345963 0.9977951 -6.839935 0.67829895 -5.99145508 0.34912109 C-5.26654373 0.06362396 -4.54163239 -0.22187317 -3.79475403 -0.51602173 C-2 -1 -2 -1 0 0 Z " fill="#E07625" transform="translate(486,16)"/>
<path d="M0 0 C7.71904033 0.26289746 15.43793211 0.52987655 23.15673828 0.79956055 C25.77714924 0.8906478 28.39759167 0.98083483 31.01806641 1.07006836 C34.80640353 1.19923262 38.59461191 1.33174194 42.3828125 1.46484375 C44.11182297 1.52272316 44.11182297 1.52272316 45.87576294 1.58177185 C52.90129121 1.8324467 59.89808566 2.25422971 66.90838623 2.77833557 C70.3599814 3.02581017 73.79515473 3.18230071 77.25390625 3.28125 C78.45853516 3.31863281 79.66316406 3.35601562 80.90429688 3.39453125 C83.34700197 3.46495628 85.78971032 3.53526842 88.23242188 3.60546875 C96.17872836 3.85232776 104.0790346 4.31791457 112 5 C111.01542038 16.27173911 109.10751666 27.33188626 107 38.4375 C106.80286407 39.47632324 106.80286407 39.47632324 106.60174561 40.53613281 C105.11098125 48.36594279 103.58124711 56.18794168 102 64 C90.98423742 61.35956749 80.1094271 58.36216907 69.25952148 55.10839844 C66.77785576 54.36461675 64.29433569 53.62728231 61.81054688 52.890625 C60.21343057 52.41443495 58.6164212 51.93788607 57.01953125 51.4609375 C56.28620071 51.24319672 55.55287018 51.02545593 54.7973175 50.80111694 C48.21310765 48.82066965 44.07764895 47.51894279 39.5625 42.25 C33.45632298 35.29883126 26.88594721 28.81799678 20.30374146 22.32287598 C13.08173094 15.1958328 6.31546772 7.93954262 0 0 Z " fill="#CB6228" transform="translate(113,273)"/>
<path d="M0 0 C-0.49628906 0.4846875 -0.99257813 0.969375 -1.50390625 1.46875 C-2.18324219 2.1390625 -2.86257813 2.809375 -3.5625 3.5 C-4.22378906 4.1496875 -4.88507813 4.799375 -5.56640625 5.46875 C-7.49773019 7.47757491 -9.31058563 9.5108663 -11.12109375 11.625 C-16.49790964 17.81609156 -22.42604446 23.46952332 -28.26171875 29.22265625 C-32.89954793 33.82033107 -37.40794597 38.45006017 -41.64257812 43.42382812 C-44.88220002 47.18551858 -47.95205027 47.97273427 -52.625 49.1875 C-54.25561404 49.62609861 -55.88580032 50.06628967 -57.515625 50.5078125 C-58.83530273 50.86407715 -58.83530273 50.86407715 -60.18164062 51.22753906 C-65.26129857 52.61978072 -70.31833842 54.08926526 -75.375 55.5625 C-76.40214111 55.86124023 -77.42928223 56.15998047 -78.48754883 56.46777344 C-84.6919222 58.2856473 -90.83638193 60.19565812 -96.92578125 62.37109375 C-99 63 -99 63 -102 63 C-104.69982826 50.2155191 -107.02990483 37.37493629 -109.25 24.5 C-109.4546286 23.32309097 -109.4546286 23.32309097 -109.66339111 22.12240601 C-110.05538339 19.86347898 -110.44255478 17.60378104 -110.828125 15.34375 C-110.94668854 14.66218338 -111.06525208 13.98061676 -111.18740845 13.27839661 C-111.72224928 10.10705993 -112 7.23325437 -112 4 C-97.9879707 3.32360885 -83.97562848 2.65406811 -69.96289444 1.99243069 C-63.45655345 1.68502065 -56.9503328 1.37540657 -50.44433594 1.06079102 C-44.16818326 0.75737088 -37.89178232 0.45969389 -31.61516571 0.16603279 C-29.21803754 0.05286122 -26.8210069 -0.06239547 -24.4240799 -0.17975044 C-21.07234056 -0.3435001 -17.72033417 -0.4998984 -14.36816406 -0.65454102 C-13.37266541 -0.70488998 -12.37716675 -0.75523895 -11.35150146 -0.80711365 C-10.43727417 -0.84780975 -9.52304687 -0.88850586 -8.58111572 -0.93043518 C-7.78837376 -0.96822869 -6.99563179 -1.00602221 -6.17886734 -1.04496098 C-3.9678753 -0.99933711 -2.11542979 -0.62258543 0 0 Z " fill="#CB6128" transform="translate(399,274)"/>
<path d="M0 0 C1.25329102 -0.00669708 2.50658203 -0.01339417 3.79785156 -0.02029419 C7.10944462 -0.02624825 10.41869744 0.00170066 13.72998047 0.04101562 C15.74912106 0.05468155 17.76613265 0.04106177 19.78515625 0.01708984 C23.69109447 -0.02634129 27.59392754 -0.02087248 31.5 0 C32.69399414 -0.01416962 33.88798828 -0.02833923 35.11816406 -0.04293823 C42.32855128 0.09767305 46.57392215 1.32889304 52.12538147 5.99967957 C54.98507718 9.39692963 55.12254914 12.81440974 55.1875 17.1171875 C55.28475664 18.81007108 55.3850128 20.50278502 55.48828125 22.1953125 C55.52646973 23.00935547 55.5646582 23.82339844 55.60400391 24.66210938 C55.79421951 27.6164948 56.30296293 30.46477121 56.875 33.3671875 C57.93779675 39.23747892 57.93985517 44.98089225 57.75 50.9296875 C57.24194824 50.60502502 56.73389648 50.28036255 56.21044922 49.94586182 C52.93187874 48.5918005 49.87119558 48.65043065 46.3828125 48.67089844 C45.27966705 48.66564148 45.27966705 48.66564148 44.15423584 48.66027832 C41.72772735 48.65148914 39.30151136 48.65730013 36.875 48.6640625 C35.18636011 48.66271504 33.4977206 48.66077383 31.80908203 48.65826416 C28.27177229 48.65531671 24.73456361 48.65959834 21.19726562 48.66894531 C16.66435704 48.68033964 12.1316853 48.67377814 7.5987854 48.66180038 C4.11236793 48.65457154 0.62600656 48.65687442 -2.8604126 48.66205597 C-4.53175891 48.66338963 -6.20311033 48.66175467 -7.87445068 48.65709686 C-10.21070845 48.6520148 -12.54658324 48.65976531 -14.8828125 48.67089844 C-15.57280334 48.66684998 -16.26279419 48.66280151 -16.97369385 48.65863037 C-20.56916145 48.69035342 -23.18849217 48.97327913 -26.25 50.9296875 C-26.05457884 46.52934212 -25.77625231 42.14023379 -25.45068359 37.74804688 C-25.30564407 35.71114142 -25.1749606 33.67319644 -25.05322266 31.63476562 C-24.82824946 28.04115402 -24.54338787 24.45580729 -24.25 20.8671875 C-24.15464966 19.1195813 -24.15464966 19.1195813 -24.05737305 17.33666992 C-23.95593994 16.22138916 -23.85450684 15.1061084 -23.75 13.95703125 C-23.6778125 12.96437256 -23.605625 11.97171387 -23.53125 10.94897461 C-19.22387073 0.79856313 -9.8392841 -0.11676681 0 0 Z " fill="#161616" transform="translate(240.25,406.0703125)"/>
<path d="M0 0 C-1.6079192 4.67891526 -4.13004704 8.48790841 -6.85546875 12.5703125 C-7.34574051 13.31262115 -7.83601227 14.05492981 -8.34114075 14.81973267 C-9.95250533 17.25755491 -11.57004368 19.69121625 -13.1875 22.125 C-14.30582997 23.81510462 -15.42366263 25.5055384 -16.54101562 27.19628906 C-18.85668388 30.69948904 -21.17440834 34.20131479 -23.49365234 37.70214844 C-28.50441227 45.2689644 -33.49271114 52.85053344 -38.47744751 60.43450928 C-39.98393704 62.72557152 -41.49221266 65.01544996 -43.00073242 67.30517578 C-43.91721953 68.6981997 -44.83364554 70.09126382 -45.75 71.484375 C-46.16860794 72.11904694 -46.58721588 72.75371887 -47.01850891 73.40762329 C-49.14044601 76.6267034 -49.14044601 76.6267034 -51 80 C-51.66 80 -52.32 80 -53 80 C-59.61629116 27.14650819 -59.61629116 27.14650819 -62 1 C-56.22411046 0.85456811 -50.44815329 0.71232439 -44.67211914 0.57275391 C-42.7163696 0.52508001 -40.76063934 0.47660672 -38.80493164 0.42724609 C-25.86683234 0.10138289 -12.94222365 -0.06773571 0 0 Z " fill="#CC6227" transform="translate(414,366)"/>
<path d="M0 0 C21.0245041 -0.14959965 41.98980038 0.24461321 63 1 C61.65111743 13.95002626 60.25771427 26.89467612 58.82275391 39.83544922 C58.49875725 42.76122238 58.1771127 45.68724863 57.85546875 48.61328125 C56.69718359 59.09483427 55.46110584 69.55595016 54 80 C53.34 80 52.68 80 52 80 C50.86181641 78.54150391 50.86181641 78.54150391 49.6015625 76.4765625 C49.12904053 75.7129541 48.65651855 74.9493457 48.16967773 74.16259766 C47.65993408 73.32519043 47.15019043 72.4877832 46.625 71.625 C45.52660332 69.85301004 44.42629938 68.08220109 43.32421875 66.3125 C42.76524902 65.41402344 42.2062793 64.51554687 41.63037109 63.58984375 C39.3003663 59.88863217 36.87969208 56.2528135 34.4375 52.625 C28.16309923 43.2849659 22.00463826 33.87040567 15.84936523 24.45166016 C15.07153063 23.26199274 14.29361833 22.07237612 13.515625 20.8828125 C13.13898209 20.30673248 12.76233917 19.73065247 12.37428284 19.13711548 C9.12554314 14.17555547 5.83112956 9.24556032 2.52246094 4.32373047 C1 2 1 2 0 0 Z " fill="#CC6227" transform="translate(97,366)"/>
<path d="M0 0 C0.3151534 7.72182306 -0.55966087 15.11439791 -1.6529541 22.7507019 C-3.56066681 36.15481844 -4.71575717 49.45582894 -5 63 C-14.42896515 59.528015 -23.36407491 55.03967237 -32.375 50.625 C-33.91391197 49.87469117 -35.45297361 49.12468925 -36.9921875 48.375 C-44.4975893 44.71462722 -51.98451812 41.028181 -59.40869141 37.20458984 C-62.21630692 35.89944806 -65.04807293 34.92676153 -68 34 C-65.75767 31.52013279 -63.59967443 30.12846234 -60.59887695 28.67504883 C-59.26521843 28.02340508 -59.26521843 28.02340508 -57.90461731 27.3585968 C-56.94222641 26.89608017 -55.97983551 26.43356354 -54.98828125 25.95703125 C-53.98725876 25.46974045 -52.98623627 24.98244965 -51.95487976 24.48039246 C-48.74355063 22.9185888 -45.52818724 21.3653077 -42.3125 19.8125 C-39.15276848 18.27991534 -35.99388975 16.74558509 -32.83517456 15.21090698 C-30.7805499 14.2131651 -28.72531827 13.21667211 -26.66946411 12.22146606 C-19.95237587 8.96623495 -13.26358284 5.65995108 -6.62702942 2.24311829 C-2.21573552 0 -2.21573552 0 0 0 Z " fill="#D4BDB0" transform="translate(218,414)"/>
<path d="M0 0 C8.68924808 3.47568691 17.06848922 7.39951669 25.421875 11.61328125 C26.66008078 12.23425542 27.89846735 12.85486924 29.13702393 13.47514343 C32.3542984 15.08755009 35.56913823 16.70475075 38.78344727 18.32305908 C42.08070037 19.98202153 45.38029942 21.63630456 48.6796875 23.29101562 C55.12206018 26.52284059 61.56186093 29.75974795 68 33 C67.39485062 33.30241104 66.78970123 33.60482208 66.16621399 33.91639709 C63.53961324 35.23029878 60.91648109 36.55103599 58.29296875 37.87109375 C43.99666156 45.05176205 29.65698447 52.11715605 15.18847656 58.94677734 C13.29156729 59.8596808 11.42036467 60.82563706 9.5546875 61.80078125 C7 63 7 63 4 63 C4.02094727 62.42483643 4.04189453 61.84967285 4.06347656 61.25708008 C4.49832268 47.23604491 3.61528525 33.83805782 1.42285156 19.97583008 C0.36708763 13.23239671 -0.22436934 6.82244942 0 0 Z " fill="#D4BEB0" transform="translate(294,414)"/>
<path d="M0 0 C4.4170273 3.51354445 8.28508557 7.31552233 12.0625 11.5 C18.93347929 19.10629259 26.22976971 26.28576857 33.52172852 33.484375 C34.44397217 34.39832031 35.36621582 35.31226563 36.31640625 36.25390625 C37.14599854 37.07189697 37.97559082 37.8898877 38.83032227 38.73266602 C43.04256683 43.13450187 44.37254371 45.42849584 44.73046875 51.64453125 C44.770616 52.29137375 44.81076324 52.93821625 44.85212708 53.60466003 C44.93475779 54.97687348 45.01083762 56.349495 45.08081055 57.72241211 C45.18525274 59.76847539 45.30838437 61.81265863 45.43554688 63.85742188 C45.97200155 72.91230074 46.09552497 81.93002702 46 91 C43.01134599 87.36500773 41.00561745 83.35978062 38.88671875 79.1875 C38.2827124 78.00874046 38.2827124 78.00874046 37.66650391 76.8061676 C36.33602273 74.20620674 35.01147243 71.60328066 33.6875 69 C32.76219193 67.18608273 31.8368165 65.37219981 30.91137695 63.55834961 C24.28882904 50.56235587 17.70990859 37.544023 11.16641235 24.50805664 C10.18042064 22.54425234 9.1932579 20.58103556 8.20492554 18.6184082 C6.8238742 15.87396387 5.44821712 13.12688696 4.07421875 10.37890625 C3.45232666 9.14582481 3.45232666 9.14582481 2.81787109 7.88783264 C0 2.22925415 0 2.22925415 0 0 Z " fill="#E27524" transform="translate(114,275)"/>
<path d="M0 0 C0.495 0.99 0.495 0.99 1 2 C-0.2284855 4.82618794 -1.52567539 7.53673617 -2.92578125 10.27734375 C-3.34740036 11.11729385 -3.76901947 11.95724396 -4.20341492 12.82264709 C-5.56569656 15.53140679 -6.93913031 18.2343482 -8.3125 20.9375 C-9.19665451 22.69431388 -10.08012555 24.45147192 -10.96289062 26.20898438 C-15.70797175 35.63255976 -20.55441842 44.99824648 -25.4868927 54.32496643 C-29.08221154 61.13064334 -32.56777872 67.98538223 -36 74.875 C-36.55816406 75.98746094 -37.11632812 77.09992188 -37.69140625 78.24609375 C-38.49384766 79.85291016 -38.49384766 79.85291016 -39.3125 81.4921875 C-39.78300781 82.43433105 -40.25351562 83.37647461 -40.73828125 84.34716797 C-41.93561393 86.86462481 -42.99651275 89.40000223 -44 92 C-44.33 92 -44.66 92 -45 92 C-45.14984448 82.84283723 -44.89929403 73.71281661 -44.5625 64.5625 C-44.52326416 63.43730957 -44.48402832 62.31211914 -44.44360352 61.15283203 C-43.86291939 46.20662457 -43.86291939 46.20662457 -41.6171875 43.06640625 C-41.04226563 42.57011719 -40.46734375 42.07382812 -39.875 41.5625 C-37.35372097 39.31486874 -35.08692971 37.01734912 -32.9140625 34.43359375 C-27.53323575 28.21465205 -21.5906936 22.54697799 -15.73828125 16.77734375 C-10.60225568 11.68578593 -5.68987516 6.50424108 -1 1 C-0.67 0.67 -0.34 0.34 0 0 Z " fill="#E27524" transform="translate(397,275)"/>
<path d="M0 0 C5.28 11.22 10.56 22.44 16 34 C12.95788427 35.52105787 11.01728732 34.32223326 7.796875 33.375 C7.17037552 33.19255234 6.54387604 33.01010468 5.89839172 32.8221283 C3.84666734 32.22216432 1.79834388 31.61139669 -0.25 31 C-1.65427342 30.58631388 -3.05865224 30.1729854 -4.46313477 29.76000977 C-16.02992734 26.34493779 -27.53468744 22.7415658 -39 19 C-39 18.34 -39 17.68 -39 17 C-33.93147561 14.57154577 -28.85942481 12.15068027 -23.78393555 9.73681641 C-22.05735499 8.91435688 -20.33176147 8.08982199 -18.60717773 7.26318359 C-16.13000125 6.07624772 -13.64938629 4.89678861 -11.16796875 3.71875 C-10.39599655 3.34689575 -9.62402435 2.9750415 -8.82865906 2.59191895 C-3.34161512 0 -3.34161512 0 0 0 Z " fill="#283546" transform="translate(199,302)"/>
<path d="M0 0 C1.694255 3.03869515 2.45939697 5.74080934 3.03735352 9.1640625 C3.21416153 10.19192871 3.39096954 11.21979492 3.57313538 12.27880859 C3.75653976 13.38305176 3.93994415 14.48729492 4.12890625 15.625 C4.32346909 16.76404785 4.51803192 17.9030957 4.7184906 19.07666016 C5.33915757 22.71678426 5.95114622 26.35830126 6.5625 30 C7.17908741 33.6413966 7.79745788 37.28248246 8.41722107 40.92333984 C8.80230499 43.18891405 9.1852395 45.45485486 9.56581116 47.72119141 C9.73946701 48.74905762 9.91312286 49.77692383 10.09204102 50.8359375 C10.24367203 51.73876465 10.39530304 52.6415918 10.55152893 53.57177734 C10.93658505 55.94892598 10.93658505 55.94892598 11.63789368 57.97789001 C12.13900336 60.77623633 11.46732135 62.79030602 10.70166016 65.51782227 C9.09369356 71.54669852 7.87409801 77.57564065 6.7734375 83.71484375 C6.58028961 84.77361221 6.38714172 85.83238068 6.18814087 86.92323303 C5.58007997 90.26066553 4.9773784 93.59903768 4.375 96.9375 C3.76424921 100.30072348 3.15241099 103.66374779 2.54043579 107.02674866 C2.1621607 109.10781943 1.78481914 111.18906018 1.40853882 113.27049255 C1.23811066 114.21239944 1.0676825 115.15430634 0.89208984 116.12475586 C0.74347504 116.94793808 0.59486023 117.7711203 0.44174194 118.61924744 C-0.01567068 121.08445659 -0.50270648 123.54255287 -1 126 C-1.33 126 -1.66 126 -2 126 C-2.02320828 113.50821102 -2.0409583 101.01642719 -2.05181217 88.52462101 C-2.05702245 82.72368163 -2.06408634 76.92275704 -2.07543945 71.12182617 C-2.08633434 65.51973259 -2.09229081 59.91765321 -2.09487724 54.31554985 C-2.09671961 52.18222264 -2.10031724 50.04889617 -2.10573006 47.91557503 C-2.11302814 44.91904163 -2.11398725 41.9225663 -2.11352539 38.92602539 C-2.11712067 38.05136124 -2.12071594 37.17669708 -2.12442017 36.27552795 C-2.11637831 31.42849972 -1.83835647 26.70929902 -1.23480988 21.89885712 C-0.94031479 19.51733849 -0.79469186 17.14263865 -0.68359375 14.74609375 C-0.62075195 13.43608398 -0.62075195 13.43608398 -0.55664062 12.09960938 C-0.49766602 10.78186523 -0.49766602 10.78186523 -0.4375 9.4375 C-0.39431641 8.52419922 -0.35113281 7.61089844 -0.30664062 6.66992188 C-0.20188243 4.44672009 -0.09970983 2.22343293 0 0 Z " fill="#E27524" transform="translate(286,278)"/>
<path d="M0 0 C4.50879192 0.6436503 8.31857191 2.38844186 12.3828125 4.34375 C13.07889618 4.67290405 13.77497986 5.00205811 14.49215698 5.34118652 C16.70562057 6.38891601 18.91543035 7.44408668 21.125 8.5 C23.34232295 9.55456283 25.56038009 10.60754403 27.77926636 11.65881348 C29.15704857 12.31211519 30.53381991 12.96755406 31.90945435 13.62536621 C34.58475434 14.89813077 37.18581455 16.06193818 40 17 C40 17.66 40 18.32 40 19 C28.31396027 22.80248969 16.57311611 26.30757916 4.71899414 29.55102539 C-0.65862897 31.02966656 -5.93181209 32.59781794 -11.15576172 34.55786133 C-13 35 -13 35 -16 34 C-15.62190186 33.21874756 -15.24380371 32.43749512 -14.85424805 31.63256836 C-13.43845689 28.70526875 -12.02406841 25.77729666 -10.6105957 22.84887695 C-10.00112219 21.58689121 -9.39110688 20.32516697 -8.78051758 19.0637207 C-7.89778806 17.23979798 -7.01707787 15.41491157 -6.13671875 13.58984375 C-5.60780029 12.49534912 -5.07888184 11.40085449 -4.53393555 10.27319336 C-2.94242757 6.87714887 -1.45875303 3.45474013 0 0 Z " fill="#263546" transform="translate(313,302)"/>
<path d="M0 0 C0.33 0 0.66 0 1 0 C3.01071424 26.18793955 3.2530399 52.26437453 3.1373291 78.51873779 C3.11643343 83.78330817 3.10764448 89.04789964 3.09765625 94.3125 C3.07655512 104.54171949 3.04267509 114.77084925 3 125 C2.67 125 2.34 125 2 125 C1.8518837 124.23214172 1.7037674 123.46428345 1.55116272 122.67315674 C0.15453202 115.43384666 -1.24314811 108.19474036 -2.64200497 100.95586014 C-3.36111799 97.23435675 -4.07982619 93.51277613 -4.79760742 89.79101562 C-5.49042843 86.19875639 -6.18431519 82.60670451 -6.87893867 79.0147934 C-7.14365093 77.64495919 -7.40798029 76.27505093 -7.67191887 74.90506744 C-8.04190025 72.98501811 -8.41337422 71.06525657 -8.78491211 69.14550781 C-8.99587021 68.05296692 -9.20682831 66.96042603 -9.42417908 65.83477783 C-9.76991384 64.13271871 -10.14907129 62.43623539 -10.59306335 60.75712585 C-11.13997895 58.39558003 -10.71054611 56.67158726 -10.1796875 54.31640625 C-9.98729492 53.43484863 -9.79490234 52.55329102 -9.59667969 51.64501953 C-9.30132324 50.33573486 -9.30132324 50.33573486 -9 49 C-8.68684351 47.50979607 -8.37680778 46.01893196 -8.0703125 44.52734375 C-7.91667236 43.78484375 -7.76303223 43.04234375 -7.60473633 42.27734375 C-5.55927637 32.30091207 -3.86082014 22.29078489 -2.30712891 12.22631836 C-2.15034668 11.2131958 -1.99356445 10.20007324 -1.83203125 9.15625 C-1.69514893 8.25712891 -1.5582666 7.35800781 -1.41723633 6.43164062 C-1.04288759 4.24994757 -0.57079139 2.13759042 0 0 Z " fill="#E27524" transform="translate(225,278)"/>
</svg>
