<?xml version="1.0" encoding="UTF-8"?>
<svg version="1.1" xmlns="http://www.w3.org/2000/svg" width="128" height="128">
<path d="M0 0 C0.94875 0.12375 1.8975 0.2475 2.875 0.375 C4.6875 2.75 4.6875 2.75 5.875 5.375 C6.37 6.365 6.37 6.365 6.875 7.375 C6.94694869 10.25870333 6.96791708 13.11739664 6.9375 16 C6.93298828 16.80179688 6.92847656 17.60359375 6.92382812 18.4296875 C6.91203168 20.41149006 6.89409605 22.39325433 6.875 24.375 C7.88820312 24.19710938 7.88820312 24.19710938 8.921875 24.015625 C16.20560269 22.96306319 16.20560269 22.96306319 19.3125 24.875 C22.99883211 30.77313138 24.33701544 35.60691327 24.30859375 42.546875 C24.3138356 43.30993958 24.31907745 44.07300415 24.32447815 44.85919189 C24.33086711 46.46601147 24.32960209 48.07287801 24.32104492 49.6796875 C24.31256975 52.10504062 24.34127998 54.5280059 24.37304688 56.953125 C24.43422863 70.24390074 22.20275803 80.36919276 12.875 90.375 C0.81094306 102.375 0.81094306 102.375 -7.125 102.375 C-7.063125 103.261875 -7.00125 104.14875 -6.9375 105.0625 C-7.14564474 108.73972369 -7.90706583 110.47462455 -10.125 113.375 C-10.785 113.375 -11.445 113.375 -12.125 113.375 C-12.07859375 113.96667969 -12.0321875 114.55835937 -11.984375 115.16796875 C-11.79317461 119.35389146 -11.72167151 121.7074218 -13.9375 125.375 C-18.33550161 129.39603004 -23.94999099 129.07245351 -29.65234375 129.04296875 C-33.81881904 128.24154325 -34.95691821 127.25666996 -37.4375 123.875 C-40.05000369 119.27542992 -40.76560301 115.58625634 -41.125 110.375 C-43.28254291 106.55223941 -45.78159055 105.42144894 -49.75 103.75 C-59.49610015 99.07140053 -65.64814078 91.06587197 -70.125 81.375 C-70.49367188 80.64539063 -70.86234375 79.91578125 -71.2421875 79.1640625 C-72.47729517 75.26199667 -72.37915262 71.62953669 -72.3125 67.5625 C-72.30387939 66.73024902 -72.29525879 65.89799805 -72.28637695 65.04052734 C-72.25016962 62.48462968 -72.19233477 59.93025567 -72.125 57.375 C-72.09599609 56.20300049 -72.09599609 56.20300049 -72.06640625 55.00732422 C-72.00266237 52.83675123 -71.91398913 50.6691065 -71.8125 48.5 C-71.75449219 47.24445312 -71.69648437 45.98890625 -71.63671875 44.6953125 C-70.94387485 40.19976046 -69.30689806 37.55689806 -66.125 34.375 C-63.0859375 33.9609375 -63.0859375 33.9609375 -59.5 33.75 C-58.31148437 33.67523438 -57.12296875 33.60046875 -55.8984375 33.5234375 C-54.98320313 33.47445312 -54.06796875 33.42546875 -53.125 33.375 C-53.11041748 32.69397217 -53.09583496 32.01294434 -53.08081055 31.3112793 C-53.00637304 28.22777785 -52.90969917 25.14536433 -52.8125 22.0625 C-52.78994141 20.99064453 -52.76738281 19.91878906 -52.74414062 18.81445312 C-52.70869141 17.78642578 -52.67324219 16.75839844 -52.63671875 15.69921875 C-52.61053467 14.75135498 -52.58435059 13.80349121 -52.55737305 12.8269043 C-52.05568042 9.98190201 -51.43240339 9.06562731 -49.125 7.375 C-46.42578125 6.86328125 -46.42578125 6.86328125 -43.4375 6.6875 C-41.94669922 6.58888672 -41.94669922 6.58888672 -40.42578125 6.48828125 C-39.28689453 6.43220703 -39.28689453 6.43220703 -38.125 6.375 C-35.26109569 11.106668 -33.98626669 13.61864207 -34 19.1875 C-33.99613281 20.74404297 -33.99613281 20.74404297 -33.9921875 22.33203125 C-34.11423825 25.12842942 -34.49136645 27.65439879 -35.125 30.375 C-34.54008789 30.28412109 -33.95517578 30.19324219 -33.35253906 30.09960938 C-30.69382836 29.68830546 -28.03443282 29.2816075 -25.375 28.875 C-23.99441406 28.66037109 -23.99441406 28.66037109 -22.5859375 28.44140625 C-21.69648437 28.30605469 -20.80703125 28.17070312 -19.890625 28.03125 C-18.66520996 27.84272461 -18.66520996 27.84272461 -17.41503906 27.65039062 C-15.125 27.375 -15.125 27.375 -11.125 27.375 C-11.14071045 26.69397217 -11.1564209 26.01294434 -11.17260742 25.3112793 C-11.23493222 22.22843719 -11.27398258 19.14572756 -11.3125 16.0625 C-11.33763672 14.99064453 -11.36277344 13.91878906 -11.38867188 12.81445312 C-11.39833984 11.78642578 -11.40800781 10.75839844 -11.41796875 9.69921875 C-11.4336792 8.75135498 -11.44938965 7.80349121 -11.46557617 6.8269043 C-11.125 4.375 -11.125 4.375 -9.7512207 2.58520508 C-6.79811278 0.38755368 -3.56829173 0.42819501 0 0 Z " fill="#D7CC09" transform="translate(88.125,-0.375)"/>
<path d="M0 0 C0.94875 0.12375 1.8975 0.2475 2.875 0.375 C4.6875 2.75 4.6875 2.75 5.875 5.375 C6.37 6.365 6.37 6.365 6.875 7.375 C6.94694869 10.25870333 6.96791708 13.11739664 6.9375 16 C6.93298828 16.80179688 6.92847656 17.60359375 6.92382812 18.4296875 C6.91203168 20.41149006 6.89409605 22.39325433 6.875 24.375 C7.88820312 24.19710938 7.88820312 24.19710938 8.921875 24.015625 C16.20560269 22.96306319 16.20560269 22.96306319 19.3125 24.875 C22.99883211 30.77313138 24.33701544 35.60691327 24.30859375 42.546875 C24.3138356 43.30993958 24.31907745 44.07300415 24.32447815 44.85919189 C24.33086711 46.46601147 24.32960209 48.07287801 24.32104492 49.6796875 C24.31256975 52.10504062 24.34127998 54.5280059 24.37304688 56.953125 C24.43422278 70.24263041 22.20347148 80.37108146 12.875 90.375 C8.52358612 94.70402238 4.74063235 98.32717397 -1.125 100.375 C-1.57875 99.26125 -2.0325 98.1475 -2.5 97 C-3.84965986 93.41300992 -3.84965986 93.41300992 -6.125 91.375 C-6.67769343 89.39180592 -7.22250957 87.40452998 -7.66796875 85.39453125 C-8.11766013 83.25259915 -8.11766013 83.25259915 -9 80.75 C-9.125 78.375 -9.125 78.375 -7.1875 75.5625 C-4.50065741 71.41010691 -4.79070135 69.22233041 -5.125 64.375 C-7.2170796 66.17214922 -7.2170796 66.17214922 -7.7890625 68.33203125 C-9.8628005 71.50327386 -13.02979559 72.04049851 -16.5 73.0625 C-17.50933594 73.38057617 -17.50933594 73.38057617 -18.5390625 73.70507812 C-24.73804951 75.63921088 -30.0600249 76.5805766 -36.5625 76.625 C-37.68881836 76.6559375 -37.68881836 76.6559375 -38.83789062 76.6875 C-43.40057069 76.71960329 -46.44487264 76.38933891 -50.125 73.375 C-50.125 72.715 -50.125 72.055 -50.125 71.375 C-43.195 71.375 -36.265 71.375 -29.125 71.375 C-29.125 70.715 -29.125 70.055 -29.125 69.375 C-27.145 68.88 -27.145 68.88 -25.125 68.375 C-28.755 67.715 -32.385 67.055 -36.125 66.375 C-29.83928571 58.80357143 -29.83928571 58.80357143 -26.125 56.375 C-25.64289062 56.79652344 -25.16078125 57.21804687 -24.6640625 57.65234375 C-24.03242187 58.20019531 -23.40078125 58.74804688 -22.75 59.3125 C-22.12351563 59.85777344 -21.49703125 60.40304688 -20.8515625 60.96484375 C-17.78101605 63.47268825 -15.30442587 63.71374619 -11.3515625 63.65625 C-6.1535693 62.99966138 -2.24628147 60.55378308 1.3125 56.8125 C3.99368568 52.62985034 4.29031474 49.27571396 3.875 44.375 C1.62240081 40.03666082 -0.5323437 37.17212638 -5.125 35.375 C-10.80224362 34.59293073 -15.72099407 34.82619161 -20.5859375 38.01953125 C-23.34431757 40.44886598 -25.16099624 43.2802062 -27.125 46.375 C-27.59550781 45.95347656 -28.06601562 45.53195313 -28.55078125 45.09765625 C-29.17339844 44.54980469 -29.79601563 44.00195312 -30.4375 43.4375 C-31.35982422 42.61958984 -31.35982422 42.61958984 -32.30078125 41.78515625 C-35.98657101 38.93596973 -39.99525614 38.9241966 -44.48046875 38.95703125 C-48.94918633 39.66331305 -52.07848152 42.11940672 -55.125 45.375 C-57.71876047 49.570789 -57.78931288 53.5708837 -57.125 58.375 C-55.47164778 62.81518817 -52.97641634 65.67253559 -49.125 68.375 C-50.57132813 69.06335938 -50.57132813 69.06335938 -52.046875 69.765625 C-53.32312733 70.38498275 -54.59915737 71.00479872 -55.875 71.625 C-56.82632813 72.07552734 -56.82632813 72.07552734 -57.796875 72.53515625 C-61.57233594 74.383559 -64.24975309 76.33852429 -67.125 79.375 C-67.785 79.375 -68.445 79.375 -69.125 79.375 C-69.62 80.365 -69.62 80.365 -70.125 81.375 C-72.47142239 76.74707599 -72.39541673 72.62194663 -72.3125 67.5625 C-72.30387939 66.73024902 -72.29525879 65.89799805 -72.28637695 65.04052734 C-72.25016962 62.48462968 -72.19233477 59.93025567 -72.125 57.375 C-72.09599609 56.20300049 -72.09599609 56.20300049 -72.06640625 55.00732422 C-72.00266237 52.83675123 -71.91398913 50.6691065 -71.8125 48.5 C-71.75449219 47.24445312 -71.69648437 45.98890625 -71.63671875 44.6953125 C-70.94387485 40.19976046 -69.30689806 37.55689806 -66.125 34.375 C-63.0859375 33.9609375 -63.0859375 33.9609375 -59.5 33.75 C-58.31148437 33.67523438 -57.12296875 33.60046875 -55.8984375 33.5234375 C-54.98320313 33.47445312 -54.06796875 33.42546875 -53.125 33.375 C-53.11041748 32.69397217 -53.09583496 32.01294434 -53.08081055 31.3112793 C-53.00637304 28.22777785 -52.90969917 25.14536433 -52.8125 22.0625 C-52.78994141 20.99064453 -52.76738281 19.91878906 -52.74414062 18.81445312 C-52.70869141 17.78642578 -52.67324219 16.75839844 -52.63671875 15.69921875 C-52.61053467 14.75135498 -52.58435059 13.80349121 -52.55737305 12.8269043 C-52.05568042 9.98190201 -51.43240339 9.06562731 -49.125 7.375 C-46.42578125 6.86328125 -46.42578125 6.86328125 -43.4375 6.6875 C-41.94669922 6.58888672 -41.94669922 6.58888672 -40.42578125 6.48828125 C-39.28689453 6.43220703 -39.28689453 6.43220703 -38.125 6.375 C-35.26109569 11.106668 -33.98626669 13.61864207 -34 19.1875 C-33.99613281 20.74404297 -33.99613281 20.74404297 -33.9921875 22.33203125 C-34.11423825 25.12842942 -34.49136645 27.65439879 -35.125 30.375 C-34.54008789 30.28412109 -33.95517578 30.19324219 -33.35253906 30.09960938 C-30.69382836 29.68830546 -28.03443282 29.2816075 -25.375 28.875 C-23.99441406 28.66037109 -23.99441406 28.66037109 -22.5859375 28.44140625 C-21.69648437 28.30605469 -20.80703125 28.17070312 -19.890625 28.03125 C-18.66520996 27.84272461 -18.66520996 27.84272461 -17.41503906 27.65039062 C-15.125 27.375 -15.125 27.375 -11.125 27.375 C-11.14071045 26.69397217 -11.1564209 26.01294434 -11.17260742 25.3112793 C-11.23493222 22.22843719 -11.27398258 19.14572756 -11.3125 16.0625 C-11.33763672 14.99064453 -11.36277344 13.91878906 -11.38867188 12.81445312 C-11.39833984 11.78642578 -11.40800781 10.75839844 -11.41796875 9.69921875 C-11.4336792 8.75135498 -11.44938965 7.80349121 -11.46557617 6.8269043 C-11.125 4.375 -11.125 4.375 -9.7512207 2.58520508 C-6.79811278 0.38755368 -3.56829173 0.42819501 0 0 Z " fill="#93D69E" transform="translate(88.125,-0.375)"/>
<path d="M0 0 C2.99417353 2.55385389 5.3603812 5.2832624 7.125 8.8125 C7.52899154 14.06439007 7.01490343 17.38131474 4.125 21.8125 C-0.68408872 26.4124979 -4.21116562 28.55880149 -10.8125 29.1875 C-15.09813853 29.08257853 -17.51747236 27.48326062 -20.875 24.8125 C-22.20603163 23.8094384 -23.53893102 22.80884204 -24.875 21.8125 C-25.47828125 22.43898438 -26.0815625 23.06546875 -26.703125 23.7109375 C-27.90195312 24.93683594 -27.90195312 24.93683594 -29.125 26.1875 C-29.91390625 26.99960937 -30.7028125 27.81171875 -31.515625 28.6484375 C-35.80832083 32.58577771 -38.99894932 33.22277691 -44.6953125 33.0546875 C-47.85075008 32.70408332 -49.49387072 31.92150022 -51.875 29.8125 C-55.28314388 25.20690016 -56.55638046 21.69622883 -56.25390625 15.94921875 C-55.39322127 11.09566531 -52.38285135 8.01211178 -48.75 4.9375 C-44.36718454 2.00932588 -39.97110679 2.01514996 -34.875 2.8125 C-31.11536759 4.44712278 -28.6546087 6.82699436 -25.875 9.8125 C-25.34712891 9.12414062 -25.34712891 9.12414062 -24.80859375 8.421875 C-18.25910104 0.2820355 -10.52219581 -4.34612436 0 0 Z " fill="#1C243D" transform="translate(85.875,35.1875)"/>
<path d="M0 0 C0.55429687 0.42152344 1.10859375 0.84304687 1.6796875 1.27734375 C2.40414062 1.82519531 3.12859375 2.37304688 3.875 2.9375 C4.59429687 3.48277344 5.31359375 4.02804688 6.0546875 4.58984375 C9.8957183 7.37420544 13.37428076 7.39216117 18 7 C19.6744239 6.3530635 21.34302621 5.69040574 23 5 C25.66900045 5.27554458 26.7816389 5.78562723 28.7109375 7.6796875 C32.61221625 12.82644491 35.85791764 18.07941363 38.8359375 23.8125 C39.81869752 25.91604705 39.81869752 25.91604705 41 27 C41.5 29.625 41.5 29.625 41 33 C37.13480266 38.46784014 32.0148069 41.3619268 26 44 C25.54625 42.88625 25.0925 41.7725 24.625 40.625 C23.27534014 37.03800992 23.27534014 37.03800992 21 35 C20.44730657 33.01680592 19.90249043 31.02952998 19.45703125 29.01953125 C19.00733987 26.87759915 19.00733987 26.87759915 18.125 24.375 C18 22 18 22 19.9375 19.1875 C22.62434259 15.03510691 22.33429865 12.84733041 22 8 C19.9079204 9.79714922 19.9079204 9.79714922 19.3359375 11.95703125 C17.2621995 15.12827386 14.09520441 15.66549851 10.625 16.6875 C9.61566406 17.00557617 9.61566406 17.00557617 8.5859375 17.33007812 C2.38695049 19.26421088 -2.9350249 20.2055766 -9.4375 20.25 C-10.56381836 20.2809375 -10.56381836 20.2809375 -11.71289062 20.3125 C-16.27557069 20.34460329 -19.31987264 20.01433891 -23 17 C-23 16.34 -23 15.68 -23 15 C-16.07 15 -9.14 15 -2 15 C-2 14.34 -2 13.68 -2 13 C-0.68 12.67 0.64 12.34 2 12 C-1.63 11.34 -5.26 10.68 -9 10 C-2.97321429 2.90178571 -2.97321429 2.90178571 0 0 Z " fill="#D766CA" transform="translate(61,56)"/>
<path d="M0 0 C4.72403852 1.9512333 7.72471109 5.44942218 10 10 C10.40331428 15.24308569 9.86051133 18.56127553 7 23 C4.3125 25.375 4.3125 25.375 2 27 C1.34 26.34 0.68 25.68 0 25 C-3.09926819 25.32198966 -3.09926819 25.32198966 -6 26 C-6 25.67 -6 25.34 -6 25 C-7.794375 24.6596875 -7.794375 24.6596875 -9.625 24.3125 C-14.16767308 23.2051224 -16.64032749 21.19168889 -20 18 C-18.49665796 12.65478385 -14.82879909 8.86491984 -11 5 C-7.78548731 3.39274365 -4.56387464 3.94251815 -1 4 C-4.48907359 3.08619501 -6.5443888 2.8481296 -10 4 C-13.74015824 6.49343883 -16.26918957 9.4654404 -19 13 C-19.99 12.67 -20.98 12.34 -22 12 C-18.01739037 2.22450365 -9.87378868 -1.18941679 0 0 Z " fill="#202841" transform="translate(83,34)"/>
<path d="M0 0 C1.48731668 2.97463337 1.4313052 4.67278843 1 8 C-2.9634444 15.00802799 -8.86098436 20.8937207 -16.59375 23.49609375 C-24.4015663 25.13117216 -31.99645372 24.89085905 -39 21 C-39.66 20.67 -40.32 20.34 -41 20 C-42.04644066 18.36209288 -43.0398183 16.68991979 -44 15 C-44.556875 14.154375 -45.11375 13.30875 -45.6875 12.4375 C-47 10 -47 10 -47 6 C-39.41 6 -31.82 6 -24 6 C-24 6.33 -24 6.66 -24 7 C-30.93 7 -37.86 7 -45 7 C-43.27773504 10.24849977 -43.27773504 10.24849977 -40 11 C-30.90141468 11.72871965 -22.47726661 11.32079106 -13.6875 8.75 C-12.62184814 8.44328369 -12.62184814 8.44328369 -11.53466797 8.13037109 C-7.42029327 6.81651212 -4.76736381 5.32937342 -2 2 C-2.99 1.67 -3.98 1.34 -5 1 C-2 0 -2 0 0 0 Z " fill="#242C43" transform="translate(83,64)"/>
<path d="M0 0 C6.20777435 3.72466461 12.75968279 7.92830291 14.953125 15.12890625 C15.4885448 18.42938686 15.79881821 21.66373526 16 25 C16.103125 25.75796875 16.20625 26.5159375 16.3125 27.296875 C16.83677733 32.7580972 14.44424718 36.06620726 11.41015625 40.3125 C10.94480469 40.869375 10.47945312 41.42625 10 42 C9.67 42 9.34 42 9 42 C8.74734375 41.15179688 8.4946875 40.30359375 8.234375 39.4296875 C6.91360423 35.759951 5.20504558 32.48165435 3.25 29.125 C2.7230957 28.21016846 2.7230957 28.21016846 2.18554688 27.27685547 C-0.55401461 22.59449244 -3.55718548 18.19919044 -7 14 C-6.21625 13.175 -5.4325 12.35 -4.625 11.5 C-1.58836 7.90420533 -0.86809043 4.57720406 0 0 Z " fill="#18C9D6" transform="translate(93,46)"/>
<path d="M0 0 C0.94875 0.12375 1.8975 0.2475 2.875 0.375 C4.6875 2.75 4.6875 2.75 5.875 5.375 C6.205 6.035 6.535 6.695 6.875 7.375 C7.02504973 8.7484635 7.12338006 10.1278526 7.19140625 11.5078125 C7.23330078 12.31347656 7.27519531 13.11914062 7.31835938 13.94921875 C7.35767578 14.79097656 7.39699219 15.63273438 7.4375 16.5 C7.48068359 17.34949219 7.52386719 18.19898437 7.56835938 19.07421875 C7.67454236 21.17428223 7.77528497 23.27461948 7.875 25.375 C2.44178366 26.86670895 -2.50076596 27.69870175 -8.125 28 C-8.80433594 28.03867187 -9.48367187 28.07734375 -10.18359375 28.1171875 C-11.83035817 28.20996296 -13.47763955 28.29348998 -15.125 28.375 C-13.805 28.045 -12.485 27.715 -11.125 27.375 C-11.14071045 26.69397217 -11.1564209 26.01294434 -11.17260742 25.3112793 C-11.23493222 22.22843719 -11.27398258 19.14572756 -11.3125 16.0625 C-11.33763672 14.99064453 -11.36277344 13.91878906 -11.38867188 12.81445312 C-11.39833984 11.78642578 -11.40800781 10.75839844 -11.41796875 9.69921875 C-11.4336792 8.75135498 -11.44938965 7.80349121 -11.46557617 6.8269043 C-11.125 4.375 -11.125 4.375 -9.7512207 2.58520508 C-6.79811278 0.38755368 -3.56829173 0.42819501 0 0 Z " fill="#D9DBE6" transform="translate(88.125,-0.375)"/>
<path d="M0 0 C2.3125 0.375 2.3125 0.375 4.0625 2.75 C4.475 3.61625 4.8875 4.4825 5.3125 5.375 C5.6425 6.035 5.9725 6.695 6.3125 7.375 C6.74664797 14.02857 6.59820772 20.08930378 4.3125 26.375 C0.17140746 27.09519001 -3.73757841 27.43397807 -7.9453125 27.40625 C-8.83621582 27.40173828 -9.72711914 27.39722656 -10.64501953 27.39257812 C-11.31903809 27.38677734 -11.99305664 27.38097656 -12.6875 27.375 C-12.60673802 23.60328169 -12.49388565 19.83319404 -12.375 16.0625 C-12.34116211 14.4547168 -12.34116211 14.4547168 -12.30664062 12.81445312 C-12.27119141 11.78642578 -12.23574219 10.75839844 -12.19921875 9.69921875 C-12.17303467 8.75135498 -12.14685059 7.80349121 -12.11987305 6.8269043 C-11.61712781 3.97593285 -10.99726034 3.07147089 -8.6875 1.375 C-5.79277841 0.68278397 -2.94297877 0.4106482 0 0 Z " fill="#DADBE7" transform="translate(47.6875,5.625)"/>
<path d="M0 0 C0.31453125 0.61488281 0.6290625 1.22976562 0.953125 1.86328125 C1.38109375 2.67152344 1.8090625 3.47976562 2.25 4.3125 C2.66765625 5.11300781 3.0853125 5.91351563 3.515625 6.73828125 C5.08656783 9.13190204 6.6267037 10.43301591 9 12 C7.55367187 12.68835938 7.55367187 12.68835938 6.078125 13.390625 C4.80187267 14.00998275 3.52584263 14.62979872 2.25 15.25 C1.61578125 15.55035156 0.9815625 15.85070312 0.328125 16.16015625 C-3.44733594 18.008559 -6.12475309 19.96352429 -9 23 C-9.66 23 -10.32 23 -11 23 C-11.33 23.66 -11.66 24.32 -12 25 C-14.64365683 19.12277945 -15.70079206 13.30066149 -14 7 C-10.30113299 3.59460598 -5.22153286 0 0 0 Z " fill="#D369CF" transform="translate(30,56)"/>
<path d="M0 0 C1.27351308 2.54702616 0.80191925 3.4282945 0.0625 6.125 C-0.13214844 6.84945312 -0.32679687 7.57390625 -0.52734375 8.3203125 C-0.68332031 8.87460937 -0.83929688 9.42890625 -1 10 C0.03125 9.67 1.0625 9.34 2.125 9 C6.14898278 7.8491246 10.12724044 7.06362022 14 9 C14 8.34 14 7.68 14 7 C17.465 6.505 17.465 6.505 21 6 C21 6.66 21 7.32 21 8 C22.32 7.34 23.64 6.68 25 6 C24.00102287 8.99693138 23.34869747 10.02709413 21 12 C20.34 12 19.68 12 19 12 C19 12.66 19 13.32 19 14 C18.01 14.495 18.01 14.495 17 15 C17.33 16.32 17.66 17.64 18 19 C13.65443888 21.4733239 9.89992518 21.54443613 5 21 C0.85655761 19.43469954 -1.20009973 16.96130895 -3.28515625 13.05078125 C-4.55243681 9.4151403 -4.30965398 5.79326132 -4 2 C-3.01 2.33 -2.02 2.66 -1 3 C-0.67 2.01 -0.34 1.02 0 0 Z " fill="#272A47" transform="translate(34,47)"/>
<path d="M0 0 C-0.94875 0.7425 -1.8975 1.485 -2.875 2.25 C-5.34512607 4.33071796 -6.98452097 5.86124663 -8 9 C-7.95875 10.093125 -7.9175 11.18625 -7.875 12.3125 C-9.54937639 17.80073373 -13.33955924 19.07091711 -18.21484375 21.71484375 C-21 23 -21 23 -23 23 C-22.67 17.72 -22.34 12.44 -22 7 C-3.52380952 -1.76190476 -3.52380952 -1.76190476 0 0 Z " fill="#1BC5D6" transform="translate(39,40)"/>
<path d="M0 0 C-0.5390625 1.83203125 -0.5390625 1.83203125 -2 4 C-4.49562558 5.08416521 -6.78571375 5.92493558 -9.375 6.6875 C-10.38433594 7.00557617 -10.38433594 7.00557617 -11.4140625 7.33007812 C-17.61304951 9.26421088 -22.9350249 10.2055766 -29.4375 10.25 C-30.18837891 10.270625 -30.93925781 10.29125 -31.71289062 10.3125 C-36.27557069 10.34460329 -39.31987264 10.01433891 -43 7 C-43 6.34 -43 5.68 -43 5 C-42.44763672 4.98541748 -41.89527344 4.97083496 -41.32617188 4.95581055 C-27.55244858 4.55212748 -13.33057784 0 0 0 Z " fill="#D9D7DF" transform="translate(81,66)"/>
<path d="M0 0 C0.66 0 1.32 0 2 0 C4.39081975 3.58622962 4.73131746 4.77461021 4 9 C0.11055172 14.46177843 -4.9724872 17.35635403 -11 20 C-11.474375 18.88625 -11.94875 17.7725 -12.4375 16.625 C-13.25306463 14.73289006 -14.07856355 12.84287291 -15 11 C-14.08476563 10.37351562 -13.16953125 9.74703125 -12.2265625 9.1015625 C-11.02596568 8.27615218 -9.82544901 7.45062527 -8.625 6.625 C-7.72007813 6.00625 -7.72007813 6.00625 -6.796875 5.375 C-4.36217249 3.6977605 -2.09532229 2.09532229 0 0 Z " fill="#B648AB" transform="translate(98,80)"/>
<path d="M0 0 C0.55429687 0.42152344 1.10859375 0.84304687 1.6796875 1.27734375 C2.40414062 1.82519531 3.12859375 2.37304688 3.875 2.9375 C4.59429687 3.48277344 5.31359375 4.02804688 6.0546875 4.58984375 C9.91491018 7.38811762 13.36040302 7.35817355 18 7 C20.4143305 6.47908441 22.65091325 5.78302892 25 5 C24.34 6.65 23.68 8.3 23 10 C22.67 9.34 22.34 8.68 22 8 C20.35 8.33 18.7 8.66 17 9 C17 9.66 17 10.32 17 11 C4.51480638 14.44419134 4.51480638 14.44419134 -2 14 C-0.68 13.34 0.64 12.68 2 12 C-1.63 11.34 -5.26 10.68 -9 10 C-2.97321429 2.90178571 -2.97321429 2.90178571 0 0 Z " fill="#A2519D" transform="translate(61,56)"/>
<path d="M0 0 C3.87987021 4.89201026 4.15894179 8.83794624 4.16796875 14.921875 C4.17129715 15.70008606 4.17462555 16.47829712 4.17805481 17.28009033 C4.18311632 18.9276063 4.18546337 20.57513251 4.18530273 22.22265625 C4.18747978 24.72673781 4.20561723 27.23037192 4.22460938 29.734375 C4.22754546 31.33854017 4.22952882 32.94270742 4.23046875 34.546875 C4.23765427 35.28879089 4.24483978 36.03070679 4.25224304 36.79510498 C4.23161948 41.55803499 3.50080809 45.47489819 2 50 C1.67 50 1.34 50 1 50 C-0.59211503 43.29644527 -1.24540829 37.14847263 -0.9765625 30.2734375 C-0.95153656 29.39974518 -0.92651062 28.52605286 -0.90072632 27.62588501 C-0.81950916 24.87513546 -0.72254928 22.1252137 -0.625 19.375 C-0.56665959 17.49352181 -0.50935876 15.61201108 -0.453125 13.73046875 C-0.31407928 9.15318234 -0.16092724 4.57656721 0 0 Z " fill="#B1EFF3" transform="translate(108,27)"/>
<path d="M0 0 C0.99 0.495 0.99 0.495 2 1 C4.10328104 1.10329893 6.20774175 1.18325795 8.3125 1.25 C14.57876357 1.67143559 14.57876357 1.67143559 18.125 4.4375 C18.74375 5.283125 19.3625 6.12875 20 7 C20.99 7.66 21.98 8.32 23 9 C17.4731458 10.84228473 11.72767001 10.93820941 6 10 C3.08087287 7.77903499 1.42038898 5.36835101 0 2 C0 1.34 0 0.68 0 0 Z " fill="#817909" transform="translate(49,118)"/>
<path d="M0 0 C-2.19789943 4.51790439 -4.27938809 6.27516103 -9 8 C-13.43776676 8.55472084 -15.43896302 8.31168721 -19.375 6.125 C-22 4 -22 4 -23 2 C-17.25 1.875 -17.25 1.875 -15 3 C-15 2.34 -15 1.68 -15 1 C-10.03926578 -0.32286246 -5.08888488 -0.08893197 0 0 Z " fill="#D1CED6" transform="translate(87,50)"/>
<path d="M0 0 C-1.72407587 4.38855677 -4.82973873 6.91486937 -9 9 C-16.16010499 9.46194226 -16.16010499 9.46194226 -19.5 7.625 C-21 6 -21 6 -21 4 C-16.8306411 2.4116728 -13.46492339 1.69557341 -9 2 C-8.34 2.33 -7.68 2.66 -7 3 C-7 2.34 -7 1.68 -7 1 C-2.25 0 -2.25 0 0 0 Z " fill="#DBD6DC" transform="translate(55,53)"/>
<path d="M0 0 C2 1 2 1 3.11328125 3.19140625 C5.1609207 9.67710125 4.46130127 17.42414427 3 24 C1.68 24 0.36 24 -1 24 C-1.02712325 21.12493579 -1.04689851 18.25013092 -1.0625 15.375 C-1.07087891 14.56675781 -1.07925781 13.75851563 -1.08789062 12.92578125 C-1.1058955 8.49658082 -0.89622662 4.36116576 0 0 Z " fill="#D9E7F5" transform="translate(50,7)"/>
<path d="M0 0 C-7.40015719 6.8451454 -13.94165842 8.52093502 -23.9296875 8.30078125 C-27.91037704 7.91081548 -30.52089372 6.93283682 -34 5 C-34.66 4.67 -35.32 4.34 -36 4 C-35.67 3.34 -35.34 2.68 -35 2 C-33.865625 2.495 -32.73125 2.99 -31.5625 3.5 C-23.60496169 6.44204762 -16.67837374 5.22462777 -9 2 C-7.88625 1.4225 -6.7725 0.845 -5.625 0.25 C-3 -1 -3 -1 0 0 Z " fill="#5A4E07" transform="translate(78,80)"/>
<path d="M0 0 C1.21945313 -0.01417969 2.43890625 -0.02835938 3.6953125 -0.04296875 C6.875 0.1875 6.875 0.1875 9.875 2.1875 C7.20833333 4.85416667 4.54166667 7.52083333 1.875 10.1875 C0.6375 8.764375 0.6375 8.764375 -0.625 7.3125 C-4.15586411 3.73095363 -7.23638799 3.03036414 -12.125 2.1875 C-12.125 1.8575 -12.125 1.5275 -12.125 1.1875 C-8.04490228 0.21789503 -4.18893882 0.02223428 0 0 Z " fill="#20BFCA" transform="translate(58.125,35.8125)"/>
<path d="M0 0 C0.66 0 1.32 0 2 0 C4.34920874 4.68886785 4.43045925 9.1774349 4.625 14.3125 C4.66367188 15.14845703 4.70234375 15.98441406 4.7421875 16.84570312 C4.83595159 18.89679259 4.91904245 20.94836515 5 23 C3.35 23 1.7 23 0 23 C0 15.41 0 7.82 0 0 Z " fill="#D8E7F6" transform="translate(91,2)"/>
<path d="M0 0 C0.53109375 0.28617187 1.0621875 0.57234375 1.609375 0.8671875 C4.42895477 2.20326288 7.28410899 3.15786163 10.25 4.125 C11.86648437 4.65480469 11.86648437 4.65480469 13.515625 5.1953125 C14.33546875 5.46085937 15.1553125 5.72640625 16 6 C16 8.31 16 10.62 16 13 C9.79500337 12.11357191 6.44274216 9.80265345 2.6875 4.875 C0 1.17884131 0 1.17884131 0 0 Z " fill="#616A15" transform="translate(28,92)"/>
<path d="M0 0 C3 1 3 1 4.25 2.75 C5.17574966 5.52724898 4.77341204 7.21571665 4 10 C1.8125 10.8125 1.8125 10.8125 -1 11 C-3.625 8.6875 -3.625 8.6875 -6 6 C-6.99 5.34 -7.98 4.68 -9 4 C-7.88625 3.71125 -6.7725 3.4225 -5.625 3.125 C-1.99708908 2.30758671 -1.99708908 2.30758671 0 0 Z " fill="#B6A70A" transform="translate(70,115)"/>
<path d="M0 0 C0.99 0.33 1.98 0.66 3 1 C3 1.33 3 1.66 3 2 C-1.0752634 2.76776475 -4.91005447 3.11902034 -9.0546875 3.09765625 C-10.16328125 3.09443359 -11.271875 3.09121094 -12.4140625 3.08789062 C-13.55617188 3.07951172 -14.69828125 3.07113281 -15.875 3.0625 C-17.0403125 3.05798828 -18.205625 3.05347656 -19.40625 3.04882812 C-22.27088645 3.03708781 -25.13541633 3.0206657 -28 3 C-25.33294205 0.33294205 -23.71479741 0.64735033 -20 0.4375 C-2.13944868 -0.61438343 -2.13944868 -0.61438343 0 0 Z " fill="#D3C409" transform="translate(62,67)"/>
<path d="M0 0 C1.875 0.8125 1.875 0.8125 3.875 3.8125 C3.33445946 8.35304054 3.33445946 8.35304054 1.875 9.8125 C0.20882885 9.85313832 -1.45888095 9.855221 -3.125 9.8125 C-3.455 8.4925 -3.785 7.1725 -4.125 5.8125 C-4.785 5.8125 -5.445 5.8125 -6.125 5.8125 C-6.125 4.4925 -6.125 3.1725 -6.125 1.8125 C-3.90523089 0.46478304 -2.62352224 -0.23148726 0 0 Z " fill="#AF9B0A" transform="translate(83.125,92.1875)"/>
<path d="M0 0 C0.61875 0.78375 1.2375 1.5675 1.875 2.375 C3.89858661 4.96837647 3.89858661 4.96837647 6 7 C6 7.99 6 8.98 6 10 C12.64558134 12.60900601 18.88515313 13.6143354 26 14 C25.67 14.66 25.34 15.32 25 16 C17.45491403 16.26840227 11.74637626 15.63266414 5 12 C5 11.34 5 10.68 5 10 C3.68 9.67 2.36 9.34 1 9 C0.67 6.03 0.34 3.06 0 0 Z " fill="#AEA807" transform="translate(36,74)"/>
<path d="M0 0 C0.66 0.33 1.32 0.66 2 1 C2.9298423 4.32526386 3.24508561 7.55814556 3 11 C0.5625 14.125 0.5625 14.125 -2 16 C-2.68025637 14.00458132 -3.34490497 12.00382009 -4 10 C-4.309375 9.34 -4.61875 8.68 -4.9375 8 C-5.04788661 4.46762834 -2.31823549 2.48786248 0 0 Z " fill="#1DB4C9" transform="translate(104,72)"/>
<path d="M0 0 C3.85645478 1.13940709 7.06505829 2.17794066 10 5 C10 5.99 10 6.98 10 8 C-1.52164009 7.03644647 -1.52164009 7.03644647 -7 6 C-6.21625 5.38125 -5.4325 4.7625 -4.625 4.125 C-2.03162353 2.10141339 -2.03162353 2.10141339 0 0 Z " fill="#D363C0" transform="translate(59,60)"/>
<path d="M0 0 C0.33 0 0.66 0 1 0 C1.02505615 1.21059082 1.0501123 2.42118164 1.07592773 3.66845703 C1.17034884 8.17490587 1.27048388 12.681213 1.37231445 17.1875 C1.41553236 19.13505734 1.45721631 21.08264937 1.49731445 23.03027344 C1.55533658 25.83539262 1.61893784 28.64033933 1.68359375 31.4453125 C1.70866249 32.74409836 1.70866249 32.74409836 1.73423767 34.06912231 C1.82073021 37.6267805 1.98151517 40.90224946 2.64477539 44.40966797 C3 47 3 47 1 50 C-0.59211503 43.29644527 -1.24540829 37.14847263 -0.9765625 30.2734375 C-0.95153656 29.39974518 -0.92651062 28.52605286 -0.90072632 27.62588501 C-0.81950916 24.87513546 -0.72254928 22.1252137 -0.625 19.375 C-0.56665959 17.49352181 -0.50935876 15.61201108 -0.453125 13.73046875 C-0.31407928 9.15318234 -0.16092724 4.57656721 0 0 Z " fill="#91E4E5" transform="translate(108,27)"/>
<path d="M0 0 C2.49361571 1.20381448 4.68143083 2.45428722 7 4 C12.30443635 4.6870508 17.04487015 4.03287378 22 2 C22 3.32 22 4.64 22 6 C17.76867916 8.11566042 13.66247995 8.74965364 9 8 C5.05601918 5.91638749 2.41272352 3.75312548 0 0 Z " fill="#58195D" transform="translate(62,56)"/>
<path d="M0 0 C1.45887389 2.91774779 1.36823233 4.74728105 1 8 C-0.29063019 10.72589997 -1.79396423 12.936473 -4 15 C-7.3125 15.9375 -7.3125 15.9375 -10 16 C-9.38511719 15.23816406 -9.38511719 15.23816406 -8.7578125 14.4609375 C-5.60713656 10.4359113 -3.26203939 7.04815754 -2 2 C-2.99 1.67 -3.98 1.34 -5 1 C-2 0 -2 0 0 0 Z " fill="#723562" transform="translate(83,64)"/>
<path d="M0 0 C0.66 0.99 1.32 1.98 2 3 C0.80375 3.226875 -0.3925 3.45375 -1.625 3.6875 C-6.19157643 4.8149496 -8.65273903 6.73437954 -12 10 C-12.33 10.66 -12.66 11.32 -13 12 C-13.66 12 -14.32 12 -15 12 C-14.9158797 9.13990965 -14.43181261 7.45351173 -12.4453125 5.3671875 C-5.55035699 -0.5550357 -5.55035699 -0.5550357 0 0 Z " fill="#1C2F4A" transform="translate(46,38)"/>
<path d="M0 0 C0.33 0 0.66 0 1 0 C2.49836149 5.77939433 3.41971194 11.01910492 3 17 C2.34 17.66 1.68 18.32 1 19 C-3.05786026 6.11572052 -3.05786026 6.11572052 0 0 Z " fill="#35CBDF" transform="translate(106,62)"/>
<path d="M0 0 C2.09350689 3.4019487 2.17942163 6.05272412 2 10 C0.1875 9.8125 0.1875 9.8125 -2 9 C-5 4.82142857 -5 4.82142857 -5 2 C-2 0 -2 0 0 0 Z " fill="#C3B414" transform="translate(76,103)"/>
<path d="M0 0 C2 2 2 2 2.3125 5.25 C1.89497318 10.26032187 0.67044458 13.56819036 -3.1875 16.875 C-3.785625 17.24625 -4.38375 17.6175 -5 18 C-4.45109884 13.38923027 -3.0617782 10.1235564 -1 6 C-0.29241674 2.7633037 -0.29241674 2.7633037 0 0 Z " fill="#246A65" transform="translate(91,42)"/>
<path d="M0 0 C0.66 0.33 1.32 0.66 2 1 C0.33333333 4.33333333 -1.33333333 7.66666667 -3 11 C-3.66 10.34 -4.32 9.68 -5 9 C-8.09926819 9.32198966 -8.09926819 9.32198966 -11 10 C-9.75079404 6.25238211 -8.08324577 5.77852957 -4.72265625 3.984375 C-2.8227332 2.89870469 -1.41643431 1.66639331 0 0 Z " fill="#243148" transform="translate(88,50)"/>
<path d="M0 0 C0.33 0 0.66 0 1 0 C1.02505615 1.06959961 1.0501123 2.13919922 1.07592773 3.24121094 C1.17019528 7.21463727 1.27036858 11.18789668 1.37231445 15.16113281 C1.41559016 16.87984305 1.45727041 18.59859424 1.49731445 20.31738281 C1.55519565 22.789839 1.61883836 25.26209047 1.68359375 27.734375 C1.70030624 28.50118591 1.71701874 29.26799683 1.73423767 30.05804443 C1.83012865 33.52173984 2.07915862 36.66366251 3 40 C2.34 40 1.68 40 1 40 C-0.63945963 36.72108075 -0.12030178 33.09386466 -0.09765625 29.4921875 C-0.0962413 28.65156769 -0.09482635 27.81094788 -0.09336853 26.94485474 C-0.08776237 24.25486725 -0.07520886 21.56496241 -0.0625 18.875 C-0.05748579 17.05338662 -0.05292275 15.23177193 -0.04882812 13.41015625 C-0.03779094 8.94007223 -0.0205222 4.47005014 0 0 Z " fill="#9AEAEE" transform="translate(109,30)"/>
<path d="M0 0 C0 0.99 0 1.98 0 3 C-3.06246747 4.78409802 -5.22079273 5.22880021 -8.75 5.125 C-9.54921875 5.10695313 -10.3484375 5.08890625 -11.171875 5.0703125 C-11.77515625 5.04710938 -12.3784375 5.02390625 -13 5 C-13.33 4.01 -13.66 3.02 -14 2 C-12.4176994 1.66179834 -10.83410625 1.32964061 -9.25 1 C-8.36828125 0.814375 -7.4865625 0.62875 -6.578125 0.4375 C-4 0 -4 0 0 0 Z " fill="#554709" transform="translate(52,63)"/>
<path d="M0 0 C7.75 5.75 7.75 5.75 10 8 C9.39671875 7.855625 8.7934375 7.71125 8.171875 7.5625 C7.37265625 7.376875 6.5734375 7.19125 5.75 7 C4.96109375 6.814375 4.1721875 6.62875 3.359375 6.4375 C0.74443998 5.87845172 0.74443998 5.87845172 -3 6 C-4.7511573 7.4166747 -4.7511573 7.4166747 -6 9 C-6.66 8.67 -7.32 8.34 -8 8 C-5.36 5.36 -2.72 2.72 0 0 Z " fill="#B243AC" transform="translate(61,56)"/>
<path d="M0 0 C2.5 1.125 2.5 1.125 5 3 C5.608676 6.57597151 5.44405832 8.29690766 3.5 11.375 C3.005 11.91125 2.51 12.4475 2 13 C1.87882812 12.36191406 1.75765625 11.72382812 1.6328125 11.06640625 C1.46523437 10.24011719 1.29765625 9.41382812 1.125 8.5625 C0.96257812 7.73878906 0.80015625 6.91507812 0.6328125 6.06640625 C0.42398438 5.38449219 0.21515625 4.70257813 0 4 C-0.66 3.67 -1.32 3.34 -2 3 C-1.34 2.01 -0.68 1.02 0 0 Z " fill="#CBC64B" transform="translate(76,99)"/>
<path d="M0 0 C0.639375 0.804375 1.27875 1.60875 1.9375 2.4375 C3.40603502 4.2750504 3.40603502 4.2750504 5 6 C5.07179964 7.51928038 5.08392007 9.04167482 5.0625 10.5625 C5.05347656 11.38878906 5.04445313 12.21507813 5.03515625 13.06640625 C5.01775391 14.02353516 5.01775391 14.02353516 5 15 C0.77886985 9.43578299 -0.22675373 6.91598878 0 0 Z " fill="#DBE7C7" transform="translate(71,107)"/>
<path d="M0 0 C0.66 0 1.32 0 2 0 C2.31453125 0.61488281 2.6290625 1.22976562 2.953125 1.86328125 C3.38109375 2.67152344 3.8090625 3.47976562 4.25 4.3125 C4.66765625 5.11300781 5.0853125 5.91351563 5.515625 6.73828125 C7.08656783 9.13190204 8.6267037 10.43301591 11 12 C9.33157466 11.67558396 7.66519519 11.34060811 6 11 C5.278125 10.938125 4.55625 10.87625 3.8125 10.8125 C2 10 2 10 0.75 7.1875 C0 4 0 4 0 0 Z " fill="#A145B6" transform="translate(28,56)"/>
<path d="M0 0 C1.65 0 3.3 0 5 0 C4.06725891 1.12894876 3.12859878 2.25300876 2.1875 3.375 C1.66542969 4.00148438 1.14335938 4.62796875 0.60546875 5.2734375 C-1 7 -1 7 -4 9 C-4 8.34 -4 7.68 -4 7 C-4.66 6.67 -5.32 6.34 -6 6 C-5.01 5.67 -4.02 5.34 -3 5 C-3 4.34 -3 3.68 -3 3 C-2.34 3 -1.68 3 -1 3 C-0.67 2.01 -0.34 1.02 0 0 Z " fill="#511E3B" transform="translate(56,56)"/>
<path d="M0 0 C0.515625 0.268125 1.03125 0.53625 1.5625 0.8125 C4.66401415 2.32349407 7.82262806 3.65572726 11 5 C11 5.66 11 6.32 11 7 C10.01 7.33 9.02 7.66 8 8 C8.33 8.66 8.66 9.32 9 10 C5.53239092 8.84413031 4.90436978 7.89246192 2.8125 5 C2.28269531 4.278125 1.75289062 3.55625 1.20703125 2.8125 C0 1 0 1 0 0 Z " fill="#707F39" transform="translate(28,92)"/>
<path d="M0 0 C-1.36983503 3.16115776 -1.9890638 3.9927092 -5 6 C-7.6875 5.625 -7.6875 5.625 -10 5 C-10 4.34 -10 3.68 -10 3 C-11.65 3 -13.3 3 -15 3 C-15 2.67 -15 2.34 -15 2 C-9.25 1.875 -9.25 1.875 -7 3 C-7 2.34 -7 1.68 -7 1 C-2.25 0 -2.25 0 0 0 Z " fill="#9E9DAA" transform="translate(55,53)"/>
<path d="M0 0 C0 0.33 0 0.66 0 1 C-0.58007812 1.0515625 -1.16015625 1.103125 -1.7578125 1.15625 C-5.54533691 1.70625354 -8.15152309 2.16009357 -10.93359375 4.9140625 C-12.39345364 6.89555099 -13.74492767 8.88360352 -15 11 C-16 8 -16 8 -14.875 5.5 C-10.62852786 -0.16196286 -6.63996565 -0.33762537 0 0 Z " fill="#1A1B24" transform="translate(50,41)"/>
<path d="M0 0 C0.99 0 1.98 0 3 0 C2.67 1.32 2.34 2.64 2 4 C-0.31 4.33 -2.62 4.66 -5 5 C-5.99 3.68 -6.98 2.36 -8 1 C-2.25 0.875 -2.25 0.875 0 2 C0 1.34 0 0.68 0 0 Z " fill="#ADABB5" transform="translate(72,51)"/>
<path d="M0 0 C3.07629933 3.07629933 3.45536577 6.76702007 4 11 C3.88864086 13.44990119 3.5127946 15.58986539 3 18 C2.67 18 2.34 18 2 18 C0.59545452 11.88019467 -0.23268915 6.28260706 0 0 Z " fill="#6BDFF0" transform="translate(107,59)"/>
<path d="M0 0 C3.80257473 1.51589128 5.73055864 3.7602045 8.25 6.9375 C8.95640625 7.81277344 9.6628125 8.68804687 10.390625 9.58984375 C12 12 12 12 12 15 C7.0637586 10.44784655 3.29896656 5.85300518 0 0 Z " fill="#BDD7CF" transform="translate(21,86)"/>
<path d="M0 0 C-0.33 0.99 -0.66 1.98 -1 3 C-1.99 3 -2.98 3 -4 3 C-4.66 3.66 -5.32 4.32 -6 5 C-6 4.34 -6 3.68 -6 3 C-6.99 3 -7.98 3 -9 3 C-9 3.66 -9 4.32 -9 5 C-11.64 4.67 -14.28 4.34 -17 4 C-17 3.67 -17 3.34 -17 3 C-16.22914062 2.86722656 -15.45828125 2.73445313 -14.6640625 2.59765625 C-13.66117188 2.42105469 -12.65828125 2.24445312 -11.625 2.0625 C-10.62726562 1.88847656 -9.62953125 1.71445312 -8.6015625 1.53515625 C-1.13868613 0 -1.13868613 0 0 0 Z " fill="#363A4C" transform="translate(57,51)"/>
<path d="M0 0 C0.66 0.33 1.32 0.66 2 1 C1.67 1.99 1.34 2.98 1 4 C-1.875 4.625 -1.875 4.625 -5 5 C-5.66 4.34 -6.32 3.68 -7 3 C-4.69631264 1.93347808 -2.35981813 0.93578995 0 0 Z " fill="#49143B" transform="translate(83,58)"/>
<path d="M0 0 C0.66 0.33 1.32 0.66 2 1 C0.68 3.64 -0.64 6.28 -2 9 C-2.99 8.67 -3.98 8.34 -5 8 C-3.62845496 5.04590299 -2.01136276 2.55991624 0 0 Z " fill="#223850" transform="translate(66,38)"/>
<path d="M0 0 C2.52259061 1.97420135 2.9929808 2.96745642 3.6875 6.1875 C3.790625 7.115625 3.89375 8.04375 4 9 C3.01 9.495 3.01 9.495 2 10 C0.68373308 6.38026598 0 3.90432869 0 0 Z " fill="#C5C045" transform="translate(71,115)"/>
<path d="M0 0 C0.33 0.66 0.66 1.32 1 2 C3.11327425 2.90725434 3.11327425 2.90725434 5.5625 3.625 C6.38878906 3.88539062 7.21507812 4.14578125 8.06640625 4.4140625 C9.02353516 4.70410156 9.02353516 4.70410156 10 5 C10 5.33 10 5.66 10 6 C6.05272412 6.17942163 3.4019487 6.09350689 0 4 C0 2.68 0 1.36 0 0 Z " fill="#ACA704" transform="translate(41,82)"/>
<path d="M0 0 C2.4375 1.125 2.4375 1.125 5 3 C5.8125 6.1875 5.8125 6.1875 6 9 C2.91910327 6.22719294 1.31224548 3.93673644 0 0 Z " fill="#8DA37D" transform="translate(49,118)"/>
<path d="M0 0 C2.5 1.125 2.5 1.125 5 3 C5.3125 6.1875 5.3125 6.1875 5 9 C0.57142857 3.85714286 0.57142857 3.85714286 0 0 Z " fill="#DAE3B4" transform="translate(76,99)"/>
<path d="M0 0 C0.33 0 0.66 0 1 0 C1 1.65 1 3.3 1 5 C-0.98 5.33 -2.96 5.66 -5 6 C-3.35830472 3.97945196 -1.69088222 1.97956942 0 0 Z " fill="#5C3045" transform="translate(78,74)"/>
<path d="M0 0 C0.66 0.33 1.32 0.66 2 1 C1.67 1.99 1.34 2.98 1 4 C-0.98 4.33 -2.96 4.66 -5 5 C-4 2 -4 2 -2.0625 0.75 C-1.381875 0.5025 -0.70125 0.255 0 0 Z " fill="#2E354F" transform="translate(82,55)"/>
</svg>
