<?xml version="1.0" encoding="UTF-8"?>
<svg version="1.1" xmlns="http://www.w3.org/2000/svg" width="200" height="200">
<path d="M0 0 C66 0 132 0 200 0 C200 66 200 132 200 200 C134 200 68 200 0 200 C0 134 0 68 0 0 Z " fill="#FEFEFE" transform="translate(0,0)"/>
<path d="M0 0 C0.33 12.54 0.66 25.08 1 38 C1.99 38 2.98 38 4 38 C3.83628906 37.43394043 3.67257813 36.86788086 3.50390625 36.28466797 C2.98100501 33.91387835 2.90138717 31.869386 2.9375 29.4453125 C2.94523437 28.58292969 2.95296875 27.72054687 2.9609375 26.83203125 C2.98686646 25.03515462 3.01290714 23.2382796 3.0390625 21.44140625 C3.08027708 16.83224262 2.95825958 12.53676021 2 8 C3.65 7.01 5.3 6.02 7 5 C7 5.66 7 6.32 7 7 C7.99 7.33 8.98 7.66 10 8 C10 8.66 10 9.32 10 10 C10.99 10 11.98 10 13 10 C13.33 9.34 13.66 8.68 14 8 C14 8.66 14 9.32 14 10 C14.75925781 9.91621094 15.51851563 9.83242188 16.30078125 9.74609375 C17.29464844 9.64425781 18.28851563 9.54242188 19.3125 9.4375 C20.79169922 9.28087891 20.79169922 9.28087891 22.30078125 9.12109375 C25 9 25 9 28 10 C28.99 10.99 28.99 10.99 30 12 C32.58354218 12.16687448 32.58354218 12.16687448 35 12 C34.01 13.65 33.02 15.3 32 17 C32.56509277 16.99476318 33.13018555 16.98952637 33.71240234 16.98413086 C36.2665903 16.96337578 38.82076053 16.9503446 41.375 16.9375 C42.70917969 16.92493164 42.70917969 16.92493164 44.0703125 16.91210938 C44.92109375 16.90888672 45.771875 16.90566406 46.6484375 16.90234375 C47.43395996 16.89710693 48.21948242 16.89187012 49.02880859 16.88647461 C51 17 51 17 53 18 C53.99 17.95875 54.98 17.9175 56 17.875 C59.33690613 17.80402064 62.0712322 18.50921933 65.25 19.5078125 C66.14203125 19.78512207 67.0340625 20.06243164 67.953125 20.34814453 C68.62859375 20.56325684 69.3040625 20.77836914 70 21 C70.05104406 28.6130891 70.08587707 36.22613344 70.10986328 43.83935547 C70.11987133 46.42498423 70.1334819 49.01060181 70.15087891 51.59619141 C70.17535674 55.3297808 70.18653544 59.06321951 70.1953125 62.796875 C70.20563507 63.93799744 70.21595764 65.07911987 70.22659302 66.25482178 C70.22906582 84.26508068 65.44010941 99.28893675 55 114 C54.24203125 115.07507813 54.24203125 115.07507813 53.46875 116.171875 C52.02381553 118.15481698 50.53215734 120.08381356 49 122 C48.49082031 122.64453125 47.98164063 123.2890625 47.45703125 123.953125 C42.62308443 129.78601095 36.97241445 134.37382651 31 139 C30.18015625 139.65871094 29.3603125 140.31742188 28.515625 140.99609375 C22.7354372 145.45689086 16.57364702 149.1134716 10.1875 152.625 C9.37474609 153.08769287 8.56199219 153.55038574 7.72460938 154.02709961 C1.85492989 157.15368383 1.85492989 157.15368383 -2.28125 156.41015625 C-3.1784375 155.94480469 -4.075625 155.47945312 -5 155 C-6.18142578 154.48373047 -6.18142578 154.48373047 -7.38671875 153.95703125 C-18.29578278 148.53028123 -27.72833066 141.88020901 -37 134 C-37.68707031 133.45988281 -38.37414062 132.91976562 -39.08203125 132.36328125 C-53.73460813 120.51588202 -66.49863104 100.47909038 -70 82 C-70.89178706 72.37141405 -70.60219764 62.67601187 -70.4119873 53.01898193 C-70.34967334 49.51222762 -70.32300994 46.00519981 -70.29296875 42.49804688 C-70.22937091 35.6647116 -70.1275091 28.83243478 -70 22 C-61.31006107 18.68957925 -52.64030002 15.42714937 -43.75 12.6875 C-41.89297671 12.10757863 -40.03622015 11.52680268 -38.1796875 10.9453125 C-37.19967773 10.63883789 -36.21966797 10.33236328 -35.20996094 10.01660156 C-31.63531937 8.88450486 -28.07095284 7.72231462 -24.5078125 6.5546875 C-23.22823076 6.13700109 -21.94860847 5.71943888 -20.66894531 5.30200195 C-18.17470099 4.48711917 -15.68181468 3.66806576 -13.19042969 2.84448242 C-12.05250977 2.47427979 -10.91458984 2.10407715 -9.7421875 1.72265625 C-8.7301123 1.39015869 -7.71803711 1.05766113 -6.67529297 0.71508789 C-4 0 -4 0 0 0 Z " fill="#0A3DF4" transform="translate(100,22)"/>
<path d="M0 0 C4.76079687 0.56504407 8.9833496 1.53150885 13.5 3.125 C21.25446474 5.81281056 29.09597596 8.17784478 36.96679688 10.50048828 C42.15428906 12.05192941 47.05665229 13.79664323 52 16 C53.30191187 16.42937834 54.61245011 16.83595615 55.9375 17.1875 C56.948125 17.455625 57.95875 17.72375 59 18 C57.1875 19.0625 57.1875 19.0625 55 20 C54.01 19.67 53.02 19.34 52 19 C50.44578271 18.91893314 48.88832973 18.89243102 47.33203125 18.90234375 C46.43935547 18.90556641 45.54667969 18.90878906 44.62695312 18.91210938 C43.69818359 18.92048828 42.76941406 18.92886719 41.8125 18.9375 C40.87212891 18.94201172 39.93175781 18.94652344 38.96289062 18.95117188 C36.64186288 18.96295374 34.32096356 18.97940442 32 19 C33.32 17.35 34.64 15.7 36 14 C34.02 13.67 32.04 13.34 30 13 C30 12.34 30 11.68 30 11 C28.12054688 11.06960937 28.12054688 11.06960937 26.203125 11.140625 C24.55210719 11.17814813 22.90106358 11.21454771 21.25 11.25 C20.425 11.28351562 19.6 11.31703125 18.75 11.3515625 C12.57702246 11.45112665 12.57702246 11.45112665 9.421875 8.984375 C8.95265625 8.32953125 8.4834375 7.6746875 8 7 C7.01 7.66 6.02 8.32 5 9 C5.16371094 10.0828125 5.32742187 11.165625 5.49609375 12.28125 C6.17178024 17.68674192 6.1088986 23.06065617 6.0625 28.5 C6.05798828 29.51320313 6.05347656 30.52640625 6.04882812 31.5703125 C6.03714593 34.04693827 6.02076582 36.52343657 6 39 C5.01 39 4.02 39 3 39 C2.12980756 30.39421862 1.87392633 21.8960185 1.9375 13.25 C1.94201172 12.0640625 1.94652344 10.878125 1.95117188 9.65625 C1.96280684 6.77077772 1.9791516 3.88541787 2 1 C1.34 0.67 0.68 0.34 0 0 Z " fill="#41F895" transform="translate(98,21)"/>
<path d="M0 0 C1.98 0 3.96 0 6 0 C6 2.31 6 4.62 6 7 C8.31 7.66 10.62 8.32 13 9 C13.33 11.31 13.66 13.62 14 16 C16.31 16.33 18.62 16.66 21 17 C21.4640625 18.670625 21.4640625 18.670625 21.9375 20.375 C22.82326483 23.7945155 22.82326483 23.7945155 24 26 C25.98 25.34 27.96 24.68 30 24 C30.33 26.64 30.66 29.28 31 32 C33.31 32 35.62 32 38 32 C38 33.65 38 35.3 38 37 C34.30425135 37.35223411 32.467255 37.29691564 29.2890625 35.27734375 C28.40992187 34.50519531 27.53078125 33.73304688 26.625 32.9375 C25.66851562 32.10476562 24.71203125 31.27203125 23.7265625 30.4140625 C22.82679687 29.61742187 21.92703125 28.82078125 21 28 C20.30648437 27.45085937 19.61296875 26.90171875 18.8984375 26.3359375 C11.33757636 20.2685798 5.34999306 12.02498959 0 4 C0 2.68 0 1.36 0 0 Z " fill="#0E0BF4" transform="translate(42,128)"/>
<path d="M0 0 C5.12961281 0.59060225 9.80153828 1.74639519 14.6875 3.4375 C15.33783203 3.65470703 15.98816406 3.87191406 16.65820312 4.09570312 C19.89591212 5.19474196 22.99417176 6.36391628 26 8 C24.64567321 7.85566132 23.29154775 7.70943339 21.9375 7.5625 C21.11636719 7.47613281 20.29523438 7.38976562 19.44921875 7.30078125 C17.36896578 7.04531159 15.3051804 6.66103608 13.25 6.25 C9.44404139 5.95723395 7.99428598 6.73160153 5 9 C5.16371094 10.0828125 5.32742187 11.165625 5.49609375 12.28125 C6.17178024 17.68674192 6.1088986 23.06065617 6.0625 28.5 C6.05798828 29.51320313 6.05347656 30.52640625 6.04882812 31.5703125 C6.03714593 34.04693827 6.02076582 36.52343657 6 39 C5.01 39 4.02 39 3 39 C2.12980756 30.39421862 1.87392633 21.8960185 1.9375 13.25 C1.94201172 12.0640625 1.94652344 10.878125 1.95117188 9.65625 C1.96280684 6.77077772 1.9791516 3.88541787 2 1 C1.34 0.67 0.68 0.34 0 0 Z " fill="#4DDFA8" transform="translate(98,21)"/>
<path d="M0 0 C-0.33 1.32 -0.66 2.64 -1 4 C-1.33 3.34 -1.66 2.68 -2 2 C-2.66 4.31 -3.32 6.62 -4 9 C-6.64 9 -9.28 9 -12 9 C-12 8.34 -12 7.68 -12 7 C-13.65 7.33 -15.3 7.66 -17 8 C-17 24.17 -17 40.34 -17 57 C-17.33 57 -17.66 57 -18 57 C-18 39.84 -18 22.68 -18 5 C-5 0 -5 0 0 0 Z " fill="#150CF9" transform="translate(48,39)"/>
<path d="M0 0 C5.94 1.485 5.94 1.485 12 3 C12 17.19 12 31.38 12 46 C9.86594539 41.73189078 9.73887658 38.78172107 9.8046875 34.171875 C9.8075174 33.42286926 9.81034729 32.67386353 9.81326294 31.90216064 C9.8244274 29.51794224 9.84952469 27.13410421 9.875 24.75 C9.88503465 23.13021377 9.89415965 21.51042164 9.90234375 19.890625 C9.92435445 15.92693754 9.95885825 11.96353319 10 8 C6.37 8 2.74 8 -1 8 C-0.01 7.67 0.98 7.34 2 7 C2 6.34 2 5.68 2 5 C1.34 5 0.68 5 0 5 C0 3.35 0 1.7 0 0 Z " fill="#33D6B8" transform="translate(158,40)"/>
<path d="M0 0 C0.66 0.33 1.32 0.66 2 1 C2.66 1 3.32 1 4 1 C3.00760137 8.77378927 -2.13955544 12.284307 -8 17 C-8.78117188 17.6290625 -9.56234375 18.258125 -10.3671875 18.90625 C-15.63885613 23 -15.63885613 23 -18 23 C-18 20.36 -18 17.72 -18 15 C-15.36 15 -12.72 15 -10 15 C-8.99782936 11.41672247 -8.99782936 11.41672247 -10 8 C-7.1875 7.375 -7.1875 7.375 -4 7 C-3.01 7.66 -2.02 8.32 -1 9 C-1.20625 8.443125 -1.4125 7.88625 -1.625 7.3125 C-2.10695211 4.340462 -1.26565028 2.68020059 0 0 Z " fill="#0517F8" transform="translate(138,145)"/>
<path d="M0 0 C1.34661893 4.03985678 -0.00812069 6.7199696 -1.375 10.5625 C-1.60960937 11.24763672 -1.84421875 11.93277344 -2.0859375 12.63867188 C-2.9547634 15.15382413 -3.80859943 17.61719886 -5 20 C-5.66 20 -6.32 20 -7 20 C-7.8723412 17.00519083 -8.10829766 14.36424089 -8.0625 11.25 C-8.05347656 10.45078125 -8.04445312 9.6515625 -8.03515625 8.828125 C-8.02355469 8.22484375 -8.01195312 7.6215625 -8 7 C-7.34 6.67 -6.68 6.34 -6 6 C-5.7763932 3.0745356 -5.7763932 3.0745356 -7 1 C-5.5459375 1.0309375 -5.5459375 1.0309375 -4.0625 1.0625 C-1.12534105 1.35618499 -1.12534105 1.35618499 0 0 Z " fill="#0B64F9" transform="translate(168,103)"/>
<path d="M0 0 C-0.33 0.66 -0.66 1.32 -1 2 C-1.99 2.33 -2.98 2.66 -4 3 C-4.33 3.99 -4.66 4.98 -5 6 C-9.25395172 8.83596781 -12.99130516 9.33847427 -18 10 C-18 9.34 -18 8.68 -18 8 C-20.31 8.33 -22.62 8.66 -25 9 C-22.81810497 5.72715745 -22.33820683 5.49493905 -18.7890625 4.39453125 C-17.95632812 4.13349609 -17.12359375 3.87246094 -16.265625 3.60351562 C-15.39421875 3.34248047 -14.5228125 3.08144531 -13.625 2.8125 C-12.76132813 2.53986328 -11.89765625 2.26722656 -11.0078125 1.98632812 C-7.09053524 0.78031452 -4.15215956 0 0 0 Z " fill="#0D07F6" transform="translate(100,22)"/>
<path d="M0 0 C0.33 0 0.66 0 1 0 C1 3.96 1 7.92 1 12 C1.99 12 2.98 12 4 12 C3.86722656 13.01578125 3.73445313 14.0315625 3.59765625 15.078125 C2.52824586 23.37464723 1.60069363 31.65352005 1 40 C1.66 40 2.32 40 3 40 C2.34 42.64 1.68 45.28 1 48 C1.66 48 2.32 48 3 48 C3 49.65 3 51.3 3 53 C2.01 53.495 2.01 53.495 1 54 C0.09713249 50.91398919 -0.1216323 48.16638994 -0.11352539 44.95605469 C-0.11344986 43.95531921 -0.11337433 42.95458374 -0.11329651 41.92352295 C-0.10813522 40.85047913 -0.10297394 39.7774353 -0.09765625 38.671875 C-0.0962413 37.56773254 -0.09482635 36.46359009 -0.09336853 35.32598877 C-0.08777258 31.80063158 -0.07522079 28.27533798 -0.0625 24.75 C-0.05748448 22.35937592 -0.05292166 19.96875084 -0.04882812 17.578125 C-0.03780447 11.71872832 -0.02107033 5.8593687 0 0 Z " fill="#0166FE" transform="translate(100,48)"/>
<path d="M0 0 C0.66 0.33 1.32 0.66 2 1 C2 14.86 2 28.72 2 43 C1.67 43 1.34 43 1 43 C0.67 39.37 0.34 35.74 0 32 C-0.66 32 -1.32 32 -2 32 C-1.505 30.515 -1.505 30.515 -1 29 C-0.90380655 26.56404245 -0.87017735 24.12535133 -0.875 21.6875 C-0.87242188 20.39199219 -0.86984375 19.09648438 -0.8671875 17.76171875 C-0.91402735 14.05862176 -0.91402735 14.05862176 -1.56640625 10.6875 C-2.08729784 7.45891071 -1.34375039 5.92463319 0 3 C0 2.01 0 1.02 0 0 Z " fill="#0602FA" transform="translate(98,80)"/>
<path d="M0 0 C0.33 0.99 0.66 1.98 1 3 C0.01 3.495 0.01 3.495 -1 4 C-0.34 5.32 0.32 6.64 1 8 C0.01 8 -0.98 8 -2 8 C-2 7.34 -2 6.68 -2 6 C-3.98 6 -5.96 6 -8 6 C-8 5.34 -8 4.68 -8 4 C-9.65 4.33 -11.3 4.66 -13 5 C-12.67 5.66 -12.34 6.32 -12 7 C-13.32 7.33 -14.64 7.66 -16 8 C-15.67 6.35 -15.34 4.7 -15 3 C-13.06643218 2.30151736 -11.12797702 1.61655186 -9.1875 0.9375 C-8.10855469 0.55464844 -7.02960937 0.17179687 -5.91796875 -0.22265625 C-3 -1 -3 -1 0 0 Z " fill="#0603F5" transform="translate(71,32)"/>
<path d="M0 0 C2.99166845 -0.06957368 5.6911644 -0.06617906 8.625 0.5625 C11.13331011 1.02455713 12.60595139 0.7980162 15 0 C15 2.64 15 5.28 15 8 C8.92838975 7.68863537 4.66140596 4.64625533 0 1 C0 0.67 0 0.34 0 0 Z " fill="#0301F3" transform="translate(81,168)"/>
<path d="M0 0 C1.98 0.66 3.96 1.32 6 2 C5.41463247 5.66060821 3.916761 7.54535164 1.4375 10.25 C0.79683594 10.95640625 0.15617188 11.6628125 -0.50390625 12.390625 C-1.24447266 13.18726563 -1.24447266 13.18726563 -2 14 C-2.66 13.67 -3.32 13.34 -4 13 C-4 12.01 -4 11.02 -4 10 C-4.66 9.01 -5.32 8.02 -6 7 C-6.33 7.66 -6.66 8.32 -7 9 C-7 8.01 -7 7.02 -7 6 C-5.02 6 -3.04 6 -1 6 C-0.67 4.02 -0.34 2.04 0 0 Z " fill="#0B2AF6" transform="translate(144,138)"/>
<path d="M0 0 C0.84961471 3.11309207 1.24135679 4.94435253 0 8 C-1.33333333 9.33333333 -2.66666667 10.66666667 -4 12 C-5.25436187 14.63222962 -5.25436187 14.63222962 -6 17 C-6.99 16.67 -7.98 16.34 -9 16 C-11.14255793 16.38932856 -11.14255793 16.38932856 -13 17 C-12.154375 16.05125 -11.30875 15.1025 -10.4375 14.125 C-6.60134875 9.66627528 -3.30447239 4.85894313 0 0 Z " fill="#EEF1F5" transform="translate(157,132)"/>
<path d="M0 0 C0.33 0 0.66 0 1 0 C1 2.64 1 5.28 1 8 C1.66 8 2.32 8 3 8 C3.88021369 14.71162938 4.11381955 21.23405981 4 28 C3.01 28 2.02 28 1 28 C0.00736571 18.64087671 -0.10731538 9.39605802 0 0 Z " fill="#27C4C0" transform="translate(100,32)"/>
<path d="M0 0 C5.72398793 0.74660712 11.34853777 1.82877141 17 3 C17 3.66 17 4.32 17 5 C14.16970852 6.41514574 11.71620867 6.20780992 8.5625 6.25 C7.40878906 6.27578125 6.25507812 6.3015625 5.06640625 6.328125 C2 6 2 6 0.08984375 4.484375 C-0.26980469 3.99453125 -0.62945312 3.5046875 -1 3 C-0.67 2.01 -0.34 1.02 0 0 Z " fill="#42F994" transform="translate(108,26)"/>
<path d="M0 0 C1.32 0.33 2.64 0.66 4 1 C1.71287089 2.83925787 -0.57928535 4.67151494 -2.875 6.5 C-3.52597656 7.02464844 -4.17695312 7.54929688 -4.84765625 8.08984375 C-5.47285156 8.58613281 -6.09804687 9.08242187 -6.7421875 9.59375 C-7.3182373 10.05458984 -7.89428711 10.51542969 -8.48779297 10.99023438 C-10 12 -10 12 -12 12 C-12 9.36 -12 6.72 -12 4 C-11.13375 4.04125 -10.2675 4.0825 -9.375 4.125 C-5.87641532 3.99542279 -3.25448403 3.23980344 0 2 C0 1.34 0 0.68 0 0 Z " fill="#0508F6" transform="translate(132,156)"/>
<path d="M0 0 C1.32 0 2.64 0 4 0 C2.61482883 3.4340702 1.34555636 4.70022022 -2 6.25 C-2.70125 6.58515625 -3.4025 6.9203125 -4.125 7.265625 C-6 8 -6 8 -8 8 C-8.33 5.69 -8.66 3.38 -9 1 C-7.700625 1.020625 -6.40125 1.04125 -5.0625 1.0625 C-3.70834367 1.08399454 -2.35243917 1.07148199 -1 1 C-0.67 0.67 -0.34 0.34 0 0 Z " fill="#0E0AF4" transform="translate(113,168)"/>
<path d="M0 0 C2.89683709 0.78813221 5.79244595 1.58036681 8.6875 2.375 C9.91243164 2.70757813 9.91243164 2.70757813 11.16210938 3.046875 C15.2135576 4.16225346 19.13829618 5.31689487 23 7 C20 9 20 9 16.8125 8.625 C15.4203125 8.315625 15.4203125 8.315625 14 8 C14 7.34 14 6.68 14 6 C10.37 5.67 6.74 5.34 3 5 C3 4.34 3 3.68 3 3 C2.01 3 1.02 3 0 3 C0 2.01 0 1.02 0 0 Z " fill="#59ED9F" transform="translate(125,29)"/>
<path d="M0 0 C1.33176248 3.99528745 0.41870859 6.09855137 -1 10 C-1.99 10.66 -2.98 11.32 -4 12 C-5 11 -5 11 -5.09765625 9.15234375 C-5.06510417 7.1015625 -5.03255208 5.05078125 -5 3 C-5.66 3 -6.32 3 -7 3 C-7 2.34 -7 1.68 -7 1 C-5.5459375 1.0309375 -5.5459375 1.0309375 -4.0625 1.0625 C-1.12534105 1.35618499 -1.12534105 1.35618499 0 0 Z " fill="#0975F4" transform="translate(168,103)"/>
<path d="M0 0 C0.99 0.66 1.98 1.32 3 2 C3 4.42797311 2.49914315 6.62907005 2 9 C0.68 9.33 -0.64 9.66 -2 10 C-3.4606285 7.35261084 -4 6.10551666 -4 3 C-2 1.3125 -2 1.3125 0 0 Z " fill="#0A05F6" transform="translate(36,104)"/>
<path d="M0 0 C0.33 0 0.66 0 1 0 C1 3.96 1 7.92 1 12 C1.99 12 2.98 12 4 12 C3.34 16.29 2.68 20.58 2 25 C1.34 24.67 0.68 24.34 0 24 C0 16.08 0 8.16 0 0 Z " fill="#0E9EE1" transform="translate(100,48)"/>
<path d="M0 0 C3 1 3 1 4.375 2.5 C6.46918881 4.43309736 8.22150692 4.62452796 11 5 C10.67 5.99 10.34 6.98 10 8 C6.37 8 2.74 8 -1 8 C-0.01 7.67 0.98 7.34 2 7 C2 6.34 2 5.68 2 5 C1.34 5 0.68 5 0 5 C0 3.35 0 1.7 0 0 Z " fill="#42F796" transform="translate(158,40)"/>
<path d="M0 0 C2.31 0.33 4.62 0.66 7 1 C7.33 3.31 7.66 5.62 8 8 C6.35 8 4.7 8 3 8 C3.33 6.68 3.66 5.36 4 4 C3.01 3.67 2.02 3.34 1 3 C0.67 2.01 0.34 1.02 0 0 Z " fill="#0702F7" transform="translate(56,144)"/>
<path d="M0 0 C0 0.99 0 1.98 0 3 C-2.375 5.0625 -2.375 5.0625 -5 7 C-5.66 7.66 -6.32 8.32 -7 9 C-7.66 8.67 -8.32 8.34 -9 8 C-9 8.99 -9 9.98 -9 11 C-11.97 10.505 -11.97 10.505 -15 10 C-10.39486061 6.00887919 -5.24516756 3.05543741 0 0 Z " fill="#E7EDEE" transform="translate(126,164)"/>
<path d="M0 0 C1 3 1 3 0 6 C-3.44444444 9 -3.44444444 9 -6 9 C-6 9.66 -6 10.32 -6 11 C-6.99 11 -7.98 11 -9 11 C-7.8829081 7.98385187 -6.3874224 6.35491331 -3.9375 4.375 C-0.99175287 2.32880603 -0.99175287 2.32880603 0 0 Z " fill="#E3E8F2" transform="translate(143,149)"/>
<path d="M0 0 C-0.33 0.99 -0.66 1.98 -1 3 C-3.06640625 3.73046875 -3.06640625 3.73046875 -5.5625 4.1875 C-6.38878906 4.34605469 -7.21507813 4.50460938 -8.06640625 4.66796875 C-9.02353516 4.83232422 -9.02353516 4.83232422 -10 5 C-10.33 4.34 -10.66 3.68 -11 3 C-10.34 3 -9.68 3 -9 3 C-9.33 2.01 -9.66 1.02 -10 0 C-2.25 -1.125 -2.25 -1.125 0 0 Z " fill="#F5F6F1" transform="translate(103,18)"/>
<path d="M0 0 C0.33 0.66 0.66 1.32 1 2 C0.67 2.66 0.34 3.32 0 4 C0.99 4.33 1.98 4.66 3 5 C3.33 5.99 3.66 6.98 4 8 C2.02 8 0.04 8 -2 8 C-2 7.01 -2 6.02 -2 5 C-2.99 4.67 -3.98 4.34 -5 4 C-3.35 2.68 -1.7 1.36 0 0 Z " fill="#EAECF4" transform="translate(132,159)"/>
<path d="M0 0 C4.37859255 0.50522222 6.81651224 3.17827222 10 6 C9.34 7.32 8.68 8.64 8 10 C6.66370254 8.52351062 5.33103329 7.0437367 4 5.5625 C3.2575 4.73878906 2.515 3.91507813 1.75 3.06640625 C0 1 0 1 0 0 Z " fill="#1C18F2" transform="translate(50,142)"/>
<path d="M0 0 C0.99 0.33 1.98 0.66 3 1 C3 4.63 3 8.26 3 12 C2.01 12 1.02 12 0 12 C0 8.04 0 4.08 0 0 Z " fill="#1BB8D8" transform="translate(101,48)"/>
<path d="M0 0 C-0.9375 2.0625 -0.9375 2.0625 -3 4 C-6.07110598 4.05989746 -8.99011728 3.58052245 -12 3 C-8.52582963 0.68388642 -4.04642977 -2.02321489 0 0 Z " fill="#251FF6" transform="translate(70,32)"/>
<path d="M0 0 C0.66 0 1.32 0 2 0 C2.38873828 1.95565258 2.76060833 3.91466504 3.125 5.875 C3.33382813 6.96554688 3.54265625 8.05609375 3.7578125 9.1796875 C3.83773438 10.11039063 3.91765625 11.04109375 4 12 C3.34 12.66 2.68 13.32 2 14 C0.02905192 9.07262981 -0.1799928 5.21979128 0 0 Z " fill="#F5F8F2" transform="translate(28,96)"/>
<path d="M0 0 C2.97 0.495 2.97 0.495 6 1 C5.75 2.875 5.75 2.875 5 5 C2.9375 6.25 2.9375 6.25 1 7 C0.67 4.69 0.34 2.38 0 0 Z " fill="#43FA96" transform="translate(101,23)"/>
<path d="M0 0 C1.98 0.99 3.96 1.98 6 3 C5.67 3.99 5.34 4.98 5 6 C2.9375 6.6875 2.9375 6.6875 1 7 C-0.0625 4.625 -0.0625 4.625 -1 2 C-0.67 1.34 -0.34 0.68 0 0 Z " fill="#EDF1ED" transform="translate(81,169)"/>
<path d="M0 0 C0 2.66666667 0 5.33333333 0 8 C-0.99 7.67 -1.98 7.34 -3 7 C-5.14255793 7.38932856 -5.14255793 7.38932856 -7 8 C-6.02133662 6.85373678 -5.04205413 5.70800212 -4.0625 4.5625 C-3.51722656 3.92441406 -2.97195312 3.28632813 -2.41015625 2.62890625 C-1.63204305 1.73008851 -0.84063472 0.84063472 0 0 Z " fill="#E1E8EF" transform="translate(151,141)"/>
<path d="M0 0 C2.6855594 2.6855594 3.06049974 5.37621328 4 9 C3.01 8.67 2.02 8.34 1 8 C0.67 8.66 0.34 9.32 0 10 C-1.125 8.375 -1.125 8.375 -2 6 C-1.125 2.75 -1.125 2.75 0 0 Z " fill="#ECF0EF" transform="translate(34,116)"/>
<path d="M0 0 C1.65 0 3.3 0 5 0 C5.33 1.65 5.66 3.3 6 5 C3.0625 4.625 3.0625 4.625 0 4 C-0.33 3.34 -0.66 2.68 -1 2 C-0.67 1.34 -0.34 0.68 0 0 Z " fill="#1915F1" transform="translate(90,171)"/>
<path d="M0 0 C0.66 0.66 1.32 1.32 2 2 C0.35 2.33 -1.3 2.66 -3 3 C-3 2.34 -3 1.68 -3 1 C-5.31 1.33 -7.62 1.66 -10 2 C-6.85422733 -2.71865901 -4.72723083 -2.30300989 0 0 Z " fill="#1310F0" transform="translate(85,29)"/>
<path d="M0 0 C2 4 2 4 2 7 C0 9.1875 0 9.1875 -2 11 C-2.66 10.67 -3.32 10.34 -4 10 C-2.68 6.7 -1.36 3.4 0 0 Z " fill="#E0ECEE" transform="translate(166,113)"/>
<path d="M0 0 C1.53202706 0.25195908 3.05257128 0.57596777 4.5625 0.9375 C5.38878906 1.13214844 6.21507812 1.32679687 7.06640625 1.52734375 C8.02353516 1.76130859 8.02353516 1.76130859 9 2 C7.1875 3.0625 7.1875 3.0625 5 4 C4.01 3.67 3.02 3.34 2 3 C-0.33299825 2.96045766 -2.66708189 2.95598268 -5 3 C-4.360625 2.690625 -3.72125 2.38125 -3.0625 2.0625 C-1.06389179 1.1654837 -1.06389179 1.1654837 0 0 Z " fill="#53F29A" transform="translate(148,37)"/>
<path d="M0 0 C2.875 -0.1875 2.875 -0.1875 6 0 C6.66 0.99 7.32 1.98 8 3 C7.34 3.66 6.68 4.32 6 5 C3.98079663 3.69593116 1.98075027 2.36176581 0 1 C0 0.67 0 0.34 0 0 Z " fill="#1410EF" transform="translate(81,168)"/>
<path d="M0 0 C2.31 0.33 4.62 0.66 7 1 C7 2.33333333 7 3.66666667 7 5 C5.02 5 3.04 5 1 5 C0.67 3.35 0.34 1.7 0 0 Z " fill="#F7F8F3" transform="translate(96,177)"/>
<path d="M0 0 C1.32 0.33 2.64 0.66 4 1 C-1.75 6 -1.75 6 -4 6 C-4 5.01 -4 4.02 -4 3 C-2.68 2.67 -1.36 2.34 0 2 C0 1.34 0 0.68 0 0 Z " fill="#141BEB" transform="translate(132,156)"/>
<path d="M0 0 C0.99 0.33 1.98 0.66 3 1 C2.67 3.64 2.34 6.28 2 9 C1.34 8.67 0.68 8.34 0 8 C0 5.36 0 2.72 0 0 Z " fill="#058FF4" transform="translate(100,64)"/>
<path d="M0 0 C0 0.99 0 1.98 0 3 C-3.33333333 6 -3.33333333 6 -6 6 C-5.25 3.5625 -5.25 3.5625 -4 1 C-1.875 0.1875 -1.875 0.1875 0 0 Z " fill="#1A16F4" transform="translate(126,162)"/>
<path d="M0 0 C1.98 1.32 3.96 2.64 6 4 C3.21176345 5.0326802 2.1322726 5.04509293 -0.75 4.0625 C-1.4925 3.711875 -2.235 3.36125 -3 3 C-2.01 2.67 -1.02 2.34 0 2 C0 1.34 0 0.68 0 0 Z " fill="#E5E5F5" transform="translate(67,159)"/>
<path d="M0 0 C2.125 0.9375 2.125 0.9375 4 2 C4 2.66 4 3.32 4 4 C2.68 4.33 1.36 4.66 0 5 C-0.66 3.68 -1.32 2.36 -2 1 C-1.34 0.67 -0.68 0.34 0 0 Z " fill="#F3F6F6" transform="translate(42,35)"/>
</svg>
