<svg width="20" height="20" viewBox="0 0 20 20" fill="none" xmlns="http://www.w3.org/2000/svg">
<path d="M13.3332 6.66745V10.8341C13.3332 11.4972 13.5966 12.133 14.0654 12.6019C14.5343 13.0707 15.1701 13.3341 15.8332 13.3341C16.4962 13.3341 17.1321 13.0707 17.6009 12.6019C18.0698 12.133 18.3332 11.4972 18.3332 10.8341V10.0008C18.3331 8.11998 17.6967 6.29452 16.5276 4.82123C15.3584 3.34794 13.7253 2.31347 11.8937 1.88603C10.0621 1.45859 8.13979 1.66332 6.4393 2.46692C4.73881 3.27053 3.36018 4.62575 2.52756 6.31222C1.69494 7.99869 1.45732 9.91723 1.85332 11.7559C2.24932 13.5945 3.25566 15.2451 4.7087 16.4393C6.16175 17.6335 7.97604 18.3011 9.85657 18.3334C11.7371 18.3657 13.5733 17.761 15.0665 16.6175M13.3332 10.0008C13.3332 11.8417 11.8408 13.3341 9.99985 13.3341C8.1589 13.3341 6.66651 11.8417 6.66651 10.0008C6.66651 8.15984 8.1589 6.66745 9.99985 6.66745C11.8408 6.66745 13.3332 8.15984 13.3332 10.0008Z" stroke="#A1A1A9" stroke-width="1.5" stroke-linecap="round" stroke-linejoin="round"/>
</svg>
