<svg width="20" height="20" viewBox="0 0 20 20" fill="none" xmlns="http://www.w3.org/2000/svg">
<g clip-path="url(#clip0_7761_3915)">
<path d="M9.99994 20C15.5228 20 19.9999 15.5228 19.9999 10C19.9999 4.47715 15.5228 0 9.99994 0C4.47709 0 -6.10352e-05 4.47715 -6.10352e-05 10C-6.10352e-05 15.5228 4.47709 20 9.99994 20Z" fill="#D80027"/>
<path d="M5.47272 6.08459L6.336 8.74084H9.12897L6.87116 10.3854L7.73444 13.0416L5.47272 11.401L3.211 13.0416L4.07819 10.3854L1.81647 8.74084H4.60944L5.47272 6.08459Z" fill="#FFDA44"/>
<path d="M11.8551 15.4872L11.1949 14.6747L10.2184 15.0536L10.7848 14.1747L10.1246 13.3583L11.1364 13.6278L11.7067 12.7489L11.7614 13.7958L12.777 14.0653L11.7965 14.4403L11.8551 15.4872Z" fill="#FFDA44"/>
<path d="M13.1681 13.1044L13.4806 12.1044L12.6251 11.4989L13.672 11.4833L13.9806 10.4833L14.3204 11.4755L15.3673 11.4637L14.5275 12.0887L14.8634 13.0809L14.0079 12.4755L13.1681 13.1044Z" fill="#FFDA44"/>
<path d="M14.9377 7.33887L14.4768 8.28027L15.2268 9.01074L14.1917 8.86231L13.7307 9.79981L13.551 8.76856L12.512 8.62012L13.4417 8.13184L13.262 7.09668L14.012 7.82715L14.9377 7.33887Z" fill="#FFDA44"/>
<path d="M11.8826 4.48755L11.8044 5.53052L12.7771 5.92505L11.7576 6.17505L11.6833 7.22193L11.1326 6.3313L10.113 6.5813L10.7888 5.78052L10.2341 4.8938L11.2068 5.28833L11.8826 4.48755Z" fill="#FFDA44"/>
</g>
<defs>
<clipPath id="clip0_7761_3915">
<rect width="20" height="20" fill="white"/>
</clipPath>
</defs>
</svg>
