<?xml version="1.0" encoding="UTF-8"?>
<svg version="1.1" xmlns="http://www.w3.org/2000/svg" width="2048" height="1270">
<path d="M0 0 C675.84 0 1351.68 0 2048 0 C2048 419.1 2048 838.2 2048 1270 C1372.16 1270 696.32 1270 0 1270 C0 850.9 0 431.8 0 0 Z " fill="#050505" transform="translate(0,0)"/>
<path d="M0 0 C1.00318049 -0.00367669 2.00636099 -0.00735338 3.03994089 -0.01114148 C6.39972513 -0.02214982 9.75947841 -0.02601736 13.11927795 -0.02983093 C15.52929278 -0.03609782 17.93930665 -0.04274482 20.34931946 -0.04974365 C27.58017372 -0.06894767 34.81102539 -0.07956909 42.04189739 -0.08847144 C45.45342447 -0.0928622 48.86495003 -0.098227 52.27647591 -0.10346031 C63.62842836 -0.12046899 74.98037987 -0.13496055 86.3323431 -0.14220905 C89.27515603 -0.14411871 92.21796896 -0.14603908 95.16078186 -0.147995 C95.89213604 -0.14847874 96.62349023 -0.14896248 97.37700666 -0.14946087 C109.20998347 -0.15775151 121.04285889 -0.18307364 132.87579148 -0.21557567 C145.04515942 -0.24872718 157.21447596 -0.26666515 169.38388926 -0.26985329 C176.20811765 -0.27201105 183.03219821 -0.2806512 189.85638237 -0.30631447 C196.28241406 -0.33042567 202.70825268 -0.33379662 209.13432312 -0.32355309 C211.48398281 -0.3230595 213.8336559 -0.32932707 216.18327522 -0.34310913 C242.61035281 -0.48936164 259.04269686 5.22900408 278.0668335 23.93751526 C281.23907071 27.0805397 284.39770301 30.23702011 287.55580139 33.39424133 C289.30758154 35.13838887 291.05975923 36.88213719 292.81230164 38.6255188 C297.54632624 43.33770734 302.27386935 48.05633502 306.99952292 52.77691364 C309.95683878 55.73095559 312.91578059 58.6833652 315.87505531 61.63544464 C324.08912148 69.82997266 332.30162692 78.02605553 340.50738811 86.22890091 C341.0306917 86.75201693 341.55399529 87.27513295 342.09315656 87.81410097 C343.15369338 88.87427157 344.21422894 89.93444343 345.27476325 90.99461654 C345.80111423 91.52078471 346.32746522 92.04695289 346.86976624 92.58906555 C347.39676728 93.11588605 347.92376832 93.64270654 348.4667391 94.18549129 C357.00955769 102.72476682 365.5640634 111.2522293 374.12377086 119.77457228 C382.93867689 128.55131057 391.74410732 137.33746205 400.54010135 146.13315463 C405.46827137 151.06074228 410.40025017 155.9843705 415.34264183 160.89769745 C419.99095823 165.51880038 424.62611214 170.15282068 429.25284195 174.79555321 C430.94636809 176.49088803 432.6441232 178.18201129 434.34653282 179.86842537 C448.28358177 193.68253595 460.20632839 206.49812918 460.412889 227.23294866 C460.40489712 228.67154601 460.40489712 228.67154601 460.39674377 230.13920593 C460.40283488 231.18890521 460.40892598 232.23860448 460.41520166 233.32011282 C460.43173641 236.80733738 460.42706943 240.29419298 460.42225647 243.78144836 C460.42960227 246.29396948 460.43818998 248.80648723 460.44792175 251.31900024 C460.46779269 257.4173003 460.47352146 263.51546652 460.47173387 269.61379455 C460.47042216 274.57433994 460.47425112 279.53485582 460.48165894 284.49539566 C460.4837583 285.92856363 460.4858559 287.36173161 460.48795176 288.79489958 C460.48951705 289.86514718 460.48951705 289.86514718 460.49111396 290.95701595 C460.50998228 304.42636318 460.50897646 317.89565585 460.50214463 331.36501081 C460.49657014 343.66464792 460.51739661 355.96407669 460.5505051 368.26366512 C460.58430486 380.91910292 460.59940273 393.57444107 460.59478807 406.2299248 C460.59254992 413.32454232 460.59769041 420.41896724 460.62268066 427.51354599 C460.64598847 434.18679673 460.64303513 440.85954417 460.62275314 447.53282738 C460.61935058 449.97524161 460.62439945 452.41768522 460.63873672 454.86005974 C460.74525536 474.35808564 458.36896286 488.16833505 444.62733459 502.95967102 C438.26253427 508.99843481 430.13936605 512.18472236 422.00233459 515.14717102 C421.19486282 515.4896286 420.38739105 515.83208618 419.55545044 516.18492126 C414.57893367 517.53265443 409.8297168 517.44208275 404.69544983 517.43769836 C402.99907631 517.4477742 402.99907631 517.4477742 401.26843262 517.45805359 C397.53255302 517.47703736 393.79685317 517.48095855 390.06092834 517.48310852 C387.45505704 517.48953805 384.84918645 517.49626652 382.24331665 517.50328064 C376.77845598 517.51605824 371.31364373 517.51904722 365.84877014 517.51777649 C359.56172344 517.51657835 353.27502184 517.5376189 346.98806232 517.56926382 C340.91187116 517.59874191 334.8358433 517.60574774 328.75958443 517.60455704 C326.18855955 517.60690665 323.61753172 517.61569378 321.04655266 517.63122177 C301.16041755 517.74004542 283.86872286 516.79053328 268.62733459 502.27217102 C256.33598923 488.91201302 253.23186784 474.42563091 253.37123108 456.86152649 C253.36607818 455.1858393 253.35878667 453.51015756 253.34954834 451.83448792 C253.33120315 447.33030611 253.34386366 442.82672442 253.36363864 438.32256842 C253.38016198 433.58279197 253.37119363 428.84304948 253.36611938 424.10325623 C253.36161448 416.14986205 253.37737055 408.19670429 253.40541077 400.24336243 C253.43747741 391.0778956 253.43743306 381.91285436 253.420196 372.74735725 C253.40427716 363.8887853 253.4110974 355.0303678 253.42813301 346.17180252 C253.4349648 342.4201198 253.43401126 338.66856235 253.42658806 334.91688156 C253.41886962 330.49247387 253.4312306 326.0685448 253.45843697 321.64421844 C253.46526321 320.03067316 253.4654815 318.41708267 253.45822144 316.80353928 C253.35970147 292.03496684 265.03185001 275.71934123 280.00233459 257.14717102 C292.08916366 242.63857136 292.08916366 242.63857136 301.00233459 226.14717102 C301.31686584 225.44592102 301.63139709 224.74467102 301.95545959 224.02217102 C306.5063157 212.1072023 305.46860314 196.87442313 300.61561584 185.26826477 C296.27613042 176.87298909 291.11280983 170.09152491 283.00233459 165.14717102 C282.14510803 164.62381165 281.28788147 164.10045227 280.40467834 163.56123352 C267.13118696 155.90704018 253.87250428 153.95388868 238.93983459 157.52217102 C226.28439393 161.60131647 216.02529849 170.73404071 206.00233459 179.14717102 C185.83383458 195.71064378 167.49496768 207.64919158 140.629776 207.53535461 C139.00394337 207.53942763 137.37811351 207.54477358 135.75228882 207.55128479 C131.36577363 207.56487969 126.97947179 207.55969174 122.59295321 207.55014753 C117.98261253 207.54250753 113.37228909 207.54960877 108.76194763 207.55430603 C101.02010346 207.5597521 93.27834536 207.55260334 85.53651428 207.5382843 C76.61431234 207.52197156 67.69231624 207.52724094 58.77011931 207.54376352 C51.0822667 207.55742502 43.39447569 207.559275 35.70661485 207.55144751 C31.12715117 207.54679505 26.54778388 207.5460785 21.96832657 207.55605698 C17.65897033 207.56479216 13.34987653 207.55858654 9.04054832 207.54137421 C7.46892289 207.53744356 5.89727496 207.53848386 4.3256588 207.5451622 C-14.02429087 207.61588314 -28.33103312 204.15891958 -41.87657166 191.37373352 C-53.36331479 179.19316026 -56.30241354 165.57993705 -56.28819275 149.38032532 C-56.29490997 148.26003937 -56.3016272 147.13975342 -56.30854797 145.98551941 C-56.32741036 142.31409667 -56.33144606 138.64285783 -56.33360291 134.97138977 C-56.34003836 132.39748054 -56.34676727 129.82357204 -56.35377502 127.24966431 C-56.36571797 121.86595145 -56.36954509 116.48231048 -56.36827087 111.09858704 C-56.36707058 104.91086061 -56.3881666 98.72348358 -56.4197582 92.53584546 C-56.44925223 86.54133646 -56.45624189 80.54701455 -56.45505142 74.55242348 C-56.45739785 72.0213001 -56.46616675 69.49017361 -56.48171616 66.95909691 C-56.59158573 47.23061693 -55.85332879 30.65293645 -41.74766541 15.39717102 C-29.76948187 4.24783501 -16.01186508 -0.00316277 0 0 Z " fill="#E1D8C9" transform="translate(823.9976654052734,377.8528289794922)"/>
<path d="M0 0 C3.46629835 1.48653506 5.69022036 3.45722351 8.328125 6.1328125 C9.12734375 6.93847656 9.9265625 7.74414062 10.75 8.57421875 C11.575 9.41597656 12.4 10.25773437 13.25 11.125 C14.51070312 12.39923828 14.51070312 12.39923828 15.796875 13.69921875 C17.86915683 15.79504923 19.93662393 17.89540713 22 20 C21.34 20.66 20.68 21.32 20 22 C19.01 21.67 18.02 21.34 17 21 C17 20.34 17 19.68 17 19 C16.34 19 15.68 19 15 19 C14.525625 18.195625 14.05125 17.39125 13.5625 16.5625 C12.20016328 13.7081924 12.20016328 13.7081924 9 13 C7.62464661 11.02866014 6.29788956 9.02318078 5 7 C4.09912344 5.88291306 3.18263686 4.77821091 2.25 3.6875 C0 1 0 1 0 0 Z " fill="#D3CAC2" transform="translate(1099,401)"/>
<path d="M0 0 C5.66129431 4.69766975 10.85228904 9.74723372 16 15 C15.67 15.99 15.34 16.98 15 18 C14.34 18 13.68 18 13 18 C12.525625 17.195625 12.05125 16.39125 11.5625 15.5625 C10.20016328 12.7081924 10.20016328 12.7081924 7 12 C6.360625 11.030625 5.72125 10.06125 5.0625 9.0625 C3.09749018 6.14475815 2.2167803 5.14885011 -1 4 C-0.67 2.68 -0.34 1.36 0 0 Z " fill="#D2C9C1" transform="translate(1125,426)"/>
<path d="M0 0 C1.0828125 0.3403125 1.0828125 0.3403125 2.1875 0.6875 C4.18538438 1.03328768 6.18509451 1.36893549 8.1875 1.6875 C7.8575 2.6775 7.5275 3.6675 7.1875 4.6875 C7.5175 5.3475 7.8475 6.0075 8.1875 6.6875 C0.4375 5.8125 0.4375 5.8125 -1.8125 4.6875 C-1.8125 4.0275 -1.8125 3.3675 -1.8125 2.6875 C-2.8025 2.3575 -3.7925 2.0275 -4.8125 1.6875 C-1.8125 -0.3125 -1.8125 -0.3125 0 0 Z " fill="#D6CFC4" transform="translate(1087.8125,529.3125)"/>
<path d="M0 0 C2.31 1.98 4.62 3.96 7 6 C6.01 6.99 5.02 7.98 4 9 C3.67 8.01 3.34 7.02 3 6 C2.01 7.485 2.01 7.485 1 9 C0.01 9 -0.98 9 -2 9 C-3.21185923 5.36442231 -2.59260392 4.36216382 -1 1 C-0.67 0.67 -0.34 0.34 0 0 Z " fill="#0D0C0B" transform="translate(779,566)"/>
<path d="M0 0 C0.8125 1.625 0.8125 1.625 1 4 C-0.5954349 6.05727132 -2.26526288 8.05874656 -4 10 C-4.33 10.99 -4.66 11.98 -5 13 C-6.32 13 -7.64 13 -9 13 C-9.66 14.32 -10.32 15.64 -11 17 C-11.66 16.67 -12.32 16.34 -13 16 C-12.31292969 15.18015625 -11.62585937 14.3603125 -10.91796875 13.515625 C-10.00775965 12.42712752 -9.09760635 11.33858339 -8.1875 10.25 C-7.73568359 9.71117187 -7.28386719 9.17234375 -6.81835938 8.6171875 C-4.46489931 5.79990684 -2.16578632 2.964465 0 0 Z " fill="#CCC7BE" transform="translate(1115,621)"/>
<path d="M0 0 C4.91935902 4.11619836 9.52647956 8.40410362 14 13 C13.34 13.66 12.68 14.32 12 15 C8.66105492 12.73428727 6.47319006 10.16877476 4 7 C3.2575 6.29875 2.515 5.5975 1.75 4.875 C0 3 0 3 0 0 Z " fill="#D2C9C1" transform="translate(1213,514)"/>
<path d="M0 0 C0.33 0.99 0.66 1.98 1 3 C-0.3125 5.1875 -0.3125 5.1875 -2 7 C-2.66 7 -3.32 7 -4 7 C-4.33 7.99 -4.66 8.98 -5 10 C-5.99 9.67 -6.98 9.34 -8 9 C-7.67 8.67 -7.34 8.34 -7 8 C-7.99 7.34 -8.98 6.68 -10 6 C-6.7 4.02 -3.4 2.04 0 0 Z " fill="#120F0C" transform="translate(1009,572)"/>
<path d="M0 0 C3.42527887 1.47348708 5.64955058 3.40907846 8.25 6.0625 C8.95640625 6.77535156 9.6628125 7.48820313 10.390625 8.22265625 C12 10 12 10 12 11 C9.6875 11.3125 9.6875 11.3125 7 11 C5.4375 8.625 5.4375 8.625 4 6 C1.93299345 4.67206394 1.93299345 4.67206394 0 4 C0 2.68 0 1.36 0 0 Z " fill="#D2CAC1" transform="translate(1261,563)"/>
<path d="M0 0 C2.96404505 2.80804268 5.44499019 5.18315774 7 9 C6.01 9.33 5.02 9.66 4 10 C3.01 10.495 3.01 10.495 2 11 C1.47007308 9.54494642 0.9513211 8.08581873 0.4375 6.625 C0.14746094 5.81289063 -0.14257812 5.00078125 -0.44140625 4.1640625 C-1 2 -1 2 0 0 Z " fill="#12110E" transform="translate(1114,548)"/>
<path d="M0 0 C0.99 0.33 1.98 0.66 3 1 C1.92807816 2.3218362 0.84197305 3.63217927 -0.25 4.9375 C-0.85328125 5.66839844 -1.4565625 6.39929688 -2.078125 7.15234375 C-4.10741134 9.10326334 -5.254407 9.61731779 -8 10 C-6.34908222 5.70761377 -3.26245434 3.1206085 0 0 Z " fill="#D4CDC2" transform="translate(786,390)"/>
<path d="M0 0 C4.13621084 3.3810038 7.81316569 6.66590534 11 11 C9.68 11.33 8.36 11.66 7 12 C7 11.01 7 10.02 7 9 C6.34 9 5.68 9 5 9 C0 3.64285714 0 3.64285714 0 0 Z " fill="#D2C9C1" transform="translate(1149,450)"/>
<path d="M0 0 C0.99 0.33 1.98 0.66 3 1 C3.99 0.67 4.98 0.34 6 0 C6.6875 1.8125 6.6875 1.8125 7 4 C5.5625 5.75 5.5625 5.75 4 7 C4.33 7.66 4.66 8.32 5 9 C4.01 9 3.02 9 2 9 C1.34 6.03 0.68 3.06 0 0 Z " fill="#D4CCC0" transform="translate(1273,582)"/>
<path d="M0 0 C4.2742558 1.5830577 6.26531794 4.50568404 9 8 C7.68 8.33 6.36 8.66 5 9 C4.67 8.01 4.34 7.02 4 6 C3.34 6 2.68 6 2 6 C1.34 4.02 0.68 2.04 0 0 Z " fill="#D5CDC3" transform="translate(1200,502)"/>
<path d="M0 0 C4.31392226 0.4793247 6.16569547 1.7457985 9 5 C8.01 5.495 8.01 5.495 7 6 C6.01 5.67 5.02 5.34 4 5 C4 4.34 4 3.68 4 3 C1.03824877 3.61277612 -0.38058783 4.25372522 -3 6 C-2 4 -1 2 0 0 Z " fill="#0D0D0A" transform="translate(1091,881)"/>
<path d="M0 0 C2.475 0.99 2.475 0.99 5 2 C3.02 4.31 1.04 6.62 -1 9 C-1.66 8.01 -2.32 7.02 -3 6 C-2.34 5.67 -1.68 5.34 -1 5 C-1.33 4.01 -1.66 3.02 -2 2 C-1.34 1.34 -0.68 0.68 0 0 Z " fill="#D8CFC4" transform="translate(1267,874)"/>
<path d="M0 0 C-0.66 2.31 -1.32 4.62 -2 7 C-4.5 5.6875 -4.5 5.6875 -7 4 C-7 3.01 -7 2.02 -7 1 C-4.53721199 -0.231394 -2.7204945 -0.07159196 0 0 Z " fill="#110F0E" transform="translate(1094,385)"/>
<path d="M0 0 C0.99 0.33 1.98 0.66 3 1 C2.67 1.66 2.34 2.32 2 3 C3.65 3.33 5.3 3.66 7 4 C6.01 5.32 5.02 6.64 4 8 C2.35 6.35 0.7 4.7 -1 3 C-0.67 2.01 -0.34 1.02 0 0 Z " fill="#0F0C0A" transform="translate(1136,433)"/>
<path d="M0 0 C0.33 0.66 0.66 1.32 1 2 C1.66 2 2.32 2 3 2 C2.34 3.32 1.68 4.64 1 6 C0.34 6 -0.32 6 -1 6 C-1.33 6.99 -1.66 7.98 -2 9 C-2.66 9 -3.32 9 -4 9 C-3.35455571 5.51460083 -1.89865603 2.97180943 0 0 Z " fill="#D3CCC1" transform="translate(1092,650)"/>
<path d="M0 0 C1 3 1 3 0.00390625 5.48046875 C-0.47175781 6.37378906 -0.94742188 7.26710938 -1.4375 8.1875 C-1.91058594 9.08855469 -2.38367188 9.98960937 -2.87109375 10.91796875 C-3.24363281 11.60503906 -3.61617187 12.29210937 -4 13 C-4.66 13 -5.32 13 -6 13 C-4.58707905 8.1725201 -2.57025846 4.2837641 0 0 Z " fill="#C9C1B9" transform="translate(777,400)"/>
<path d="M0 0 C3.16115776 1.36983503 3.9927092 1.9890638 6 5 C4.125 5.625 4.125 5.625 2 6 C1.34 5.34 0.68 4.68 0 4 C-0.99 4.495 -0.99 4.495 -2 5 C-1.34 3.35 -0.68 1.7 0 0 Z " fill="#D8CFC3" transform="translate(1251,553)"/>
<path d="M0 0 C1.14926266 0.95421808 2.29430541 1.91352045 3.4375 2.875 C4.07558594 3.40867187 4.71367188 3.94234375 5.37109375 4.4921875 C7 6 7 6 8 8 C7.67 8.66 7.34 9.32 7 10 C4.21122521 8.6056126 2.90286762 6.43804914 1 4 C0.34 3.34 -0.32 2.68 -1 2 C-0.67 1.34 -0.34 0.68 0 0 Z " fill="#D1C9C0" transform="translate(1173,474)"/>
<path d="M0 0 C1.98 0.99 3.96 1.98 6 3 C6 3.99 6 4.98 6 6 C4.35 6 2.7 6 1 6 C0.4465236 3.92446352 0 2.15634036 0 0 Z " fill="#0D0A09" transform="translate(1104,888)"/>
<path d="M0 0 C1.14926266 0.95421808 2.29430541 1.91352045 3.4375 2.875 C4.07558594 3.40867187 4.71367188 3.94234375 5.37109375 4.4921875 C7 6 7 6 8 8 C6.68 8.33 5.36 8.66 4 9 C3.71125 8.38125 3.4225 7.7625 3.125 7.125 C2.06279958 4.86674235 2.06279958 4.86674235 0 3 C0 2.01 0 1.02 0 0 Z " fill="#D1C8C0" transform="translate(1181,482)"/>
<path d="M0 0 C1.14926266 0.95421808 2.29430541 1.91352045 3.4375 2.875 C4.07558594 3.40867187 4.71367188 3.94234375 5.37109375 4.4921875 C7 6 7 6 8 8 C7.01 8.33 6.02 8.66 5 9 C0 3.375 0 3.375 0 0 Z " fill="#D0C7BF" transform="translate(1165,466)"/>
<path d="M0 0 C1.14926266 0.95421808 2.29430541 1.91352045 3.4375 2.875 C4.07558594 3.40867187 4.71367188 3.94234375 5.37109375 4.4921875 C7 6 7 6 8 8 C7.01 8.33 6.02 8.66 5 9 C0 3.375 0 3.375 0 0 Z " fill="#CFC7BF" transform="translate(1141,442)"/>
<path d="M0 0 C0.66 0.66 1.32 1.32 2 2 C-0.297221 3.74271938 -2.59866729 5.39911152 -5 7 C-5.66 6.34 -6.32 5.68 -7 5 C-4.69 3.35 -2.38 1.7 0 0 Z " fill="#1B1613" transform="translate(1029,557)"/>
<path d="M0 0 C1.65 1.65 3.3 3.3 5 5 C4.21625 4.95875 3.4325 4.9175 2.625 4.875 C-0.16116119 4.71271266 -0.16116119 4.71271266 -2 7 C-1.125 2.25 -1.125 2.25 0 0 Z " fill="#D7CEC2" transform="translate(1235,536)"/>
<path d="M0 0 C1.65 1.65 3.3 3.3 5 5 C4.21625 4.95875 3.4325 4.9175 2.625 4.875 C-0.16116119 4.71271266 -0.16116119 4.71271266 -2 7 C-1.125 2.25 -1.125 2.25 0 0 Z " fill="#D7CDC5" transform="translate(1227,528)"/>
<path d="M0 0 C2.46800047 1.15173355 4.04783565 2.04783565 6 4 C5.01 5.485 5.01 5.485 4 7 C3.01 6.67 2.02 6.34 1 6 C0.67 4.02 0.34 2.04 0 0 Z " fill="#C5C0B5" transform="translate(1080,384)"/>
<path d="M0 0 C1.98 0.495 1.98 0.495 4 1 C4 1.99 4 2.98 4 4 C2.35 4.66 0.7 5.32 -1 6 C-0.67 4.02 -0.34 2.04 0 0 Z " fill="#D6CDBF" transform="translate(1005,569)"/>
<path d="M0 0 C2.31 1.65 4.62 3.3 7 5 C6.67 5.99 6.34 6.98 6 8 C5.34 8 4.68 8 4 8 C4 7.01 4 6.02 4 5 C3.34 5 2.68 5 2 5 C1.34 3.35 0.68 1.7 0 0 Z " fill="#D1CAC0" transform="translate(1086,388)"/>
<path d="M0 0 C0.66 0.66 1.32 1.32 2 2 C1.34 3.32 0.68 4.64 0 6 C-1.32 5.34 -2.64 4.68 -4 4 C-2.68 2.68 -1.36 1.36 0 0 Z " fill="#D9D0C6" transform="translate(1102,638)"/>
<path d="M0 0 C1.65 0 3.3 0 5 0 C5 0.99 5 1.98 5 3 C3.02 3.33 1.04 3.66 -1 4 C-0.67 2.68 -0.34 1.36 0 0 Z " fill="#D8D0C5" transform="translate(1061,532)"/>
<path d="M0 0 C0.66 0.99 1.32 1.98 2 3 C-0.475 4.485 -0.475 4.485 -3 6 C-3 3 -3 3 -1.5 1.3125 C-0.7575 0.6628125 -0.7575 0.6628125 0 0 Z " fill="#C4BCB2" transform="translate(782,394)"/>
</svg>
