<?xml version="1.0" encoding="UTF-8"?>
<svg version="1.1" xmlns="http://www.w3.org/2000/svg" width="2048" height="1270">
<path d="M0 0 C675.84 0 1351.68 0 2048 0 C2048 419.1 2048 838.2 2048 1270 C1372.16 1270 696.32 1270 0 1270 C0 850.9 0 431.8 0 0 Z " fill="#050505" transform="translate(0,0)"/>
<path d="M0 0 C2.42105021 -0.00542826 4.84209711 -0.01255485 7.26313782 -0.02124023 C13.12710837 -0.03751365 18.99089039 -0.03523215 24.85485547 -0.02358967 C29.62605332 -0.01451341 34.39719388 -0.01334935 39.1683979 -0.01768494 C39.85045979 -0.01829787 40.53252167 -0.0189108 41.2352521 -0.01954231 C42.62136067 -0.02082136 44.00746922 -0.02211822 45.39357776 -0.02343267 C58.35704384 -0.03480822 71.32039633 -0.02177294 84.28384376 -0.00023121 C95.37711155 0.01763301 106.47021181 0.01453541 117.56347656 -0.00390625 C130.48265937 -0.02537367 143.40174287 -0.03370564 156.32094103 -0.0214572 C157.70192721 -0.02018316 159.0829134 -0.01892568 160.46389961 -0.01768494 C161.14315845 -0.01706783 161.82241729 -0.01645073 162.52225972 -0.01581493 C167.28034118 -0.01237928 172.03835899 -0.01815165 176.79643059 -0.02760315 C183.21606659 -0.03921663 189.63538845 -0.03103556 196.05499077 -0.00802612 C198.40141785 -0.00276813 200.74787168 -0.00420246 203.09428787 -0.01307678 C231.10077625 -0.10917752 246.97211975 6.65122185 266.80279541 26.29014587 C269.96076157 29.42899968 273.11201517 32.57453863 276.26293945 35.72045898 C278.00817057 37.45941535 279.75358782 39.19818493 281.49917603 40.93678284 C286.7069228 46.12542707 291.91046568 51.31826946 297.11312973 56.51200876 C299.07696518 58.47232624 301.04111384 60.43232973 303.00527824 62.3923176 C311.67857117 71.04717153 320.35052083 79.70336875 329.01845169 88.3635931 C331.13151352 90.47474551 333.24458086 92.58589242 335.35766602 94.69702148 C335.88276657 95.2216383 336.40786712 95.74625511 336.94887981 96.2867694 C345.46669233 104.79627065 353.99299822 113.29720855 362.52285758 121.79463237 C371.30186841 130.540534 380.07329473 139.29398455 388.837363 148.05486017 C393.74975211 152.96508952 398.66534607 157.87201142 403.58945465 162.77049065 C408.21809775 167.37509476 412.83638064 171.98990794 417.44788742 176.6116848 C419.13828223 178.3025746 420.83208384 179.99006674 422.52958298 181.67382431 C424.85288232 183.97936846 427.16339333 186.29704119 429.47125244 188.61802673 C430.13954299 189.27534804 430.80783354 189.93266934 431.49637532 190.60990947 C440.89909271 200.14155088 447.25859203 212.07392855 447.42269236 225.62952888 C447.41445159 226.59248473 447.40621082 227.55544058 447.39772034 228.5475769 C447.40466587 229.60135973 447.41161139 230.65514256 447.41876739 231.7408582 C447.43693952 235.24201027 447.42680003 238.74247722 447.41650391 242.24365234 C447.42356732 244.76602685 447.43231411 247.28839712 447.44261169 249.8107605 C447.46273995 255.93316521 447.46414488 262.05532028 447.45598615 268.17774521 C447.44966734 273.15784326 447.45084036 278.13788725 447.45725822 283.11798477 C447.45815988 283.82878418 447.45906153 284.5395836 447.45999051 285.27192239 C447.46184186 286.71625702 447.46370442 288.16059164 447.46557807 289.60492624 C447.48212967 303.12722994 447.47346021 316.64942909 447.45659249 330.17172648 C447.44190122 342.51986847 447.45652045 354.867767 447.48536266 367.21587764 C447.5148159 379.92104458 447.5257115 392.62609939 447.51618046 405.33129895 C447.51515799 406.77071259 447.51416338 408.21012626 447.51319695 409.64953995 C447.51272056 410.35760627 447.51224417 411.0656726 447.51175334 411.79519548 C447.50959684 416.76309298 447.51935248 421.73088339 447.53396797 426.69875717 C447.55340446 433.39828791 447.54631184 440.09729649 447.52176857 446.79683304 C447.51677471 449.2489169 447.52021313 451.70103539 447.53291702 454.15309143 C447.64608984 477.8830822 447.64608984 477.8830822 441.88305664 488.51757812 C441.39668511 489.45297361 440.91031359 490.3883691 440.40920353 491.35210991 C433.77464623 503.63333378 422.7308484 511.50750677 409.50346375 515.55058289 C403.96706925 516.90356289 398.47025665 516.82057918 392.79833984 516.82397461 C391.60861069 516.83229813 390.41888153 516.84062164 389.19309998 516.84919739 C385.94897059 516.86908303 382.70499008 516.87992332 379.46080804 516.88502383 C377.42708447 516.88868403 375.39338495 516.89493264 373.35967064 516.90202522 C366.24481514 516.9264754 359.13003206 516.93956152 352.01513672 516.94311523 C345.41556888 516.94674477 338.81646769 516.9766093 332.21704227 517.01851982 C326.52498926 517.05338192 320.83308971 517.06866642 315.14093083 517.06936127 C311.75286453 517.07014884 308.36527429 517.07864388 304.97731972 517.10735893 C301.18938963 517.13441146 297.40272555 517.12940481 293.61474609 517.11694336 C291.96446915 517.13919479 291.96446915 517.13919479 290.28085327 517.16189575 C276.87274596 517.03717785 265.54044566 511.49276339 255.73461914 502.56054688 C247.04753883 493.59055399 240.64270754 480.79205829 240.62236023 468.25762939 C240.61853468 467.54902039 240.61470914 466.84041139 240.61076766 466.11032939 C240.60048985 463.74763002 240.60441984 461.38517605 240.60839844 459.02246094 C240.60404897 457.32353491 240.59886504 455.62461085 240.59291077 453.9256897 C240.57953221 449.31806034 240.57894101 444.71051307 240.58147407 440.10286808 C240.58254493 436.25124413 240.57765726 432.39963671 240.57286865 428.54801631 C240.5617766 419.45647743 240.56133382 410.36497987 240.56738281 401.2734375 C240.573418 391.90879078 240.56112247 382.54429449 240.53981274 373.17967343 C240.52216857 365.12849766 240.51619997 357.07736964 240.51945049 349.02617526 C240.52125959 344.22260114 240.51866476 339.41913424 240.50473595 334.6155777 C240.492117 330.09455481 240.49414003 325.57376532 240.50714684 321.05274582 C240.50950364 319.39923141 240.50681027 317.74570037 240.49852371 316.09220505 C240.44309818 304.16675087 241.75869923 294.34730338 247.82055664 283.89257812 C248.20679199 283.21799561 248.59302734 282.54341309 248.9909668 281.84838867 C255.10663194 271.44886751 262.6223558 262.05385584 270.50805664 252.95507812 C285.30852408 235.82695656 292.24445012 220.33352447 290.88305664 197.51757812 C289.47386648 188.09511171 284.56117664 179.18127454 277.88305664 172.51757812 C277.88305664 171.85757813 277.88305664 171.19757813 277.88305664 170.51757812 C277.30555664 170.24558594 276.72805664 169.97359375 276.13305664 169.69335938 C273.88649076 168.51937269 271.94057001 167.18196746 269.88305664 165.70507812 C257.83961521 157.55628193 245.09830569 154.62576349 230.79321289 157.16601562 C222.0632036 158.9852007 215.0051001 162.08839731 207.88305664 167.51757812 C207.33407715 167.93491211 206.78509766 168.35224609 206.21948242 168.78222656 C201.16052309 172.64796928 196.20016651 176.63212061 191.26196289 180.65039062 C181.9270402 188.22256109 172.52912275 195.43578804 161.82055664 200.95507812 C161.22098145 201.27283203 160.62140625 201.59058594 160.00366211 201.91796875 C148.75906232 207.45835434 136.74289836 207.9587105 124.45117188 207.90576172 C122.84312587 207.90983702 121.23508268 207.91518423 119.62704468 207.92169189 C115.29856328 207.93525641 110.97029871 207.93011254 106.64181399 207.92055464 C102.08974084 207.91290254 97.53768493 207.92001882 92.98561096 207.92471313 C85.34567976 207.93015409 77.70583588 207.92302227 70.06591797 207.90869141 C61.25953314 207.89236225 52.45335669 207.89766204 43.64697689 207.91417062 C36.05591385 207.927826 28.46491319 207.92968559 20.87384182 207.92185462 C16.35312524 207.91720105 11.83250632 207.91648906 7.31179619 207.92646408 C3.06069022 207.93519096 -1.19014947 207.9290085 -5.44122696 207.91178131 C-6.99231082 207.90784705 -8.54341746 207.90889736 -10.09449196 207.91556931 C-27.88184673 207.98497204 -41.75025179 204.30884575 -54.89428711 191.87304688 C-66.24296341 179.84624229 -69.4295055 165.80013068 -69.39160156 149.70898438 C-69.39671249 148.57266571 -69.40182343 147.43634705 -69.40708923 146.26559448 C-69.42090559 142.53703436 -69.42003473 138.80866069 -69.41772461 135.08007812 C-69.42161529 132.47273694 -69.42595073 129.86539638 -69.43070984 127.25805664 C-69.43889533 121.80450811 -69.43803264 116.35101145 -69.43261719 110.89746094 C-69.4265751 104.6160082 -69.43890418 98.33477933 -69.46018726 92.05336475 C-69.47999833 85.9803657 -69.48296888 79.90747056 -69.47945213 73.83444214 C-69.47996402 71.26373773 -69.48517682 68.69302964 -69.49526405 66.12234497 C-69.50765625 62.52344692 -69.50082001 58.92506225 -69.48925781 55.32617188 C-69.49690155 54.27444794 -69.50454529 53.222724 -69.51242065 52.13912964 C-69.41417021 38.24173438 -63.86372125 25.29060133 -54.36694336 15.08007812 C-38.40111371 0.57415897 -20.35460867 -0.07690992 0 0 Z " fill="#FE8F46" transform="translate(837.116943359375,380.482421875)"/>
<path d="M0 0 C1.01602856 -0.00241442 2.03205711 -0.00482883 3.07887441 -0.00731641 C6.46966676 -0.01293402 9.86026909 -0.0043049 13.25105286 0.00431824 C15.68743948 0.00324489 18.12382586 0.00130543 20.56021118 -0.00143433 C26.48176264 -0.00577422 32.40326322 -0.00085185 38.32480498 0.00841597 C45.22312036 0.01882292 52.12142376 0.01872919 59.01974551 0.01824339 C71.32732852 0.01774332 83.63488549 0.02689034 95.94245911 0.04142761 C107.88224257 0.05552313 119.82200314 0.06259794 131.76179504 0.06193542 C132.49764114 0.06189547 133.23348724 0.06185551 133.99163171 0.06181435 C135.09350445 0.06175381 135.09350445 0.06175381 136.21763724 0.06169206 C149.81860986 0.06100215 163.41957276 0.06689144 177.02054223 0.07584528 C181.82831293 0.07886035 186.63608184 0.07992467 191.44385338 0.08037758 C197.91251829 0.08113111 204.38116389 0.08747695 210.84982109 0.09754372 C213.22624819 0.10046818 215.60267807 0.10169419 217.9791069 0.10111618 C221.21746095 0.10062652 224.45574718 0.10627106 227.6940918 0.11352539 C228.63902581 0.11197679 229.58395982 0.11042819 230.5575282 0.10883266 C234.71834285 0.12427317 238.60085587 0.18511937 242.65657043 1.24723816 C242.65657043 1.57723816 242.65657043 1.90723816 242.65657043 2.24723816 C241.3609723 2.25054831 240.06537416 2.25385845 238.73051548 2.25726891 C207.96165317 2.33632111 177.19283905 2.42555412 146.42404402 2.52728977 C142.63526075 2.53980834 138.8464772 2.55224116 135.05769348 2.56462097 C134.30342874 2.56708697 133.54916399 2.56955296 132.77204274 2.57209368 C120.56609964 2.61179542 108.3601473 2.64455419 96.15417738 2.67473798 C83.62565874 2.70587427 71.0971792 2.74449297 58.56870455 2.79002821 C50.84069643 2.81788102 43.11271685 2.83992794 35.3846721 2.85450067 C29.4544456 2.86630913 23.52428657 2.8885382 17.59410477 2.91462135 C15.16454658 2.92368425 12.73497315 2.92938436 10.30539894 2.9314518 C6.98473183 2.93478335 3.66433194 2.95028544 0.34371948 2.96876526 C-0.61447486 2.96683052 -1.57266921 2.96489579 -2.55989975 2.96290243 C-11.06588937 3.03352086 -18.70408173 4.42756424 -26.34342957 8.24723816 C-26.67342957 8.90723816 -27.00342957 9.56723816 -27.34342957 10.24723816 C-28.10655457 10.37098816 -28.86967957 10.49473816 -29.65592957 10.62223816 C-32.97833161 11.3948898 -34.08211196 12.7597888 -36.34342957 15.24723816 C-37.33342957 15.90723816 -38.32342957 16.56723816 -39.34342957 17.24723816 C-40.54793261 19.7990722 -40.54793261 19.7990722 -41.34342957 22.24723816 C-42.33342957 21.91723816 -43.32342957 21.58723816 -44.34342957 21.24723816 C-44.34342957 21.90723816 -44.34342957 22.56723816 -44.34342957 23.24723816 C-45.00342957 22.91723816 -45.66342957 22.58723816 -46.34342957 22.24723816 C-34.28169231 7.31550555 -19.22818874 -0.10541142 0 0 Z " fill="#CB7F4E" transform="translate(823.3434295654297,380.7527618408203)"/>
<path d="M0 0 C1.5403036 -0.00256327 1.5403036 -0.00256327 3.11172444 -0.00517833 C6.54493714 -0.00846675 9.97795344 0.00251995 13.41114807 0.01345825 C15.8752034 0.0140225 18.33925907 0.01370553 20.80331421 0.01257324 C26.10434929 0.01211813 31.40532349 0.01778282 36.7063427 0.02904892 C44.37064597 0.045327 52.03492546 0.05051428 59.69924415 0.0530249 C72.13512668 0.05739839 84.57098293 0.07069808 97.0068512 0.08963013 C109.08464934 0.1079979 121.16244034 0.12215001 133.24024963 0.13064575 C133.98515946 0.1311712 134.73006929 0.13169665 135.49755215 0.13223802 C139.23467548 0.13484816 142.97179885 0.13737556 146.70892227 0.13986182 C177.69505115 0.16058353 208.68114737 0.19594865 239.66725159 0.24050903 C239.66725159 0.90050903 239.66725159 1.56050903 239.66725159 2.24050903 C242.30725159 2.24050903 244.94725159 2.24050903 247.66725159 2.24050903 C247.66725159 2.90050903 247.66725159 3.56050903 247.66725159 4.24050903 C248.32725159 4.57050903 248.98725159 4.90050903 249.66725159 5.24050903 C242.04365264 4.33601424 242.04365264 4.33601424 239.65001392 3.72867012 C235.33206985 3.0219922 231.07312125 3.10321296 226.70477295 3.11352539 C225.69342437 3.1119654 224.68207578 3.11040541 223.64008027 3.10879815 C220.247023 3.10480562 216.85401037 3.10797109 213.46095276 3.1111145 C211.02987644 3.10975966 208.59880033 3.10797926 206.16772461 3.10580444 C200.24677672 3.10171357 194.32584045 3.10231858 188.40489288 3.10521708 C183.59100615 3.10747598 178.77712297 3.10778152 173.96323586 3.10669327 C173.2779335 3.10654003 172.59263115 3.1063868 171.88656205 3.10622893 C170.49431957 3.1059092 169.10207709 3.10558498 167.70983461 3.10525633 C154.65319073 3.10240453 141.59655386 3.10568354 128.53991113 3.1110567 C117.34431732 3.11552147 106.14873388 3.11475092 94.95314026 3.11013794 C81.94768535 3.10478172 68.94223661 3.10268235 55.93678075 3.1057502 C54.54875871 3.10606874 53.16073666 3.10638312 51.77271461 3.10669327 C50.74836655 3.10692468 50.74836655 3.10692468 49.70332458 3.10716077 C44.89849975 3.108023 40.09367883 3.1065693 35.2888546 3.10421371 C28.81529888 3.10110978 22.3417581 3.10333228 15.86820412 3.10910797 C13.49303851 3.11042944 11.11787125 3.11005185 8.7427063 3.10784531 C5.49867574 3.10510966 2.25470773 3.10854457 -0.98931885 3.11352539 C-1.92756069 3.11129467 -2.86580254 3.10906395 -3.83247596 3.10676563 C-9.09017859 3.1224042 -14.12925208 3.4770012 -19.33274841 4.24050903 C-14.32363319 -0.76860619 -6.60582176 -0.04040903 0 0 Z " fill="#160100" transform="translate(824.3327484130859,378.7594909667969)"/>
<path d="M0 0 C0.99 0.495 0.99 0.495 2 1 C-11.96368917 10.51715128 -25.50436983 12.30450489 -42.09130859 12.2746582 C-43.69891088 12.27901279 -45.30651109 12.28419842 -46.91410828 12.29014587 C-51.25511613 12.30346677 -55.59603655 12.30412229 -59.93706083 12.30158257 C-63.57247376 12.30050816 -67.20786934 12.30540821 -70.84327853 12.310188 C-79.42580582 12.32125928 -88.00828934 12.321734 -96.59082031 12.31567383 C-105.41928706 12.30963548 -114.24759439 12.32194701 -123.07603395 12.3432439 C-130.6797675 12.36090611 -138.28345052 12.36685399 -145.88720381 12.36360615 C-150.41803493 12.36180052 -154.94875229 12.36435719 -159.47956467 12.37832069 C-163.74292778 12.39096991 -168.00604379 12.38888848 -172.26940346 12.37590981 C-173.8253278 12.37355984 -175.38126993 12.37622138 -176.93717384 12.38453293 C-188.17024131 12.44016756 -199.08654719 11.78284747 -209 6 C-205.31911937 4.63671088 -203.50094241 5.41624034 -200 7 C-195.49908086 8.74838951 -191.77012245 9.25261129 -186.95005798 9.26069641 C-186.26398344 9.26452196 -185.5779089 9.26834751 -184.87104422 9.27228898 C-182.58444185 9.28256311 -180.29809322 9.27863746 -178.01147461 9.2746582 C-176.36667652 9.279008 -174.72188046 9.28419204 -173.0770874 9.29014587 C-168.61594542 9.30352412 -164.15488824 9.30411542 -159.69373012 9.30158257 C-155.9616845 9.30051121 -152.22965592 9.3054009 -148.49761397 9.310188 C-139.68402456 9.32128096 -130.87047777 9.32172298 -122.05688477 9.31567383 C-112.98881116 9.30964517 -103.92089315 9.32191732 -94.85284609 9.3432439 C-87.05045333 9.36091381 -79.24810985 9.36685244 -71.44569784 9.36360615 C-66.79349226 9.36180037 -62.14139746 9.36435783 -57.48921013 9.37832069 C-53.10688674 9.39098092 -48.72480362 9.38887821 -44.34248352 9.37590981 C-42.74344358 9.3735615 -41.14438632 9.37621524 -39.54536629 9.38453293 C-30.13549537 9.42990892 -21.00939513 9.0894717 -12 6 C-11.34 5.34 -10.68 4.68 -10 4 C-7.36587655 2.85179234 -4.72650879 1.90883626 -2 1 C-1.34 0.67 -0.68 0.34 0 0 Z " fill="#D78449" transform="translate(1004,576)"/>
<path d="M0 0 C0.99 0.495 0.99 0.495 2 1 C2.92524175 3.77572524 3.124481 5.41144685 3.12304783 8.27348614 C3.12503888 9.15030818 3.12702993 10.02713022 3.12908131 10.93052262 C3.12616847 11.89452117 3.12325563 12.85851972 3.12025452 13.85173035 C3.12110894 14.87518171 3.12196337 15.89863308 3.12284368 16.95309812 C3.12449698 20.39868126 3.11897952 23.84421623 3.11352539 27.28979492 C3.11324346 29.75326028 3.11340137 32.21672573 3.1139679 34.68019104 C3.11419596 39.99219068 3.11135088 45.30417519 3.10573006 50.61617088 C3.09760854 58.29645606 3.09499917 65.9767353 3.09374207 73.6570243 C3.09155257 86.11730016 3.08489526 98.57756949 3.07543945 111.0378418 C3.06626268 123.14298469 3.05918314 135.24812581 3.05493164 147.35327148 C3.05466892 148.09923221 3.05440619 148.84519293 3.05413551 149.61375853 C3.05283049 153.35596443 3.05156677 157.09817034 3.05032361 160.84037626 C3.03995419 191.89358893 3.02226441 222.94679347 3 254 C2.67 254 2.34 254 2 254 C1.99576806 252.7452547 1.99153612 251.4905094 1.98717594 250.19774151 C1.88656354 220.43204714 1.78086639 190.66637559 1.66888306 160.90072204 C1.655113 157.23939751 1.64138598 153.57807283 1.62768555 149.91674805 C1.62495724 149.18782497 1.62222894 148.4589019 1.61941796 147.70789025 C1.57530806 135.89558188 1.53468645 124.08326395 1.49534739 112.27093884 C1.45492328 100.15604674 1.41076579 88.04117242 1.36312145 75.92630655 C1.33382589 68.44703224 1.30746422 60.96775928 1.28482103 53.48846183 C1.26716507 47.75938069 1.24432216 42.03032943 1.21950912 36.30127525 C1.21013151 33.94659542 1.2024588 31.59190812 1.19658089 29.23721695 C1.1883318 26.03275611 1.17405842 22.8283781 1.15821838 19.62394714 C1.15724028 18.68329428 1.15626217 17.74264142 1.15525442 16.77348393 C1.14977998 15.91756227 1.14430554 15.0616406 1.1386652 14.17978191 C1.13600716 13.43970699 1.13334911 12.69963207 1.13061053 11.93713063 C1.0668721 9.78113032 1.0668721 9.78113032 0 7 C-0.03954234 4.66700175 -0.04401732 2.33291811 0 0 Z " fill="#EE925C" transform="translate(1281,594)"/>
<path d="M0 0 C0.95261719 0.34933594 1.90523437 0.69867187 2.88671875 1.05859375 C4.15357779 1.51841666 5.4205087 1.97804162 6.6875 2.4375 C7.31333984 2.66759766 7.93917969 2.89769531 8.58398438 3.13476562 C14.50284724 5.27299357 19.50649614 6.12500555 25.79801941 6.12698364 C26.46902201 6.12854363 27.14002462 6.13010362 27.83136064 6.13171089 C30.07273628 6.13568939 32.31404381 6.13254339 34.55541992 6.12939453 C36.16552775 6.13075003 37.77563526 6.1325308 39.38574219 6.13470459 C43.75582062 6.13926302 48.12587543 6.13749539 52.49595428 6.1343255 C57.07569806 6.13179154 61.65543985 6.13414254 66.23518372 6.13571167 C73.93128827 6.13753125 81.62738323 6.13513355 89.32348633 6.13037109 C98.20466165 6.12493854 107.08581398 6.12668465 115.96698874 6.1321975 C123.6020042 6.13674619 131.23701275 6.1373703 138.87202913 6.13475883 C143.42742273 6.13320447 147.98280557 6.13297898 152.53819847 6.13629532 C156.82686047 6.13919922 161.11549307 6.1371523 165.40415192 6.13140106 C166.97219863 6.1300865 168.54024784 6.13044523 170.10829353 6.13266373 C178.12128124 6.14294895 186.04307454 6.05346274 194 5 C190.09520082 8.90479918 184.14031834 8.12780453 178.89863586 8.14044189 C178.20706664 8.14341302 177.51549741 8.14638414 176.80297154 8.1494453 C174.49794838 8.15807988 172.19297747 8.15963608 169.88793945 8.16113281 C168.23004548 8.16576473 166.57215256 8.17078989 164.91426086 8.17617798 C160.41815359 8.1892686 155.92206123 8.19574049 151.42593789 8.20018864 C148.61332962 8.20312495 145.80072537 8.20723082 142.98811913 8.21169281 C134.17763963 8.22535938 125.36716939 8.23502997 116.55668002 8.2388947 C106.40583056 8.24337256 96.25511595 8.26091137 86.10430747 8.2898953 C78.24505348 8.31155268 70.38583731 8.32160116 62.52655381 8.32293582 C57.8386317 8.323981 53.15083648 8.32982752 48.46294594 8.34775543 C44.04945341 8.36430627 39.63618222 8.36635779 35.2226696 8.35761642 C33.60988393 8.35684977 31.997086 8.36113929 30.38433075 8.37107468 C8.19523448 8.49966872 8.19523448 8.49966872 0 2 C0 1.34 0 0.68 0 0 Z " fill="#200601" transform="translate(794,581)"/>
<path d="M0 0 C1.24451915 3.59527755 0.70603283 6.31293967 0 10 C0 10.99 0 11.98 0 13 C-0.48677625 14.07423249 -0.97355249 15.14846498 -1.47507954 16.25524998 C-3.08800686 19.87843204 -3.38303984 22.92194354 -3.39872742 26.91600037 C-3.40537424 27.57534972 -3.41202107 28.23469907 -3.41886932 28.9140287 C-3.43738849 31.10357267 -3.43490169 33.29256485 -3.43237305 35.48217773 C-3.44139703 37.05955266 -3.45172581 38.63692058 -3.46325684 40.21427917 C-3.49077838 44.48234224 -3.50010475 48.75027207 -3.50611091 53.01841235 C-3.51550721 57.48409451 -3.54171162 61.94967765 -3.56611633 66.41529846 C-3.60975048 74.86529545 -3.63831639 83.31527319 -3.66143972 91.76534849 C-3.68850793 101.38811759 -3.73241844 111.01078692 -3.77772844 120.63348472 C-3.87053052 140.42226944 -3.94223158 160.21108403 -4 180 C-4.33 180 -4.66 180 -5 180 C-5.07015867 158.52901905 -5.12302177 137.05805706 -5.15543652 115.58698463 C-5.17088896 105.61703275 -5.19194741 95.64715219 -5.22631836 85.67724609 C-5.25627044 76.98494873 -5.2755868 68.29270304 -5.28226548 59.60035551 C-5.28616791 55.00011316 -5.29530523 50.40001862 -5.31719017 45.79982376 C-5.33764717 41.46439994 -5.34381528 37.12918394 -5.33932304 32.79371643 C-5.34014414 31.20792382 -5.34605471 29.62212381 -5.35761642 28.03637314 C-5.42817809 17.85362433 -4.74230188 9.14885899 0 0 Z " fill="#EB905B" transform="translate(1083,668)"/>
<path d="M0 0 C-2 2 -2 2 -5.1875 2.4375 C-9.39042287 3.05760337 -12.21984719 4.10992359 -16 6 C-16.33 6.66 -16.66 7.32 -17 8 C-17.763125 8.12375 -18.52625 8.2475 -19.3125 8.375 C-22.63490205 9.14765164 -23.7386824 10.51255064 -26 13 C-26.99 13.66 -27.98 14.32 -29 15 C-30.20450304 17.55183404 -30.20450304 17.55183404 -31 20 C-31.99 19.67 -32.98 19.34 -34 19 C-34 19.66 -34 20.32 -34 21 C-34.66 20.67 -35.32 20.34 -36 20 C-27.94925194 10.03363986 -13.94545437 -3.39213755 0 0 Z " fill="#DD8952" transform="translate(813,383)"/>
<path d="M0 0 C1.98 0.99 1.98 0.99 4 2 C4 2.66 4 3.32 4 4 C4.99 4 5.98 4 7 4 C7 4.99 7 5.98 7 7 C7.78375 6.79375 8.5675 6.5875 9.375 6.375 C10.674375 6.189375 10.674375 6.189375 12 6 C14.35953094 8.35953094 14.49141413 9.77895617 15 13 C15.66 13 16.32 13 17 13 C17 13.99 17 14.98 17 16 C9.99367734 14.02947175 4.02396318 7.86827964 0 2 C0 1.34 0 0.68 0 0 Z " fill="#EB8A4A" transform="translate(1087,874)"/>
<path d="M0 0 C4 0 4 0 6.5 2.375 C7.325 3.24125 8.15 4.1075 9 5 C11.16620544 6.29519995 11.16620544 6.29519995 13 7 C12.67 7.99 12.34 8.98 12 10 C12.99 9.67 13.98 9.34 15 9 C15 9.66 15 10.32 15 11 C15.66 11 16.32 11 17 11 C16.67 12.32 16.34 13.64 16 15 C15.34 13.68 14.68 12.36 14 11 C13.34 11 12.68 11 12 11 C12.99 13.31 13.98 15.62 15 18 C14.34 18.33 13.68 18.66 13 19 C12.61328125 18.25234375 12.2265625 17.5046875 11.828125 16.734375 C11.30734375 15.74953125 10.7865625 14.7646875 10.25 13.75 C9.48429687 12.28820312 9.48429687 12.28820312 8.703125 10.796875 C7.05109758 8.08391255 5.25014607 6.2110131 3 4 C3 3.34 3 2.68 3 2 C2.01 1.67 1.02 1.34 0 1 C0 0.67 0 0.34 0 0 Z " fill="#E68B4C" transform="translate(1112,549)"/>
<path d="M0 0 C2.4375 0.75 2.4375 0.75 5 2 C5.35412344 3.32796291 5.68521554 4.66216607 6 6 C8.49305975 8.35455643 10.52011088 9.82549487 13.75 11 C14.86375 11.495 14.86375 11.495 16 12 C16.6875 14.0625 16.6875 14.0625 17 16 C17.66 16.33 18.32 16.66 19 17 C18.67 17.99 18.34 18.98 18 20 C2.45192308 8.71794872 2.45192308 8.71794872 0 0 Z " fill="#DF8A51" transform="translate(775,561)"/>
<path d="M0 0 C0.33 0 0.66 0 1 0 C1.33 1.65 1.66 3.3 2 5 C2.66 5 3.32 5 4 5 C3.91621094 5.81984375 3.83242188 6.6396875 3.74609375 7.484375 C3.64425781 8.56203125 3.54242187 9.6396875 3.4375 10.75 C3.33308594 11.81734375 3.22867188 12.8846875 3.12109375 13.984375 C3.01439926 16.64141204 3.18069605 18.49960572 4 21 C3.34 21.33 2.68 21.66 2 22 C-0.85288164 16.26769829 -2.53444296 11.40140935 -3 5 C-2.67 5.66 -2.34 6.32 -2 7 C-1.34 7 -0.68 7 0 7 C0 4.69 0 2.38 0 0 Z " fill="#FD8F49" transform="translate(772,539)"/>
<path d="M0 0 C2.72163719 4.08245579 2.3419119 7.26606302 2.3125 12.0625 C2.31121094 12.91561768 2.30992188 13.76873535 2.30859375 14.64770508 C2.2147302 20.80691371 1.46384069 26.29503555 -1 32 C-1.66 32 -2.32 32 -3 32 C-2.86287598 31.41299316 -2.72575195 30.82598633 -2.58447266 30.22119141 C-1.13367403 23.58544369 -0.59221437 17.15389857 -0.375 10.375 C-0.33632812 9.37082031 -0.29765625 8.36664062 -0.2578125 7.33203125 C-0.16471378 4.88818995 -0.07889087 2.44433404 0 0 Z " fill="#220802" transform="translate(1127,575)"/>
<path d="M0 0 C-0.33 0.99 -0.66 1.98 -1 3 C-1.99 3 -2.98 3 -4 3 C-4.33 3.99 -4.66 4.98 -5 6 C-4.34 6.66 -3.68 7.32 -3 8 C-5.8125 9.5625 -5.8125 9.5625 -9 11 C-9.99 10.67 -10.98 10.34 -12 10 C-12 9.34 -12 8.68 -12 8 C-13.32 7.34 -14.64 6.68 -16 6 C-15.15695312 5.65066406 -14.31390625 5.30132813 -13.4453125 4.94140625 C-12.34960938 4.48636719 -11.25390625 4.03132812 -10.125 3.5625 C-9.03445313 3.11003906 -7.94390625 2.65757812 -6.8203125 2.19140625 C-1.63278689 0 -1.63278689 0 0 0 Z " fill="#1D0C06" transform="translate(1004,579)"/>
<path d="M0 0 C0.66 0.33 1.32 0.66 2 1 C0.79618552 3.49361571 -0.45428722 5.68143083 -2 8 C-2.99 8 -3.98 8 -5 8 C-5.33 9.98 -5.66 11.96 -6 14 C-6.66 14 -7.32 14 -8 14 C-8.28875 14.5775 -8.5775 15.155 -8.875 15.75 C-9.91666667 17.83333333 -10.95833333 19.91666667 -12 22 C-12.66 22 -13.32 22 -14 22 C-10.83707114 13.61525462 -6.01411773 6.58689085 0 0 Z " fill="#DB8A51" transform="translate(1098,646)"/>
<path d="M0 0 C0.99 0.33 1.98 0.66 3 1 C2.319375 1.721875 1.63875 2.44375 0.9375 3.1875 C-4.19016318 9.29674441 -7.45421093 16.90842185 -11 24 C-10.505 19.545 -10.505 19.545 -10 15 C-9.34 15 -8.68 15 -8 15 C-7.9729957 13.54176788 -7.95360213 12.08339325 -7.9375 10.625 C-7.92589844 9.81289063 -7.91429687 9.00078125 -7.90234375 8.1640625 C-7.85533666 5.95062858 -7.85533666 5.95062858 -9 4 C-7.35 4.33 -5.7 4.66 -4 5 C-2.68 3.35 -1.36 1.7 0 0 Z " fill="#210A02" transform="translate(780,396)"/>
<path d="M0 0 C0.99 0.33 1.98 0.66 3 1 C-4.11389522 9.6309795 -4.11389522 9.6309795 -9 12 C-9.103125 11.360625 -9.20625 10.72125 -9.3125 10.0625 C-9.539375 9.381875 -9.76625 8.70125 -10 8 C-10.99 7.67 -11.98 7.34 -13 7 C-9.1496895 4.43312633 -7.41430237 5.16711276 -3 6 C-3 5.34 -3 4.68 -3 4 C-2.34 4 -1.68 4 -1 4 C-0.67 2.68 -0.34 1.36 0 0 Z " fill="#E88D4F" transform="translate(1271,876)"/>
<path d="M0 0 C1.24451915 3.59527755 0.70603283 6.31293967 0 10 C0 10.99 0 11.98 0 13 C-0.61294219 14.5843461 -1.28528117 16.14638752 -2 17.6875 C-2.37125 18.49574219 -2.7425 19.30398438 -3.125 20.13671875 C-3.558125 21.05904297 -3.558125 21.05904297 -4 22 C-4.33 22 -4.66 22 -5 22 C-5.44314183 14.02344709 -3.73338977 7.07720843 0 0 Z " fill="#D98853" transform="translate(1083,668)"/>
<path d="M0 0 C4.35574636 0.48397182 6.0913259 1.79042858 9 5 C9.66 5.33 10.32 5.66 11 6 C12.125 8.0625 12.125 8.0625 13 10 C13.66 9.67 14.32 9.34 15 9 C15.33 11.31 15.66 13.62 16 16 C10.35573231 11.31645873 4.9941954 6.3792354 0 1 C0 0.67 0 0.34 0 0 Z " fill="#200800" transform="translate(1237,540)"/>
<path d="M0 0 C1.9375 0.375 1.9375 0.375 4 1 C4.33 1.66 4.66 2.32 5 3 C5.804375 3.268125 6.60875 3.53625 7.4375 3.8125 C10 5 10 5 11.3125 7.625 C11.6528125 8.800625 11.6528125 8.800625 12 10 C12.99 9.67 13.98 9.34 15 9 C15.33 11.31 15.66 13.62 16 16 C10.35573231 11.31645873 4.9941954 6.3792354 0 1 C0 0.67 0 0.34 0 0 Z " fill="#210800" transform="translate(1221,524)"/>
<path d="M0 0 C0.66 0 1.32 0 2 0 C-0.91630907 7.9300621 -5.63538539 15.40685383 -12 21 C-12 20.01 -12 19.02 -12 18 C-11.34 18 -10.68 18 -10 18 C-10 17.01 -10 16.02 -10 15 C-9.34 15 -8.68 15 -8 15 C-7.90589844 14.45859375 -7.81179688 13.9171875 -7.71484375 13.359375 C-6.78860747 10.30228912 -5.2754644 7.94230995 -3.5625 5.25 C-2.94503906 4.26515625 -2.32757812 3.2803125 -1.69140625 2.265625 C-1.13324219 1.51796875 -0.57507812 0.7703125 0 0 Z " fill="#280A02" transform="translate(1123,608)"/>
<path d="M0 0 C2.12898551 2.7899243 4.12624441 5.63583234 6.0625 8.5625 C6.56910156 9.32691406 7.07570313 10.09132813 7.59765625 10.87890625 C8.06042969 11.57886719 8.52320313 12.27882813 9 13 C9.99 14.485 9.99 14.485 11 16 C10.34 16.66 9.68 17.32 9 18 C8.5978125 17.1028125 8.5978125 17.1028125 8.1875 16.1875 C7.11977597 13.95732387 7.11977597 13.95732387 5.375 12.4375 C4 11 4 11 4 8 C2.35 8 0.7 8 -1 8 C-1 5.16032769 -0.59732819 2.76264289 0 0 Z " fill="#281106" transform="translate(772,557)"/>
<path d="M0 0 C1.875 0.3125 1.875 0.3125 4 1 C4.66 1.99 5.32 2.98 6 4 C7.2375 4.433125 7.2375 4.433125 8.5 4.875 C11 6 11 6 12.125 8.5 C12.41375 9.325 12.7025 10.15 13 11 C13.99 11.66 14.98 12.32 16 13 C15.67 13.99 15.34 14.98 15 16 C12.49599357 13.5248518 9.99748094 11.04423106 7.5 8.5625 C6.78457031 7.85544922 6.06914063 7.14839844 5.33203125 6.41992188 C4.65527344 5.74638672 3.97851562 5.07285156 3.28125 4.37890625 C2.65283203 3.7557251 2.02441406 3.13254395 1.37695312 2.49047852 C0 1 0 1 0 0 Z " fill="#220800" transform="translate(1172,475)"/>
<path d="M0 0 C4.91935902 4.11619836 9.52647956 8.40410362 14 13 C13.01 13.66 12.02 14.32 11 15 C9.125 14.375 9.125 14.375 7 13 C6.33333333 11 5.66666667 9 5 7 C3.37253306 5.29503463 1.71108689 3.62102968 0 2 C0 1.34 0 0.68 0 0 Z " fill="#D98A59" transform="translate(1090,394)"/>
<path d="M0 0 C5.22211149 1.11902389 7.32172423 3.17932317 10.484375 7.19921875 C11.95771065 8.94975414 13.43798985 10.23960389 15.25 11.625 C18.03877535 14.0334878 19.00295885 15.51035596 20 19 C13.96555687 14.01502524 8.48857471 8.5749334 3 3 C2.00108637 1.99891481 1.00162469 0.99837266 0 0 Z " fill="#270900" transform="translate(1086,390)"/>
<path d="M0 0 C1.875 0.3125 1.875 0.3125 4 1 C4.66 1.99 5.32 2.98 6 4 C6.804375 4.268125 7.60875 4.53625 8.4375 4.8125 C11.96609648 6.44770325 12.66410044 8.43760116 14 12 C13.67 12.66 13.34 13.32 13 14 C10.83031809 11.85714108 8.66416525 9.71091768 6.5 7.5625 C5.87996094 6.95083984 5.25992187 6.33917969 4.62109375 5.70898438 C4.03457031 5.12568359 3.44804688 4.54238281 2.84375 3.94140625 C2.02680664 3.13231812 2.02680664 3.13231812 1.19335938 2.30688477 C0 1 0 1 0 0 Z " fill="#190600" transform="translate(1188,491)"/>
<path d="M0 0 C2.475 0.495 2.475 0.495 5 1 C5 1.99 5 2.98 5 4 C6.65 4.33 8.3 4.66 10 5 C10.66 7.31 11.32 9.62 12 12 C7.47384007 8.32167983 3.60575001 4.58913637 0 0 Z " fill="#1F0700" transform="translate(1141,444)"/>
<path d="M0 0 C0 0.33 0 0.66 0 1 C-1.08539062 1.25394531 -2.17078125 1.50789062 -3.2890625 1.76953125 C-4.73446724 2.11680382 -6.17977465 2.46448164 -7.625 2.8125 C-8.33785156 2.97814453 -9.05070312 3.14378906 -9.78515625 3.31445312 C-14.19716375 4.38709715 -17.99058318 5.79292355 -22 8 C-22.33 7.01 -22.66 6.02 -23 5 C-15.24097099 1.44377837 -8.56865784 -0.30602349 0 0 Z " fill="#D78B58" transform="translate(1072,536)"/>
<path d="M0 0 C0.75 1.75 0.75 1.75 1 4 C-1.47153816 7.13695228 -4.40077068 9.29036607 -8 11 C-10.15625 10.57421875 -10.15625 10.57421875 -12 10 C-11.46890625 9.61328125 -10.9378125 9.2265625 -10.390625 8.828125 C-6.67177773 6.08649307 -3.14670262 3.40892784 0 0 Z " fill="#1D0500" transform="translate(1272,879)"/>
<path d="M0 0 C1.30092709 3.90278127 0.36437068 5.15452503 -1.25 8.875 C-1.68828125 9.90367187 -2.1265625 10.93234375 -2.578125 11.9921875 C-3.89901912 14.78638661 -5.35882119 17.3837679 -7 20 C-7.625 18.125 -7.625 18.125 -8 16 C-7.34 15.34 -6.68 14.68 -6 14 C-5.835 13.154375 -5.67 12.30875 -5.5 11.4375 C-5.335 10.633125 -5.17 9.82875 -5 9 C-4.34 8.67 -3.68 8.34 -3 8 C-2.09656316 6.11736119 -2.09656316 6.11736119 -1.375 3.9375 C-0.98441406 2.83728516 -0.98441406 2.83728516 -0.5859375 1.71484375 C-0.39257812 1.14894531 -0.19921875 0.58304688 0 0 Z " fill="#DE8D59" transform="translate(1282,856)"/>
<path d="M0 0 C0.33 0 0.66 0 1 0 C1.33 2.64 1.66 5.28 2 8 C2.66 8 3.32 8 4 8 C4.33 9.98 4.66 11.96 5 14 C4.67 13.01 4.34 12.02 4 11 C2.35 11 0.7 11 -1 11 C-1.02688151 9.35425434 -1.04634123 7.70838587 -1.0625 6.0625 C-1.07410156 5.14597656 -1.08570313 4.22945312 -1.09765625 3.28515625 C-1 1 -1 1 0 0 Z " fill="#0F0A0A" transform="translate(1075,848)"/>
<path d="M0 0 C4.26737546 0.47415283 6.14301573 2.99650372 9 6 C9.99 6.66 10.98 7.32 12 8 C13.1875 11.125 13.1875 11.125 14 14 C9.10565787 9.90473413 4.29279666 5.73642915 0 1 C0 0.67 0 0.34 0 0 Z " fill="#260900" transform="translate(1108,411)"/>
<path d="M0 0 C0.95261719 0.34933594 1.90523437 0.69867187 2.88671875 1.05859375 C4.15357779 1.51841666 5.4205087 1.97804162 6.6875 2.4375 C7.31333984 2.66759766 7.93917969 2.89769531 8.58398438 3.13476562 C12.03242308 4.38053667 15.3813479 5.39804449 19 6 C19 6.33 19 6.66 19 7 C13.0920016 7.38530424 7.37237613 6.63216966 2 4 C0.70703125 1.890625 0.70703125 1.890625 0 0 Z " fill="#280D03" transform="translate(794,581)"/>
<path d="M0 0 C0.66 0.33 1.32 0.66 2 1 C1.360625 1.2475 0.72125 1.495 0.0625 1.75 C-2.18476569 2.78364885 -2.18476569 2.78364885 -2.5 4.9375 C-2.665 5.618125 -2.83 6.29875 -3 7 C-4.8125 8.8125 -4.8125 8.8125 -7 10 C-8.32 9.67 -9.64 9.34 -11 9 C-7.37 6.03 -3.74 3.06 0 0 Z " fill="#361307" transform="translate(1032,557)"/>
<path d="M0 0 C2.71340928 3.20322242 3.93064936 6.26274969 5.1875 10.25 C5.70376953 11.86648438 5.70376953 11.86648438 6.23046875 13.515625 C6.61138672 14.74539063 6.61138672 14.74539063 7 16 C6.34 16.33 5.68 16.66 5 17 C2.14711836 11.26769829 0.46555704 6.40140935 0 0 Z " fill="#EA8E59" transform="translate(769,544)"/>
<path d="M0 0 C1.66870487 0.32297514 3.33465333 0.66013333 5 1 C5.73605469 1.1340625 6.47210937 1.268125 7.23046875 1.40625 C8.02066406 1.5609375 8.81085937 1.715625 9.625 1.875 C10.38039063 2.01679687 11.13578125 2.15859375 11.9140625 2.3046875 C14.29408849 3.0980295 15.38318398 4.11543101 17 6 C10.59859065 5.53444296 5.73230171 3.85288164 0 1 C0 0.67 0 0.34 0 0 Z " fill="#D28753" transform="translate(795,581)"/>
<path d="M0 0 C1.32 0.66 2.64 1.32 4 2 C4 2.99 4 3.98 4 5 C1.08517222 5.80967438 -0.46113217 6.21845993 -3.3125 5.0625 C-3.869375 4.711875 -4.42625 4.36125 -5 4 C-3.35 2.68 -1.7 1.36 0 0 Z " fill="#1A0D08" transform="translate(1018,568)"/>
<path d="M0 0 C0.66 0 1.32 0 2 0 C2.33 0.99 2.66 1.98 3 3 C0.36 4.98 -2.28 6.96 -5 9 C-5 7.33333333 -5 5.66666667 -5 4 C-4.0409375 3.8453125 -4.0409375 3.8453125 -3.0625 3.6875 C-2.381875 3.460625 -1.70125 3.23375 -1 3 C-0.67 2.01 -0.34 1.02 0 0 Z " fill="#E68C4C" transform="translate(1015,566)"/>
<path d="M0 0 C0.33 0 0.66 0 1 0 C0.67 2.64 0.34 5.28 0 8 C-0.66 8 -1.32 8 -2 8 C-2.33 9.98 -2.66 11.96 -3 14 C-3.66 14 -4.32 14 -5 14 C-4.46515599 8.65155992 -2.53309233 4.64203897 0 0 Z " fill="#D98850" transform="translate(775,406)"/>
<path d="M0 0 C3.3 0.33 6.6 0.66 10 1 C10 1.66 10 2.32 10 3 C10.66 3 11.32 3 12 3 C12 3.66 12 4.32 12 5 C7.25081338 4.53439347 3.89217595 3.83067342 0 1 C0 0.67 0 0.34 0 0 Z " fill="#DD8A52" transform="translate(1104,890)"/>
<path d="M0 0 C1.98 0.99 1.98 0.99 4 2 C4 2.66 4 3.32 4 4 C4.99 4 5.98 4 7 4 C7 5.32 7 6.64 7 8 C7.66 8 8.32 8 9 8 C8.67 8.99 8.34 9.98 8 11 C6.66072279 9.54712339 5.32873153 8.08752741 4 6.625 C3.2575 5.81289063 2.515 5.00078125 1.75 4.1640625 C0 2 0 2 0 0 Z " fill="#DD8B56" transform="translate(1087,874)"/>
<path d="M0 0 C0.33 0 0.66 0 1 0 C1 3.63 1 7.26 1 11 C0.01 11.495 0.01 11.495 -1 12 C-2.31299735 4.4137931 -2.31299735 4.4137931 -1 1 C-0.67 0.67 -0.34 0.34 0 0 Z " fill="#F8933F" transform="translate(777,544)"/>
<path d="M0 0 C7.48291572 6.15034169 7.48291572 6.15034169 10 10 C7.35337395 9.84876423 5.55721506 9.49998757 3.5546875 7.703125 C0 3.6 0 3.6 0 0 Z " fill="#E18F5A" transform="translate(1192,496)"/>
<path d="M0 0 C7.48291572 6.15034169 7.48291572 6.15034169 10 10 C7.35337395 9.84876423 5.55721506 9.49998757 3.5546875 7.703125 C0 3.6 0 3.6 0 0 Z " fill="#E08E59" transform="translate(1160,464)"/>
<path d="M0 0 C6.40140935 0.46555704 11.26769829 2.14711836 17 5 C16.34 5.66 15.68 6.32 15 7 C14.01 6.34 13.02 5.68 12 5 C10.0103005 4.60986284 8.00980131 4.26797351 6 4 C6 3.34 6 2.68 6 2 C3.03 1.505 3.03 1.505 0 1 C0 0.67 0 0.34 0 0 Z " fill="#DE8B57" transform="translate(1066,383)"/>
<path d="M0 0 C2 3 2 3 1.8125 5.5 C0.95559826 8.13662075 0.11007147 9.25689748 -2 11 C-2.99 10.67 -3.98 10.34 -5 10 C-3.35 6.7 -1.7 3.4 0 0 Z " fill="#DA8852" transform="translate(1125,607)"/>
<path d="M0 0 C4.63607655 1.19213397 6.49826189 3.52902771 9.1796875 7.24609375 C10 9 10 9 9 12 C7.87370125 10.56351736 6.7490101 9.12577415 5.625 7.6875 C4.99851562 6.88699219 4.37203125 6.08648438 3.7265625 5.26171875 C2.42243282 3.55336788 1.19218183 1.78827274 0 0 Z " fill="#240700" transform="translate(1268,571)"/>
<path d="M0 0 C5.67276511 -0.29341888 8.99067246 -0.00559652 14 3 C14 3.66 14 4.32 14 5 C12.41531323 4.54636829 10.83230076 4.08688548 9.25 3.625 C8.36828125 3.36976563 7.4865625 3.11453125 6.578125 2.8515625 C4.23919428 2.0790066 2.16557438 1.16374324 0 0 Z " fill="#D78954" transform="translate(1086,536)"/>
<path d="M0 0 C2.32472205 2.85306797 3.7508258 5.54074837 5 9 C3.35 8.01 1.7 7.02 0 6 C-0.66 6.99 -1.32 7.98 -2 9 C-2 7.35 -2 5.7 -2 4 C-1.34 4 -0.68 4 0 4 C0 2.68 0 1.36 0 0 Z " fill="#251008" transform="translate(1082,867)"/>
<path d="M0 0 C2.97 0.495 2.97 0.495 6 1 C6.66 3.31 7.32 5.62 8 8 C6.85073734 7.04578192 5.70569459 6.08647955 4.5625 5.125 C3.92441406 4.59132813 3.28632812 4.05765625 2.62890625 3.5078125 C1 2 1 2 0 0 Z " fill="#220800" transform="translate(1257,560)"/>
<path d="M0 0 C1.14926266 0.95421808 2.29430541 1.91352045 3.4375 2.875 C4.07558594 3.40867187 4.71367188 3.94234375 5.37109375 4.4921875 C7 6 7 6 8 8 C5.69 7.67 3.38 7.34 1 7 C0.67 4.69 0.34 2.38 0 0 Z " fill="#E18F5A" transform="translate(1208,512)"/>
<path d="M0 0 C3.25543229 0.34879632 4.01873107 1.02133261 6.25 3.5625 C6.8275 4.366875 7.405 5.17125 8 6 C5.69 5.67 3.38 5.34 1 5 C0.67 3.35 0.34 1.7 0 0 Z " fill="#E6905A" transform="translate(1112,418)"/>
<path d="M0 0 C0.99 0.495 0.99 0.495 2 1 C3.28317892 4.84953676 3.06643637 7.94738135 3 12 C0.13700494 9.13700494 0.00578775 7.34147716 -0.0625 3.3125 C-0.041875 2.219375 -0.02125 1.12625 0 0 Z " fill="#D17F4B" transform="translate(1281,594)"/>
<path d="M0 0 C1.14926266 0.95421808 2.29430541 1.91352045 3.4375 2.875 C4.07558594 3.40867187 4.71367188 3.94234375 5.37109375 4.4921875 C7 6 7 6 8 8 C6.02 8 4.04 8 2 8 C2.33 6.68 2.66 5.36 3 4 C2.01 3.67 1.02 3.34 0 3 C0 2.01 0 1.02 0 0 Z " fill="#E18E59" transform="translate(1176,480)"/>
<path d="M0 0 C2.88575819 0.39803561 3.82189513 0.79009069 5.75 3.0625 C6.1625 3.701875 6.575 4.34125 7 5 C5.1875 5.6875 5.1875 5.6875 3 6 C1.25 4.75 1.25 4.75 0 3 C0 2.01 0 1.02 0 0 Z " fill="#EA8F5A" transform="translate(1144,450)"/>
<path d="M0 0 C0 3.69418201 -1.28179295 5.77836178 -3 9 C-3.99 8.67 -4.98 8.34 -6 8 C-6 8.66 -6 9.32 -6 10 C-6.66 9.67 -7.32 9.34 -8 9 C-6.85459775 7.68712379 -5.70866567 6.37470979 -4.5625 5.0625 C-3.92441406 4.33160156 -3.28632812 3.60070312 -2.62890625 2.84765625 C-1.77458541 1.87860647 -0.91348825 0.91348825 0 0 Z " fill="#D2814B" transform="translate(785,394)"/>
<path d="M0 0 C4.56454251 0.54339792 7.9728176 1.79463821 12 4 C8.52128379 5.15957207 7.65780355 4.77456651 4.3125 3.5625 C3.50425781 3.27503906 2.69601562 2.98757813 1.86328125 2.69140625 C1.24839844 2.46324219 0.63351562 2.23507812 0 2 C0 1.34 0 0.68 0 0 Z " fill="#230900" transform="translate(1090,538)"/>
<path d="M0 0 C0 3 0 3 -1 6 C-2.62332967 7.38576923 -4.28724465 8.72641268 -6 10 C-6.66 9.67 -7.32 9.34 -8 9 C-5.36 6.03 -2.72 3.06 0 0 Z " fill="#D08651" transform="translate(1109,632)"/>
<path d="M0 0 C0.99 0 1.98 0 3 0 C3.185625 0.9590625 3.185625 0.9590625 3.375 1.9375 C3.684375 2.9584375 3.684375 2.9584375 4 4 C4.66 4.33 5.32 4.66 6 5 C5.67 5.99 5.34 6.98 5 8 C2.5 6.25 2.5 6.25 0 4 C0 2.68 0 1.36 0 0 Z " fill="#E88E56" transform="translate(788,573)"/>
<path d="M0 0 C0 0.66 0 1.32 0 2 C-2.75 4.1875 -2.75 4.1875 -6 6 C-8.203125 5.61328125 -8.203125 5.61328125 -10 5 C-8.71186658 4.16121545 -7.41936744 3.32913217 -6.125 2.5 C-5.40570312 2.0359375 -4.68640625 1.571875 -3.9453125 1.09375 C-2 0 -2 0 0 0 Z " fill="#2C0F04" transform="translate(1055,542)"/>
<path d="M0 0 C2.31 0.66 4.62 1.32 7 2 C7 3.65 7 5.3 7 7 C5.83040013 6.02433888 4.66438823 5.044375 3.5 4.0625 C2.8503125 3.51722656 2.200625 2.97195313 1.53125 2.41015625 C1.0259375 1.94480469 0.520625 1.47945312 0 1 C0 0.67 0 0.34 0 0 Z " fill="#210800" transform="translate(1208,511)"/>
<path d="M0 0 C-1.59766103 0.86627399 -3.20339944 1.71766465 -4.8125 2.5625 C-5.70582031 3.03816406 -6.59914063 3.51382813 -7.51953125 4.00390625 C-10 5 -10 5 -13 4 C-9.0516245 0.65906688 -5.11813443 -1.70604481 0 0 Z " fill="#E39159" transform="translate(1262,889)"/>
<path d="M0 0 C0.99 0.33 1.98 0.66 3 1 C0.03 4.96 0.03 4.96 -3 9 C-3.33 7.68 -3.66 6.36 -4 5 C-2.0625 2.25 -2.0625 2.25 0 0 Z " fill="#290A02" transform="translate(1100,639)"/>
<path d="M0 0 C0.66 0 1.32 0 2 0 C0.6062718 4.43458973 -1.60582235 6.87378374 -5 10 C-5 9.01 -5 8.02 -5 7 C-4.34 7 -3.68 7 -3 7 C-3 6.01 -3 5.02 -3 4 C-2.34 4 -1.68 4 -1 4 C-0.67 2.68 -0.34 1.36 0 0 Z " fill="#321105" transform="translate(1116,619)"/>
<path d="M0 0 C1.5027237 0.97498145 3.00211963 1.95509389 4.5 2.9375 C5.3353125 3.48277344 6.170625 4.02804687 7.03125 4.58984375 C7.6809375 5.05519531 8.330625 5.52054688 9 6 C9 6.33 9 6.66 9 7 C6.75 7.3125 6.75 7.3125 4 7 C0 2.89189189 0 2.89189189 0 0 Z " fill="#2D0F04" transform="translate(783,573)"/>
<path d="M0 0 C1.14926266 0.95421808 2.29430541 1.91352045 3.4375 2.875 C4.07558594 3.40867187 4.71367188 3.94234375 5.37109375 4.4921875 C7 6 7 6 8 8 C7.443125 7.690625 6.88625 7.38125 6.3125 7.0625 C3.87459567 5.94238179 1.63775814 5.43962636 -1 5 C-0.67 3.35 -0.34 1.7 0 0 Z " fill="#E28F54" transform="translate(1250,554)"/>
<path d="M0 0 C1.12894876 0.93274109 2.25300876 1.87140122 3.375 2.8125 C4.00148438 3.33457031 4.62796875 3.85664062 5.2734375 4.39453125 C7 6 7 6 9 9 C7.65686601 8.35330586 6.32608822 7.68096422 5 7 C4.0925 6.54625 3.185 6.0925 2.25 5.625 C1.5075 5.08875 0.765 4.5525 0 4 C0 2.68 0 1.36 0 0 Z " fill="#DD8D54" transform="translate(1234,538)"/>
<path d="M0 0 C2.375 0.3125 2.375 0.3125 5 1 C5.66 1.99 6.32 2.98 7 4 C4 5 4 5 1.8125 4.0625 C1.214375 3.711875 0.61625 3.36125 0 3 C0 2.01 0 1.02 0 0 Z " fill="#EA9057" transform="translate(1097,404)"/>
<path d="M0 0 C3.63 0 7.26 0 11 0 C11 0.66 11 1.32 11 2 C11.66 2.33 12.32 2.66 13 3 C8.62065881 2.48041715 4.31196609 1.94324258 0 1 C0 0.67 0 0.34 0 0 Z " fill="#3B190A" transform="translate(1061,381)"/>
<path d="M0 0 C-1.32 0.33 -2.64 0.66 -4 1 C-4 1.66 -4 2.32 -4 3 C-5.98 3.33 -7.96 3.66 -10 4 C-10 3.01 -10 2.02 -10 1 C-6.61981469 -0.04005702 -3.5219721 -0.08004482 0 0 Z " fill="#02090F" transform="translate(810,378)"/>
<path d="M0 0 C1.14926266 0.95421808 2.29430541 1.91352045 3.4375 2.875 C4.07558594 3.40867187 4.71367188 3.94234375 5.37109375 4.4921875 C7 6 7 6 8 8 C5.6875 7.8125 5.6875 7.8125 3 7 C0 2.96551724 0 2.96551724 0 0 Z " fill="#E08E5B" transform="translate(1258,562)"/>
<path d="M0 0 C4.24822374 0.47202486 6.19989709 2.96655518 9 6 C8.67 6.99 8.34 7.98 8 9 C6.66368764 7.6905332 5.33102075 6.37734515 4 5.0625 C3.2575 4.33160156 2.515 3.60070312 1.75 2.84765625 C0 1 0 1 0 0 Z " fill="#2B0A00" transform="translate(1188,491)"/>
<path d="M0 0 C2.97 0.495 2.97 0.495 6 1 C6.33 2.98 6.66 4.96 7 7 C5.83040013 6.02433888 4.66438823 5.044375 3.5 4.0625 C2.8503125 3.51722656 2.200625 2.97195313 1.53125 2.41015625 C1.0259375 1.94480469 0.520625 1.47945313 0 1 C0 0.67 0 0.34 0 0 Z " fill="#230800" transform="translate(1160,463)"/>
<path d="M0 0 C1.14926266 0.95421808 2.29430541 1.91352045 3.4375 2.875 C4.07558594 3.40867187 4.71367188 3.94234375 5.37109375 4.4921875 C7 6 7 6 8 8 C5.6875 7.8125 5.6875 7.8125 3 7 C0 2.96551724 0 2.96551724 0 0 Z " fill="#DC8C59" transform="translate(1130,434)"/>
<path d="M0 0 C4.24822374 0.47202486 6.19989709 2.96655518 9 6 C8.67 6.99 8.34 7.98 8 9 C6.66368764 7.6905332 5.33102075 6.37734515 4 5.0625 C3.2575 4.33160156 2.515 3.60070312 1.75 2.84765625 C0 1 0 1 0 0 Z " fill="#290900" transform="translate(1124,427)"/>
<path d="M0 0 C2.31 1.98 4.62 3.96 7 6 C4.37886292 6 2.49064888 5.68707555 0 5 C0 3.35 0 1.7 0 0 Z " fill="#E38C5A" transform="translate(1243,547)"/>
<path d="M0 0 C0.99 0.33 1.98 0.66 3 1 C-1.75 6.75 -1.75 6.75 -4 9 C-3.46930939 5.17902761 -2.50298434 2.93828597 0 0 Z " fill="#260A01" transform="translate(780,396)"/>
<path d="M0 0 C1.98 0 3.96 0 6 0 C3.63707344 2.52588702 2.33537489 3.88820837 -1 5 C-0.67 3.35 -0.34 1.7 0 0 Z " fill="#DE8952" transform="translate(1029,555)"/>
<path d="M0 0 C0 0.66 0 1.32 0 2 C-3.47325181 3.1577506 -6.36067448 3.06866652 -10 3 C-6.26223701 0.50815801 -4.5227786 0 0 0 Z " fill="#35160B" transform="translate(1066,538)"/>
<path d="M0 0 C1.98 1.65 3.96 3.3 6 5 C3 6 3 6 0 5 C0 3.35 0 1.7 0 0 Z " fill="#E58E52" transform="translate(1202,506)"/>
<path d="M0 0 C0 3 0 3 -1.75 5.25 C-2.86375 6.11625 -2.86375 6.11625 -4 7 C-5.32 6.67 -6.64 6.34 -8 6 C-5.36 4.02 -2.72 2.04 0 0 Z " fill="#2A0A01" transform="translate(1268,883)"/>
<path d="M0 0 C0.99 0.33 1.98 0.66 3 1 C1.35 2.98 -0.3 4.96 -2 7 C-2.33 6.01 -2.66 5.02 -3 4 C-2.34 4 -1.68 4 -1 4 C-0.67 2.68 -0.34 1.36 0 0 Z " fill="#D88B54" transform="translate(1271,876)"/>
<path d="M0 0 C2.40072955 2.88087546 4.47291037 5.56404834 6 9 C5.01 9 4.02 9 3 9 C0 3.375 0 3.375 0 0 Z " fill="#E08F58" transform="translate(1082,864)"/>
<path d="M0 0 C1.98 1.65 3.96 3.3 6 5 C5.01 6.485 5.01 6.485 4 8 C3.731875 7.401875 3.46375 6.80375 3.1875 6.1875 C2.01506533 4.02775192 0.80630718 2.64209744 -1 1 C-0.67 0.67 -0.34 0.34 0 0 Z " fill="#1B0801" transform="translate(777,567)"/>
<path d="M0 0 C2.31 1.98 4.62 3.96 7 6 C6.01 6.33 5.02 6.66 4 7 C3.67 6.01 3.34 5.02 3 4 C2.01 3.67 1.02 3.34 0 3 C0 2.01 0 1.02 0 0 Z " fill="#DF8E5E" transform="translate(1224,528)"/>
<path d="M0 0 C0.33 2.31 0.66 4.62 1 7 C-0.98 5.35 -2.96 3.7 -5 2 C-1.125 0 -1.125 0 0 0 Z " fill="#220900" transform="translate(1220,517)"/>
</svg>
