<?xml version="1.0" encoding="UTF-8"?>
<svg version="1.1" xmlns="http://www.w3.org/2000/svg" width="2048" height="1270">
<path d="M0 0 C675.84 0 1351.68 0 2048 0 C2048 419.1 2048 838.2 2048 1270 C1372.16 1270 696.32 1270 0 1270 C0 850.9 0 431.8 0 0 Z " fill="#FE8F46" transform="translate(0,0)"/>
<path d="M0 0 C1.00640962 -0.00367669 2.01281924 -0.00735338 3.04972613 -0.01114148 C6.42643595 -0.02216571 9.80311498 -0.02602008 13.17984009 -0.02983093 C15.5995595 -0.03609668 18.01927796 -0.04274358 20.43899536 -0.04974365 C27.70437958 -0.06896167 34.96976124 -0.07957193 42.23516315 -0.08847144 C45.66213345 -0.09286042 49.08910223 -0.09822576 52.51607132 -0.10346031 C63.91859554 -0.12047198 75.32111883 -0.1349631 86.72365379 -0.14220905 C89.68072893 -0.14411875 92.63780405 -0.14603911 95.59487915 -0.147995 C96.6972446 -0.14872061 96.6972446 -0.14872061 97.82188006 -0.14946087 C109.70988572 -0.15774979 121.5977904 -0.18306766 133.48575203 -0.21557567 C145.70932889 -0.24872695 157.93285459 -0.2666652 170.15647662 -0.26985329 C177.01201874 -0.27201128 183.86741373 -0.28065458 190.72291183 -0.30631447 C197.17929873 -0.33042546 203.63549347 -0.33379673 210.09191895 -0.32355309 C212.45286565 -0.32305948 214.81382568 -0.32932786 217.17473221 -0.34310913 C245.30324237 -0.49802435 261.05824618 6.29913786 281.02417147 25.95559967 C284.85693203 29.74751912 288.67475024 33.5543441 292.49209595 37.36177063 C294.21630597 39.07806231 295.9406914 40.79417778 297.66523743 42.51013184 C302.79958011 47.620724 307.92972286 52.73551716 313.05867913 57.85151348 C314.51037278 59.29948115 315.96218915 60.74732565 317.414047 62.19512868 C326.46207164 71.21793713 335.50849649 80.24234637 344.55016804 89.27152157 C346.63365541 91.3520802 348.71715932 93.43262226 350.8006897 95.51313782 C351.31841571 96.03011778 351.83614171 96.54709773 352.36955639 97.07974375 C360.76878703 105.46630248 369.1782623 113.84251114 377.59193359 122.21457987 C386.25875377 130.83889997 394.91604473 139.47269527 403.56424969 148.11568266 C408.40882489 152.95685639 413.2574205 157.79384375 418.11681557 162.6201458 C422.68457798 167.15684701 427.2393606 171.7063184 431.78573799 176.26445198 C433.45064956 177.92958373 435.11980727 179.59048301 436.79361343 181.24667358 C449.47278675 193.79968385 461.30688022 206.10958942 461.49517965 225.00095916 C461.48718776 226.45413145 461.48718776 226.45413145 461.47903442 227.93666077 C461.48817108 229.51477173 461.48817108 229.51477173 461.49749231 231.12476373 C461.51407284 234.63201866 461.50935342 238.13890856 461.50454712 241.64619446 C461.51189036 244.16827266 461.52047733 246.6903475 461.5302124 249.2124176 C461.55010808 255.34173936 461.55581039 261.47092797 461.55402452 267.60027763 C461.55271396 272.58613779 461.55653599 277.57196855 461.56394958 282.55782318 C461.56604892 283.99713397 461.56814652 285.43644476 461.5702424 286.87575555 C461.5718077 287.95053888 461.5718077 287.95053888 461.57340461 289.04703501 C461.59228531 302.58266144 461.59126364 316.11823361 461.58443528 329.65386775 C461.57886311 342.01506365 461.59967514 354.37605208 461.63279575 366.73719952 C461.66659578 379.45133456 461.68169313 392.1653704 461.67707872 404.87955117 C461.67484018 412.0088507 461.67998646 419.13795858 461.70497131 426.26721954 C461.72827988 432.97491556 461.72532533 439.68211086 461.70504379 446.38983917 C461.70164104 448.84515214 461.70669088 451.30049435 461.72102737 453.75576782 C461.85014738 477.51726619 461.85014738 477.51726619 456.08462524 488.14717102 C455.59823326 489.0825256 455.11184128 490.01788017 454.61071014 490.98157883 C447.97669192 503.26298793 436.93220765 511.13716366 423.70503235 515.18017578 C418.16863785 516.53315579 412.67182525 516.45017207 406.99990845 516.4535675 C405.81017929 516.46189102 404.62045013 516.47021454 403.39466858 516.47879028 C400.1505392 516.49867592 396.90655868 516.50951621 393.66237664 516.51461673 C391.62865308 516.51827692 389.59495356 516.52452553 387.56123924 516.53161812 C380.44638374 516.5560683 373.33160067 516.56915442 366.21670532 516.57270813 C359.61713749 516.57633767 353.0180363 516.60620219 346.41861087 516.64811271 C340.72655786 516.68297482 335.03465831 516.69825932 329.34249943 516.69895416 C325.95443313 516.69974174 322.56684289 516.70823677 319.17888832 516.73695183 C315.39095823 516.76400435 311.60429415 516.75899771 307.8163147 516.74653625 C306.16603775 516.76878769 306.16603775 516.76878769 304.48242188 516.79148865 C289.77959671 516.65472769 277.55316517 509.97447638 267.39712524 499.64717102 C259.78138248 490.85457281 254.97147141 479.74560209 254.94418335 468.12773132 C254.93972667 467.0673811 254.93972667 467.0673811 254.93517995 465.98560965 C254.92650815 463.61676263 254.92498597 461.24796624 254.92349243 458.87910461 C254.91886308 457.18047478 254.91383826 455.48184598 254.90844727 453.78321838 C254.89533012 449.16722893 254.88887931 444.55125403 254.88443661 439.93524885 C254.88150399 437.04928994 254.87739875 434.163335 254.87293243 431.27737808 C254.85925756 422.24210675 254.84959159 413.20684447 254.84573054 404.17156351 C254.84125361 393.75297305 254.82372263 383.33451403 254.79472995 372.91596353 C254.77308303 364.85634258 254.76302461 356.79675853 254.76168942 348.73710883 C254.7606433 343.92678817 254.75477674 339.11659108 254.73686981 334.30630112 C254.72033767 329.77711049 254.7182585 325.24813561 254.72700882 320.71892548 C254.72777652 319.06218257 254.72347187 317.40542782 254.71355057 315.74871445 C254.57855001 291.78830376 265.37196713 276.18336223 280.08462524 258.14717102 C292.7266235 243.17911584 292.7266235 243.17911584 302.08462524 226.14717102 C302.37982056 225.47556946 302.67501587 224.8039679 302.97915649 224.11201477 C307.12613311 213.07234643 306.83918342 197.92144877 302.08462524 187.14717102 C301.79458618 186.44592102 301.50454712 185.74467102 301.20571899 185.02217102 C299.19267602 180.57494637 296.59291901 177.14362231 293.25650024 173.59248352 C292.08462524 172.14717102 292.08462524 172.14717102 292.08462524 170.14717102 C291.50712524 169.87517883 290.92962524 169.60318665 290.33462524 169.32295227 C288.08805936 168.14896559 286.14213861 166.81156035 284.08462524 165.33467102 C271.89013115 157.12451658 258.74343466 154.51993341 244.27212524 156.70967102 C231.77710374 159.57640855 221.78012478 167.19736376 212.08462524 175.14717102 C210.41919021 176.48204244 208.75260344 177.81547875 207.08462524 179.14717102 C206.28669556 179.78654602 205.48876587 180.42592102 204.66665649 181.08467102 C203.81458618 181.76529602 202.96251587 182.44592102 202.08462524 183.14717102 C201.07786743 183.95154602 200.07110962 184.75592102 199.03384399 185.58467102 C181.22746243 199.65936996 164.74857187 208.14199058 141.81558228 207.87593079 C140.16591212 207.87916077 138.51624537 207.88499381 136.86659241 207.89318848 C132.44310116 207.90755364 128.020538 207.88500223 123.59715891 207.85432935 C118.94055894 207.82770193 114.28397994 207.83326554 109.62731934 207.83441162 C101.81866189 207.83161542 94.01035747 207.80574329 86.20181274 207.76460266 C77.1987649 207.71734127 68.19610187 207.7016126 59.19293892 207.70380932 C49.56150681 207.70584117 39.93022109 207.68500045 30.29883337 207.65746951 C27.54126896 207.65110343 24.78372845 207.64894987 22.02615738 207.64775276 C17.68385252 207.6447214 13.34186576 207.62626191 8.99966621 207.59625435 C7.41431059 207.58755498 5.82891834 207.58378775 4.24353981 207.58553696 C-13.13283437 207.59744627 -27.88578969 203.82307268 -40.73178101 191.49092102 C-49.10426679 182.5043531 -55.01322827 170.47504249 -55.05581665 158.05752563 C-55.06152679 157.05540543 -55.06723694 156.05328522 -55.07312012 155.02079773 C-55.07423798 153.93239594 -55.07535583 152.84399414 -55.07650757 151.72261047 C-55.08147247 150.5675148 -55.08643738 149.41241913 -55.09155273 148.22232056 C-55.10615487 144.40169172 -55.11297353 140.58110442 -55.11849976 136.76045227 C-55.12279865 134.77346055 -55.12709809 132.78646883 -55.13147426 130.79947728 C-55.143275 125.26208879 -55.15081878 119.7247103 -55.15426946 114.18731052 C-55.15874423 107.04746323 -55.17626938 99.90780796 -55.20527005 92.76801902 C-55.22695722 87.23489508 -55.23697751 81.70182487 -55.23831058 76.16865891 C-55.23935382 72.87073911 -55.24662694 69.57304006 -55.26313019 66.27515602 C-55.2802557 62.58952574 -55.2782941 58.90435856 -55.27182007 55.21870422 C-55.28103485 54.14042358 -55.29024963 53.06214294 -55.29974365 51.95118713 C-55.22504895 38.32143015 -49.98816443 25.25080021 -40.60287476 15.20967102 C-28.83455352 4.64219889 -15.55467388 -0.00305023 0 0 Z " fill="#050504" transform="translate(822.9153747558594,380.8528289794922)"/>
<path d="M0 0 C1.00782075 -0.00297112 2.01564151 -0.00594224 3.05400229 -0.0090034 C6.43538329 -0.01768371 9.81672885 -0.01919811 13.19812012 -0.02069092 C15.62108435 -0.02531966 18.04404785 -0.0303444 20.4670105 -0.03573608 C27.05415324 -0.04885896 33.64128862 -0.05534212 40.22844124 -0.05974674 C44.34579217 -0.06251279 48.46314076 -0.06675089 52.58049011 -0.07125092 C63.99159853 -0.08344328 75.40270509 -0.09374151 86.81381989 -0.09712601 C87.9088524 -0.09745536 87.9088524 -0.09745536 89.02600679 -0.09779136 C89.75773242 -0.09800964 90.48945805 -0.09822791 91.24335718 -0.09845281 C92.72599952 -0.09889626 94.20864185 -0.09934283 95.69128418 -0.09979248 C96.4267191 -0.10001391 97.16215402 -0.10023534 97.91987485 -0.10046348 C109.82214472 -0.10440692 121.72435319 -0.1218472 133.62659937 -0.145152 C145.86146713 -0.16891357 158.09630416 -0.1813301 170.33119535 -0.18249393 C177.19446882 -0.18340818 184.05766235 -0.18909697 190.9209137 -0.20731354 C197.3821989 -0.2244032 203.84337324 -0.22593131 210.30467606 -0.21717453 C212.66968314 -0.21640611 215.03469847 -0.22072103 217.39968491 -0.23063278 C240.34690711 -0.32112553 240.34690711 -0.32112553 251.07116699 3.14044189 C250.41116699 3.80044189 249.75116699 4.46044189 249.07116699 5.14044189 C248.13250101 4.81554118 247.19383503 4.49064047 246.22672462 4.15589428 C241.36274399 2.77737259 236.60587009 2.866521 231.58224487 2.89320374 C230.53848588 2.89078932 229.49472688 2.8883749 228.41933882 2.88588732 C224.9287058 2.88026034 221.43825659 2.888906 217.94763184 2.89752197 C215.44242808 2.89644886 212.93722458 2.89450973 210.43202209 2.89176941 C204.33853983 2.88742627 198.24512929 2.8923572 192.1516578 2.90161971 C185.05417392 2.91201951 177.95670171 2.91193311 170.85921164 2.91144713 C158.19612799 2.91094687 145.53306964 2.9200988 132.86999512 2.93463135 C120.58385762 2.94872399 108.29774237 2.95580183 96.01159668 2.95513916 C95.25457889 2.9550992 94.4975611 2.95505925 93.71760337 2.95501808 C92.96189007 2.95497773 92.20617677 2.95493737 91.42756307 2.95489579 C77.43566495 2.9542059 63.44377628 2.96009555 49.45188122 2.96904901 C44.50486077 2.97206453 39.55784204 2.97312847 34.61082077 2.97358131 C27.95421146 2.97433481 21.29762256 2.98068018 14.64101982 2.99074745 C12.19525356 2.99367223 9.7494846 2.99489786 7.30371666 2.99431992 C3.97116001 2.99383035 0.6386693 2.9994739 -2.69387817 3.00672913 C-4.15315733 3.00440622 -4.15315733 3.00440622 -5.64191687 3.00203639 C-6.53582109 3.00526084 -7.42972532 3.00848529 -8.35071754 3.01180744 C-9.11965391 3.01251187 -9.88859027 3.01321629 -10.68082774 3.01394206 C-13.1691109 3.15396282 -15.49858477 3.60039801 -17.92883301 4.14044189 C-18.25883301 5.13044189 -18.58883301 6.12044189 -18.92883301 7.14044189 C-20.50664551 7.35700439 -20.50664551 7.35700439 -22.11633301 7.57794189 C-25.08343849 8.01571156 -27.99677667 8.51849055 -30.92883301 9.14044189 C-28.31722519 5.97317284 -25.34757857 4.93050031 -21.55383301 3.51544189 C-19.87160645 2.87735596 -19.87160645 2.87735596 -18.15539551 2.22637939 C-12.00827087 0.15749241 -6.43226662 -0.0059196 0 0 Z " fill="#361504" transform="translate(822.9288330078125,380.85955810546875)"/>
<path d="M0 0 C2.28211522 -0.00107571 4.56423016 -0.00301865 6.84634399 -0.00575256 C12.98415188 -0.01055551 19.12188585 -0.00300432 25.2596848 0.00720048 C31.70782578 0.0160497 38.15596491 0.01422226 44.60411072 0.01383972 C55.41789121 0.01477285 66.23163935 0.02335718 77.04541016 0.03710938 C88.14827994 0.05122166 99.25112503 0.05827867 110.35400391 0.05761719 C111.38199019 0.05755725 111.38199019 0.05755725 112.43074388 0.05749611 C113.45704614 0.05743558 113.45704614 0.05743558 114.50408179 0.05737382 C127.83612742 0.05664786 141.16816005 0.063638 154.50020289 0.07282043 C158.32874455 0.07494731 162.1572843 0.07566097 165.98582649 0.07605934 C172.00322846 0.07706613 178.02060472 0.08319015 184.0379982 0.09322548 C186.24140325 0.09613746 188.44481126 0.09737849 190.64821815 0.09679794 C193.66309389 0.0963043 196.6778985 0.10199154 199.69276428 0.10920715 C200.55726655 0.10765855 201.42176881 0.10610995 202.31246811 0.10451442 C208.12988868 0.12739488 213.83543623 0.57034504 219.61303711 1.24291992 C219.61303711 1.57291992 219.61303711 1.90291992 219.61303711 2.24291992 C217.67240529 2.24650245 217.67240529 2.24650245 215.69256878 2.25015736 C184.95587195 2.30756311 154.21925391 2.38032621 123.48264135 2.4719062 C119.69643571 2.48317387 115.9102297 2.4943124 112.12402344 2.50537109 C110.99341325 2.50867662 110.99341325 2.50867662 109.83996246 2.51204892 C97.64830222 2.54738558 85.45664205 2.57227019 73.26494964 2.59326694 C60.74770829 2.61505797 48.23053318 2.64813966 35.71334821 2.69162148 C27.99454291 2.71808142 20.27582009 2.7358184 12.55697171 2.74226596 C6.63018339 2.74816189 0.70351675 2.7697949 -5.2232132 2.79719543 C-7.64870337 2.80597067 -10.07421803 2.80969931 -12.49972343 2.80792809 C-15.81979888 2.80626947 -19.13930735 2.82302545 -22.45930481 2.8441925 C-23.41167347 2.83934493 -24.36404214 2.83449735 -25.34527045 2.82950288 C-31.30052847 2.89185463 -36.39911405 3.86749974 -42.07191962 5.69834393 C-44.38696289 6.24291992 -44.38696289 6.24291992 -47.38696289 5.24291992 C-43.14190567 2.18107748 -39.12718879 1.52505351 -34.03614807 1.07060242 C-33.20547713 0.99083245 -32.37480619 0.91106248 -31.5189634 0.82887524 C-21.02531633 -0.08580344 -10.52472911 -0.02917713 0 0 Z " fill="#F0985B" transform="translate(846.386962890625,378.757080078125)"/>
<path d="M0 0 C0.66 0 1.32 0 2 0 C0.36813772 4.25341882 -1.63454915 8.1950568 -3.78125 12.20703125 C-6.44602056 18.31379711 -7.24996965 24.02124677 -7.24050903 30.64367676 C-7.24221788 31.36921737 -7.24392673 32.09475799 -7.24568737 32.84228468 C-7.24895605 35.2497778 -7.23802235 37.65698611 -7.22705078 40.06445312 C-7.2264861 41.79960117 -7.22680434 43.53474969 -7.22793579 45.26989746 C-7.22850808 49.96353113 -7.21677386 54.65706194 -7.20278788 59.35067177 C-7.19025982 64.26205545 -7.18910838 69.17344167 -7.18673706 74.08483887 C-7.18052839 83.37774493 -7.16412586 92.67060376 -7.14403808 101.96348906 C-7.12166001 112.5462961 -7.11068085 123.12910544 -7.10064721 133.71193027 C-7.07975909 155.47464651 -7.04459503 177.23732028 -7 199 C-7.66 199 -8.32 199 -9 199 C-9.84704071 194.58138618 -10.13560691 190.3906948 -10.16062927 185.89431763 C-10.16571709 185.20219268 -10.17080491 184.51006773 -10.17604691 183.79696929 C-10.19167702 181.48981078 -10.20027147 179.18268338 -10.20874023 176.87548828 C-10.21828667 175.21585395 -10.22817817 173.55622157 -10.23838806 171.89659119 C-10.26969321 166.45452208 -10.29003644 161.0124381 -10.30859375 155.5703125 C-10.31189107 154.64193746 -10.31518839 153.71356242 -10.31858563 152.75705481 C-10.34937182 143.98782129 -10.37605682 135.21858412 -10.39300442 126.44931221 C-10.41487226 115.26855344 -10.45677181 104.08827715 -10.52644199 92.90771115 C-10.57386367 85.02715345 -10.59796236 77.14672505 -10.6052013 69.26602924 C-10.61013155 64.56938313 -10.62495927 59.87328162 -10.6649456 55.17679214 C-10.70214637 50.7491577 -10.71011372 46.32237136 -10.69693947 41.89460945 C-10.69699287 40.28228274 -10.70706334 38.66991518 -10.7286911 37.05773354 C-10.8748186 25.53561082 -8.69538355 16.52685605 -4 6 C-3.34 6 -2.68 6 -2 6 C-1.34 4.02 -0.68 2.04 0 0 Z " fill="#D2834A" transform="translate(1086,659)"/>
<path d="M0 0 C0.66 0 1.32 0 2 0 C4.64688643 6.57966093 5.44406434 12.31262639 5.3125 19.375 C5.31733398 20.70724609 5.31733398 20.70724609 5.32226562 22.06640625 C5.26791699 28.59812452 5.26791699 28.59812452 3 32 C2.65203462 33.52994302 2.36616848 35.07463123 2.125 36.625 C0.59866611 44.7299513 -1.96508687 50.30035982 -8 56 C-8 56.99 -8 57.98 -8 59 C-9.485 59.495 -9.485 59.495 -11 60 C-13.3091666 62.30302869 -13.3091666 62.30302869 -15 65 C-14.67 65.99 -14.34 66.98 -14 68 C-17.465 68.495 -17.465 68.495 -21 69 C-19.3294298 65.16696949 -16.82387766 62.06606375 -14.25 58.8125 C-12.90060051 57.06804207 -11.55594425 55.31999852 -10.21142578 53.57177734 C-9.20737789 52.26906467 -8.19637998 50.97171201 -7.18359375 49.67578125 C1.63223263 37.59142395 3.56671265 23.55828016 2 9 C1.43909628 5.97054462 0.76440753 2.98423993 0 0 Z " fill="#270F06" transform="translate(1126,569)"/>
<path d="M0 0 C0.33 0 0.66 0 1 0 C1.00423194 0.57076547 1.00846388 1.14153093 1.01282406 1.72959232 C1.11625239 15.63519829 1.22496791 29.54075434 1.33933926 43.44627476 C1.39455267 50.17095312 1.44801469 56.89563679 1.49731445 63.62036133 C1.54507403 70.11077026 1.59742093 76.60112751 1.65294075 83.09147453 C1.67331181 85.566952 1.69203342 88.04244361 1.70907402 90.51794624 C1.73323437 93.98670686 1.76327289 97.45537072 1.79467773 100.92407227 C1.8004332 101.94618805 1.80618866 102.96830383 1.81211853 104.02139282 C1.85413676 108.10786012 1.93367478 112.03638745 2.63783264 116.06724548 C2.81710548 117.51895897 2.81710548 117.51895897 3 119 C2.01 119.99 2.01 119.99 1 121 C-0.22409104 118.55181792 -0.1231358 116.9790144 -0.12025452 114.24179077 C-0.12162918 113.23775711 -0.12300385 112.23372345 -0.12442017 111.19926453 C-0.12082489 110.09371719 -0.11722961 108.98816986 -0.11352539 107.84912109 C-0.11367142 106.68815414 -0.11381744 105.52718719 -0.1139679 104.33103943 C-0.11326903 100.4784867 -0.10547781 96.62598182 -0.09765625 92.7734375 C-0.09579198 90.10828571 -0.09431895 87.44313659 -0.09336853 84.77798462 C-0.09025745 78.47045915 -0.08204706 72.16295096 -0.07201904 65.85543311 C-0.06085098 58.67535645 -0.0553457 51.49527898 -0.05032361 44.3151958 C-0.03986427 29.54345502 -0.02226914 14.77172781 0 0 Z " fill="#D1844F" transform="translate(767,432)"/>
<path d="M0 0 C0.66 0 1.32 0 2 0 C4.64688643 6.57966093 5.44406434 12.31262639 5.3125 19.375 C5.31572266 20.26316406 5.31894531 21.15132812 5.32226562 22.06640625 C5.26791699 28.59812452 5.26791699 28.59812452 3 32 C2.65593338 33.6356818 2.36869103 35.2838823 2.125 36.9375 C1.36972664 41.1097762 0.54622748 43.39943318 -3 46 C-3 42.31664907 -1.84380911 39.93417884 -0.5 36.5 C1.71932654 30.33307605 2.46854067 24.66940704 2.4375 18.125 C2.43492188 17.35349609 2.43234375 16.58199219 2.4296875 15.78710938 C2.28972621 10.34261536 1.34957513 5.26872884 0 0 Z " fill="#2C0E04" transform="translate(1126,569)"/>
<path d="M0 0 C1.32 0.33 2.64 0.66 4 1 C-1.71676389 6.68789135 -10.39771327 15 -19 15 C-19 14.34 -19 13.68 -19 13 C-16.36 11.68 -13.72 10.36 -11 9 C-11.66 8.34 -12.32 7.68 -13 7 C-11.35 7.33 -9.7 7.66 -8 8 C-7.67 6.68 -7.34 5.36 -7 4 C-7.66 3.67 -8.32 3.34 -9 3 C-6.04335481 1.5216774 -3.25770263 1.93967217 0 2 C0 1.34 0 0.68 0 0 Z " fill="#130802" transform="translate(1267,880)"/>
<path d="M0 0 C0.99 0 1.98 0 3 0 C2.67 0.99 2.34 1.98 2 3 C1.34 3 0.68 3 0 3 C-0.08378906 3.59683594 -0.16757813 4.19367187 -0.25390625 4.80859375 C-1.21927348 7.64404409 -2.48278293 8.39790886 -4.9375 10.0625 C-7.75182893 11.98809348 -9.05866009 13.08799013 -11 16 C-11.99 16.33 -12.98 16.66 -14 17 C-13.67 17.66 -13.34 18.32 -13 19 C-17.02040985 19.69584017 -20.08263419 20.1700097 -24 19 C-23.14277344 18.57589844 -22.28554687 18.15179687 -21.40234375 17.71484375 C-13.28508846 13.55097548 -7.32694516 9.34351174 -1.75 2.0625 C-0.88375 1.0415625 -0.88375 1.0415625 0 0 Z " fill="#DD8D5C" transform="translate(1276,874)"/>
<path d="M0 0 C0.99 0.99 1.98 1.98 3 3 C2.01 3.495 2.01 3.495 1 4 C1.33 4.99 1.66 5.98 2 7 C2.99 7.33 3.98 7.66 5 8 C5.33 7.01 5.66 6.02 6 5 C7.32 5.33 8.64 5.66 10 6 C10 6.66 10 7.32 10 8 C9.34 8 8.68 8 8 8 C7.67 8.99 7.34 9.98 7 11 C7.66 11.33 8.32 11.66 9 12 C9 12.99 9 13.98 9 15 C9.99 15.33 10.98 15.66 12 16 C11.67 16.99 11.34 17.98 11 19 C5.72 13.72 0.44 8.44 -5 3 C-3.68 2.67 -2.36 2.34 -1 2 C-0.67 1.34 -0.34 0.68 0 0 Z " fill="#ED8E4E" transform="translate(1220,516)"/>
<path d="M0 0 C0.66 0.33 1.32 0.66 2 1 C2.12375 1.804375 2.2475 2.60875 2.375 3.4375 C2.684375 4.7059375 2.684375 4.7059375 3 6 C4.96672915 7.1500831 4.96672915 7.1500831 7 8 C7.33 8.99 7.66 9.98 8 11 C8.66 11 9.32 11 10 11 C10.66 9.68 11.32 8.36 12 7 C12.99 7.33 13.98 7.66 15 8 C14.690625 8.556875 14.38125 9.11375 14.0625 9.6875 C12.94238179 12.12540433 12.43962636 14.36224186 12 17 C6.33870569 12.30233025 1.14771096 7.25276628 -4 2 C-2.125 0.9375 -2.125 0.9375 0 0 Z " fill="#EE9052" transform="translate(1113,411)"/>
<path d="M0 0 C2.375 0.3125 2.375 0.3125 5 1 C5.66 1.99 6.32 2.98 7 4 C7.99 3.34 8.98 2.68 10 2 C12.1875 2.375 12.1875 2.375 14 3 C14 3.66 14 4.32 14 5 C13.34 5 12.68 5 12 5 C12.33 7.31 12.66 9.62 13 12 C13.66 12 14.32 12 15 12 C14.67 12.99 14.34 13.98 14 15 C11.66265901 12.69152056 9.33081534 10.37756659 7 8.0625 C6.33226562 7.40314453 5.66453125 6.74378906 4.9765625 6.06445312 C4.34492187 5.43603516 3.71328125 4.80761719 3.0625 4.16015625 C2.47597656 3.57886963 1.88945313 2.99758301 1.28515625 2.39868164 C0 1 0 1 0 0 Z " fill="#E78E52" transform="translate(1152,455)"/>
<path d="M0 0 C0 0.66 0 1.32 0 2 C-0.66 2 -1.32 2 -2 2 C-2.33 3.32 -2.66 4.64 -3 6 C-1.68 6.33 -0.36 6.66 1 7 C1.33 8.98 1.66 10.96 2 13 C-2.52615993 9.32167983 -6.39424999 5.58913637 -10 1 C-9.38125 0.855625 -8.7625 0.71125 -8.125 0.5625 C-2.8125 -0.84375 -2.8125 -0.84375 0 0 Z " fill="#F18F4D" transform="translate(1182,474)"/>
<path d="M0 0 C1.32 0.66 2.64 1.32 4 2 C-1.0022779 11.59453303 -1.0022779 11.59453303 -5 15 C-5.66 13.35 -6.32 11.7 -7 10 C-6.34 9.34 -5.68 8.68 -5 8 C-4.34 8 -3.68 8 -3 8 C-1.98888907 4.95086772 -1.98888907 4.95086772 -3 2 C-2.01 2 -1.02 2 0 2 C0 1.34 0 0.68 0 0 Z " fill="#160703" transform="translate(1276,865)"/>
<path d="M0 0 C0.8971875 0.309375 0.8971875 0.309375 1.8125 0.625 C1.8125 1.285 1.8125 1.945 1.8125 2.625 C1.1525 2.625 0.4925 2.625 -0.1875 2.625 C0.1425 4.605 0.4725 6.585 0.8125 8.625 C1.4725 8.625 2.1325 8.625 2.8125 8.625 C2.4825 9.945 2.1525 11.265 1.8125 12.625 C-1.4875 9.325 -4.7875 6.025 -8.1875 2.625 C-7.1975 2.295 -6.2075 1.965 -5.1875 1.625 C-2.1875 -0.375 -2.1875 -0.375 0 0 Z " fill="#F18F4D" transform="translate(1260.1875,553.375)"/>
<path d="M0 0 C5.94 2.31 11.88 4.62 18 7 C18 7.66 18 8.32 18 9 C11.375 10.25 11.375 10.25 8 8 C8 7.34 8 6.68 8 6 C6.68 6 5.36 6 4 6 C1.75 4.125 1.75 4.125 0 2 C0 1.34 0 0.68 0 0 Z " fill="#F08F4F" transform="translate(792,580)"/>
<path d="M0 0 C2.44989101 3.74235319 2.23086143 7.44225419 2.125 11.75 C2.11597656 12.44738281 2.10695313 13.14476562 2.09765625 13.86328125 C2.07419888 15.57566958 2.03833104 17.28788004 2 19 C-1.68172546 14.30958263 -3.35473968 10.03057453 -3 4 C-2.34 4 -1.68 4 -1 4 C-0.67 2.68 -0.34 1.36 0 0 Z " fill="#140A02" transform="translate(772,540)"/>
<path d="M0 0 C0.66 0 1.32 0 2 0 C0.72425228 3.33340534 -0.73536578 6.4286641 -2.4375 9.5625 C-5.28844037 15.15472918 -6.70749007 20.88422129 -8 27 C-8.33 27 -8.66 27 -9 27 C-9.67360912 18.91669061 -7.44171655 13.2644803 -4 6 C-3.34 6 -2.68 6 -2 6 C-1.34 4.02 -0.68 2.04 0 0 Z " fill="#E49059" transform="translate(1086,659)"/>
<path d="M0 0 C-4.47307108 4.04165813 -8.88276824 7.80173015 -14 11 C-14 10.01 -14 9.02 -14 8 C-14.66 7.67 -15.32 7.34 -16 7 C-15.01 6.4121875 -15.01 6.4121875 -14 5.8125 C-12.31055065 4.79179102 -10.63108855 3.75238434 -8.9921875 2.65234375 C-7.94417969 1.95818359 -7.94417969 1.95818359 -6.875 1.25 C-6.21242188 0.80140625 -5.54984375 0.3528125 -4.8671875 -0.109375 C-3 -1 -3 -1 0 0 Z " fill="#1E0F08" transform="translate(1028,561)"/>
<path d="M0 0 C6.73802154 2.31017881 10.30828913 5.98387859 14 12 C13.01 12.33 12.02 12.66 11 13 C11 12.34 11 11.68 11 11 C9.68 11 8.36 11 7 11 C7 10.34 7 9.68 7 9 C6.34 9 5.68 9 5 9 C4.67 7.02 4.34 5.04 4 3 C2.68 2.67 1.36 2.34 0 2 C0 1.34 0 0.68 0 0 Z " fill="#EC8E4B" transform="translate(1105,545)"/>
<path d="M0 0 C-2.64738916 1.4606285 -3.89448334 2 -7 2 C-7.33 2.99 -7.66 3.98 -8 5 C-9.5778125 5.2165625 -9.5778125 5.2165625 -11.1875 5.4375 C-14.15460549 5.87526966 -17.06794366 6.37804866 -20 7 C-17.37739925 3.82674642 -14.35249579 2.71265445 -10.5625 1.25 C-9.42941406 0.80140625 -8.29632812 0.3528125 -7.12890625 -0.109375 C-4.10898801 -0.9689772 -2.85271145 -1.14949552 0 0 Z " fill="#240B03" transform="translate(812,383)"/>
<path d="M0 0 C-0.66 0.66 -1.32 1.32 -2 2 C-1.360625 2.20625 -0.72125 2.4125 -0.0625 2.625 C2 4 2 4 2.75 7.125 C2.87375 8.548125 2.87375 8.548125 3 10 C-1.13621084 6.6189962 -4.81316569 3.33409466 -8 -1 C-4.59745511 -2.2151946 -3.06748874 -1.86240388 0 0 Z " fill="#E78F53" transform="translate(1133,429)"/>
<path d="M0 0 C1.79398267 0.95399078 3.58511655 1.91334026 5.375 2.875 C6.37273437 3.40867187 7.37046875 3.94234375 8.3984375 4.4921875 C11 6 11 6 13 8 C11.88625 7.95875 10.7725 7.9175 9.625 7.875 C5.95633975 7.58878141 5.95633975 7.58878141 4 10 C3.01 10 2.02 10 1 10 C1.375 8.0625 1.375 8.0625 2 6 C2.66 5.67 3.32 5.34 4 5 C3.01 4.319375 3.01 4.319375 2 3.625 C1.34 3.08875 0.68 2.5525 0 2 C0 1.34 0 0.68 0 0 Z " fill="#F6914B" transform="translate(1096,886)"/>
<path d="M0 0 C0.66 0.33 1.32 0.66 2 1 C2 2.32 2 3.64 2 5 C1.01 5.66 0.02 6.32 -1 7 C-1.33 6.34 -1.66 5.68 -2 5 C-3.65 7.97 -5.3 10.94 -7 14 C-7.99 13.34 -8.98 12.68 -10 12 C-7.11954533 7.34695784 -3.96084779 3.78080926 0 0 Z " fill="#250F05" transform="translate(786,393)"/>
<path d="M0 0 C1.32 0 2.64 0 4 0 C5.37890625 1.49609375 5.37890625 1.49609375 6.5625 3.4375 C8.47792105 6.60381888 8.47792105 6.60381888 12 8 C12.33 8.99 12.66 9.98 13 11 C13.99 11.66 14.98 12.32 16 13 C15.67 13.99 15.34 14.98 15 16 C12.49599357 13.5248518 9.99748094 11.04423106 7.5 8.5625 C6.78457031 7.85544922 6.06914063 7.14839844 5.33203125 6.41992188 C4.65527344 5.74638672 3.97851562 5.07285156 3.28125 4.37890625 C2.65283203 3.7557251 2.02441406 3.13254395 1.37695312 2.49047852 C0 1 0 1 0 0 Z " fill="#DB8C56" transform="translate(1193,496)"/>
<path d="M0 0 C-0.66 0 -1.32 0 -2 0 C-2 0.66 -2 1.32 -2 2 C-1.34 2.33 -0.68 2.66 0 3 C-5.6556294 4.34844868 -11.2190275 5.36934845 -17 6 C-12.47732053 2.06723525 -6.00793167 -2.13008487 0 0 Z " fill="#DF8C54" transform="translate(1068,538)"/>
<path d="M0 0 C7.15406617 -0.74521523 11.30223306 0.65292985 17 5 C12.92320841 6.6852084 10.16924407 5.16939007 6.25 3.5625 C5.07953125 3.08941406 3.9090625 2.61632812 2.703125 2.12890625 C1.81109375 1.75636719 0.9190625 1.38382813 0 1 C0 0.67 0 0.34 0 0 Z " fill="#2E1306" transform="translate(1105,891)"/>
<path d="M0 0 C2.0625 0.4375 2.0625 0.4375 4 1 C4 1.66 4 2.32 4 3 C3.34 3 2.68 3 2 3 C2.33 5.31 2.66 7.62 3 10 C3.66 10 4.32 10 5 10 C4.67 10.99 4.34 11.98 4 13 C0.49608504 10.10927016 -0.91307143 8.8692857 -1.375 4.25 C-1 1 -1 1 0 0 Z " fill="#ED8F50" transform="translate(1210,505)"/>
<path d="M0 0 C3.43198603 1.23932829 6.30325632 2.50301511 9 5 C9 5.99 9 6.98 9 8 C10.98 8.66 12.96 9.32 15 10 C15 10.66 15 11.32 15 12 C8.71338212 10.23188872 3.5546234 5.3319351 0 0 Z " fill="#2E1105" transform="translate(1089,878)"/>
<path d="M0 0 C0 0.33 0 0.66 0 1 C-1.57587891 1.18175781 -1.57587891 1.18175781 -3.18359375 1.3671875 C-10.56126606 2.24021206 -17.7800756 3.1950189 -25 5 C-19.00703322 -1.7932698 -8.26104982 -0.22982828 0 0 Z " fill="#DE8F59" transform="translate(824,380)"/>
<path d="M0 0 C0.66 0 1.32 0 2 0 C0.52934075 3.58522876 -1.40065542 5.44386096 -4.4375 7.8125 C-5.21996094 8.43769531 -6.00242187 9.06289063 -6.80859375 9.70703125 C-7.53175781 10.13371094 -8.25492188 10.56039062 -9 11 C-9.99 10.67 -10.98 10.34 -12 10 C-10 8 -8 6 -6 4 C-5.01 4 -4.02 4 -3 4 C-3 3.34 -3 2.68 -3 2 C-2.01 2 -1.02 2 0 2 C0 1.34 0 0.68 0 0 Z " fill="#290F04" transform="translate(1039,549)"/>
<path d="M0 0 C1.55846805 4.84358417 0.5103115 9.23975119 -1 14 C-3.125 16.625 -3.125 16.625 -5 18 C-5 14.14074345 -3.74453145 10.91491401 -2.5 7.3125 C-2.26152344 6.61060547 -2.02304688 5.90871094 -1.77734375 5.18554688 C-1.18894322 3.4556493 -0.59500425 1.72763733 0 0 Z " fill="#3E1909" transform="translate(1128,597)"/>
<path d="M0 0 C0.66 0.33 1.32 0.66 2 1 C1.01 1.33 0.02 1.66 -1 2 C-1.2475 2.61875 -1.495 3.2375 -1.75 3.875 C-3.71066822 7.20813597 -6.43730378 7.75305632 -10 9 C-11.98821313 9.39764263 -13.98732362 9.75455166 -16 10 C-12.83951223 7.89300816 -9.65053505 5.83787853 -6.4375 3.8125 C-5.84775391 3.43158203 -5.25800781 3.05066406 -4.65039062 2.65820312 C-3.13754574 1.70987829 -1.5715456 0.84750462 0 0 Z " fill="#DF8C57" transform="translate(1012,573)"/>
<path d="M0 0 C0.515625 0.680625 1.03125 1.36125 1.5625 2.0625 C4.50071413 5.60342473 7.70787019 8.79109819 11 12 C10.01 12.33 9.02 12.66 8 13 C4.25888501 10.56827525 1.91373555 8.02891695 0 4 C0 2.68 0 1.36 0 0 Z " fill="#E08C50" transform="translate(775,563)"/>
<path d="M0 0 C1.18346246 3.49659364 1.0391935 3.9140758 -0.625 7.5625 C-2.57352111 10.73736307 -4.59044661 12.38993312 -8 14 C-6.6744419 10.37723685 -5.05653045 7.36494652 -2.875 4.1875 C-2.33617187 3.39730469 -1.79734375 2.60710938 -1.2421875 1.79296875 C-0.83226562 1.20128906 -0.42234375 0.60960937 0 0 Z " fill="#2F1206" transform="translate(1094,650)"/>
<path d="M0 0 C0.99 0 1.98 0 3 0 C2.67 0.99 2.34 1.98 2 3 C1.34 3 0.68 3 0 3 C-0.0825 3.61875 -0.165 4.2375 -0.25 4.875 C-1 7 -1 7 -3.0625 8.25 C-3.701875 8.4975 -4.34125 8.745 -5 9 C-4.42636089 5.12793601 -2.65894107 2.81534937 0 0 Z " fill="#EB8F55" transform="translate(1276,874)"/>
<path d="M0 0 C7.48291572 6.15034169 7.48291572 6.15034169 10 10 C9.01 10 8.02 10 7 10 C7 9.34 7 8.68 7 8 C6.401875 7.9175 5.80375 7.835 5.1875 7.75 C2.34974589 6.77705573 1.50323933 5.55550687 0 3 C0 2.01 0 1.02 0 0 Z " fill="#210700" transform="translate(1224,528)"/>
<path d="M0 0 C0.66 0.33 1.32 0.66 2 1 C2.144375 1.78375 2.28875 2.5675 2.4375 3.375 C3.05384083 6.25125721 3.77728856 7.16384707 6 9 C5.67 9.66 5.34 10.32 5 11 C2.03 8.03 -0.94 5.06 -4 2 C-2.68 1.34 -1.36 0.68 0 0 Z " fill="#E38E56" transform="translate(1113,411)"/>
<path d="M0 0 C1.0625 1.875 1.0625 1.875 2 4 C1.67 4.66 1.34 5.32 1 6 C0.01 6 -0.98 6 -2 6 C-2.33 6.99 -2.66 7.98 -3 9 C-5.0625 9.6875 -5.0625 9.6875 -7 10 C-6.02223933 8.51990357 -5.0427506 7.04094856 -4.0625 5.5625 C-3.51722656 4.73878906 -2.97195313 3.91507813 -2.41015625 3.06640625 C-1 1 -1 1 0 0 Z " fill="#210E04" transform="translate(1102,640)"/>
<path d="M0 0 C1.32 0 2.64 0 4 0 C4 0.99 4 1.98 4 3 C4.99 3 5.98 3 7 3 C7.33 3.99 7.66 4.98 8 6 C8.99 6.66 9.98 7.32 11 8 C10.67 8.99 10.34 9.98 10 11 C8.33035479 9.35718838 6.6643536 7.71067239 5 6.0625 C4.071875 5.14597656 3.14375 4.22945312 2.1875 3.28515625 C0 1 0 1 0 0 Z " fill="#DA8C58" transform="translate(1241,544)"/>
<path d="M0 0 C5.85272256 0.45020943 10.08220119 3.03839227 15 6 C14.01 6.33 13.02 6.66 12 7 C10.32111559 6.02065076 8.65661761 5.01656081 7 4 C4.68308546 3.27833809 2.35151077 2.59940471 0 2 C0 1.34 0 0.68 0 0 Z " fill="#E18F57" transform="translate(1090,538)"/>
<path d="M0 0 C0.99 0 1.98 0 3 0 C1.63629701 2.99220268 0.05091917 5.29026529 -2.125 7.75 C-2.93324219 8.67039062 -2.93324219 8.67039062 -3.7578125 9.609375 C-4.16773438 10.06828125 -4.57765625 10.5271875 -5 11 C-5.33 9.68 -5.66 8.36 -6 7 C-5.195625 6.401875 -4.39125 5.80375 -3.5625 5.1875 C-0.77672016 3.19052724 -0.77672016 3.19052724 0 0 Z " fill="#E59054" transform="translate(1106,631)"/>
<path d="M0 0 C2.8290723 2.8290723 3.37611108 3.38144425 4 7 C3.01 7 2.02 7 1 7 C0.67 7.99 0.34 8.98 0 10 C-0.66 10 -1.32 10 -2 10 C-1.34 6.7 -0.68 3.4 0 0 Z " fill="#220D04" transform="translate(1276,582)"/>
<path d="M0 0 C1.12894876 0.93274109 2.25300876 1.87140122 3.375 2.8125 C4.00148438 3.33457031 4.62796875 3.85664062 5.2734375 4.39453125 C7 6 7 6 9 9 C6.1875 8.875 6.1875 8.875 3 8 C1.26090967 5.27542515 0 3.27517534 0 0 Z " fill="#210600" transform="translate(1255,559)"/>
<path d="M0 0 C6.11090483 -0.09945415 11.97403427 -0.0712828 18 1 C15.64031256 3.09749995 14.45383006 3.96905704 11.25 4.1875 C10.13625 4.0946875 10.13625 4.0946875 9 4 C8.67 3.34 8.34 2.68 8 2 C6.10466658 1.53476937 6.10466658 1.53476937 3.9375 1.375 C2.638125 1.25125 1.33875 1.1275 0 1 C0 0.67 0 0.34 0 0 Z " fill="#D27B44" transform="translate(1072,536)"/>
<path d="M0 0 C3.45101522 4.24740335 6.73279209 8.61105071 10 13 C8.68 13 7.36 13 6 13 C5.0234375 11.2421875 4.046875 9.484375 3.0703125 7.7265625 C1.99102726 5.8387386 1.99102726 5.8387386 0 4 C0 2.68 0 1.36 0 0 Z " fill="#D68C58" transform="translate(1084,871)"/>
<path d="M0 0 C0.66 0.66 1.32 1.32 2 2 C-4.24273068 4.4793824 -9.28299653 5.31985731 -16 5 C-16 4.67 -16 4.34 -16 4 C-13.02148438 3.70703125 -13.02148438 3.70703125 -10.04296875 3.4140625 C-7.70011858 3.07334609 -7.70011858 3.07334609 -5 1 C-2.4375 0.25 -2.4375 0.25 0 0 Z " fill="#260801" transform="translate(992,582)"/>
<path d="M0 0 C4.21878192 -0.19622241 7.17010894 0.19769832 11 2 C10.67 2.66 10.34 3.32 10 4 C9.34 4 8.68 4 8 4 C7.67 4.66 7.34 5.32 7 6 C5.83054208 5.19152271 4.66449539 4.37810888 3.5 3.5625 C2.8503125 3.11003906 2.200625 2.65757812 1.53125 2.19140625 C1.0259375 1.79824219 0.520625 1.40507813 0 1 C0 0.67 0 0.34 0 0 Z " fill="#20110A" transform="translate(1104,543)"/>
<path d="M0 0 C-1.95585325 1.00484204 -3.91476237 2.00373805 -5.875 3 C-6.96554687 3.556875 -8.05609375 4.11375 -9.1796875 4.6875 C-12 6 -12 6 -14 6 C-13.67 5.01 -13.34 4.02 -13 3 C-12.34 3 -11.68 3 -11 3 C-11 2.34 -11 1.68 -11 1 C-4.03571429 -1.27678571 -4.03571429 -1.27678571 0 0 Z " fill="#300F03" transform="translate(1062,539)"/>
<path d="M0 0 C1.14926266 0.95421808 2.29430541 1.91352045 3.4375 2.875 C4.07558594 3.40867187 4.71367188 3.94234375 5.37109375 4.4921875 C7 6 7 6 8 8 C5.125 7.8125 5.125 7.8125 2 7 C0.60333803 4.52409924 0 2.83735815 0 0 Z " fill="#200700" transform="translate(1192,496)"/>
<path d="M0 0 C2.475 0.495 2.475 0.495 5 1 C5 1.99 5 2.98 5 4 C6.32 4.33 7.64 4.66 9 5 C8.67 6.32 8.34 7.64 8 9 C6.66368764 7.6905332 5.33102075 6.37734515 4 5.0625 C3.2575 4.33160156 2.515 3.60070312 1.75 2.84765625 C0 1 0 1 0 0 Z " fill="#E28D52" transform="translate(1184,487)"/>
<path d="M0 0 C1.65 0 3.3 0 5 0 C5 0.99 5 1.98 5 3 C6.423125 3.4021875 6.423125 3.4021875 7.875 3.8125 C11 5 11 5 13 8 C7.73691968 6.58795406 4.2437012 4.31008693 0 1 C0 0.67 0 0.34 0 0 Z " fill="#2A0E03" transform="translate(786,575)"/>
<path d="M0 0 C1.14926266 0.95421808 2.29430541 1.91352045 3.4375 2.875 C4.07558594 3.40867187 4.71367188 3.94234375 5.37109375 4.4921875 C7 6 7 6 8 8 C4.89347355 7.6641593 3.39585697 7.40950721 1.1875 5.125 C0 3 0 3 0 0 Z " fill="#200700" transform="translate(1240,544)"/>
<path d="M0 0 C2.31 0 4.62 0 7 0 C6.01 0.495 6.01 0.495 5 1 C5.75150023 4.27773504 5.75150023 4.27773504 9 6 C8.67 6.99 8.34 7.98 8 9 C6.66368764 7.6905332 5.33102075 6.37734515 4 5.0625 C3.2575 4.33160156 2.515 3.60070312 1.75 2.84765625 C0 1 0 1 0 0 Z " fill="#E08B51" transform="translate(1232,535)"/>
<path d="M0 0 C0 2.64 0 5.28 0 8 C-0.99 8.33 -1.98 8.66 -3 9 C-3 6.36 -3 3.72 -3 1 C-1 0 -1 0 0 0 Z " fill="#01080E" transform="translate(1086,671)"/>
<path d="M0 0 C2.9375 0.8125 2.9375 0.8125 6 2 C6.33 2.99 6.66 3.98 7 5 C7.99 5.66 8.98 6.32 10 7 C9.67 7.99 9.34 8.98 9 10 C7.49702124 8.52386015 5.99768715 7.04400843 4.5 5.5625 C3.6646875 4.73878906 2.829375 3.91507813 1.96875 3.06640625 C0 1 0 1 0 0 Z " fill="#DE8C56" transform="translate(1263,566)"/>
<path d="M0 0 C0.33 0 0.66 0 1 0 C1.38863565 2.12254855 1.76053209 4.24816828 2.125 6.375 C2.33382812 7.55835938 2.54265625 8.74171875 2.7578125 9.9609375 C2.83773437 10.96382812 2.91765625 11.96671875 3 13 C2.34 13.66 1.68 14.32 1 15 C-0.44207941 12.11584117 -0.09394887 9.58278472 -0.0625 6.375 C-0.05347656 5.18648437 -0.04445313 3.99796875 -0.03515625 2.7734375 C-0.02355469 1.85820313 -0.01195312 0.94296875 0 0 Z " fill="#E58B56" transform="translate(767,538)"/>
<path d="M0 0 C1.14926266 0.95421808 2.29430541 1.91352045 3.4375 2.875 C4.07558594 3.40867187 4.71367188 3.94234375 5.37109375 4.4921875 C7 6 7 6 8 8 C4.89347355 7.6641593 3.39585697 7.40950721 1.1875 5.125 C0 3 0 3 0 0 Z " fill="#230800" transform="translate(1208,512)"/>
<path d="M0 0 C1.14926266 0.95421808 2.29430541 1.91352045 3.4375 2.875 C4.07558594 3.40867187 4.71367188 3.94234375 5.37109375 4.4921875 C7 6 7 6 8 8 C4.89347355 7.6641593 3.39585697 7.40950721 1.1875 5.125 C0 3 0 3 0 0 Z " fill="#240800" transform="translate(1128,432)"/>
<path d="M0 0 C1.6875 0.8125 1.6875 0.8125 2.6875 2.8125 C-4.74107143 4.09821429 -4.74107143 4.09821429 -8.3125 2.8125 C-2.94258515 -0.23858798 -2.94258515 -0.23858798 0 0 Z " fill="#D78345" transform="translate(1260.3125,890.1875)"/>
<path d="M0 0 C0.33 0.66 0.66 1.32 1 2 C0.34 2 -0.32 2 -1 2 C-1 2.66 -1 3.32 -1 4 C-2.8125 6.125 -2.8125 6.125 -5 8 C-5.99 8 -6.98 8 -8 8 C-6.49776416 3.79373966 -3.71449966 2.26099979 0 0 Z " fill="#E19056" transform="translate(1050,544)"/>
<path d="M0 0 C1.65 0 3.3 0 5 0 C6.0625 1.8125 6.0625 1.8125 7 4 C6.67 4.99 6.34 5.98 6 7 C4.02 4.69 2.04 2.38 0 0 Z " fill="#E08F58" transform="translate(1177,480)"/>
<path d="M0 0 C1.14926266 0.95421808 2.29430541 1.91352045 3.4375 2.875 C4.07558594 3.40867187 4.71367188 3.94234375 5.37109375 4.4921875 C7 6 7 6 8 8 C6.35 7.67 4.7 7.34 3 7 C3 6.34 3 5.68 3 5 C2.01 4.67 1.02 4.34 0 4 C0 2.68 0 1.36 0 0 Z " fill="#260800" transform="translate(1160,464)"/>
<path d="M0 0 C1.65 0 3.3 0 5 0 C6.0625 1.8125 6.0625 1.8125 7 4 C6.67 4.99 6.34 5.98 6 7 C4.02 4.69 2.04 2.38 0 0 Z " fill="#E58D59" transform="translate(1145,448)"/>
<path d="M0 0 C0.99 0.33 1.98 0.66 3 1 C3 2.65 3 4.3 3 6 C1.35 5.67 -0.3 5.34 -2 5 C-2.33 4.01 -2.66 3.02 -3 2 C-2.01 2 -1.02 2 0 2 C0 1.34 0 0.68 0 0 Z " fill="#F18F4C" transform="translate(1145,442)"/>
<path d="M0 0 C2 4 2 4 2 7 C1.34 7 0.68 7 0 7 C0 7.66 0 8.32 0 9 C-0.99 9 -1.98 9 -3 9 C-2.01 6.03 -1.02 3.06 0 0 Z " fill="#D48246" transform="translate(1281,862)"/>
<path d="M0 0 C0 0.66 0 1.32 0 2 C-2.70879335 3.35439668 -5.00933268 3.06501451 -8 3 C-7.67 2.01 -7.34 1.02 -7 0 C-2.25 -1.125 -2.25 -1.125 0 0 Z " fill="#000611" transform="translate(1063,534)"/>
<path d="M0 0 C3.63 1.98 7.26 3.96 11 6 C8 7 8 7 6.2109375 6.328125 C5.60507813 5.97234375 4.99921875 5.6165625 4.375 5.25 C3.45847656 4.73179687 3.45847656 4.73179687 2.5234375 4.203125 C1 3 1 3 0 0 Z " fill="#D78E5C" transform="translate(1096,886)"/>
<path d="M0 0 C2.31 1.98 4.62 3.96 7 6 C6.01 6.66 5.02 7.32 4 8 C3.67 7.01 3.34 6.02 3 5 C2.01 4.67 1.02 4.34 0 4 C0 2.68 0 1.36 0 0 Z " fill="#240800" transform="translate(1176,480)"/>
<path d="M0 0 C0.33 0 0.66 0 1 0 C1 2.97 1 5.94 1 9 C0.01 9.33 -0.98 9.66 -2 10 C-1.125 2.25 -1.125 2.25 0 0 Z " fill="#331407" transform="translate(771,414)"/>
<path d="M0 0 C1.98 0.99 1.98 0.99 4 2 C4 2.66 4 3.32 4 4 C4.99 4.33 5.98 4.66 7 5 C6.67 5.99 6.34 6.98 6 8 C4.99403703 7.0479279 3.99538437 6.08812654 3 5.125 C2.443125 4.59132813 1.88625 4.05765625 1.3125 3.5078125 C0 2 0 2 0 0 Z " fill="#E38D55" transform="translate(1089,391)"/>
<path d="M0 0 C-4.455 2.97 -4.455 2.97 -9 6 C-9 3 -9 3 -8 1 C-2.47058824 -1.23529412 -2.47058824 -1.23529412 0 0 Z " fill="#E18B50" transform="translate(796,387)"/>
<path d="M0 0 C1.32 0.33 2.64 0.66 4 1 C0.535 3.97 0.535 3.97 -3 7 C-3 3 -3 3 -1.75 1.1875 C-1.1725 0.795625 -0.595 0.40375 0 0 Z " fill="#2E0E02" transform="translate(1267,880)"/>
<path d="M0 0 C1.65 0.33 3.3 0.66 5 1 C5 1.66 5 2.32 5 3 C2.69 3.33 0.38 3.66 -2 4 C-1.34 2.68 -0.68 1.36 0 0 Z " fill="#1B0E08" transform="translate(1107,634)"/>
<path d="M0 0 C4.75286041 4.29290618 4.75286041 4.29290618 5 8 C4.34 8.66 3.68 9.32 3 10 C0 3.375 0 3.375 0 0 Z " fill="#EC9154" transform="translate(1279,584)"/>
<path d="M0 0 C2.31 0 4.62 0 7 0 C7.33 0.99 7.66 1.98 8 3 C5.36 2.67 2.72 2.34 0 2 C0 1.34 0 0.68 0 0 Z " fill="#00060F" transform="translate(809,582)"/>
<path d="M0 0 C2.89932357 2.39509338 3.50168276 4.31245243 4 8 C2.68 7.67 1.36 7.34 0 7 C0 4.69 0 2.38 0 0 Z " fill="#DB864F" transform="translate(1121,560)"/>
<path d="M0 0 C-2.96687001 1.64826111 -5.65626525 2.44271087 -9 3 C-9 2.34 -9 1.68 -9 1 C-5.57367167 -0.61798838 -3.61944899 -1.34053666 0 0 Z " fill="#010910" transform="translate(1257,889)"/>
<path d="M0 0 C4.95 1.98 4.95 1.98 10 4 C10 4.33 10 4.66 10 5 C6.63295715 5.2295711 4.58629732 5.33943529 1.625 3.625 C1.08875 3.08875 0.5525 2.5525 0 2 C0 1.34 0 0.68 0 0 Z " fill="#D58457" transform="translate(792,580)"/>
<path d="M0 0 C2.91517292 1.07401108 4.77810176 1.77810176 7 4 C6.67 4.99 6.34 5.98 6 7 C5.34 6.67 4.68 6.34 4 6 C4 5.01 4 4.02 4 3 C2.68 2.67 1.36 2.34 0 2 C0 1.34 0 0.68 0 0 Z " fill="#E58F54" transform="translate(1105,545)"/>
<path d="M0 0 C1.32 0 2.64 0 4 0 C4 0.99 4 1.98 4 3 C4.99 3.33 5.98 3.66 7 4 C6.67 4.99 6.34 5.98 6 7 C4.02 4.69 2.04 2.38 0 0 Z " fill="#D88D5B" transform="translate(1225,528)"/>
<path d="M0 0 C0 0.99 0 1.98 0 3 C-1.32 3.33 -2.64 3.66 -4 4 C-4.66 2.68 -5.32 1.36 -6 0 C-2.25 -1.125 -2.25 -1.125 0 0 Z " fill="#F9934E" transform="translate(996,586)"/>
<path d="M0 0 C1.32 0 2.64 0 4 0 C4 0.66 4 1.32 4 2 C4.66 2 5.32 2 6 2 C5.67 3.32 5.34 4.64 5 6 C3.35 4.02 1.7 2.04 0 0 Z " fill="#DA8D59" transform="translate(1257,560)"/>
<path d="M0 0 C0.66 0 1.32 0 2 0 C2 0.99 2 1.98 2 3 C2.99 3 3.98 3 5 3 C5 3.99 5 4.98 5 6 C2.50638429 4.79618552 0.31856917 3.54571278 -2 2 C-1.34 2 -0.68 2 0 2 C0 1.34 0 0.68 0 0 Z " fill="#F69451" transform="translate(1051,544)"/>
<path d="M0 0 C-0.66 0 -1.32 0 -2 0 C-2 0.66 -2 1.32 -2 2 C-1.34 2.33 -0.68 2.66 0 3 C-1.65 3 -3.3 3 -5 3 C-5.33 2.01 -5.66 1.02 -6 0 C-3.50907189 -1.24546405 -2.58919267 -0.7767578 0 0 Z " fill="#D07C43" transform="translate(1068,538)"/>
<path d="M0 0 C2.31 1.98 4.62 3.96 7 6 C6.01 6.66 5.02 7.32 4 8 C0 2.25 0 2.25 0 0 Z " fill="#2A0A00" transform="translate(1144,448)"/>
<path d="M0 0 C1.98 1.65 3.96 3.3 6 5 C3.50907189 6.24546405 2.58919267 5.7767578 0 5 C0 3.35 0 1.7 0 0 Z " fill="#210801" transform="translate(1138,442)"/>
<path d="M0 0 C3.91402949 1.26941497 5.79072873 2.51167694 8 6 C7.67 6.66 7.34 7.32 7 8 C5.83035398 6.8572081 4.66435444 5.71068285 3.5 4.5625 C2.8503125 3.92441406 2.200625 3.28632813 1.53125 2.62890625 C0 1 0 1 0 0 Z " fill="#D98C5D" transform="translate(1096,399)"/>
</svg>
