<?xml version="1.0" encoding="UTF-8"?>
<svg version="1.1" xmlns="http://www.w3.org/2000/svg" width="2048" height="1270">
<path d="M0 0 C675.84 0 1351.68 0 2048 0 C2048 419.1 2048 838.2 2048 1270 C1372.16 1270 696.32 1270 0 1270 C0 850.9 0 431.8 0 0 Z " fill="#E1D8C9" transform="translate(0,0)"/>
<path d="M0 0 C2.41104955 -0.0057098 4.8220964 -0.01267641 7.23313904 -0.02079773 C13.07649614 -0.03682461 18.91972955 -0.03884348 24.76310395 -0.03358483 C29.51763398 -0.02952597 34.27213237 -0.03100692 39.02666092 -0.03633308 C39.70608293 -0.03708151 40.38550495 -0.03782993 41.08551551 -0.03860103 C42.4662286 -0.04013267 43.84694169 -0.04167102 45.22765477 -0.043216 C58.14483445 -0.05691041 71.06195339 -0.05152496 83.97913165 -0.04003078 C95.76640964 -0.03010176 107.55353058 -0.04303876 119.34078436 -0.06696498 C131.47874783 -0.09141521 143.61663834 -0.10094934 155.75462592 -0.09431225 C162.55525826 -0.09083313 169.35576995 -0.09296506 176.15638351 -0.11056328 C182.55383276 -0.1260911 188.95098339 -0.12201195 195.3484211 -0.10325813 C197.68678927 -0.09958841 200.02517987 -0.10263313 202.3635273 -0.11314392 C231.1399021 -0.23254803 247.01556399 7.21966686 267.34707034 27.36853838 C269.75131757 29.76222667 272.15074052 32.16068813 274.55004883 34.55932617 C276.29197694 36.29362157 278.03430255 38.02751779 279.7769928 39.76104736 C284.48415527 44.4463749 289.18484593 49.13814913 293.88363814 53.83186626 C296.82420311 56.76915718 299.76639397 59.70481577 302.70891762 62.64014435 C310.87666054 70.78834932 319.04284288 78.93810896 327.202281 87.0946312 C327.72261698 87.6147796 328.24295295 88.13492801 328.77905669 88.67083849 C329.8335767 89.72499229 330.88809546 90.77914735 331.94261297 91.83330366 C332.46597696 92.35648484 332.98934095 92.87966602 333.52856445 93.41870117 C334.05257488 93.94253105 334.57658531 94.46636093 335.11647484 95.00606444 C343.61079464 103.49684119 352.11680123 111.9758045 360.62800976 120.44964859 C369.39319572 129.17666589 378.14890499 137.91309713 386.89517862 146.6590693 C391.79540313 151.55871146 396.69943528 156.45439447 401.61388206 161.33977509 C406.23593274 165.9346108 410.84483143 170.54237817 415.4452877 175.15883636 C417.12913858 176.84449581 418.81721785 178.52594436 420.50995255 180.2026825 C434.42041546 193.98973288 446.29280914 206.79882087 446.49893332 227.48983037 C446.49094143 228.92842772 446.49094143 228.92842772 446.48278809 230.39608765 C446.48887919 231.44578692 446.49497029 232.4954862 446.50124598 233.57699454 C446.51778072 237.0642191 446.51311374 240.55107469 446.50830078 244.03833008 C446.51564658 246.5508512 446.52423429 249.06336895 446.53396606 251.57588196 C446.553837 257.67418201 446.55956577 263.77234824 446.55777818 269.87067626 C446.55646648 274.83122165 446.56029543 279.79173753 446.56770325 284.75227737 C446.56980261 286.18544535 446.57190021 287.61861332 446.57399607 289.0517813 C446.57556136 290.1220289 446.57556136 290.1220289 446.57715827 291.21389766 C446.59602659 304.68324489 446.59502077 318.15253756 446.58818895 331.62189253 C446.58261445 343.92152964 446.60344092 356.2209584 446.63654941 368.52054684 C446.67034917 381.17598463 446.68544705 393.83132278 446.68083239 406.48680651 C446.67859423 413.58142403 446.68373472 420.67584895 446.70872498 427.7704277 C446.73203278 434.44367844 446.72907944 441.11642588 446.70879745 447.78970909 C446.70539489 450.23212332 446.71044376 452.67456694 446.72478104 455.11694145 C446.83129967 474.61496735 444.45500717 488.42521676 430.71337891 503.21655273 C424.34857858 509.25531652 416.22541037 512.44160408 408.08837891 515.40405273 C407.28090714 515.74651031 406.47343536 516.0889679 405.64149475 516.44180298 C400.66497798 517.78953614 395.91576111 517.69896447 390.78149414 517.69458008 C389.08512062 517.70465591 389.08512062 517.70465591 387.35447693 517.7149353 C383.61859733 517.73391907 379.88289748 517.73784027 376.14697266 517.73999023 C373.54110135 517.74641976 370.93523076 517.75314824 368.32936096 517.76016235 C362.86450029 517.77293995 357.39968804 517.77592894 351.93481445 517.7746582 C345.64776775 517.77346006 339.36106615 517.79450062 333.07410663 517.82614553 C326.99791547 517.85562363 320.92188761 517.86262945 314.84562874 517.86143875 C312.27460386 517.86378836 309.70357603 517.8725755 307.13259697 517.88810349 C287.24646186 517.99692713 269.95476717 517.04741499 254.71337891 502.52905273 C242.42203354 489.16889473 239.31791215 474.68251262 239.45727539 457.1184082 C239.45212249 455.44272101 239.44483098 453.76703927 239.43559265 452.09136963 C239.41724746 447.58718782 239.42990797 443.08360614 239.44968295 438.57945013 C239.46620629 433.83967368 239.45723795 429.09993119 239.4521637 424.36013794 C239.44765879 416.40674376 239.46341486 408.453586 239.49145508 400.50024414 C239.52352172 391.33477732 239.52347737 382.16973608 239.50624031 373.00423896 C239.49032148 364.14566701 239.49714171 355.28724952 239.51417732 346.42868423 C239.52100911 342.67700152 239.52005558 338.92544406 239.51263237 335.17376328 C239.50491393 330.74935558 239.51727492 326.32542651 239.54448128 321.90110016 C239.55130752 320.28755487 239.55152581 318.67396438 239.54426575 317.06042099 C239.44574578 292.29184855 251.11789432 275.97622294 266.08837891 257.40405273 C278.17520797 242.89545307 278.17520797 242.89545307 287.08837891 226.40405273 C287.40291016 225.70280273 287.71744141 225.00155273 288.04150391 224.27905273 C292.58833682 212.37461748 291.57692931 197.0977887 286.68212891 185.51342773 C279.39477052 171.29593442 267.48330429 162.33333735 252.46337891 157.15405273 C240.10110919 154.50843081 226.08469316 156.19750681 214.86572266 162.09936523 C211.82469634 164.07863664 208.95637133 166.18193528 206.08837891 168.40405273 C205.06486328 169.16975586 204.04134766 169.93545898 202.98681641 170.72436523 C198.38964099 174.18632266 193.87855409 177.74849078 189.42431641 181.39233398 C169.99587334 197.25208148 152.06417682 208.06607271 126.30517578 207.92163086 C124.65934127 207.92706419 123.01351164 207.93419359 121.36769104 207.94287109 C116.93578768 207.96096358 112.50426062 207.95409573 108.07235146 207.94135475 C103.41130258 207.93115349 98.75028368 207.94064005 94.0892334 207.94689941 C86.2651599 207.95415522 78.44123794 207.94464261 70.6171875 207.92553711 C61.60059636 207.90377236 52.58436716 207.9108252 43.56778479 207.93284273 C35.79495338 207.95105587 28.02223027 207.95352627 20.2493844 207.94308805 C15.62074009 207.9368855 10.9922653 207.93592748 6.3636322 207.94923401 C2.00985398 207.96087847 -2.34346237 207.95261179 -6.69719124 207.92965698 C-8.28494059 207.9244154 -9.87272953 207.92580454 -11.46046257 207.93470764 C-27.90116855 208.01832401 -42.70106257 204.18479022 -55.16162109 192.84155273 C-70.74533559 175.98901806 -70.37002528 156.56670711 -70.31005859 134.92749023 C-70.31208268 132.3492525 -70.3149969 129.77101533 -70.3187561 127.19277954 C-70.32316207 121.80839001 -70.31709461 116.42416324 -70.30273438 111.03979492 C-70.28639652 104.84292333 -70.29171575 98.64634777 -70.30821359 92.44948328 C-70.32354105 86.44854661 -70.32182661 80.44775308 -70.31306839 74.44679642 C-70.31107612 71.91041649 -70.31349121 69.37402893 -70.32050705 66.83765793 C-70.32817602 63.28716105 -70.3164414 59.73722312 -70.29980469 56.18676758 C-70.30587738 55.15270279 -70.31195007 54.118638 -70.31820679 53.05323792 C-70.19829062 39.15017186 -65.47110576 26.58329617 -55.96630859 16.31811523 C-39.10526371 0.61105822 -21.83983429 -0.04679552 0 0 Z " fill="#050505" transform="translate(837.91162109375,377.595947265625)"/>
<path d="M0 0 C0.33 0.99 0.66 1.98 1 3 C1.66 3.33 2.32 3.66 3 4 C2.030625 4.2475 1.06125 4.495 0.0625 4.75 C-3.09849571 5.64773922 -3.09849571 5.64773922 -4 8 C-4 8.66 -4 9.32 -4 10 C-3.34 10.66 -2.68 11.32 -2 12 C-6.0284349 12.18311068 -8.48375245 11.94158017 -12 10 C-10.75160501 8.894019 -9.50120766 7.79029799 -8.25 6.6875 C-7.55390625 6.07261719 -6.8578125 5.45773437 -6.140625 4.82421875 C-4.14885494 3.12685266 -2.11101085 1.54522191 0 0 Z " fill="#D5CEC3" transform="translate(1041,547)"/>
<path d="M0 0 C3.68069887 1.53643852 5.98775204 3.78150945 8.75 6.625 C9.54921875 7.44226563 10.3484375 8.25953125 11.171875 9.1015625 C12.07679687 10.04128906 12.07679687 10.04128906 13 11 C11.68 11.33 10.36 11.66 9 12 C9 11.34 9 10.68 9 10 C8.34 10 7.68 10 7 10 C5.64499081 8.68870078 4.31328657 7.35308313 3 6 C2.01 5.34 1.02 4.68 0 4 C-0.99 4.495 -0.99 4.495 -2 5 C-1.34 3.35 -0.68 1.7 0 0 Z " fill="#13130F" transform="translate(1171,473)"/>
<path d="M0 0 C4.88049925 3.9419417 9.0580583 8.11950075 13 13 C11.68 13 10.36 13 9 13 C9 12.34 9 11.68 9 11 C8.34 11 7.68 11 7 11 C5.64567325 9.68799596 4.31266518 8.35368596 3 7 C2.34 6.67 1.68 6.34 1 6 C0.375 2.9375 0.375 2.9375 0 0 Z " fill="#171612" transform="translate(1123,424)"/>
<path d="M0 0 C0.66 0.33 1.32 0.66 2 1 C1.09298316 4.13333089 0.58407896 5.64306286 -2.25 7.375 C-5.47931238 8.10893463 -7.79706519 7.74486856 -11 7 C-8.93787834 4.93787834 -7.02964284 3.7456905 -4.5 2.3125 C-3.7059375 1.85488281 -2.911875 1.39726563 -2.09375 0.92578125 C-1.4028125 0.62027344 -0.711875 0.31476562 0 0 Z " fill="#CDC6BD" transform="translate(1005,574)"/>
<path d="M0 0 C0.703125 1.74609375 0.703125 1.74609375 1 4 C-0.328125 6.03515625 -0.328125 6.03515625 -2.25 8.0625 C-2.87390625 8.73410156 -3.4978125 9.40570312 -4.140625 10.09765625 C-5.7492697 11.74347551 -7.36512126 13.38025902 -9 15 C-8.75 11.625 -8.75 11.625 -8 8 C-6.1875 6.9375 -6.1875 6.9375 -4 6 C-1.75592746 2.96798075 -1.75592746 2.96798075 0 0 Z " fill="#D3CDC2" transform="translate(1109,625)"/>
<path d="M0 0 C0.99 0.33 1.98 0.66 3 1 C2.34 1 1.68 1 1 1 C1.33 1.99 1.66 2.98 2 4 C-0.83430453 7.2542015 -2.68607774 8.5206753 -7 9 C-6.02180976 7.68677212 -5.0424189 6.37443848 -4.0625 5.0625 C-3.51722656 4.33160156 -2.97195313 3.60070312 -2.41015625 2.84765625 C-1 1 -1 1 0 0 Z " fill="#14120F" transform="translate(1109,629)"/>
<path d="M0 0 C3.07684111 2.02192416 4.92027706 4.54049291 7.1875 7.4375 C3.1541466 7.4375 1.35232462 5.82870082 -1.8125 3.4375 C-1.8125 2.7775 -1.8125 2.1175 -1.8125 1.4375 C-2.4725 1.1075 -3.1325 0.7775 -3.8125 0.4375 C-1.8125 -0.5625 -1.8125 -0.5625 0 0 Z " fill="#13120D" transform="translate(1252.8125,553.5625)"/>
<path d="M0 0 C0.99 0 1.98 0 3 0 C3 1.98 3 3.96 3 6 C2.34 6 1.68 6 1 6 C0.67 6.99 0.34 7.98 0 9 C-0.99 8.67 -1.98 8.34 -3 8 C-1.125 2.25 -1.125 2.25 0 0 Z " fill="#151410" transform="translate(1084,663)"/>
<path d="M0 0 C0.66 0.33 1.32 0.66 2 1 C2 2.32 2 3.64 2 5 C2.99 5.33 3.98 5.66 5 6 C5 6.99 5 7.98 5 9 C5.66 9.33 6.32 9.66 7 10 C4 10 4 10 2.17578125 8.5390625 C1.56089844 7.90742188 0.94601562 7.27578125 0.3125 6.625 C-0.31011719 5.99851562 -0.93273438 5.37203125 -1.57421875 4.7265625 C-3 3 -3 3 -3 1 C-2.01 0.67 -1.02 0.34 0 0 Z " fill="#D7D2C5" transform="translate(1164,459)"/>
<path d="M0 0 C3.36591866 1.44253657 5.51047079 3.33264727 8 6 C4.25 7.125 4.25 7.125 2 6 C0.96854629 4.69084721 -0.03542166 3.35917857 -1 2 C-0.67 1.34 -0.34 0.68 0 0 Z " fill="#120C0A" transform="translate(1081,385)"/>
<path d="M0 0 C0.66 0.66 1.32 1.32 2 2 C-0.94802633 5.71232945 -3.95715225 9.36548742 -7 13 C-7 9.16235973 -5.73464665 7.88513915 -3.5 4.8125 C-2.8503125 3.91144531 -2.200625 3.01039063 -1.53125 2.08203125 C-1.0259375 1.39496094 -0.520625 0.70789063 0 0 Z " fill="#1E1A17" transform="translate(1094,648)"/>
<path d="M0 0 C1 2 1 2 0.22265625 4.3828125 C-0.16019531 5.28773438 -0.54304688 6.19265625 -0.9375 7.125 C-1.31777344 8.03507813 -1.69804688 8.94515625 -2.08984375 9.8828125 C-2.54037109 10.93082031 -2.54037109 10.93082031 -3 12 C-4.32 11.01 -5.64 10.02 -7 9 C-4.69 6.03 -2.38 3.06 0 0 Z " fill="#1C1A17" transform="translate(1117,618)"/>
<path d="M0 0 C3.7952131 1.49097658 5.61042731 3.75700849 8 7 C4.82629722 7 3.6205332 6.69066658 1 5 C-0.25 2.875 -0.25 2.875 -1 1 C-0.67 0.67 -0.34 0.34 0 0 Z " fill="#15130F" transform="translate(1187,489)"/>
<path d="M0 0 C0.66 0.66 1.32 1.32 2 2 C1.67751743 3.33599921 1.34227417 4.66893378 1 6 C1.38567131 8.68149993 1.38567131 8.68149993 2 11 C1.34 10.67 0.68 10.34 0 10 C0.33 9.34 0.66 8.68 1 8 C-0.32 7.67 -1.64 7.34 -3 7 C-1.125 2.25 -1.125 2.25 0 0 Z " fill="#D4CDC1" transform="translate(1277,868)"/>
<path d="M0 0 C0 0.66 0 1.32 0 2 C-0.99 2.495 -0.99 2.495 -2 3 C-1.67 3.66 -1.34 4.32 -1 5 C-3.64 4.67 -6.28 4.34 -9 4 C-3.7826087 0 -3.7826087 0 0 0 Z M-1 3 C1 4 1 4 1 4 Z " fill="#C8C1B7" transform="translate(1259,888)"/>
<path d="M0 0 C0 0.99 0 1.98 0 3 C-1.65 3.66 -3.3 4.32 -5 5 C-5.33 3.35 -5.66 1.7 -6 0 C-3.50907189 -1.24546405 -2.58919267 -0.7767578 0 0 Z " fill="#0C0B0A" transform="translate(1009,570)"/>
<path d="M0 0 C2.3125 -0.3125 2.3125 -0.3125 5 0 C6.875 2.3125 6.875 2.3125 8 5 C7.67 5.99 7.34 6.98 7 8 C5.83035398 6.8572081 4.66435444 5.71068285 3.5 4.5625 C2.8503125 3.92441406 2.200625 3.28632812 1.53125 2.62890625 C0 1 0 1 0 0 Z " fill="#D4CFC4" transform="translate(1218,518)"/>
<path d="M0 0 C0.33 0.99 0.66 1.98 1 3 C2.32 2.67 3.64 2.34 5 2 C5.33 2.99 5.66 3.98 6 5 C5.01 6.485 5.01 6.485 4 8 C2.35 6.35 0.7 4.7 -1 3 C-0.67 2.01 -0.34 1.02 0 0 Z " fill="#D8D2C5" transform="translate(1208,505)"/>
<path d="M0 0 C2.4375 0.6875 2.4375 0.6875 5 2 C5.8125 4.625 5.8125 4.625 6 7 C3.69 5.35 1.38 3.7 -1 2 C-0.67 1.34 -0.34 0.68 0 0 Z M6 0 C6.33 0.66 6.66 1.32 7 2 C6.34 1.67 5.68 1.34 5 1 C5.33 0.67 5.66 0.34 6 0 Z " fill="#C6BFB3" transform="translate(1085,385)"/>
<path d="M0 0 C0.625 1.8125 0.625 1.8125 1 4 C0.01 5.485 0.01 5.485 -1 7 C-2.37562854 5.71034824 -3.70766393 4.37310707 -5 3 C-5 2.34 -5 1.68 -5 1 C-2.525 1.495 -2.525 1.495 0 2 C0 1.34 0 0.68 0 0 Z " fill="#D8D1C3" transform="translate(1261,554)"/>
<path d="M0 0 C1.65 1.65 3.3 3.3 5 5 C3.68 5.33 2.36 5.66 1 6 C0.34 4.35 -0.32 2.7 -1 1 C-0.67 0.67 -0.34 0.34 0 0 Z M-2 2 C-2 5 -2 5 -2 5 Z " fill="#141410" transform="translate(1100,401)"/>
<path d="M0 0 C0.33 0.66 0.66 1.32 1 2 C1.66 2 2.32 2 3 2 C2.67 3.65 2.34 5.3 2 7 C1.01 7.33 0.02 7.66 -1 8 C-0.67 5.36 -0.34 2.72 0 0 Z " fill="#1A1613" transform="translate(1080,672)"/>
<path d="M0 0 C0.33 0.66 0.66 1.32 1 2 C2.65 2 4.3 2 6 2 C6 3.98 6 5.96 6 8 C3.69 6.02 1.38 4.04 -1 2 C-0.67 1.34 -0.34 0.68 0 0 Z " fill="#D4D0C3" transform="translate(1264,562)"/>
<path d="M0 0 C1.5 1.25 1.5 1.25 3 3 C3 4.32 3 5.64 3 7 C0 6 0 6 -1.1875 3.9375 C-1.5896875 2.9784375 -1.5896875 2.9784375 -2 2 C-1.34 1.34 -0.68 0.68 0 0 Z " fill="#130E0D" transform="translate(779,560)"/>
<path d="M0 0 C3.36720387 1.39332574 4.9859524 2.9789286 7 6 C2.25 5.25 2.25 5.25 0 3 C0 2.01 0 1.02 0 0 Z " fill="#151510" transform="translate(1210,512)"/>
<path d="M0 0 C1.65 0 3.3 0 5 0 C5.33 0.66 5.66 1.32 6 2 C5.34 2 4.68 2 4 2 C4.33 2.99 4.66 3.98 5 5 C4.01 5.33 3.02 5.66 2 6 C0 2.25 0 2.25 0 0 Z " fill="#0C0C0A" transform="translate(1201,506)"/>
<path d="M0 0 C3.36720387 1.39332574 4.9859524 2.9789286 7 6 C5.35 5.67 3.7 5.34 2 5 C1.67 4.01 1.34 3.02 1 2 C0.34 1.67 -0.32 1.34 -1 1 C-0.67 0.67 -0.34 0.34 0 0 Z " fill="#151410" transform="translate(1138,440)"/>
<path d="M0 0 C2 3 2 3 1.625 5.6875 C1.41875 6.450625 1.2125 7.21375 1 8 C-0.5625 6.75 -0.5625 6.75 -2 5 C-1.74853421 2.86254078 -1.54074221 1.54074221 0 0 Z " fill="#0E0C0C" transform="translate(1275,864)"/>
<path d="M0 0 C0.99 1.32 1.98 2.64 3 4 C1.68 5.32 0.36 6.64 -1 8 C-2.2077558 4.37673261 -1.54311128 3.35853631 0 0 Z " fill="#15100E" transform="translate(1275,577)"/>
<path d="M0 0 C0.99 0.66 1.98 1.32 3 2 C3 2.66 3 3.32 3 4 C2.34 4 1.68 4 1 4 C0.67 4.66 0.34 5.32 0 6 C-1.5 4.625 -1.5 4.625 -3 3 C-3 2.34 -3 1.68 -3 1 C-2.01 0.67 -1.02 0.34 0 0 Z " fill="#DAD3C4" transform="translate(1132,427)"/>
<path d="M0 0 C1.67542976 0.28604898 3.34385343 0.61781233 5 1 C5 1.66 5 2.32 5 3 C4.01 3 3.02 3 2 3 C1.67 3.66 1.34 4.32 1 5 C0.34 3.68 -0.32 2.36 -1 1 C-0.67 0.67 -0.34 0.34 0 0 Z " fill="#130F0C" transform="translate(1090,873)"/>
<path d="M0 0 C0.99 0.33 1.98 0.66 3 1 C3.33 3.64 3.66 6.28 4 9 C3.67 8.01 3.34 7.02 3 6 C2.34 6 1.68 6 1 6 C0.67 4.02 0.34 2.04 0 0 Z " fill="#BEBAB0" transform="translate(1125,569)"/>
<path d="M0 0 C0.99 0 1.98 0 3 0 C3 0.66 3 1.32 3 2 C3.99 2.33 4.98 2.66 6 3 C5.01 3.99 4.02 4.98 3 6 C2.34 5.34 1.68 4.68 1 4 C1.33 3.67 1.66 3.34 2 3 C1.34 2.67 0.68 2.34 0 2 C0 1.34 0 0.68 0 0 Z " fill="#10100E" transform="translate(1024,553)"/>
<path d="M0 0 C1.5 1.375 1.5 1.375 3 3 C3 3.66 3 4.32 3 5 C2.01 5.33 1.02 5.66 0 6 C-0.99 5.34 -1.98 4.68 -3 4 C-2.01 2.68 -1.02 1.36 0 0 Z " fill="#0F0E0A" transform="translate(1047,537)"/>
<path d="M0 0 C1.98 0 3.96 0 6 0 C5.67 1.65 5.34 3.3 5 5 C3.35 3.35 1.7 1.7 0 0 Z " fill="#D5D0C2" transform="translate(1133,433)"/>
</svg>
