<svg width="20" height="20" viewBox="0 0 20 20" fill="none" xmlns="http://www.w3.org/2000/svg">
<g clip-path="url(#clip0_7761_26)">
<path fill-rule="evenodd" clip-rule="evenodd" d="M9.99994 0C15.5224 0 19.9999 4.47754 19.9999 10C19.9999 15.5225 15.5224 20 9.99994 20C4.47748 20 -6.10352e-05 15.5225 -6.10352e-05 10C-6.10352e-05 4.47754 4.47748 0 9.99994 0Z" fill="#2394E0"/>
<path fill-rule="evenodd" clip-rule="evenodd" d="M1.91412 15.1661C1.32493 14.2725 0.88385 13.2716 0.625061 12.199L2.38613 13.0486L2.39589 13.5743C2.39589 13.768 2.06712 14.1781 1.96132 14.3344L1.91412 15.1661ZM12.7458 1.05802C16.1019 2.17293 18.6199 5.12703 19.1049 8.72404L18.7875 8.68986C18.7305 8.934 18.6784 8.93888 18.6784 9.23185C18.6784 9.49064 19.004 9.66317 19.004 10.2084C19.004 10.3549 18.6605 10.6462 18.6459 10.6983L18.1365 10.101V10.8611L18.06 10.8578L17.9232 9.45483L17.6384 9.54435L17.2999 8.50106L16.185 9.66642L16.1719 10.5193L15.8074 10.7634L15.42 8.57593L15.1889 8.7452L14.6648 8.03719L13.8819 8.05998L13.5824 7.71655L13.2748 7.80119L12.671 7.10946L12.5538 7.18921L12.9281 8.14624H13.3627V7.92977H13.5792C13.7354 8.36271 13.9047 8.10555 13.9047 8.36434C13.9047 9.26766 12.7898 9.93172 12.059 10.101C12.098 10.2638 12.0834 10.4265 12.2755 10.4265C12.684 10.4265 12.4805 10.3549 12.9265 10.3175C12.9053 11.2403 11.8686 12.3422 11.4258 13.0274L11.6244 14.4418C11.6765 14.7494 10.9864 15.0733 10.752 15.42L10.8643 15.962L10.5469 16.0906C10.4916 16.6472 9.95123 17.2641 9.34414 17.2641H8.6931C8.6931 16.5024 8.14948 15.4135 8.14948 14.8748C8.14948 14.4174 8.36595 14.3556 8.36595 13.7891C8.36595 13.2651 7.82395 12.5147 7.82395 12.378V11.5089H7.38938C7.32428 11.2664 7.36497 11.1833 7.06386 11.1833H6.95481C6.48118 11.1833 6.56093 11.3998 6.08567 11.3998H5.6511C5.25885 11.3998 4.56549 10.1433 4.56549 9.98869V8.68661C4.56549 8.12508 5.07981 7.5131 5.43463 7.27547V6.73348L5.92291 6.23706L6.19472 6.19149C6.77741 6.19149 6.70742 5.86597 7.06386 5.86597H8.04043V6.62606L9.11464 7.08504L9.21556 6.62118C9.70221 6.73511 9.82916 6.95158 10.4281 6.95158H10.6446C11.0564 6.95158 11.0792 6.4047 11.0792 5.97502L10.21 6.06128L9.83079 5.23771L9.45481 5.337C9.52317 5.63159 9.55898 5.50952 9.55898 5.75855C9.55898 5.90503 9.43854 5.92131 9.34088 5.97502L8.96491 5.02124L8.15599 4.44344L8.04856 4.54924L8.73704 5.27352C8.64589 5.53394 8.6345 6.28426 8.25527 5.75855L8.61009 5.58765L7.72467 4.65991L7.19407 4.86662L6.66998 5.36792C6.61464 5.77157 6.50559 5.97502 6.08242 5.97502C5.80084 5.97502 5.97011 5.90177 5.5388 5.86597V4.78035H6.51536L6.19798 4.0577L6.08079 4.12931V3.91121L7.6677 3.18042C7.63841 2.95256 7.60097 3.07463 7.60097 2.8256C7.60097 2.81095 7.70677 2.61076 7.71002 2.6075L8.12018 2.86304L8.02252 2.39591L7.38938 2.52612L7.2722 1.95809C7.7735 1.69442 8.87864 0.763428 9.2302 0.763428H9.55573C9.89915 0.763428 10.8171 1.10197 10.9669 1.30542L10.0961 1.21753L10.7422 1.74976L10.8041 1.52189L11.2859 1.39006L11.2924 1.08895H11.5105V1.41447L12.7458 1.05802Z" fill="#A1E367"/>
</g>
<defs>
<clipPath id="clip0_7761_26">
<rect width="20" height="20" fill="white"/>
</clipPath>
</defs>
</svg>
