<svg width="32" height="40" viewBox="0 0 32 40" fill="none" xmlns="http://www.w3.org/2000/svg">
<path d="M4 32.0473V16H28V31.9102L15.8473 40L4 32.0473Z" fill="#F9F8F0"/>
<path d="M8 22H24V36.9663L15.8982 40L8 37.0178V22Z" fill="#CDBF7D"/>
<path d="M14 1.1547C15.2376 0.440169 16.7624 0.440169 18 1.1547L27.8564 6.8453C29.094 7.55983 29.8564 8.88034 29.8564 10.3094V21.6906C29.8564 23.1197 29.094 24.4402 27.8564 25.1547L18 30.8453C16.7624 31.5598 15.2376 31.5598 14 30.8453L4.14359 25.1547C2.90599 24.4402 2.14359 23.1197 2.14359 21.6906V10.3094C2.14359 8.88034 2.90599 7.55983 4.14359 6.8453L14 1.1547Z" fill="#F9F8F0"/>
<path d="M15 1.57735C15.6188 1.22008 16.3812 1.22008 17 1.57735L27.9904 7.92265C28.6092 8.27992 28.9904 8.94017 28.9904 9.6547V22.3453C28.9904 23.0598 28.6092 23.7201 27.9904 24.0774L17 30.4226C16.3812 30.7799 15.6188 30.7799 15 30.4226L4.00962 24.0774C3.39082 23.7201 3.00962 23.0598 3.00962 22.3453V9.6547C3.00962 8.94017 3.39082 8.27992 4.00962 7.92265L15 1.57735Z" fill="#CDBF7D"/>
<path d="M15 2.57735C15.6188 2.22008 16.3812 2.22008 17 2.57735L27.1244 8.42265C27.7432 8.77992 28.1244 9.44017 28.1244 10.1547V21.8453C28.1244 22.5598 27.7432 23.2201 27.1244 23.5774L17 29.4226C16.3812 29.7799 15.6188 29.7799 15 29.4226L4.87564 23.5774C4.25684 23.2201 3.87564 22.5598 3.87564 21.8453V10.1547C3.87564 9.44017 4.25684 8.77992 4.87564 8.42265L15 2.57735Z" fill="#F9F8F0"/>
<path d="M16.8423 10.8182V21H15.3011V12.3594H15.2415L12.8054 13.9503V12.4787L15.3459 10.8182H16.8423Z" fill="#7E7130"/>
</svg>
