<?xml version="1.0" encoding="utf-8"?>
<svg width="368" height="88" viewBox="0 0 368 88" fill="none" xmlns="http://www.w3.org/2000/svg">
  <defs/>
  <path d="M85.4225 32.6225C87.0729 34.2729 88 36.5112 88 38.8451V79.2C88 84.0601 84.0601 88 79.2 88H61.6C56.7399 88 52.8 84.0601 52.8 79.2V52.8001C52.8 49.3629 55.1886 46.4073 57.5176 43.5256C58.4817 42.3326 59.4357 41.1522 60.2056 39.9556C61.088 38.5843 61.5999 36.952 61.5999 35.2001C61.5999 30.34 57.66 26.4001 52.7999 26.4001C51.0481 26.4001 49.4158 26.912 48.0445 27.7944C46.8479 28.5644 45.6675 29.5183 44.4746 30.4824C41.5928 32.8114 38.6372 35.2 35.2001 35.2H8.79999C3.93988 35.2 0 31.2601 0 26.4V8.8C0 3.93989 3.9399 0 8.8 0H49.1549C51.4888 0 53.7271 0.927141 55.3775 2.57746L85.4225 32.6225Z" fill="#FF9046"/>
  <path d="M133.52 71.796C130.304 71.796 127.472 71.124 125.024 69.78C122.576 68.388 120.656 66.396 119.264 63.804C117.872 61.212 117.128 58.044 117.032 54.3H118.4V70.5H109.256V17.94H120.776V44.652L118.04 48.108C118.184 44.124 118.928 40.788 120.272 38.1C121.664 35.364 123.56 33.324 125.96 31.98C128.36 30.588 131.096 29.892 134.168 29.892C136.856 29.892 139.28 30.396 141.44 31.404C143.648 32.364 145.52 33.756 147.056 35.58C148.592 37.356 149.768 39.468 150.584 41.916C151.448 44.364 151.88 47.028 151.88 49.908V51.492C151.88 54.372 151.448 57.036 150.584 59.484C149.768 61.932 148.544 64.092 146.912 65.964C145.328 67.788 143.408 69.228 141.152 70.284C138.896 71.292 136.352 71.796 133.52 71.796ZM130.496 62.148C132.464 62.148 134.168 61.668 135.608 60.708C137.096 59.748 138.248 58.404 139.064 56.676C139.88 54.9 140.288 52.908 140.288 50.7C140.288 48.444 139.88 46.476 139.064 44.796C138.248 43.116 137.096 41.82 135.608 40.908C134.168 39.948 132.464 39.468 130.496 39.468C128.768 39.468 127.136 39.876 125.6 40.692C124.064 41.508 122.816 42.684 121.856 44.22C120.944 45.708 120.488 47.532 120.488 49.692V52.356C120.488 54.42 120.968 56.196 121.928 57.684C122.936 59.124 124.208 60.228 125.744 60.996C127.28 61.764 128.864 62.148 130.496 62.148ZM175.073 71.868C171.713 71.868 168.737 71.292 166.145 70.14C163.601 68.988 161.465 67.452 159.737 65.532C158.057 63.564 156.761 61.38 155.849 58.98C154.985 56.532 154.553 54.036 154.553 51.492V50.052C154.553 47.412 154.985 44.892 155.849 42.492C156.761 40.044 158.057 37.86 159.737 35.94C161.417 34.02 163.505 32.508 166.001 31.404C168.545 30.252 171.425 29.676 174.641 29.676C178.865 29.676 182.417 30.636 185.297 32.556C188.225 34.428 190.457 36.9 191.993 39.972C193.529 42.996 194.297 46.308 194.297 49.908V53.796H159.377V47.244H187.313L183.569 50.268C183.569 47.916 183.233 45.9 182.561 44.22C181.889 42.54 180.881 41.268 179.537 40.404C178.241 39.492 176.609 39.036 174.641 39.036C172.625 39.036 170.921 39.492 169.529 40.404C168.137 41.316 167.081 42.66 166.361 44.436C165.641 46.164 165.281 48.3 165.281 50.844C165.281 53.196 165.617 55.26 166.289 57.036C166.961 58.764 168.017 60.108 169.457 61.068C170.897 62.028 172.769 62.508 175.073 62.508C177.185 62.508 178.913 62.1 180.257 61.284C181.601 60.468 182.513 59.46 182.993 58.26H193.577C193.001 60.9 191.873 63.252 190.193 65.316C188.513 67.38 186.401 68.988 183.857 70.14C181.313 71.292 178.385 71.868 175.073 71.868ZM213.595 71.508C209.371 71.508 206.059 70.332 203.659 67.98C201.259 65.628 200.059 62.292 200.059 57.972V34.932H210.787V58.26C210.787 59.556 211.099 60.564 211.723 61.284C212.395 61.956 213.259 62.292 214.315 62.292C215.419 62.292 216.259 61.956 216.835 61.284C217.459 60.564 217.771 59.556 217.771 58.26H226.123C226.123 62.292 225.091 65.508 223.027 67.908C221.011 70.308 217.867 71.508 213.595 71.508ZM194.227 39.468V31.044H224.899V39.468H194.227ZM200.059 34.356V19.956H210.787V34.356H200.059ZM240.297 70.86V61.644H252.609C254.817 61.644 256.473 61.068 257.577 59.916C258.681 58.764 259.233 57.132 259.233 55.02C259.233 52.908 258.681 51.3 257.577 50.196C256.473 49.044 254.817 48.468 252.609 48.468H240.297V41.34H252.033C255.681 41.34 258.921 41.796 261.753 42.708C264.585 43.572 266.817 44.988 268.449 46.956C270.081 48.924 270.897 51.588 270.897 54.948V55.956C270.897 59.076 270.177 61.764 268.737 64.02C267.297 66.228 265.185 67.932 262.401 69.132C259.617 70.284 256.161 70.86 252.033 70.86H240.297ZM230.217 70.86V17.508H241.737V70.86H230.217ZM240.297 46.596V39.54H250.665C252.921 39.54 254.553 38.964 255.561 37.812C256.569 36.66 257.073 35.124 257.073 33.204C257.073 31.188 256.569 29.604 255.561 28.452C254.553 27.3 252.921 26.724 250.665 26.724H240.297V17.508H249.945C255.993 17.508 260.625 18.78 263.841 21.324C267.105 23.868 268.737 27.492 268.737 32.196V33.276C268.737 36.54 267.897 39.156 266.217 41.124C264.585 43.092 262.353 44.508 259.521 45.372C256.737 46.188 253.545 46.596 249.945 46.596H240.297ZM286.504 70.5V26.796H298.312V70.5H286.504ZM271.744 28.236V17.94H313.144V28.236H271.744ZM340.335 71.868C335.583 71.868 331.503 71.052 328.095 69.42C324.687 67.74 321.903 65.556 319.743 62.868C317.583 60.132 315.975 57.204 314.919 54.084C313.911 50.916 313.407 47.844 313.407 44.868V43.284C313.407 40.02 313.935 36.804 314.991 33.636C316.047 30.42 317.655 27.516 319.815 24.924C322.023 22.332 324.783 20.268 328.095 18.732C331.455 17.148 335.415 16.356 339.975 16.356C344.727 16.356 348.927 17.244 352.575 19.02C356.223 20.796 359.127 23.268 361.287 26.436C363.495 29.556 364.791 33.228 365.175 37.452H353.295C352.959 35.34 352.191 33.54 350.991 32.052C349.791 30.564 348.231 29.412 346.311 28.596C344.439 27.78 342.327 27.372 339.975 27.372C337.623 27.372 335.535 27.78 333.711 28.596C331.887 29.412 330.351 30.564 329.103 32.052C327.903 33.54 326.967 35.316 326.295 37.38C325.671 39.396 325.359 41.652 325.359 44.148C325.359 46.596 325.671 48.852 326.295 50.916C326.967 52.932 327.927 54.708 329.175 56.244C330.471 57.732 332.055 58.884 333.927 59.7C335.799 60.468 337.935 60.852 340.335 60.852C343.983 60.852 347.055 59.964 349.551 58.188C352.095 56.412 353.631 53.964 354.159 50.844H365.967C365.535 54.684 364.239 58.212 362.079 61.428C359.967 64.596 357.063 67.14 353.367 69.06C349.719 70.932 345.375 71.868 340.335 71.868Z" style="fill: rgb(250, 250, 250);"/>
</svg>