<svg width="20" height="20" viewBox="0 0 20 20" fill="none" xmlns="http://www.w3.org/2000/svg">
<path d="M16.3673 13.3588C15.0066 13.3588 13.57 12.4693 12.8649 11.824C12.0936 11.118 9.97514 8.81996 9.96578 8.8097C8.5765 7.25967 6.70853 5.53906 4.84502 5.53906C2.6006 5.53906 0.642872 7.09355 0.133789 9.15266C0.17264 9.0169 0.886248 7.13061 3.56474 7.13061C4.92542 7.13061 6.36201 8.02017 7.06712 8.66546C7.83834 9.37146 9.95683 11.6695 9.96622 11.6797C11.3555 13.2298 13.2234 14.9504 15.0874 14.9504C17.3318 14.9504 19.2891 13.3959 19.7986 11.3368C19.7598 11.4725 19.0462 13.3588 16.3677 13.3588H16.3673Z" fill="#121212"/>
<path d="M9.96554 11.6804C9.96064 11.6746 9.35062 11.0133 8.6665 10.2916C8.29673 10.7306 7.76398 11.3286 7.15175 11.8649C6.01033 12.8652 5.26859 13.0751 4.84436 13.0751C3.24389 13.0751 1.93813 11.8055 1.93813 10.2452C1.93813 8.68491 3.2421 7.42514 4.84436 7.41532C4.90241 7.41532 4.97297 7.42113 5.05782 7.43631C4.57643 7.25143 4.06511 7.13086 3.56405 7.13086C0.886469 7.13086 0.172862 9.01625 0.133564 9.15291C0.0469308 9.50389 0.000488281 9.86919 0.000488281 10.2452C0.000488281 12.8402 2.14086 14.9511 4.80998 14.9511C5.92281 14.9511 7.16916 14.3808 8.45259 13.2555C9.05946 12.7236 9.58551 12.1547 9.98073 11.6974C9.97582 11.6916 9.97045 11.6862 9.96554 11.6804Z" fill="#121212"/>
<path d="M9.96537 8.8097C9.97029 8.81549 10.5803 9.47685 11.2644 10.1985C11.6342 9.75953 12.1669 9.16158 12.7792 8.62525C13.9206 7.62496 14.6623 7.41507 15.0865 7.41507C16.687 7.41507 17.9928 8.68466 17.9928 10.2449C17.9928 11.7963 16.6888 13.065 15.0865 13.0748C15.0285 13.0748 14.9579 13.069 14.8731 13.0538C15.3545 13.2387 15.8658 13.3593 16.3669 13.3593C19.0449 13.3593 19.7585 11.4739 19.7978 11.3372C19.8844 10.9862 19.9309 10.6209 19.9309 10.2449C19.9309 7.64997 17.7557 5.53906 15.0865 5.53906C13.9737 5.53906 12.7622 6.10932 11.4783 7.23466C10.8714 7.76652 10.3454 8.33544 9.9502 8.79273C9.95509 8.79852 9.96045 8.80389 9.96537 8.8097Z" fill="#121212"/>
</svg>
