<svg width="176" height="176" viewBox="0 0 176 176" fill="none" xmlns="http://www.w3.org/2000/svg">
<path d="M170.845 65.2451C174.146 68.5457 176 73.0224 176 77.6902V158.4C176 168.12 168.12 176 158.4 176H123.2C113.48 176 105.6 168.12 105.6 158.4V105.6C105.6 98.7258 110.377 92.8146 115.035 87.0511C116.963 84.6651 118.871 82.3044 120.411 79.9112C122.176 77.1686 123.2 73.904 123.2 70.4003C123.2 60.68 115.32 52.8003 105.6 52.8003C102.096 52.8003 98.8315 53.8241 96.0889 55.5889C93.6957 57.1288 91.3351 59.0366 88.9491 60.9649C83.1856 65.6227 77.2744 70.4 70.4001 70.4H17.6C7.87976 70.4 0 62.5202 0 52.8V17.6C0 7.87979 7.87979 0 17.6 0H98.3099C102.978 0 107.454 1.85428 110.755 5.15492L170.845 65.2451Z" fill="#FF9046"/>
</svg>
