<svg width="20" height="20" viewBox="0 0 20 20" fill="none" xmlns="http://www.w3.org/2000/svg">
<g id="Passwordless Logins" clip-path="url(#clip0_6709_1292)">
<path id="Vector" fill-rule="evenodd" clip-rule="evenodd" d="M4.94481 0.972364C5.21362 0.943816 5.40829 0.70363 5.37962 0.435887C5.351 0.168149 5.10981 -0.0257559 4.841 0.00278745L3.84134 0.108945C3.32919 0.16333 2.91839 0.206949 2.58477 0.267192C2.2411 0.329254 1.94653 0.414092 1.67296 0.566792C1.22881 0.814716 0.860575 1.17802 0.60767 1.61798C0.451861 1.88901 0.364099 2.18148 0.298908 2.52298C0.235623 2.85443 0.188384 3.26276 0.129527 3.77177L0.127004 3.7937L0.0288606 4.766C0.00181296 5.03391 0.197908 5.27291 0.466908 5.29986C0.735908 5.32676 0.975861 5.13143 1.00291 4.86353L1.10038 3.89826C1.16162 3.36845 1.20496 2.9967 1.26062 2.70518C1.31529 2.41908 1.37624 2.24331 1.45724 2.10248C1.622 1.81585 1.86196 1.57904 2.15157 1.41739C2.29396 1.33792 2.47129 1.27865 2.75943 1.22662C3.05362 1.17349 3.42872 1.13335 3.96362 1.07655L4.94481 0.972364ZM14.4689 0.435887C14.4402 0.70363 14.6349 0.943816 14.9037 0.972364L15.8849 1.07655C16.4198 1.13335 16.7949 1.17349 17.0891 1.22662C17.3772 1.27865 17.5546 1.33792 17.697 1.41739C17.9866 1.57904 18.2265 1.81585 18.3913 2.10248C18.4722 2.24331 18.5332 2.41908 18.5879 2.70518C18.6436 2.9967 18.6869 3.36845 18.7481 3.89826L18.8456 4.86353C18.8727 5.13143 19.1126 5.32676 19.3816 5.29986C19.6506 5.27291 19.8467 5.03391 19.8197 4.766L19.7215 3.7937L19.719 3.77177C19.6601 3.26292 19.6129 2.85435 19.5496 2.52298C19.4844 2.18148 19.3967 1.88901 19.2409 1.61798C18.988 1.17802 18.6197 0.814716 18.1756 0.566792C17.902 0.414092 17.6074 0.329254 17.2638 0.267192C16.9301 0.206949 16.5193 0.16333 16.0072 0.108945L15.0075 0.00278745C14.7387 -0.0257559 14.4975 0.168149 14.4689 0.435887ZM14.4689 19.28C14.4402 19.0122 14.6349 18.772 14.9037 18.7435L15.8849 18.6393C16.4198 18.5825 16.7949 18.5424 17.0891 18.4892C17.3772 18.4372 17.5546 18.378 17.697 18.2985C17.9866 18.1368 18.2265 17.9 18.3913 17.6134C18.4723 17.4726 18.5332 17.2968 18.5879 17.0107C18.6436 16.7192 18.6869 16.3474 18.7481 15.8176L18.8456 14.8523C18.8727 14.5844 19.1126 14.3891 19.3816 14.416C19.6506 14.443 19.8467 14.682 19.8197 14.9499L19.7215 15.9222L19.719 15.9441C19.6602 16.453 19.6129 16.8615 19.5496 17.1929C19.4844 17.5344 19.3967 17.8269 19.2409 18.0979C18.988 18.5379 18.6197 18.9011 18.1756 19.1491C17.902 19.3018 17.6074 19.3866 17.2638 19.4487C16.9302 19.5089 16.5196 19.5525 16.0076 19.6069L15.0075 19.7131C14.7387 19.7416 14.4975 19.5477 14.4689 19.28ZM5.37962 19.28C5.40829 19.0122 5.21362 18.772 4.94481 18.7435L3.96362 18.6393C3.42872 18.5825 3.05362 18.5424 2.75943 18.4892C2.47129 18.4372 2.29396 18.378 2.15157 18.2985C1.86196 18.1368 1.622 17.9 1.45724 17.6134C1.37624 17.4726 1.31529 17.2968 1.26062 17.0107C1.20496 16.7192 1.16162 16.3474 1.10038 15.8176L1.00291 14.8523C0.975861 14.5844 0.735908 14.3891 0.466908 14.416C0.197908 14.443 0.00181296 14.682 0.0288606 14.9499L0.127004 15.9222L0.129527 15.9441C0.188384 16.4531 0.235623 16.8614 0.298908 17.1929C0.364099 17.5344 0.451861 17.8269 0.60767 18.0979C0.860575 18.5379 1.22881 18.9011 1.67296 19.1491C1.94653 19.3018 2.2411 19.3866 2.58477 19.4487C2.91834 19.5089 3.3291 19.5525 3.84119 19.6069L4.841 19.7131C5.10981 19.7416 5.351 19.5477 5.37962 19.28ZM5.01577 6.09838C4.83624 6.09838 4.69072 6.24391 4.69072 6.42343V13.4351C4.69072 13.6147 4.83624 13.7602 5.01577 13.7602H6.54162C6.72115 13.7602 6.86667 13.6147 6.86667 13.4351V6.42343C6.86667 6.24391 6.72115 6.09838 6.54162 6.09838H5.01577ZM8.62124 6.09838C8.44177 6.09838 8.29624 6.24391 8.29624 6.42343V13.4351C8.29624 13.6147 8.44177 13.7602 8.62124 13.7602H11.9338C12.7763 13.7602 13.5236 13.6033 14.1757 13.2895C14.8277 12.9758 15.3332 12.5307 15.6922 11.9542C16.0512 11.3777 16.2307 10.7028 16.2307 9.92929C16.2307 9.15581 16.0512 8.48086 15.6922 7.90438C15.3332 7.32791 14.8277 6.88281 14.1757 6.56905C13.5236 6.25529 12.7763 6.09838 11.9338 6.09838H8.62124ZM13.4283 11.4726C13.0327 11.8447 12.5052 12.0308 11.8459 12.0308H10.5697C10.5158 12.0308 10.4721 11.9871 10.4721 11.9333V7.92529C10.4721 7.87143 10.5158 7.82776 10.5697 7.82776H11.8459C12.5052 7.82776 13.0327 8.01386 13.4283 8.386C13.8313 8.75814 14.0328 9.27257 14.0328 9.92929C14.0328 10.586 13.8313 11.1004 13.4283 11.4726Z" fill="#121212"/>
</g>
<defs>
<clipPath id="clip0_6709_1292">
<rect width="20" height="20" fill="white"/>
</clipPath>
</defs>
</svg>
