<svg width="72" height="18" viewBox="0 0 72 18" fill="none" xmlns="http://www.w3.org/2000/svg">
<path d="M16.7131 6.38267C17.036 6.70556 17.2174 7.14349 17.2174 7.60013V15.4957C17.2174 16.4465 16.4465 17.2174 15.4957 17.2174H12.0522C11.1013 17.2174 10.3304 16.4465 10.3304 15.4957V10.3304C10.3304 9.65796 10.7978 9.07969 11.2534 8.51587C11.4421 8.28246 11.6287 8.05152 11.7794 7.8174C11.952 7.5491 12.0522 7.22974 12.0522 6.88698C12.0522 5.93609 11.2813 5.16524 10.3304 5.16524C9.98767 5.16524 9.6683 5.2654 9.4 5.43804C9.16589 5.58869 8.93495 5.77532 8.70154 5.96396C8.13773 6.41962 7.55945 6.88696 6.88697 6.88696H1.72174C0.770846 6.88696 0 6.11611 0 5.16522V1.72174C0 0.770849 0.770849 0 1.72174 0H9.61727C10.0739 0 10.5118 0.181397 10.8347 0.504286L16.7131 6.38267Z" fill="#FF9046"/>
<path d="M26.1235 13.6775C25.4943 13.6775 24.9402 13.546 24.4612 13.2831C23.9823 13.0107 23.6066 12.621 23.3343 12.1138C23.0619 11.6067 22.9164 10.9869 22.8976 10.2544H23.1652V13.4239H21.3762V3.14044H23.6301V8.3667L23.0948 9.04288C23.123 8.2634 23.2685 7.6107 23.5315 7.08479C23.8038 6.54948 24.1748 6.15035 24.6444 5.8874C25.1139 5.61505 25.6492 5.47888 26.2503 5.47888C26.7762 5.47888 27.2504 5.57748 27.6731 5.7747C28.1051 5.96253 28.4713 6.23488 28.7718 6.59175C29.0724 6.93922 29.3024 7.35244 29.4621 7.8314C29.6311 8.31035 29.7157 8.83157 29.7157 9.39505V9.70496C29.7157 10.2684 29.6311 10.7897 29.4621 11.2686C29.3024 11.7476 29.063 12.1702 28.7437 12.5364C28.4338 12.8933 28.0581 13.1751 27.6167 13.3817C27.1753 13.5789 26.6776 13.6775 26.1235 13.6775ZM25.5318 11.7898C25.9169 11.7898 26.2503 11.6959 26.532 11.5081C26.8231 11.3203 27.0485 11.0573 27.2082 10.7192C27.3678 10.3717 27.4477 9.98201 27.4477 9.55001C27.4477 9.10862 27.3678 8.72357 27.2082 8.39488C27.0485 8.06618 26.8231 7.81262 26.532 7.63418C26.2503 7.44635 25.9169 7.35244 25.5318 7.35244C25.1938 7.35244 24.8744 7.43227 24.5739 7.59192C24.2734 7.75157 24.0292 7.98166 23.8414 8.28218C23.663 8.57331 23.5738 8.93018 23.5738 9.35279V9.87401C23.5738 10.2778 23.6677 10.6253 23.8555 10.9164C24.0527 11.1982 24.3016 11.4142 24.6021 11.5644C24.9026 11.7147 25.2125 11.7898 25.5318 11.7898ZM34.2534 13.6916C33.596 13.6916 33.0138 13.5789 32.5066 13.3535C32.0089 13.1281 31.591 12.8276 31.2529 12.4519C30.9242 12.0669 30.6706 11.6396 30.4922 11.17C30.3232 10.6911 30.2386 10.2027 30.2386 9.70496V9.42322C30.2386 8.9067 30.3232 8.41366 30.4922 7.94409C30.6706 7.46514 30.9242 7.03783 31.2529 6.66218C31.5816 6.28653 31.9901 5.9907 32.4785 5.7747C32.9762 5.54931 33.5397 5.43662 34.1689 5.43662C34.9953 5.43662 35.6903 5.62444 36.2538 6.00009C36.8266 6.36635 37.2633 6.85001 37.5639 7.45105C37.8644 8.0427 38.0146 8.6907 38.0146 9.39505V10.1557H31.1825V8.87383H36.6482L35.9157 9.46548C35.9157 9.00531 35.8499 8.61088 35.7185 8.28218C35.587 7.95348 35.3898 7.70462 35.1268 7.53557C34.8733 7.35714 34.5539 7.26792 34.1689 7.26792C33.7745 7.26792 33.4411 7.35714 33.1687 7.53557C32.8964 7.71401 32.6898 7.97696 32.5489 8.32444C32.408 8.66253 32.3376 9.08044 32.3376 9.57818C32.3376 10.0384 32.4033 10.4422 32.5348 10.7897C32.6663 11.1277 32.8729 11.3907 33.1546 11.5785C33.4364 11.7664 33.8026 11.8603 34.2534 11.8603C34.6666 11.8603 35.0047 11.7804 35.2677 11.6208C35.5306 11.4611 35.7091 11.2639 35.803 11.0291H37.8738C37.7611 11.5457 37.5404 12.0058 37.2117 12.4097C36.883 12.8135 36.4698 13.1281 35.972 13.3535C35.4743 13.5789 34.9014 13.6916 34.2534 13.6916ZM41.7903 13.6211C40.9638 13.6211 40.3158 13.3911 39.8463 12.9309C39.3767 12.4707 39.1419 11.818 39.1419 10.9728V6.46496H41.2409V11.0291C41.2409 11.2827 41.3019 11.4799 41.424 11.6208C41.5555 11.7523 41.7245 11.818 41.9311 11.818C42.1471 11.818 42.3115 11.7523 42.4242 11.6208C42.5463 11.4799 42.6073 11.2827 42.6073 11.0291H44.2414C44.2414 11.818 44.0395 12.4472 43.6357 12.9168C43.2412 13.3864 42.6261 13.6211 41.7903 13.6211ZM38.0009 7.35244V5.70427H44.0019V7.35244H38.0009ZM39.1419 6.35227V3.53488H41.2409V6.35227H39.1419ZM47.0147 13.4944V11.6912H49.4235C49.8555 11.6912 50.1795 11.5785 50.3955 11.3531C50.6115 11.1277 50.7195 10.8084 50.7195 10.3952C50.7195 9.98201 50.6115 9.6674 50.3955 9.4514C50.1795 9.22601 49.8555 9.11331 49.4235 9.11331H47.0147V7.7187H49.3108C50.0246 7.7187 50.6585 7.80792 51.2126 7.98635C51.7667 8.1554 52.2034 8.43244 52.5227 8.81748C52.842 9.20253 53.0016 9.72375 53.0016 10.3811V10.5784C53.0016 11.1888 52.8608 11.7147 52.579 12.1561C52.2973 12.5881 51.8841 12.9215 51.3394 13.1563C50.7947 13.3817 50.1185 13.4944 49.3108 13.4944H47.0147ZM45.0425 13.4944V3.05592H47.2964V13.4944H45.0425ZM47.0147 8.74705V7.36653H49.0432C49.4846 7.36653 49.8039 7.25383 50.0011 7.02844C50.1983 6.80305 50.2969 6.50253 50.2969 6.12688C50.2969 5.73244 50.1983 5.42253 50.0011 5.19714C49.8039 4.97175 49.4846 4.85905 49.0432 4.85905H47.0147V3.05592H48.9023C50.0856 3.05592 50.9919 3.30479 51.6211 3.80253C52.2597 4.30027 52.579 5.00931 52.579 5.92966V6.14096C52.579 6.77957 52.4147 7.2914 52.086 7.67644C51.7667 8.06148 51.33 8.33853 50.7759 8.50757C50.2312 8.66722 49.6067 8.74705 48.9023 8.74705H47.0147ZM56.0551 13.4239V4.87314H58.3653V13.4239H56.0551ZM53.1673 5.15488V3.14044H61.2673V5.15488H53.1673ZM66.5873 13.6916C65.6575 13.6916 64.8593 13.5319 64.1925 13.2126C63.5257 12.8839 62.981 12.4566 62.5584 11.9307C62.1358 11.3954 61.8212 10.8225 61.6146 10.2121C61.4174 9.59227 61.3188 8.99122 61.3188 8.40896V8.09905C61.3188 7.46044 61.4221 6.83122 61.6287 6.2114C61.8353 5.58218 62.1499 5.01401 62.5725 4.50688C63.0045 3.99975 63.5445 3.59592 64.1925 3.2954C64.8499 2.98548 65.6247 2.83053 66.5168 2.83053C67.4466 2.83053 68.2683 3.00427 68.9821 3.35175C69.6958 3.69922 70.264 4.18288 70.6866 4.8027C71.1186 5.41314 71.3722 6.13157 71.4473 6.95801H69.1229C69.0572 6.54479 68.9069 6.19262 68.6722 5.90148C68.4374 5.61035 68.1322 5.38496 67.7565 5.22531C67.3902 5.06566 66.977 4.98583 66.5168 4.98583C66.0567 4.98583 65.6482 5.06566 65.2913 5.22531C64.9344 5.38496 64.6339 5.61035 64.3897 5.90148C64.1549 6.19262 63.9718 6.54009 63.8403 6.94392C63.7182 7.33835 63.6572 7.77975 63.6572 8.26809C63.6572 8.74705 63.7182 9.18844 63.8403 9.59227C63.9718 9.9867 64.1596 10.3342 64.4038 10.6347C64.6574 10.9258 64.9673 11.1512 65.3335 11.3109C65.6998 11.4611 66.1177 11.5363 66.5873 11.5363C67.301 11.5363 67.9021 11.3625 68.3904 11.0151C68.8882 10.6676 69.1887 10.1886 69.292 9.57818H71.6022C71.5177 10.3295 71.2642 11.0197 70.8415 11.649C70.4283 12.2688 69.8602 12.7665 69.137 13.1422C68.4233 13.5084 67.5734 13.6916 66.5873 13.6916Z" fill="#FF9046"/>
</svg>
