<svg width="20" height="20" viewBox="0 0 20 20" fill="none" xmlns="http://www.w3.org/2000/svg">
<path d="M4.99984 16.74H7.17508C7.45869 16.74 7.74057 16.7738 8.01551 16.8413L10.3139 17.3998C10.8126 17.5213 11.3322 17.5331 11.8361 17.4352L14.3773 16.9408C15.0486 16.81 15.6662 16.4886 16.1501 16.0178L17.9481 14.2688C18.4615 13.7702 18.4615 12.9611 17.9481 12.4616C17.4858 12.0119 16.7538 11.9613 16.2308 12.3427L14.1353 13.8714C13.8352 14.0908 13.4701 14.2089 13.0945 14.2089H11.0711L12.3591 14.2089C13.085 14.2089 13.6731 13.6368 13.6731 12.9307V12.675C13.6731 12.0886 13.2628 11.5774 12.6782 11.4356L10.6903 10.9522C10.3668 10.8737 10.0355 10.8341 9.70245 10.8341C8.89845 10.8341 7.44308 11.4997 7.44308 11.4997L4.99984 12.5215M1.6665 12.1674L1.6665 17.0007C1.6665 17.4674 1.6665 17.7008 1.75733 17.8791C1.83723 18.0359 1.96471 18.1633 2.12151 18.2432C2.29977 18.3341 2.53313 18.3341 2.99984 18.3341H3.6665C4.13321 18.3341 4.36657 18.3341 4.54483 18.2432C4.70163 18.1633 4.82911 18.0359 4.90901 17.8791C4.99984 17.7008 4.99984 17.4674 4.99984 17.0007V12.1674C4.99984 11.7007 4.99984 11.4673 4.90901 11.2891C4.82911 11.1323 4.70163 11.0048 4.54483 10.9249C4.36657 10.8341 4.13321 10.8341 3.6665 10.8341H2.99984C2.53313 10.8341 2.29977 10.8341 2.12151 10.9249C1.96471 11.0048 1.83723 11.1323 1.75733 11.2891C1.6665 11.4673 1.6665 11.7007 1.6665 12.1674ZM14.326 2.99427C13.8286 1.95356 12.682 1.40221 11.5669 1.93437C10.4517 2.46653 9.97667 3.72854 10.4435 4.83642C10.7321 5.52111 11.5588 6.85073 12.1482 7.76659C12.366 8.10498 12.4749 8.27418 12.634 8.37317C12.7704 8.45807 12.9412 8.50383 13.1018 8.49852C13.2891 8.49233 13.468 8.40025 13.8258 8.21608C14.7942 7.71765 16.175 6.97952 16.7672 6.53083C17.7255 5.80483 17.9628 4.47037 17.2454 3.45593C16.528 2.44148 15.2771 2.34166 14.326 2.99427Z" stroke="#A1A1A9" stroke-width="1.5" stroke-linecap="round" stroke-linejoin="round"/>
</svg>
