<svg width="32" height="40" viewBox="0 0 32 40" fill="none" xmlns="http://www.w3.org/2000/svg">
<path d="M4 32.0473V16H28V31.9102L15.8473 40L4 32.0473Z" fill="#F4F4F5"/>
<path d="M10 24H22V37.8818L15.9237 40L10 37.9295V24Z" fill="#A1A1A9"/>
<path d="M12 2.3094C14.4752 0.880339 17.5248 0.880339 20 2.3094L25.8564 5.6906C28.3316 7.11966 29.8564 9.76068 29.8564 12.6188V19.3812C29.8564 22.2393 28.3316 24.8803 25.8564 26.3094L20 29.6906C17.5248 31.1197 14.4752 31.1197 12 29.6906L6.14359 26.3094C3.66839 24.8803 2.14359 22.2393 2.14359 19.3812V12.6188C2.14359 9.76068 3.66839 7.11966 6.14359 5.6906L12 2.3094Z" fill="#F4F4F5"/>
<path d="M12 3.3094C14.4752 1.88034 17.5248 1.88034 20 3.3094L24.9904 6.1906C27.4656 7.61966 28.9904 10.2607 28.9904 13.1188V18.8812C28.9904 21.7393 27.4656 24.3803 24.9904 25.8094L20 28.6906C17.5248 30.1197 14.4752 30.1197 12 28.6906L7.00962 25.8094C4.53441 24.3803 3.00962 21.7393 3.00962 18.8812V13.1188C3.00962 10.2607 4.53441 7.61966 7.00962 6.1906L12 3.3094Z" fill="#A1A1A9"/>
<path d="M12 4.3094C14.4752 2.88034 17.5248 2.88034 20 4.3094L24.1244 6.6906C26.5996 8.11966 28.1244 10.7607 28.1244 13.6188V18.3812C28.1244 21.2393 26.5996 23.8803 24.1244 25.3094L20 27.6906C17.5248 29.1197 14.4752 29.1197 12 27.6906L7.87564 25.3094C5.40044 23.8803 3.87564 21.2393 3.87564 18.3812V13.6188C3.87564 10.7607 5.40044 8.11966 7.87564 6.6906L12 4.3094Z" fill="#F4F4F5"/>
<path d="M12.9794 21V19.8864L16.4247 16.3168C16.7926 15.929 17.0959 15.5893 17.3345 15.2976C17.5765 15.0026 17.7571 14.7225 17.8764 14.4574C17.9957 14.1922 18.0554 13.9105 18.0554 13.6122C18.0554 13.2741 17.9759 12.9825 17.8168 12.7372C17.6577 12.4886 17.4406 12.2981 17.1655 12.1655C16.8904 12.0296 16.5805 11.9616 16.2358 11.9616C15.8712 11.9616 15.553 12.0362 15.2812 12.1854C15.0095 12.3345 14.8007 12.545 14.6548 12.8168C14.509 13.0885 14.4361 13.4067 14.4361 13.7713H12.9695C12.9695 13.1515 13.112 12.6096 13.397 12.1456C13.6821 11.6816 14.0732 11.322 14.5703 11.0668C15.0675 10.8082 15.6326 10.679 16.2656 10.679C16.9053 10.679 17.4688 10.8066 17.956 11.0618C18.4465 11.3137 18.8293 11.6584 19.1044 12.0959C19.3795 12.5301 19.517 13.0206 19.517 13.5675C19.517 13.9453 19.4458 14.3149 19.3033 14.6761C19.1641 15.0374 18.9205 15.4401 18.5724 15.8842C18.2244 16.325 17.7405 16.8603 17.1207 17.4901L15.0973 19.608V19.6825H19.6811V21H12.9794Z" fill="#52525A"/>
</svg>
