<svg width="20" height="20" viewBox="0 0 20 20" fill="none" xmlns="http://www.w3.org/2000/svg">
<path fill-rule="evenodd" clip-rule="evenodd" d="M10 0.833333C4.9374 0.833333 0.833344 4.93739 0.833344 10C0.833344 15.0626 4.9374 19.1667 10 19.1667C15.0626 19.1667 19.1667 15.0626 19.1667 10C19.1667 4.93739 15.0626 0.833333 10 0.833333ZM14.3393 8.08925C14.6647 7.76382 14.6647 7.23618 14.3393 6.91074C14.0138 6.58531 13.4862 6.58531 13.1608 6.91074L8.75001 11.3215L6.83927 9.41074C6.51383 9.08531 5.98619 9.08531 5.66075 9.41074C5.33532 9.73618 5.33532 10.2638 5.66075 10.5893L8.16075 13.0893C8.48619 13.4147 9.01383 13.4147 9.33927 13.0893L14.3393 8.08925Z" fill="#55B5A6"/>
</svg>
