<svg width="32" height="40" viewBox="0 0 32 40" fill="none" xmlns="http://www.w3.org/2000/svg">
<path d="M4 32.0473V16H28V31.9102L15.8473 40L4 32.0473Z" fill="#F8F3F1"/>
<path d="M12 24H20V37.8818L15.9491 40L12 37.9295V24Z" fill="#BB9A8F"/>
<path d="M10 3.4641C13.7128 1.32051 18.2872 1.32051 22 3.4641L23.8564 4.5359C27.5692 6.67949 29.8564 10.641 29.8564 14.9282V17.0718C29.8564 21.359 27.5692 25.3205 23.8564 27.4641L22 28.5359C18.2872 30.6795 13.7128 30.6795 10 28.5359L8.14359 27.4641C4.43078 25.3205 2.14359 21.359 2.14359 17.0718V14.9282C2.14359 10.641 4.43078 6.67949 8.14359 4.5359L10 3.4641Z" fill="#F8F3F1"/>
<path d="M10 4.4641C13.7128 2.32051 18.2872 2.32051 22 4.4641L22.9904 5.0359C26.7032 7.17949 28.9904 11.141 28.9904 15.4282V16.5718C28.9904 20.859 26.7032 24.8205 22.9904 26.9641L22 27.5359C18.2872 29.6795 13.7128 29.6795 10 27.5359L9.00962 26.9641C5.29681 24.8205 3.00962 20.859 3.00962 16.5718V15.4282C3.00962 11.141 5.29681 7.17949 9.00962 5.0359L10 4.4641Z" fill="#BB9A8F"/>
<path d="M10 5.4641C13.7128 3.32051 18.2872 3.32051 22 5.4641L22.1244 5.5359C25.8372 7.67949 28.1244 11.641 28.1244 15.9282V16.0718C28.1244 20.359 25.8372 24.3205 22.1244 26.4641L22 26.5359C18.2872 28.6795 13.7128 28.6795 10 26.5359L9.87564 26.4641C6.16283 24.3205 3.87564 20.359 3.87564 16.0718V15.9282C3.87564 11.641 6.16283 7.67949 9.87564 5.5359L10 5.4641Z" fill="#F8F3F1"/>
<path d="M15.5241 21.1392C14.8414 21.1392 14.2315 21.0215 13.6946 20.7862C13.161 20.5509 12.7384 20.2244 12.4268 19.8068C12.1186 19.3859 11.9529 18.8987 11.9297 18.3452H13.4908C13.5107 18.6468 13.6117 18.9086 13.794 19.1307C13.9796 19.3494 14.2216 19.5185 14.5199 19.6378C14.8182 19.7571 15.1496 19.8168 15.5142 19.8168C15.9152 19.8168 16.2699 19.7472 16.5781 19.608C16.8897 19.4687 17.1333 19.2749 17.3089 19.0263C17.4846 18.7744 17.5724 18.4844 17.5724 18.1562C17.5724 17.8149 17.4846 17.5149 17.3089 17.2564C17.1366 16.9946 16.883 16.7891 16.5483 16.6399C16.2169 16.4908 15.8158 16.4162 15.3452 16.4162H14.4851V15.1634H15.3452C15.723 15.1634 16.0545 15.0954 16.3395 14.9595C16.6278 14.8236 16.8532 14.6347 17.0156 14.3928C17.178 14.1475 17.2592 13.8608 17.2592 13.5327C17.2592 13.2178 17.188 12.9444 17.0455 12.7124C16.9063 12.477 16.7074 12.2931 16.4489 12.1605C16.1937 12.0279 15.892 11.9616 15.544 11.9616C15.2126 11.9616 14.9027 12.023 14.6143 12.1456C14.3293 12.2649 14.0973 12.4373 13.9183 12.6626C13.7393 12.8847 13.6432 13.1515 13.63 13.4631H12.1435C12.16 12.9129 12.3224 12.429 12.6307 12.0114C12.9422 11.5937 13.3532 11.2673 13.8636 11.032C14.3741 10.7966 14.9408 10.679 15.5639 10.679C16.2169 10.679 16.7803 10.8066 17.2543 11.0618C17.7315 11.3137 18.0994 11.6501 18.358 12.071C18.6198 12.492 18.7491 12.9527 18.7457 13.4531C18.7491 14.0232 18.59 14.5071 18.2685 14.9048C17.9503 15.3026 17.526 15.5694 16.9957 15.7053V15.7848C17.6719 15.8875 18.1955 16.156 18.5668 16.5902C18.9413 17.0244 19.1269 17.563 19.1236 18.206C19.1269 18.7661 18.9711 19.2682 18.6562 19.7124C18.3447 20.1565 17.9188 20.5062 17.3786 20.7614C16.8383 21.0133 16.2202 21.1392 15.5241 21.1392Z" fill="#6C4B41"/>
</svg>
