<svg width="20" height="20" viewBox="0 0 20 20" fill="none" xmlns="http://www.w3.org/2000/svg">
<g clip-path="url(#clip0_7761_3445)">
<path d="M9.99994 20C15.5228 20 19.9999 15.5228 19.9999 10C19.9999 4.47715 15.5228 0 9.99994 0C4.47709 0 -6.10352e-05 4.47715 -6.10352e-05 10C-6.10352e-05 15.5228 4.47709 20 9.99994 20Z" fill="#F0F0F0"/>
<path d="M9.56488 9.99994H19.9996C19.9996 9.09737 19.8793 8.22299 19.6551 7.39124H9.56488V9.99994Z" fill="#D80027"/>
<path d="M9.56488 4.78205H18.5319C17.9198 3.78314 17.1371 2.90021 16.2245 2.17334H9.56488V4.78205Z" fill="#D80027"/>
<path d="M9.99968 20C12.3532 20 14.5163 19.1865 16.2245 17.826H3.77484C5.48304 19.1865 7.64621 20 9.99968 20Z" fill="#D80027"/>
<path d="M1.46748 15.2165H18.532C19.0235 14.4146 19.4046 13.538 19.6553 12.6078H0.344238C0.594902 13.538 0.976035 14.4146 1.46748 15.2165Z" fill="#D80027"/>
<path d="M4.63213 1.56164H5.54342L4.69576 2.17746L5.01955 3.17391L4.17193 2.55809L3.32431 3.17391L3.604 2.31309C2.85767 2.93477 2.20353 3.66313 1.66447 4.47469H1.95646L1.41689 4.86668C1.33283 5.00691 1.2522 5.14937 1.17494 5.29395L1.4326 6.08695L0.951892 5.7377C0.8324 5.99086 0.723103 6.24973 0.624861 6.51398L0.908728 7.38773H1.95646L1.10881 8.00355L1.4326 9L0.584978 8.38418L0.0772437 8.75309C0.0264233 9.1616 -6.10352e-05 9.5777 -6.10352e-05 10H9.99994C9.99994 4.47719 9.99994 3.82609 9.99994 0C8.02447 0 6.18295 0.573047 4.63213 1.56164ZM5.01955 9L4.17193 8.38418L3.32431 9L3.6481 8.00355L2.80045 7.38773H3.84818L4.17193 6.39129L4.49568 7.38773H5.54342L4.69576 8.00355L5.01955 9ZM4.69576 5.09051L5.01955 6.08695L4.17193 5.47113L3.32431 6.08695L3.6481 5.09051L2.80045 4.47469H3.84818L4.17193 3.47824L4.49568 4.47469H5.54342L4.69576 5.09051ZM8.6065 9L7.75888 8.38418L6.91127 9L7.23506 8.00355L6.3874 7.38773H7.43513L7.75888 6.39129L8.08263 7.38773H9.13037L8.28271 8.00355L8.6065 9ZM8.28271 5.09051L8.6065 6.08695L7.75888 5.47113L6.91127 6.08695L7.23506 5.09051L6.3874 4.47469H7.43513L7.75888 3.47824L8.08263 4.47469H9.13037L8.28271 5.09051ZM8.28271 2.17746L8.6065 3.17391L7.75888 2.55809L6.91127 3.17391L7.23506 2.17746L6.3874 1.56164H7.43513L7.75888 0.565195L8.08263 1.56164H9.13037L8.28271 2.17746Z" fill="#0052B4"/>
</g>
<defs>
<clipPath id="clip0_7761_3445">
<rect width="20" height="20" fill="white"/>
</clipPath>
</defs>
</svg>
