<svg width="24" height="24" viewBox="0 0 24 24" fill="none" xmlns="http://www.w3.org/2000/svg">
<path d="M23.2971 8.89706C23.7471 9.34714 24 9.95759 24 10.5941V21.6C24 22.9255 22.9255 24 21.6 24H16.8C15.4745 24 14.4 22.9255 14.4 21.6V14.4C14.4 13.4626 15.0514 12.6565 15.6866 11.8706C15.9496 11.5452 16.2097 11.2233 16.4197 10.897C16.6604 10.523 16.8 10.0778 16.8 9.60003C16.8 8.27455 15.7255 7.20004 14.4 7.20004C13.9222 7.20004 13.477 7.33965 13.103 7.5803C12.7767 7.79029 12.4548 8.05045 12.1294 8.31339C11.3435 8.94856 10.5374 9.6 9.60002 9.6H2.4C1.07451 9.6 0 8.52548 0 7.2V2.4C0 1.07452 1.07452 0 2.4 0H13.4059C14.0424 0 14.6529 0.252857 15.1029 0.702944L23.2971 8.89706Z" fill="#FAFAFA"/>
</svg>
